<svg width="64" height="64" viewBox="0 0 64 64" fill="none" xmlns="http://www.w3.org/2000/svg">
<path d="M54.5302 32.0003L34.9302 51.6003C34.2635 52.267 33.9413 53.0447 33.9635 53.9336C33.9858 54.8225 34.3302 55.6003 34.9969 56.267C35.6635 56.9336 36.4413 57.267 37.3302 57.267C38.2191 57.267 38.9969 56.9336 39.6635 56.267L60.1969 35.8003C60.7302 35.267 61.1302 34.667 61.3969 34.0003C61.6635 33.3336 61.7969 32.667 61.7969 32.0003C61.7969 31.3336 61.6635 30.667 61.3969 30.0003C61.1302 29.3336 60.7302 28.7336 60.1969 28.2003L39.6635 7.66696C38.9969 7.00029 38.208 6.67807 37.2969 6.70029C36.3858 6.72252 35.5969 7.06696 34.9302 7.73363C34.2635 8.40029 33.9302 9.17807 33.9302 10.067C33.9302 10.9558 34.2635 11.7336 34.9302 12.4003L54.5302 32.0003Z" fill="white"/>
</svg>
