<svg width="197" height="78" viewBox="0 0 197 78" fill="none" xmlns="http://www.w3.org/2000/svg">
<g clip-path="url(#clip0_1408_27781)">
<g clip-path="url(#clip1_1408_27781)">
<path d="M29.9847 61.8853C24.7949 61.5738 19.9349 59.4363 15.8386 55.6459C13.2263 53.2315 10.8397 49.3113 9.80698 45.7632C9.60737 45.0796 9.19948 43.3142 9.19948 43.1498C9.19948 43.1411 9.77226 43.1065 10.4752 43.0892C11.4733 43.0546 11.8898 43.0026 12.3585 42.8555C12.6883 42.743 12.9833 42.6911 13.018 42.7344C13.0528 42.769 13.1482 43.1324 13.2263 43.5392C13.695 45.8065 15.1356 48.8959 16.6544 50.8776C17.8694 52.4613 19.1364 53.6296 20.9589 54.8324C21.6272 55.2738 22.6513 55.8796 23.2327 56.1738C24.413 56.7622 26.4525 57.4719 27.0166 57.4978H27.3216L27.3377 40.7699H20.3948V31.5969H28.813H37.2313V44.318C37.2313 55.6199 37.2486 57.0392 37.3614 57.0392C37.4309 57.0392 37.8301 56.9007 38.2467 56.7363C38.993 56.4421 39.453 56.0959 39.8435 55.5507L40.0171 55.3171L39.2013 54.469C38.7587 54.0017 38.2119 53.4219 37.995 53.1882L37.5871 52.7469L38.8021 51.4661C39.4617 50.7565 40.0084 50.1507 40.0084 50.1161C40.0084 50.0901 39.4617 49.493 38.7847 48.7921L37.561 47.5199L38.7847 46.2478C39.4617 45.5469 40.0084 44.9498 40.0084 44.9238C40.0084 44.8978 39.4617 44.2921 38.8021 43.5824L37.5958 42.293L38.3768 41.4449C38.8108 40.9776 39.1926 40.5709 39.2273 40.5536C39.2707 40.5276 39.4617 40.3199 39.6526 40.0863L40.0084 39.6709L38.7934 38.3815L37.5871 37.0921L37.9169 36.7459C38.0904 36.5555 38.6372 35.9757 39.1232 35.4565C39.6179 34.9373 40.0084 34.4873 39.991 34.444C39.9737 34.4094 39.5832 33.968 39.1232 33.4661L38.2727 32.5661L39.0104 31.9171L39.7394 31.268L40.5465 32.0988C40.9891 32.5574 41.6834 33.2757 42.0826 33.6911L42.8029 34.4526L41.5705 35.7507C40.8936 36.4603 40.3555 37.0834 40.3729 37.1267C40.3816 37.1699 40.8329 37.6546 41.3536 38.1911C41.883 38.7363 42.421 39.3074 42.5599 39.4546L42.8116 39.7228L41.7007 40.8478C41.0932 41.4623 40.5378 42.0507 40.4684 42.1546C40.3469 42.3276 40.3989 42.3969 41.5705 43.6257L42.8029 44.9238L41.5966 46.1873C40.937 46.8796 40.3989 47.4767 40.3989 47.5199C40.3989 47.5546 40.937 48.1603 41.5966 48.8526L42.7942 50.1248L41.5792 51.4055C40.9023 52.1151 40.3555 52.7209 40.3555 52.7555C40.3555 52.8853 42.0392 54.5296 42.178 54.5296C42.3863 54.5296 43.6794 53.4651 44.5473 52.5824C47.3418 49.7353 49.2164 46.0315 49.7631 42.2411C50.3099 38.5026 49.7458 34.868 48.0882 31.4671C44.365 23.8171 36.0249 19.6805 27.6848 21.3507C23.3195 22.2248 19.0497 24.9161 16.4548 28.4296C15.8125 29.2949 15.3526 30.0738 14.693 31.4065C14.3806 32.0296 14.1115 32.5488 14.0855 32.5488C14.0682 32.5488 13.7904 32.419 13.4693 32.2546C12.7143 31.8738 11.9853 31.6401 11.1608 31.5103C10.7963 31.4498 10.5013 31.3546 10.5013 31.3026C10.5013 31.1209 11.8812 28.4296 12.3672 27.6594C14.4587 24.3623 17.3313 21.6882 20.7854 19.8103C23.0071 18.5988 25.1247 17.8719 27.815 17.3959C29.1255 17.1623 32.1543 17.0757 33.6036 17.2228C40.3122 17.9238 46.4392 21.6709 50.1884 27.3565C51.0475 28.6632 52.2452 31.1209 52.6618 32.4449C53.4342 34.868 53.7466 36.9103 53.7466 39.5151C53.7466 41.4709 53.599 42.8123 53.1912 44.6555C52.8614 46.1613 52.6097 46.9401 51.9675 48.3767C49.5028 53.9498 45.0333 58.2161 39.2968 60.4574C36.4328 61.5738 33.1697 62.0671 29.9847 61.8853Z" fill="#111111"/>
<path d="M29.7321 33.9336C28.8445 33.9336 28.125 34.6531 28.125 35.5407V35.63C28.125 36.0245 28.4448 36.3443 28.8393 36.3443H30.625C31.0195 36.3443 31.3393 36.0245 31.3393 35.63V35.5407C31.3393 34.6531 30.6197 33.9336 29.7321 33.9336Z" fill="white"/>
<path d="M9.37298 41.5321C7.10788 41.3071 4.99031 40.2686 3.2112 38.5032C2.24788 37.5513 0.894022 35.7686 0.408022 34.834L0.269165 34.5657L0.980808 34.7994C1.73584 35.059 3.10706 35.3186 3.66249 35.3186C3.85341 35.3186 4.59109 35.2061 5.31141 35.059C7.53313 34.6176 8.38363 34.7301 10.4925 35.7513C11.2302 36.1147 11.7769 36.3311 11.8203 36.2878C11.8724 36.2359 11.6902 36.0195 11.3951 35.7513C9.90238 34.4186 8.44438 33.8388 6.8562 33.9599C6.4917 33.9859 6.11852 34.0378 6.03173 34.0638C5.93627 34.0897 6.2487 33.9167 6.7347 33.6744C7.87159 33.1119 8.72209 32.8955 9.79823 32.8955C11.8551 32.8955 13.3651 33.6311 15.0488 35.4397C15.9513 36.409 16.4026 36.7724 16.9494 36.9715C17.1229 37.032 17.2705 37.1099 17.2705 37.1445C17.2705 37.2224 16.0034 37.7849 15.448 37.9494C14.2156 38.3128 12.315 38.4513 11.1261 38.2609C10.8223 38.209 10.2756 38.0705 9.91105 37.958C9.54655 37.8455 9.22545 37.7676 9.19941 37.7936C9.05188 37.9494 10.8223 38.9272 11.803 39.2215C12.6708 39.4811 13.7991 39.4811 14.9186 39.2215C15.3612 39.1176 15.7431 39.0484 15.7604 39.0571C15.8212 39.1263 14.6843 39.9917 13.9987 40.3984C12.3584 41.3849 11.0653 41.6965 9.37298 41.5321Z" fill="#111111"/>
</g>
</g>
<g clip-path="url(#clip2_1408_27781)">
<g clip-path="url(#clip3_1408_27781)">
<path d="M114.48 48.2294C114.002 47.3899 113.082 45.7197 113.082 45.6765C113.082 45.6505 113.369 45.5467 113.716 45.4428C114.497 45.2005 114.74 45.0794 115.174 44.6899C115.582 44.3178 115.807 43.9111 115.99 43.2188C116.068 42.9419 116.276 40.8649 116.467 38.6063C116.866 33.838 116.97 32.6784 117.04 32.0553L117.083 31.5967H123.201H129.311V39.9044V48.2121H126.925H124.538V41.5919V34.9717H122.941H121.344L121.292 35.3871C121.266 35.6121 121.162 36.7717 121.067 37.9573C120.589 43.9111 120.312 45.2178 119.218 46.6457C118.446 47.6496 116.797 48.5063 115.148 48.7572C114.818 48.8092 114.818 48.8092 114.48 48.2294Z" fill="#111111"/>
<path d="M95.6383 40.078V31.5972H98.0683H100.498V35.7944C100.498 39.2386 100.516 39.9915 100.611 39.9915C100.741 39.9915 102.399 38.5809 104.404 36.7549C108.873 32.679 110.635 31.1646 110.887 31.1646H111.086V39.6886V48.2126H108.656H106.226V43.9722C106.226 41.6444 106.2 39.7319 106.157 39.7319C106.044 39.7319 100.446 44.6472 98.3721 46.5684C96.9835 47.8492 96.0896 48.5588 95.8553 48.5588H95.6383V40.078Z" fill="#111111"/>
<path d="M165.24 44.2751C162.845 41.9213 160.832 39.9915 160.762 39.9915C160.658 39.9915 160.641 40.5713 160.641 44.102V48.2126L158.237 48.1953L155.824 48.1694L155.798 39.6713L155.781 31.1646H156.006C156.275 31.1646 156.345 31.2251 158.948 33.7174C160.597 35.2924 163.114 37.6722 164.52 38.9876C164.815 39.2645 165.101 39.4636 165.145 39.429C165.214 39.3944 165.24 38.1309 165.24 35.4828V31.5972H167.67H170.1V40.078V48.5588H169.849C169.623 48.5588 168.998 47.9703 165.24 44.2751Z" fill="#111111"/>
<path d="M66.3912 39.9044V31.5967H72.2926H78.194V33.3707V35.1448L74.7052 35.1621L71.2078 35.188L71.1817 41.7044L71.1644 48.2121H68.7778H66.3912V39.9044Z" fill="#111111"/>
<path d="M80.2771 39.9044V31.5967H83.7746C85.6925 31.5967 87.6279 31.6399 88.0705 31.6832C89.0164 31.7871 90.0318 32.038 90.5699 32.3063C91.5072 32.7649 92.566 33.864 93.0346 34.8505C93.7636 36.3563 93.7202 38.2861 92.9392 39.8265C92.5313 40.64 91.3683 41.765 90.5178 42.1717C89.433 42.6909 88.9557 42.7775 86.8989 42.8207L85.0503 42.864V45.538V48.2121H82.6637H80.2771V39.9044ZM87.5064 39.2207C88.6953 38.7621 89.164 37.5419 88.6259 36.3303C88.2267 35.439 87.6018 35.1275 86.1178 35.0755L85.0503 35.0409V37.1957C85.0503 38.3813 85.0764 39.3851 85.1197 39.4198C85.2499 39.5669 86.9856 39.4111 87.5064 39.2207Z" fill="#111111"/>
<path d="M132.609 39.913V31.5967H135.039H137.469V34.7121V37.8274H138.936C143.162 37.8274 145.123 38.6063 146.139 40.6919C147.501 43.5044 146.486 46.5592 143.813 47.6842C142.763 48.1255 142.529 48.1428 137.408 48.1861L132.609 48.2294V39.913ZM140.654 44.7073C140.966 44.6121 141.192 44.465 141.452 44.188C141.643 43.9803 141.808 43.7726 141.808 43.738C141.817 43.6948 141.852 43.4957 141.895 43.2794C142.025 42.6217 141.86 42.0938 141.383 41.6265C140.819 41.0813 140.428 40.9861 138.814 40.9861H137.512L137.486 42.9159L137.469 44.8371H138.84C139.812 44.8371 140.342 44.8025 140.654 44.7073Z" fill="#111111"/>
<path d="M183.205 46.6537V45.0961H185.158H187.11V41.1585C187.11 37.9826 187.084 37.221 186.997 37.221C186.937 37.221 186.13 37.5326 185.201 37.9134C184.281 38.2941 183.457 38.623 183.361 38.6576C183.214 38.7009 183.205 38.6057 183.205 36.7884V34.8759L183.708 34.6509C183.977 34.5297 185.392 33.898 186.85 33.2403C188.308 32.5826 189.584 32.0201 189.696 31.9855C189.809 31.9508 190.191 31.7951 190.547 31.6307C190.903 31.4662 191.293 31.3364 191.415 31.3364H191.623V38.2162V45.0961H193.402H195.181V46.6537V48.2114H189.193H183.205V46.6537Z" fill="#111111"/>
<path d="M171.749 41.2887V40.0771H175.915H180.081V41.2887V42.5002H175.915H171.749V41.2887Z" fill="#111111"/>
<path d="M174.283 38.7793C173.441 38.5543 172.877 38.2427 172.365 37.6975C171.602 36.8927 171.263 35.9668 171.341 34.8504C171.445 33.2408 172.357 32.0379 173.867 31.51C174.578 31.2591 175.524 31.1379 176.288 31.1985C178.475 31.3802 179.95 32.5831 180.271 34.4437C180.54 36.0014 179.751 37.6197 178.353 38.3725C177.312 38.9437 175.568 39.1168 174.283 38.7793ZM176.67 36.3735C177.26 35.9581 177.46 34.8245 177.06 34.1754C176.661 33.535 175.637 33.31 175.064 33.7341C174.63 34.0629 174.492 34.3398 174.457 34.9543C174.422 35.6725 174.665 36.2091 175.134 36.46C175.542 36.685 176.297 36.6418 176.67 36.3735Z" fill="#111111"/>
</g>
</g>
<defs>
<clipPath id="clip0_1408_27781">
<rect width="54" height="45" fill="white" transform="translate(0 17.0586)"/>
</clipPath>
<clipPath id="clip1_1408_27781">
<rect width="195.268" height="45" fill="white" transform="translate(0 17.0586)"/>
</clipPath>
<clipPath id="clip2_1408_27781">
<rect width="133.875" height="45" fill="white" transform="translate(62.9922 17.0586)"/>
</clipPath>
<clipPath id="clip3_1408_27781">
<rect width="195.268" height="45" fill="white" transform="translate(0 17.0586)"/>
</clipPath>
</defs>
</svg>
