<svg width="193" height="78" viewBox="0 0 193 78" fill="none" xmlns="http://www.w3.org/2000/svg">
<path fill-rule="evenodd" clip-rule="evenodd" d="M50.9349 45.0469C54.8233 35.103 48.9285 23.9442 38.5647 21.6269C36.5817 21.1834 32.9727 21.1708 31.0006 21.6008C26.6254 22.555 22.6739 25.3262 20.1212 29.2306C16.8764 34.1952 16.4725 40.8495 19.0937 46.2351C20.8405 49.8262 23.7014 52.6591 27.3393 54.3999C29.7242 55.5403 31.929 56.0195 34.7953 56.0195C37.5931 56.0195 39.6229 55.5737 42.0854 54.4189C46.2569 52.4622 49.2944 49.2461 50.9349 45.0469ZM46.8932 34.1573C46.201 30.7298 44.4938 27.7256 41.7555 25.113C41.4779 24.8493 41.2291 24.6032 41.029 24.3963C40.6757 24.0321 40.472 23.7896 40.5279 23.7896C41.0759 23.7896 44.5695 26.0934 45.6926 27.1941C49.0438 30.4819 50.5221 33.9869 50.5221 38.6382C50.5221 43.2944 49.0294 46.8292 45.6926 50.0687C42.5992 53.072 39.1344 54.4793 34.8205 54.4851C30.7247 54.4901 27.9558 53.4299 25.2698 50.8282C22.8127 48.4487 21.5129 44.9928 21.5039 40.8162C21.4985 37.4834 22.261 35.3464 24.226 33.1913C26.1603 31.0692 28.63 30.0118 31.6603 30.0077C34.5735 30.0036 36.7223 31.0422 38.1898 33.1629C39.0803 34.4507 39.3813 35.903 39.0857 37.4879C38.8117 38.9514 36.6088 40.8901 35.6425 40.5182C35.5254 40.4732 35.3956 40.2771 35.2964 40.0179C35.2387 39.8656 35.1901 39.6916 35.1594 39.5135C34.7682 37.1787 34.0273 36.2208 32.6158 36.2208C31.6441 36.2208 30.3606 37.3085 29.9838 38.452C29.6017 39.6149 29.8234 42.1143 30.4129 43.2719C31.5666 45.5364 34.058 46.876 37.0739 46.8544C43.9602 46.8053 48.3138 41.1772 46.8932 34.1573Z" fill="#111111"/>
<path d="M76.1602 32.7676V26.5518H55.95V32.7676H62.1513V51.4151H69.9588V32.7676H76.1602Z" fill="#111111"/>
<path d="M116.137 38.178L116.123 26.5518H108.773V51.4151H116.123V46.2134L117.896 44.4772L121.893 51.4151H125.897C128.195 51.4151 129.902 51.3245 129.902 51.2019C129.902 50.9914 128.026 47.8925 124.667 42.5588L122.933 39.8029L129.783 33.2283H120.948L116.137 38.178Z" fill="#111111"/>
<path d="M159.413 33.5736L159.285 27.9334H152.193L152.065 33.5736L149.653 33.7129V37.6024H151.95L151.951 42.4943C151.951 45.1975 152.06 47.7753 152.193 48.2558C152.528 49.4697 153.613 50.6195 154.888 51.1122C155.387 51.3051 155.896 51.4155 156.662 51.4701C157.172 51.5066 157.796 51.5178 158.609 51.5124C160.062 51.5034 161.535 51.4236 161.882 51.3357L162.513 51.1762V46.3505H161.365C160.523 46.3505 160.094 46.2274 159.757 45.8898C159.335 45.4657 159.299 45.1226 159.299 41.5158V37.6024H165.041L165.044 42.7247C165.048 46.4095 165.086 47.5801 165.306 48.332C165.353 48.4924 165.407 48.634 165.472 48.7769C165.971 49.8803 166.995 50.7989 168.192 51.2199C169.135 51.5517 173.301 51.6256 174.743 51.3366L175.605 51.164V46.3505H174.456C173.614 46.3505 173.185 46.2274 172.848 45.8898C172.574 45.6153 172.463 45.3751 172.417 44.264C172.392 43.6568 172.389 42.79 172.389 41.5158V37.6024H175.605V33.7097L172.504 33.5736L172.374 27.9334H165.284L165.154 33.5736H159.413Z" fill="#111111"/>
<path fill-rule="evenodd" clip-rule="evenodd" d="M91.741 35.8755C90.818 34.2037 89.0044 33.1598 86.3563 32.7762C84.8204 32.5535 82.6175 32.5125 81.4421 32.6842C78.5217 33.112 76.7551 33.8368 75.5382 35.1075C74.8045 35.8742 74.0943 37.4725 74.0943 38.3538C74.0943 38.6206 74.1339 38.7301 74.4386 38.7418C74.617 38.7486 74.8893 38.7216 75.2985 38.6724C75.9619 38.5922 77.4545 38.5259 78.6136 38.525C80.5173 38.5232 80.7372 38.4786 80.8688 38.0639C81.1501 37.1732 81.6494 36.9118 83.0663 36.9118C84.595 36.9118 85.3467 37.3986 85.3467 38.3889C85.3467 39.02 84.7537 39.203 81.2131 39.6645C77.0309 40.2099 74.9145 41.2971 73.8833 43.431C73.1749 44.8982 73.2254 47.0491 74.0023 48.6137C75.0605 50.7426 76.8488 51.6567 79.9783 51.6684C82.1397 51.6765 83.4485 51.3826 84.8294 50.5807L85.8064 50.0146V51.4151H89.3668C91.3245 51.4151 92.9253 51.3321 92.9253 51.2307C92.9253 51.1298 92.7973 50.9175 92.6387 50.7592C92.4278 50.5474 92.3214 48.6448 92.2367 43.5193C92.1394 37.6172 92.0636 36.462 91.741 35.8755ZM82.3074 43.9214C83.0321 43.7199 83.883 43.4666 84.1984 43.3589C85.1629 43.0307 85.3467 43.0952 85.3467 43.7641C85.3467 46.03 81.9523 48.0124 80.5245 46.5804C79.533 45.5874 80.2685 44.4902 82.3074 43.9214Z" fill="#111111"/>
<path fill-rule="evenodd" clip-rule="evenodd" d="M149.099 41.8516C148.69 37.327 146.851 34.6035 143.257 33.1972C141.411 32.4746 137.45 32.3588 135.588 32.9727C132.875 33.867 131.172 35.3824 129.955 37.9855C129.38 39.2178 129.327 39.5568 129.333 42.0914C129.338 45.2813 129.758 46.6966 131.269 48.6114C134.079 52.1755 139.976 53.1356 144.728 50.8025C145.963 50.1967 148.935 47.3958 148.649 47.1086C148.569 47.0298 147.216 46.4253 145.64 45.7645L142.776 44.5637L142.327 45.3277C141.18 47.2741 138.164 47.3994 137.023 45.5477C136.769 45.1366 136.562 44.5272 136.562 44.1936V43.5878H149.256L149.099 41.8516ZM136.908 38.8108C137.102 38.3362 137.476 37.7664 137.741 37.5447C137.888 37.4198 138.103 37.3197 138.359 37.2503C138.62 37.18 138.923 37.1417 139.246 37.1417C140.073 37.1417 140.401 37.272 140.944 37.8147C141.337 38.2104 141.615 38.7319 141.615 39.0808V39.674H136.556L136.908 38.8108Z" fill="#111111"/>
<path d="M106.936 38.9834V32.7676L105.845 32.7753C104.528 32.7843 102.671 33.3955 101.751 34.1226L101.079 34.6554L101.007 33.8269L100.937 32.998H94.0737V51.4151H101.162L101.236 46.4077C101.301 41.8926 101.353 41.3242 101.768 40.621C102.444 39.4748 103.527 38.9834 105.382 38.9834H106.936Z" fill="#111111"/>
</svg>
