<svg width="64" height="64" viewBox="0 0 64 64" fill="none" xmlns="http://www.w3.org/2000/svg">
<path d="M32.3353 12.4161C31.8553 10.7041 30.7353 9.85606 29.7273 9.98406C29.1138 10.042 28.5242 10.2505 28.0106 10.591C27.4971 10.9316 27.0755 11.3936 26.7833 11.9361C25.3753 15.1361 28.3833 24.4481 28.7673 26.0001C26.1433 33.9201 17.7113 48.8961 12.6073 52.2881C12.4781 52.3686 12.3275 52.4081 12.1754 52.4012C12.0233 52.3943 11.8769 52.3414 11.7555 52.2495C11.6341 52.1576 11.5435 52.031 11.4956 51.8865C11.4477 51.7419 11.4448 51.5863 11.4873 51.4401C11.9993 49.8401 13.6153 47.3441 18.1273 44.4481C18.4433 44.1156 18.7373 43.7628 19.0073 43.3921C13.6473 46.0001 6.7033 50.2081 10.8793 53.3441C11.1792 53.5513 11.5081 53.7131 11.8553 53.8241C15.0553 55.0081 19.5353 51.1361 24.0313 42.3521C28.7823 40.6669 33.6773 39.419 38.6553 38.6241C44.8473 42.8321 48.9913 43.6961 51.8073 42.6081C52.3642 42.3658 52.8633 42.0081 53.2715 41.5585C53.6797 41.1089 53.9878 40.5777 54.1753 40.0001C51.8873 42.8161 46.5273 40.8481 42.2553 38.1601C46.1913 37.7281 50.2553 37.4721 52.0313 38.0321C54.2713 38.7361 54.1913 39.8401 54.1753 40.0001C54.3374 39.6264 54.421 39.2234 54.421 38.8161C54.421 38.4087 54.3374 38.0058 54.1753 37.6321C52.2873 34.5601 43.6313 36.3521 40.4793 36.6721C36.0105 33.7583 32.5907 29.4918 30.7193 24.4961C32.0153 19.5361 33.3913 15.9361 32.3193 12.3681M30.1753 22.7521C29.4393 20.1121 28.4313 14.5601 29.5833 11.9361C29.6299 11.8272 29.7016 11.7309 29.7924 11.655C29.8833 11.5791 29.9908 11.5257 30.1062 11.4992C30.2216 11.4727 30.3416 11.4738 30.4565 11.5025C30.5714 11.5311 30.6779 11.5865 30.7673 11.6641C33.3753 13.9841 31.3433 18.5441 30.1753 22.7521ZM37.0073 37.3441C32.6502 38.2092 28.397 39.5339 24.3193 41.2961C26.4381 36.7397 28.2033 32.0271 29.5993 27.2001C31.3873 31.0294 33.9097 34.4705 37.0233 37.3281" fill="black"/>
</svg>
