<svg width="64" height="65" viewBox="0 0 64 65" fill="none" xmlns="http://www.w3.org/2000/svg">
<path d="M54.5302 32.2461L34.9302 51.8461C34.2635 52.5128 33.9413 53.2906 33.9635 54.1795C33.9858 55.0684 34.3302 55.8461 34.9969 56.5128C35.6635 57.1795 36.4413 57.5128 37.3302 57.5128C38.2191 57.5128 38.9969 57.1795 39.6635 56.5128L60.1969 36.0461C60.7302 35.5128 61.1302 34.9128 61.3969 34.2461C61.6635 33.5795 61.7969 32.9128 61.7969 32.2461C61.7969 31.5795 61.6635 30.9128 61.3969 30.2461C61.1302 29.5795 60.7302 28.9795 60.1969 28.4461L39.6635 7.91281C38.9969 7.24614 38.208 6.92392 37.2969 6.94614C36.3858 6.96837 35.5969 7.31281 34.9302 7.97948C34.2635 8.64614 33.9302 9.42392 33.9302 10.3128C33.9302 11.2017 34.2635 11.9795 34.9302 12.6461L54.5302 32.2461Z" fill="black"/>
</svg>
