<svg width="49" height="49" viewBox="0 0 49 49" fill="none" xmlns="http://www.w3.org/2000/svg">
<g clip-path="url(#clip0_1757_81)">
<path fill-rule="evenodd" clip-rule="evenodd" d="M3.3397 23.5936C16.2342 18.002 24.8325 14.3158 29.1345 12.5351C41.4178 7.45078 43.9698 6.5683 45.6323 6.54187C45.9979 6.53605 46.8153 6.62807 47.3441 7.05868C47.7906 7.42227 47.9128 7.91261 47.9711 8.25671C48.0294 8.60081 48.1013 9.38458 48.042 9.9968C47.3649 16.9845 44.4576 33.9397 42.98 41.7649C42.3547 45.076 41.1329 46.1845 39.9516 46.2911C37.3845 46.5229 35.4388 44.5871 32.9556 42.9532C29.0699 40.3966 26.875 38.8054 23.1032 36.3106C18.7444 33.4275 21.576 31.8518 24.0673 29.273C24.7193 28.5982 36.0459 18.3312 36.2664 17.3984C36.294 17.2818 36.3202 16.8468 36.0621 16.6167C35.8041 16.3865 35.4225 16.4644 35.1471 16.5264C34.7568 16.6143 28.5353 20.7111 16.4827 28.817C14.7167 30.0252 13.1179 30.6126 11.6865 30.5792C10.1084 30.5424 7.07418 29.679 4.81872 28.9416C2.05231 28.0371 -0.146792 27.5576 0.0473928 26.0299C0.148536 25.2341 1.24597 24.422 3.3397 23.5936Z" fill="#222222"/>
</g>
<defs>
<clipPath id="clip0_1757_81">
<rect width="48" height="48" fill="white" transform="translate(0.0810547 0.463379) rotate(0.0983062)"/>
</clipPath>
</defs>
</svg>
