<svg width="193" height="78" viewBox="0 0 193 78" fill="none" xmlns="http://www.w3.org/2000/svg">
<path d="M111.882 9.39541C113.376 7.95951 114.811 6.59686 115.062 6.33313C115.314 6.06939 115.61 5.86426 115.713 5.84961C115.802 5.84961 115.92 5.90822 115.965 5.99613C116.009 6.06939 115.935 6.81665 115.831 7.63716C115.713 8.47233 115.432 10.6555 115.225 12.5163C115.003 14.3625 114.737 16.5749 114.619 17.4247C114.5 18.2746 114.338 19.6225 114.264 20.4284C114.19 21.2343 114.057 22.3918 113.968 22.9925C113.879 23.5933 113.687 25.205 113.509 26.5823C113.347 27.9596 113.154 29.6739 113.08 30.3918C113.006 31.1098 112.873 32.2087 112.785 32.8094C112.696 33.4101 112.563 34.4651 112.489 35.1537C112.415 35.8424 112.282 36.9266 112.193 37.5713C112.119 38.216 112.015 38.8607 111.971 38.9926C111.927 39.1391 111.808 39.2563 111.72 39.2563C111.616 39.2563 110.729 38.3625 109.752 37.249C108.776 36.1354 107.637 34.8753 107.223 34.4211C106.809 33.9816 106.128 33.2197 105.729 32.7361C105.315 32.2526 104.812 31.6958 104.22 31.1244L103.067 31.7398C102.431 32.0621 101.499 32.575 100.996 32.868C100.478 33.1611 100.035 33.3955 99.9902 33.3955C99.9458 33.3955 98.6294 34.0841 97.0763 34.9193C95.5085 35.7545 93.6004 36.7801 92.8609 37.1904C92.1065 37.6006 91.4557 37.9376 91.4113 37.9376C91.367 37.9376 90.6866 38.2893 89.9026 38.7288C89.1039 39.1537 87.2846 40.1061 85.8647 40.8241C84.4447 41.5567 82.6846 42.4651 81.945 42.8461C81.2203 43.227 80.3476 43.6959 80.0222 43.8717C79.6968 44.0475 78.7649 44.5457 77.9514 44.9706C77.1379 45.3955 75.289 46.3479 73.8543 47.1098C72.4047 47.8717 71.1475 48.4725 71.0588 48.4432C70.9848 48.4285 71.5912 47.7399 72.4343 46.934C73.2774 46.1135 75.1411 44.2966 76.5906 42.9047C78.0402 41.4981 79.7411 39.857 80.3624 39.2563C80.9836 38.6409 81.7675 37.9376 82.0929 37.6592C82.4183 37.3955 83.3206 36.575 84.0897 35.8277C84.8589 35.0951 86.3971 33.6299 87.4917 32.5896C88.5862 31.5493 91.1895 29.0731 93.2602 27.0951C95.331 25.1171 97.9934 22.5823 99.1767 21.4541L99.2234 21.4096C100.412 20.2767 102.358 18.4206 103.584 17.2782C104.842 16.1061 106.602 14.4357 107.504 13.5712C108.421 12.6921 110.388 10.8167 111.882 9.39541Z" fill="#111111"/>
<path d="M124.218 13.3808C123.626 13.1024 123.138 12.824 123.138 12.7361C123.138 12.6482 123.212 12.5896 123.286 12.5896C123.36 12.5896 123.981 12.7654 124.647 12.9705C125.327 13.1756 126.274 13.5566 126.747 13.8203C127.221 14.0694 127.931 14.6115 128.3 15.0071C128.744 15.4907 129.055 15.9888 129.188 16.4724C129.321 16.9119 129.365 17.5566 129.321 18.0841C129.276 18.5676 129.084 19.3295 128.892 19.7691C128.685 20.2086 128.212 20.9998 127.842 21.5273C127.472 22.0548 126.673 22.9632 126.082 23.564C125.475 24.1647 124.455 25.0878 123.804 25.6299C123.153 26.1574 121.984 27.0365 121.215 27.564C120.446 28.0914 118.938 29.0292 117.887 29.6592C116.837 30.2893 115.299 31.1244 114.485 31.52C113.672 31.9156 112.962 32.3552 112.903 32.4871C112.829 32.6189 112.829 32.5017 112.873 32.2233C112.932 31.9449 113.021 31.2123 113.08 30.6116C113.139 30.0109 113.199 29.6592 113.213 29.835C113.218 29.9509 113.222 30.027 113.261 30.0584C113.337 30.1183 113.544 30.0158 114.145 29.7178C114.663 29.4541 115.61 28.9559 116.26 28.5896C116.911 28.2233 118.109 27.4907 118.923 26.9632C119.736 26.4504 120.993 25.542 121.733 24.9706C122.473 24.3845 123.552 23.4321 124.159 22.8314C124.75 22.2306 125.52 21.3515 125.845 20.868C126.17 20.3845 126.614 19.6225 126.821 19.183C127.087 18.5823 127.191 18.1134 127.191 17.3515C127.206 16.531 127.132 16.1793 126.836 15.6079C126.629 15.2123 126.2 14.6702 125.875 14.3771C125.549 14.0987 124.795 13.6445 124.218 13.3808Z" fill="#111111"/>
<path d="M83.1282 19.7984C83.3649 19.7105 84.6369 19.2123 85.9385 18.6848C87.2401 18.172 88.4086 17.7471 88.5566 17.7617C88.6897 17.7764 88.7636 17.835 88.734 17.8936C88.7045 17.9669 88.6157 17.9815 88.527 17.9376C88.4382 17.8936 88.3643 17.9229 88.3347 17.9815C88.3199 18.0548 87.536 18.4504 86.6041 18.8753C85.6723 19.3002 84.134 20.0475 83.2022 20.531C82.2703 21.0145 80.6729 21.9229 79.6671 22.5383C78.6761 23.1537 77.0047 24.3112 75.9693 25.1317C74.9487 25.9376 73.7211 27.0218 73.2625 27.5493C72.7892 28.0621 72.2567 28.7215 72.0645 28.9999C71.8574 29.2783 71.5764 29.7471 71.4136 30.0255C71.2509 30.3039 70.9995 30.9046 70.8516 31.3442C70.6741 31.901 70.6149 32.4285 70.6593 33.0292C70.7037 33.6006 70.8516 34.1427 71.103 34.5677C71.3101 34.934 71.7391 35.4321 72.0497 35.6812C72.3603 35.9303 73.0407 36.3552 73.5436 36.6043C74.0613 36.8534 74.9931 37.1904 75.6143 37.3515C76.2503 37.5127 77.4336 37.7178 78.2471 37.8058C79.0607 37.8937 80.096 38.0255 81.3533 38.26L80.2439 39.3442C79.8152 39.7689 79.2608 40.3108 78.5441 41.0113L78.5438 41.0116C78.2469 41.3018 77.922 41.6193 77.5668 41.9669L75.2445 41.923C73.9725 41.8937 72.3159 41.8204 71.5911 41.7472C70.8664 41.6739 69.7275 41.5127 69.0767 41.3955C68.4258 41.2636 67.494 41.0292 67.0059 40.868C66.5178 40.6922 65.7191 40.3552 65.2458 40.0915C64.7576 39.8277 64.0773 39.2856 63.7223 38.89C63.2785 38.3918 62.9827 37.8937 62.8348 37.3515C62.6869 36.8094 62.6425 36.3112 62.7165 35.8131C62.7608 35.4028 62.9827 34.6849 63.175 34.2014C63.3821 33.7178 63.8554 32.8973 64.24 32.3698C64.6097 31.8424 65.5564 30.8021 66.3403 30.0402C67.1094 29.2783 68.4702 28.1207 69.3725 27.4614C70.2747 26.8021 71.7243 25.7911 72.6265 25.2343C73.5288 24.6775 74.9783 23.813 75.8806 23.3149C76.7828 22.8314 78.6761 21.8643 80.096 21.1903C81.516 20.5163 82.8916 19.8863 83.1282 19.7984Z" fill="#111111"/>
<path d="M103.466 34.1134C102.12 34.5823 100.36 35.1391 99.5464 35.3589C98.7328 35.5933 97.4608 35.9303 96.736 36.1061C96.0113 36.2819 95.1534 36.4138 94.8576 36.4138C94.547 36.3992 94.2955 36.4431 94.2955 36.5017C94.2955 36.575 94.2511 36.6043 94.1772 36.5896C94.118 36.575 93.7334 36.7362 93.3341 36.9413C92.9556 37.1288 92.2929 37.4754 91.7751 37.7461L91.6331 37.8204C91.5099 37.8848 91.3424 37.9727 91.1436 38.0771L91.1308 38.0838C90.47 38.4307 89.4708 38.9552 88.6009 39.4028C87.462 39.9889 86.3971 40.575 86.2343 40.6922C85.9533 40.8973 85.9533 40.8973 86.3083 40.8094C86.5154 40.7508 87.0035 40.6776 87.4176 40.6336C87.817 40.5896 89.2813 40.2966 90.6717 39.9889C92.062 39.6812 94.0884 39.1831 95.183 38.89C96.2775 38.597 98.1116 38.0548 99.2505 37.6885C100.389 37.3222 102.15 36.7362 103.17 36.3699C104.191 36.0036 105.522 35.5054 106.128 35.2563C106.735 35.0072 107.312 34.8021 107.415 34.8021C107.504 34.7874 107.267 34.4504 106.898 34.0402C106.513 33.6153 106.128 33.2783 106.054 33.2783C105.98 33.2783 104.812 33.6592 103.466 34.1134Z" fill="#111111"/>
<path d="M70.6297 48.6922C70.5853 48.6483 70.8516 48.3259 71.2214 47.9743C71.5763 47.608 71.9018 47.3149 71.9461 47.3149C71.9905 47.3149 71.7538 47.5787 71.4284 47.901C71.0587 48.282 70.9255 48.5018 71.0735 48.5018C71.2214 48.5018 71.1918 48.5457 70.9995 48.619C70.8368 48.6922 70.6741 48.7215 70.6297 48.6922Z" fill="#111111"/>
<path d="M71.0735 60.0915C70.541 60.1502 69.7423 60.3846 69.2985 60.6044C68.8548 60.8242 68.1448 61.337 67.7307 61.7326C67.3313 62.1428 66.7988 62.8754 66.5474 63.359C66.1628 64.1502 66.1184 64.3846 66.1184 65.7033C66.1184 66.978 66.1628 67.2711 66.503 67.9744C66.7101 68.4139 67.1834 69.1026 67.5532 69.5128C67.9229 69.9084 68.6033 70.4506 69.0914 70.7143C69.5648 70.9634 70.3931 71.2564 70.9255 71.3443C71.458 71.4322 72.1828 71.4762 72.5526 71.4176C72.9223 71.359 73.5879 71.1685 74.0317 71.0073C74.4754 70.8315 74.9931 70.5678 75.1854 70.3919L75.5256 70.0989C74.9487 68.7949 74.7416 68.4139 74.6973 68.4139C74.6529 68.4139 74.2535 68.619 73.8098 68.8535C73.1294 69.2198 72.8336 69.293 71.9609 69.293C71.177 69.293 70.7628 69.2051 70.2156 68.9414C69.831 68.7656 69.2985 68.3407 69.0323 68.033C68.7808 67.7253 68.4554 67.1685 68.3371 66.8022C68.2188 66.4359 68.1152 65.9817 68.1152 65.7765C68.1152 65.5714 68.2188 65.0586 68.3371 64.6337C68.4702 64.1502 68.766 63.6666 69.121 63.3004C69.4168 62.978 69.9641 62.5824 70.3339 62.4212C70.7333 62.2308 71.3249 62.1135 71.813 62.1135C72.2567 62.1135 72.9223 62.2014 73.2921 62.3187C73.6619 62.4505 74.0613 62.641 74.1796 62.7729C74.2979 62.9047 74.4902 63.0073 74.5937 62.9927C74.6825 62.9927 74.8304 62.8461 74.9044 62.6557C74.9251 62.6063 74.9529 62.5396 74.985 62.4625L74.985 62.4623L74.9855 62.4613L74.9859 62.4603L74.986 62.4601L74.9867 62.4584L74.9869 62.4577C75.0691 62.2604 75.1791 61.9961 75.2741 61.7765L75.5108 61.2344C74.5346 60.6337 73.9873 60.3699 73.6619 60.282C73.3365 60.1795 72.8336 60.0769 72.5526 60.0329C72.2715 60.0036 71.6059 60.0183 71.0735 60.0915Z" fill="#111111"/>
<path fill-rule="evenodd" clip-rule="evenodd" d="M90.9971 60.5458C91.4704 60.3406 92.1508 60.1208 92.5206 60.0622C92.8904 60.0036 93.3489 59.9743 93.556 60.0036C93.763 60.0329 94.2068 60.0915 94.5617 60.1355C94.9019 60.1795 95.5232 60.3699 95.9225 60.5751C96.3367 60.7802 96.9135 61.1611 97.2094 61.4102C97.5052 61.674 97.9933 62.2601 98.2891 62.6996C98.6145 63.1978 98.8955 63.8718 99.0139 64.4579C99.1322 64.9853 99.1914 65.8059 99.147 66.2894C99.1026 66.8022 98.9103 67.5348 98.6737 68.0476C98.4074 68.619 97.9489 69.2344 97.3573 69.8059C96.6769 70.4506 96.1888 70.7876 95.4788 71.0513C94.7244 71.3443 94.2659 71.4176 93.3341 71.4029C92.5206 71.3883 91.8993 71.2857 91.3373 71.0806C90.8344 70.8901 90.1688 70.4506 89.5771 69.9231C88.9263 69.3223 88.5122 68.7949 88.172 68.1209C87.7578 67.2564 87.7135 67.0513 87.7135 65.7033C87.7135 64.2967 87.743 64.1648 88.2311 63.2271C88.527 62.6557 89.0447 61.9524 89.4588 61.5861C89.8434 61.2344 90.5386 60.7655 90.9971 60.5458ZM91.8549 62.4505C91.4556 62.641 90.9231 63.022 90.6864 63.3004C90.4498 63.5787 90.1539 64.0036 90.0356 64.2381C89.8877 64.5165 89.799 65.0586 89.799 65.7033C89.799 66.4505 89.8877 66.8901 90.1096 67.315C90.2723 67.6374 90.6716 68.1209 90.9822 68.3993C91.3076 68.6777 91.781 68.9853 92.0472 69.1026C92.2987 69.2051 92.9051 69.293 93.3784 69.293C93.8369 69.293 94.4729 69.2051 94.7836 69.0733C95.0794 68.956 95.5675 68.6337 95.8633 68.3846C96.1591 68.1209 96.5289 67.6667 96.662 67.3883C96.8099 67.1099 96.9726 66.5824 97.0318 66.2161C97.1058 65.7765 97.0614 65.293 96.8987 64.7509C96.7804 64.3113 96.455 63.6813 96.1887 63.3736C95.9225 63.0659 95.39 62.641 95.0054 62.4652C94.5025 62.2161 94.044 62.1135 93.4524 62.1135C92.8755 62.1135 92.3578 62.2307 91.8549 62.4505Z" fill="#111111"/>
<path d="M105.241 60.1648C104.708 60.2674 104.013 60.5165 103.688 60.7069C103.362 60.8974 102.889 61.2198 102.652 61.4102C102.416 61.6154 101.972 62.1282 101.676 62.5677C101.38 63.0073 101.011 63.7546 100.878 64.2381C100.685 64.8681 100.641 65.4102 100.7 66.1428C100.744 66.7582 100.922 67.4908 101.144 67.9744C101.336 68.4139 101.795 69.1172 102.164 69.5128C102.534 69.9231 103.215 70.4506 103.703 70.7143C104.176 70.9634 105.004 71.2564 105.537 71.3443C106.069 71.4322 106.794 71.4762 107.164 71.4176C107.534 71.359 108.17 71.1832 108.569 71.0366C108.968 70.8901 109.501 70.6117 109.723 70.4359L110.137 70.0989C109.545 68.7949 109.353 68.4139 109.308 68.4139C109.264 68.4139 108.88 68.6044 108.451 68.8535C107.8 69.2198 107.519 69.293 106.646 69.293C105.788 69.3077 105.478 69.2344 104.797 68.8828C104.324 68.6484 103.777 68.2088 103.496 67.8571C103.244 67.5201 102.948 66.9634 102.86 66.6264C102.771 66.2747 102.741 65.7033 102.786 65.337C102.845 64.9707 103.037 64.3846 103.215 64.033C103.392 63.6813 103.777 63.2124 104.058 62.9927C104.339 62.7582 104.827 62.4652 105.123 62.348C105.448 62.2161 106.099 62.1135 106.646 62.1135C107.43 62.1135 107.755 62.1868 108.421 62.5531C108.865 62.7875 109.264 62.9927 109.308 62.9927C109.353 62.9927 109.545 62.6264 109.752 62.1868C109.989 61.674 110.078 61.3223 109.989 61.2051C109.915 61.1025 109.501 60.8388 109.072 60.6044C108.569 60.3553 107.889 60.1648 107.238 60.0915C106.528 60.0036 105.892 60.0329 105.241 60.1648Z" fill="#111111"/>
<path fill-rule="evenodd" clip-rule="evenodd" d="M129.35 60.6044C129.794 60.3846 130.534 60.1502 130.977 60.0769C131.147 60.0489 131.31 60.0231 131.449 60.001C131.675 59.9653 131.838 59.9394 131.865 59.9304C131.909 59.9157 132.338 59.989 132.826 60.0769C133.314 60.1648 134.098 60.4285 134.557 60.663C135.03 60.8974 135.725 61.3956 136.095 61.7912C136.465 62.1721 136.953 62.8461 137.16 63.2857C137.412 63.8132 137.574 64.4432 137.633 65.1172C137.678 65.6886 137.663 66.4212 137.604 66.7729C137.53 67.1099 137.308 67.7692 137.086 68.2381C136.864 68.6923 136.391 69.381 136.021 69.7473C135.637 70.1136 135.06 70.5531 134.705 70.7289C134.365 70.9048 133.669 71.1539 133.152 71.2857C132.531 71.4469 131.954 71.4909 131.347 71.4322C130.785 71.3736 130.075 71.1685 129.424 70.8462C128.759 70.5238 128.152 70.0843 127.723 69.63C127.354 69.2344 126.895 68.5897 126.703 68.1941C126.511 67.7839 126.289 67.0659 126.215 66.5824C126.096 65.9377 126.111 65.4542 126.23 64.7509C126.333 64.2234 126.585 63.4762 126.806 63.0659C127.013 62.6703 127.487 62.0403 127.857 61.6593C128.226 61.293 128.907 60.8242 129.35 60.6044ZM129.395 63.0806C129.661 62.8461 130.134 62.5384 130.46 62.3919C130.815 62.2307 131.406 62.1135 131.909 62.1135C132.427 62.1135 132.989 62.2161 133.388 62.3919C133.729 62.5384 134.261 62.9194 134.557 63.2271C134.853 63.5494 135.208 64.0476 135.341 64.3553C135.459 64.6483 135.563 65.2637 135.563 65.7033C135.563 66.1428 135.459 66.7582 135.326 67.0659C135.208 67.359 134.941 67.8132 134.764 68.0476C134.572 68.2821 134.084 68.663 133.655 68.8974C133.078 69.1905 132.678 69.293 131.983 69.3077C131.258 69.3223 130.889 69.2491 130.282 68.9414C129.853 68.7363 129.336 68.3407 129.143 68.0916C128.936 67.8278 128.67 67.3443 128.522 67.022C128.389 66.6996 128.271 66.1135 128.271 65.7033C128.271 65.2491 128.404 64.6923 128.596 64.2381C128.788 63.8425 129.143 63.315 129.395 63.0806Z" fill="#111111"/>
<path d="M144.437 60.0769C143.846 60.1208 143.121 60.326 142.529 60.5897C141.923 60.8681 141.316 61.293 140.814 61.8205C140.385 62.2601 139.897 62.9194 139.734 63.2857C139.571 63.652 139.349 64.3699 139.246 64.8974C139.113 65.6593 139.113 66.011 139.261 66.6557C139.364 67.0952 139.615 67.8278 139.823 68.2674C140.044 68.707 140.533 69.381 140.917 69.7766C141.316 70.1575 141.982 70.6264 142.396 70.8315C142.825 71.022 143.58 71.2564 144.068 71.359C144.556 71.4469 145.251 71.4762 145.621 71.4176C145.99 71.3736 146.567 71.2271 146.908 71.1099C147.263 70.9927 147.78 70.7582 148.061 70.5824C148.342 70.3919 148.579 70.1722 148.579 70.0989C148.579 70.0256 148.416 69.5714 148.209 69.1172L147.839 68.2674C147.1 68.8095 146.641 69.0293 146.36 69.1319C146.079 69.2198 145.443 69.293 144.955 69.293C144.334 69.293 143.861 69.1905 143.402 68.956C143.047 68.7802 142.544 68.4286 142.307 68.1941C142.071 67.9597 141.76 67.4908 141.612 67.1685C141.45 66.8315 141.331 66.2308 141.331 65.7326C141.331 65.2344 141.435 64.6483 141.597 64.282C141.76 63.9304 142.174 63.3883 142.544 63.0659C142.899 62.7436 143.461 62.3919 143.787 62.304C144.097 62.2014 144.733 62.1135 145.177 62.1135C145.68 62.1135 146.242 62.2308 146.656 62.4212C147.026 62.5824 147.44 62.8168 147.573 62.934C147.825 63.1245 147.869 63.0659 148.209 62.304C148.416 61.8351 148.579 61.3663 148.579 61.2784C148.579 61.1758 148.165 60.8974 147.647 60.6483C147.144 60.4139 146.434 60.1648 146.064 60.0915C145.695 60.0329 144.97 60.0183 144.437 60.0769Z" fill="#111111"/>
<path fill-rule="evenodd" clip-rule="evenodd" d="M55.8386 60.8242C56.2084 60.6044 56.7409 60.3553 57.0219 60.2527C57.3473 60.1355 58.0869 60.0769 58.9447 60.0915C60.1872 60.1355 60.4682 60.1941 61.3113 60.6044C61.8882 60.8828 62.539 61.3516 62.9383 61.7765C63.2933 62.1575 63.7814 62.8754 64.0033 63.359C64.2991 63.9743 64.447 64.5751 64.5062 65.337C64.5802 66.2454 64.5358 66.5971 64.2695 67.3883C64.092 67.9157 63.7519 68.6044 63.53 68.9267C63.3081 69.2491 62.8644 69.7326 62.5538 70.011C62.2432 70.2894 61.5776 70.6996 61.0894 70.9194C60.6013 71.1539 59.8026 71.3736 59.3145 71.4176C58.8264 71.4762 58.1016 71.4322 57.6875 71.3443C57.2733 71.2564 56.6077 71.022 56.2084 70.8315C55.7942 70.6264 55.173 70.1868 54.8032 69.8352C54.4334 69.4835 53.901 68.7656 53.6199 68.2527C53.117 67.3443 53.1022 67.2564 53.1022 65.7765C53.1022 64.4432 53.1466 64.1355 53.472 63.4322C53.6791 62.9927 54.1524 62.304 54.5074 61.9084C54.8772 61.5274 55.4688 61.0293 55.8386 60.8242ZM57.1697 62.4652C56.8 62.6557 56.2675 63.0659 55.9865 63.3883C55.7054 63.7106 55.38 64.2381 55.2913 64.5458C55.1877 64.8535 55.099 65.3809 55.099 65.7033C55.099 66.0256 55.2025 66.5824 55.3209 66.9487C55.454 67.315 55.8385 67.8864 56.1787 68.2381C56.5189 68.5751 57.0662 68.9707 57.3916 69.0879C57.791 69.2491 58.3235 69.3077 59.0334 69.2637C59.8617 69.2344 60.2019 69.1465 60.69 68.8242C61.0302 68.5897 61.5183 68.1355 61.755 67.7985C62.0064 67.4469 62.2727 66.8755 62.3614 66.5092C62.4798 66.011 62.465 65.63 62.3318 64.9707C62.2135 64.4286 61.9769 63.8718 61.6958 63.5055C61.4296 63.1685 60.8823 62.7436 60.4238 62.5091C59.7878 62.2014 59.4032 62.1135 58.7228 62.1135C58.1016 62.1282 57.6431 62.2307 57.1697 62.4652Z" fill="#111111"/>
<path fill-rule="evenodd" clip-rule="evenodd" d="M43.4141 71.1978H45.4848L45.5588 67.6081C48.2655 67.4762 49.1678 67.3443 49.4784 67.2124C49.7595 67.0952 50.218 66.7729 50.499 66.4945C50.78 66.2161 51.1202 65.7326 51.2681 65.4102C51.4456 65.0439 51.5492 64.4725 51.5492 63.8718C51.5492 63.1538 51.4604 62.7436 51.1942 62.1868C50.9575 61.7179 50.6025 61.293 50.2032 61.0146C49.8334 60.7509 49.1974 60.5018 48.6797 60.3992C48.1768 60.2967 46.8012 60.2088 45.5884 60.2088H43.4141V71.1978ZM45.5587 62.4505C45.5143 62.5677 45.4996 63.271 45.5143 64.033L45.5587 65.4102C47.8218 65.4102 48.3838 65.337 48.6649 65.1905C48.8867 65.0732 49.1677 64.7949 49.2713 64.5751C49.3896 64.3406 49.4784 64.0036 49.4784 63.7985C49.4784 63.5934 49.4192 63.3004 49.3305 63.1392C49.2565 62.978 48.9015 62.7143 48.5613 62.5531C48.1028 62.348 47.5999 62.2601 46.7716 62.2601C45.9581 62.2601 45.6031 62.3187 45.5587 62.4505Z" fill="#111111"/>
<path d="M78.1436 65.8059C78.1288 62.8315 78.1732 60.3553 78.2471 60.3113C78.3211 60.2527 78.7944 60.2088 79.3121 60.2088C80.096 60.2088 80.2439 60.2527 80.2587 60.4725C80.2735 60.6044 80.2735 61.5568 80.2587 62.597C80.2587 63.6227 80.2883 64.4872 80.3475 64.5311C80.4214 64.5604 81.3089 63.608 84.2375 60.2088H85.4208C86.0716 60.2088 86.6337 60.2527 86.6633 60.326C86.7077 60.3846 86.19 61.0293 85.5244 61.7619C84.8588 62.4945 83.8234 63.6373 82.1668 65.4835L84.6073 68.2674C85.9533 69.8059 87.0479 71.0806 87.0479 71.1245C87.0479 71.1685 86.471 71.1978 84.4594 71.1832L83.3057 69.8352C82.6845 69.0879 81.8118 68.0916 81.3829 67.6227C80.9687 67.1392 80.5546 66.7875 80.4658 66.8315C80.3771 66.8901 80.3031 67.7985 80.2735 71.1245L78.1732 71.1978L78.1436 65.8059Z" fill="#111111"/>
<path d="M113.45 60.3992C113.406 60.4872 113.051 62.8901 112.636 65.7033C112.6 65.9598 112.565 66.2126 112.53 66.4605L112.463 66.9303L112.463 66.9313L112.462 66.9352C112.143 69.1938 111.897 70.9347 111.897 71.022C111.897 71.1392 112.208 71.1978 112.962 71.1978H114.042C114.204 70.348 114.397 68.8681 114.589 67.3443C114.781 65.8352 115.003 64.6044 115.077 64.6044C115.151 64.6044 115.817 66.0842 116.556 67.9011L117.887 71.1978L118.923 71.2125C120.993 66.0989 121.659 64.6044 121.733 64.6044C121.807 64.6044 122.044 65.8059 122.236 67.2711C122.428 68.7509 122.62 70.2161 122.68 70.5385L122.768 71.1245C124.78 71.1978 124.913 71.1685 124.913 70.9487C124.913 70.8022 124.588 68.3846 124.174 65.5568C123.759 62.7289 123.449 60.3846 123.464 60.3406C123.478 60.282 122.99 60.2527 122.384 60.2674L121.289 60.282C119.855 63.7985 119.248 65.2784 119.011 65.8498C118.775 66.4212 118.509 66.8755 118.42 66.8755C118.331 66.8755 117.739 65.6593 117.133 64.1648C116.823 63.42 116.525 62.6934 116.29 62.1228C116.054 61.5485 115.883 61.1322 115.831 61.0146C115.743 60.7802 115.61 60.4872 115.55 60.3992C115.491 60.282 115.092 60.2088 114.485 60.2088C113.849 60.2088 113.494 60.2674 113.45 60.3992Z" fill="#111111"/>
</svg>
