<svg width="64" height="64" viewBox="0 0 64 64" fill="none" xmlns="http://www.w3.org/2000/svg">
<path d="M9.46979 32.0003L29.0698 51.6003C29.7365 52.267 30.0587 53.0447 30.0365 53.9336C30.0142 54.8225 29.6698 55.6003 29.0031 56.267C28.3365 56.9336 27.5587 57.267 26.6698 57.267C25.7809 57.267 25.0031 56.9336 24.3365 56.267L3.80313 35.8003C3.26979 35.267 2.86979 34.667 2.60313 34.0003C2.33646 33.3336 2.20312 32.667 2.20312 32.0003C2.20312 31.3336 2.33646 30.667 2.60313 30.0003C2.86979 29.3336 3.26979 28.7336 3.80313 28.2003L24.3365 7.66696C25.0031 7.00029 25.792 6.67807 26.7031 6.70029C27.6142 6.72252 28.4031 7.06696 29.0698 7.73363C29.7365 8.40029 30.0698 9.17807 30.0698 10.067C30.0698 10.9558 29.7365 11.7336 29.0698 12.4003L9.46979 32.0003Z" fill="white"/>
</svg>
