<svg width="193" height="78" viewBox="0 0 193 78" fill="none" xmlns="http://www.w3.org/2000/svg">
<path d="M15.4375 35.5142V47.812H19.3674V23.2163H15.4375V35.5142ZM140.355 35.5142V47.812H144.221V23.2163H140.355V35.5142ZM79.1205 29.4364C78.9079 29.4688 78.4827 29.5659 78.167 29.6565C77.8578 29.7471 77.3939 29.9219 77.1427 30.0513C76.885 30.1808 76.4984 30.4073 76.2859 30.5627C76.0732 30.7115 75.6738 31.074 75.4032 31.3653C74.9394 31.8507 74.8814 31.8895 74.643 31.8895H74.3853V29.8183H70.4555C70.4555 52.6211 70.4684 54.0321 70.5521 54.058C70.6037 54.0774 71.4669 54.0904 72.472 54.0904C73.4705 54.0904 74.3209 54.0645 74.366 54.0386C74.424 54.0062 74.4498 52.0774 74.4627 45.6113L74.482 37.2294C74.7397 36.2779 74.9394 35.7666 75.0811 35.4818C75.2293 35.197 75.4612 34.8281 75.5901 34.6663C75.7254 34.5044 75.9831 34.2455 76.157 34.0967C76.3374 33.9478 76.6724 33.7213 76.9172 33.5983C77.1556 33.4753 77.5743 33.3135 77.8449 33.2358C78.2701 33.1128 78.502 33.087 79.346 33.087C80.1964 33.087 80.4219 33.1128 80.8599 33.2358C81.1434 33.32 81.5493 33.4818 81.7619 33.5918C81.9745 33.7083 82.3288 33.9737 82.5543 34.1873C82.7798 34.4009 83.0697 34.7375 83.1985 34.9316C83.3274 35.1258 83.5142 35.5077 83.6173 35.7731C83.7204 36.0384 83.8621 36.5239 83.9265 36.841C83.9909 37.1582 84.0683 37.7731 84.0876 38.2003C84.1133 38.6469 84.1005 39.2618 84.0554 39.6566C84.0167 40.032 83.9265 40.5692 83.8492 40.854C83.7784 41.1388 83.6108 41.5919 83.482 41.8573C83.3145 42.2133 83.1212 42.4722 82.7669 42.8281C82.4834 43.1129 82.1098 43.4042 81.8907 43.5207C81.6781 43.6372 81.2723 43.7926 80.9888 43.8702C80.5249 43.9997 80.293 44.0191 78.618 44.0385L76.769 44.0579V47.8444C80.0418 47.7732 80.9888 47.7214 81.3109 47.6631C81.5944 47.6114 82.0582 47.5013 82.3417 47.4237C82.6252 47.3395 83.0439 47.1971 83.2758 47.0936C83.5078 46.9965 83.8943 46.8023 84.1391 46.6664C84.3775 46.5304 84.8027 46.2327 85.0797 46.0062C85.3632 45.7796 85.769 45.3783 85.9945 45.1194C86.22 44.8541 86.5486 44.401 86.7225 44.1097C86.9029 43.812 87.1413 43.3524 87.2508 43.087C87.3603 42.8217 87.5278 42.3557 87.6116 42.0514C87.7018 41.7472 87.8177 41.223 87.8821 40.8864C87.9401 40.5498 88.0045 39.7925 88.0239 39.2035C88.0496 38.5563 88.0303 37.8443 87.9852 37.3912C87.9401 36.9834 87.8499 36.3556 87.7791 35.9996C87.7082 35.6436 87.56 35.087 87.4569 34.7698C87.3474 34.4527 87.1413 33.9413 86.9931 33.6371C86.8385 33.3329 86.5743 32.8669 86.4004 32.6015C86.22 32.3361 85.8335 31.8701 85.5307 31.5594C85.2214 31.2423 84.7318 30.8345 84.4033 30.6209C84.0811 30.4138 83.5786 30.1355 83.2758 30.006C82.973 29.8766 82.4963 29.7083 82.2128 29.6371C81.9294 29.5594 81.4526 29.4688 81.1498 29.43C80.8471 29.3976 80.3574 29.3717 80.0546 29.3717C79.7519 29.3782 79.3331 29.4041 79.1205 29.4364ZM157.557 29.883C157.557 29.9154 159.225 33.5465 161.261 37.9414L164.965 45.935C162.176 52.0774 161.351 53.9156 161.332 53.9804C161.293 54.0839 161.422 54.0904 163.368 54.0904H165.448C173.94 35.5595 176.439 30.1031 176.484 29.9995L176.562 29.8183L172.213 29.8248C169.088 36.8151 168.064 39.1517 167.916 39.5271C167.768 39.9026 167.568 40.4657 167.471 40.7893L167.297 41.3718L166.801 41.4107C166.473 40.375 166.157 39.5595 165.88 38.9317C165.61 38.2974 164.585 35.9931 163.612 33.7989L161.841 29.8183C158.31 29.8183 157.557 29.8442 157.557 29.883ZM40.8527 29.4041C40.7496 29.417 40.4275 29.4623 40.1441 29.5012C39.8606 29.54 39.3581 29.6436 39.0295 29.7277C38.7074 29.8118 38.1856 29.9931 37.8699 30.129C37.5607 30.2584 37.0775 30.5173 36.794 30.6921C36.5105 30.8669 36.0338 31.2487 35.7375 31.5335C35.4476 31.8183 35.0739 32.239 34.9257 32.4721C34.7711 32.7051 34.5585 33.0805 34.4554 33.3135C34.3459 33.5465 34.1977 33.9737 34.1269 34.265C34.0496 34.5627 33.9916 34.8604 33.9916 34.9316C33.9916 35.0611 34.0367 35.0611 36.0854 35.0611H38.1791C38.2886 34.6857 38.4046 34.4462 38.5012 34.2844C38.6043 34.1226 38.8105 33.8766 38.9651 33.7407C39.1133 33.5983 39.4161 33.4041 39.6287 33.3005C39.8413 33.2035 40.202 33.074 40.434 33.0093C40.7368 32.9316 41.1104 32.8993 41.7547 32.8993C42.27 32.8993 42.8241 32.9316 43.0431 32.9834C43.2557 33.0287 43.6294 33.1646 43.8806 33.2811C44.1319 33.3976 44.4605 33.6242 44.6215 33.7795C44.7826 33.9413 44.9887 34.2132 45.0854 34.3879C45.182 34.5627 45.3044 34.8799 45.3559 35.0934C45.4461 35.4235 45.459 36.0061 45.459 38.9123V42.3427C44.6344 43.1324 44.2221 43.4883 44.0095 43.6372C43.7969 43.7926 43.4361 44.0191 43.2042 44.1485C42.9723 44.2715 42.5406 44.4657 42.2378 44.5693C41.935 44.6728 41.4583 44.7893 41.1748 44.8346C40.8527 44.8864 40.3824 44.9058 39.9186 44.8799C39.4032 44.8605 39.0617 44.8088 38.7912 44.7117C38.5786 44.634 38.2822 44.4981 38.1276 44.4139C37.9794 44.3233 37.7539 44.1421 37.6251 44.0062C37.4962 43.8767 37.3223 43.6307 37.2385 43.456C37.1548 43.2877 37.0582 42.9835 37.0324 42.7764C37.0002 42.5757 37.0002 42.2003 37.0324 41.9544C37.0646 41.7019 37.1548 41.3524 37.2321 41.1776C37.3158 40.9964 37.5027 40.731 37.6509 40.5757C37.799 40.4268 38.076 40.2262 38.2564 40.1356C38.4433 40.0385 38.7847 39.922 39.0166 39.8767C39.313 39.8119 39.9701 39.786 41.2521 39.786H43.0753V36.9381C38.7138 36.9834 38.3209 37.0028 37.7926 37.1194C37.4576 37.1906 36.9486 37.3265 36.6652 37.4236C36.3817 37.5142 35.9629 37.6954 35.731 37.8184C35.4991 37.9414 35.1126 38.1938 34.8613 38.3815C34.6165 38.5627 34.2622 38.9058 34.0689 39.1388C33.8821 39.3718 33.6115 39.7925 33.4762 40.0773C33.3345 40.3621 33.1605 40.8281 33.0832 41.1129C32.9672 41.5336 32.9415 41.812 32.9415 42.5692C32.9415 43.333 32.9672 43.6049 33.0832 44.0256C33.1605 44.3104 33.3151 44.744 33.4311 44.9965C33.5471 45.2424 33.7468 45.5919 33.8627 45.7732C33.9851 45.9479 34.2428 46.2586 34.4425 46.4528C34.6358 46.6534 34.9837 46.9382 35.2156 47.1C35.4476 47.2554 35.8792 47.4949 36.182 47.6243C36.4848 47.7538 36.9744 47.922 37.2772 47.9997C37.58 48.0709 38.1598 48.1615 38.5657 48.1939C39.0102 48.2263 39.5771 48.2263 39.983 48.1939C40.3567 48.1615 40.9494 48.0644 41.3037 47.9803C41.658 47.8897 42.1734 47.7343 42.444 47.6243C42.721 47.5143 43.1591 47.3201 43.4103 47.1906C43.668 47.0612 44.119 46.7958 44.4089 46.6081C44.8277 46.3298 45.0016 46.2586 45.2013 46.2586H45.459V47.812L49.3567 47.7797C49.3889 38.1744 49.3696 35.4883 49.3309 34.9964C49.2922 34.5044 49.2021 33.9672 49.099 33.6177C49.0088 33.307 48.8413 32.8604 48.7189 32.6145C48.6029 32.375 48.371 32.006 48.2099 31.7924C48.0553 31.5788 47.7654 31.2682 47.5786 31.1064C47.3853 30.9445 47.0567 30.6986 46.8441 30.5627C46.6315 30.4267 46.2708 30.2326 46.0388 30.1355C45.8069 30.0384 45.4333 29.896 45.2013 29.8248C44.9694 29.7471 44.4476 29.6241 44.0417 29.5529C43.5521 29.4688 42.9207 29.417 42.1734 29.3976C41.5549 29.3847 40.9558 29.3847 40.8527 29.4041ZM58.8592 29.4364C58.5564 29.4753 57.9766 29.5918 57.5707 29.6953C57.0489 29.8248 56.5979 29.9995 56.0568 30.2714C55.6316 30.485 55.0968 30.8151 54.8649 31.0028C54.633 31.1905 54.2787 31.5465 54.0725 31.7989C53.8663 32.0449 53.5893 32.4785 53.4476 32.7633C53.3123 33.0481 53.1512 33.4559 53.0933 33.6695C53.0353 33.8831 52.9708 34.4074 52.9515 34.8345C52.9258 35.43 52.9386 35.7407 53.0224 36.1614C53.0868 36.4656 53.235 36.9317 53.3638 37.197C53.4862 37.4624 53.7246 37.8508 53.8857 38.0579C54.0532 38.2715 54.3302 38.5498 54.5106 38.6857C54.6845 38.8152 54.9615 39.0093 55.1226 39.1064C55.2837 39.21 55.6122 39.3718 55.8635 39.4754C56.1147 39.5789 56.5142 39.7148 56.7654 39.786C57.0167 39.8572 57.4741 39.9543 57.7962 40.0061C58.1183 40.0644 59.2328 40.1938 60.2765 40.3039C61.3202 40.4074 62.351 40.5433 62.5636 40.6016C62.7762 40.6598 63.021 40.744 63.1112 40.7893C63.2014 40.8346 63.3689 40.9511 63.4913 41.0547C63.6072 41.1582 63.7683 41.3589 63.8456 41.5013C63.9487 41.7084 63.9744 41.8832 63.9809 42.3751C63.9809 42.8605 63.9551 43.0482 63.8456 43.2812C63.7747 43.443 63.6008 43.7019 63.4591 43.8508C63.3173 44.0126 63.0403 44.2133 62.8213 44.3168C62.6087 44.4204 62.235 44.5563 61.9837 44.6146C61.6423 44.6987 61.2686 44.7311 60.4698 44.7246C59.5743 44.7246 59.323 44.7052 58.8914 44.5822C58.6079 44.5045 58.2021 44.3492 57.9959 44.2327C57.7898 44.1162 57.4998 43.922 57.3581 43.799C57.2099 43.6761 56.9909 43.4107 56.862 43.2165C56.7396 43.0223 56.5786 42.7052 56.5077 42.5175L56.3789 42.1809H52.3524C52.3524 42.4592 52.3975 42.7181 52.449 42.9382C52.5006 43.1647 52.6358 43.5854 52.7518 43.8767C52.8613 44.1744 53.119 44.6599 53.3252 44.9641C53.5249 45.2683 53.9179 45.7343 54.2013 46.0062C54.4784 46.2715 54.8907 46.6211 55.1226 46.7764C55.3545 46.9317 55.7991 47.1842 56.1212 47.333C56.4433 47.4884 56.9587 47.6826 57.2808 47.7797C57.6029 47.8703 58.1183 47.9932 58.4404 48.058C58.8656 48.1356 59.381 48.168 60.4054 48.168C61.6036 48.168 61.8871 48.1486 62.5314 48.0127C62.9372 47.935 63.517 47.7796 63.8198 47.6696C64.1226 47.5661 64.5929 47.3525 64.8699 47.2101C65.1534 47.0612 65.5979 46.7635 65.8685 46.5499C66.1455 46.3363 66.5192 45.9673 66.706 45.7408C66.8928 45.5078 67.1763 45.0547 67.3374 44.7376C67.492 44.4139 67.6853 43.922 67.7626 43.6372C67.8721 43.2294 67.8979 42.9252 67.9043 42.2133C67.9043 41.456 67.8785 41.223 67.7561 40.7893C67.6788 40.5045 67.5306 40.0967 67.4276 39.8831C67.3245 39.6695 67.1054 39.3265 66.9444 39.1194C66.7833 38.9187 66.487 38.621 66.2808 38.4592C66.0811 38.2974 65.6946 38.0514 65.4304 37.9155C65.1663 37.7796 64.7089 37.5854 64.4125 37.4948C64.1226 37.4041 63.6137 37.2812 63.2851 37.2294C62.963 37.1776 61.9515 37.0611 61.0496 36.9705C60.1477 36.8799 59.1749 36.7634 58.8914 36.7051C58.6079 36.6469 58.215 36.5433 58.0217 36.4656C57.8284 36.388 57.5514 36.2391 57.4161 36.1291C57.2744 36.0255 57.094 35.8054 57.0102 35.6436C56.9007 35.43 56.862 35.2488 56.862 34.964C56.862 34.7504 56.9136 34.4268 56.9716 34.252C57.0424 34.0514 57.1971 33.8184 57.3774 33.6371C57.5385 33.4753 57.8284 33.2682 58.0217 33.1711C58.215 33.0805 58.5628 32.951 58.7948 32.8863C59.0976 32.8022 59.4583 32.7698 60.1155 32.7698C60.7919 32.7698 61.1205 32.7957 61.4361 32.8798C61.6681 32.9446 62.016 33.074 62.2092 33.1646C62.4025 33.2617 62.7246 33.5012 62.9243 33.6954C63.1756 33.9478 63.3238 34.1679 63.4204 34.4268C63.4977 34.6339 63.5621 34.8604 63.5621 34.9316C63.5621 35.0611 63.6072 35.0611 65.4626 35.0611H67.3631C67.3052 34.6339 67.2472 34.2779 67.1956 33.9931C67.1377 33.7083 67.0088 33.2682 66.9122 33.0222C66.8091 32.7698 66.6094 32.3944 66.4741 32.1808C66.3388 31.9672 66.0811 31.6371 65.9072 31.4429C65.7332 31.2552 65.4175 30.964 65.2049 30.8086C64.9923 30.6468 64.5736 30.3944 64.2708 30.239C63.968 30.0902 63.5364 29.9025 63.3044 29.8248C63.0725 29.7536 62.5958 29.6306 62.2414 29.5594C61.8034 29.4688 61.2493 29.417 60.502 29.3976C59.8964 29.3847 59.162 29.4041 58.8592 29.4364ZM98.0933 29.4364C97.7197 29.4688 97.1141 29.5724 96.7404 29.663C96.3668 29.7471 95.8063 29.9283 95.4842 30.0578C95.162 30.1872 94.6982 30.4073 94.4534 30.5432C94.2086 30.6856 93.7834 30.964 93.5192 31.1646C93.2551 31.3653 92.8621 31.7083 92.6495 31.9219C92.4369 32.142 92.1406 32.4785 91.9924 32.6727C91.8442 32.8669 91.5736 33.2682 91.3932 33.5724C91.2129 33.8766 90.9552 34.4138 90.8134 34.7698C90.6781 35.1258 90.4978 35.676 90.4269 35.9996C90.3496 36.3168 90.2465 36.8863 90.195 37.2618C90.1499 37.6372 90.1048 38.3362 90.1048 38.8152C90.1048 39.2941 90.1499 39.9932 90.195 40.3686C90.2465 40.744 90.3496 41.3071 90.4269 41.6307C90.4978 41.9479 90.6781 42.5045 90.8134 42.8605C90.9552 43.2165 91.2129 43.7537 91.3932 44.0579C91.5736 44.3621 91.8442 44.7699 91.9924 44.9641C92.1406 45.1583 92.4691 45.5207 92.7204 45.7732C92.9716 46.0191 93.4097 46.3881 93.6867 46.5887C93.9638 46.7958 94.4534 47.0871 94.7755 47.2489C95.0976 47.4107 95.613 47.6308 95.9351 47.7408C96.2572 47.8444 96.7404 47.9803 97.011 48.0321C97.288 48.0903 97.8421 48.1615 98.2351 48.1939C98.686 48.2327 99.2465 48.2327 99.7039 48.1939C100.11 48.1615 100.702 48.0709 101.025 47.9932C101.347 47.922 101.785 47.7926 102.004 47.7085C102.229 47.6243 102.622 47.4496 102.874 47.3201C103.131 47.1906 103.563 46.9382 103.827 46.757C104.091 46.5758 104.574 46.168 104.89 45.8444C105.212 45.5207 105.637 45.0094 105.837 44.7052C106.037 44.401 106.307 43.922 106.443 43.6372C106.572 43.3524 106.733 42.9576 106.803 42.7634C106.868 42.5692 106.919 42.3557 106.919 42.2909C106.919 42.1874 106.784 42.1809 104.987 42.1809H103.054C102.725 42.8152 102.455 43.1712 102.216 43.4107C101.965 43.6631 101.611 43.9285 101.347 44.0709C101.095 44.2003 100.69 44.3686 100.445 44.4463C100.116 44.5498 99.7683 44.6016 99.1563 44.621C98.5443 44.6469 98.19 44.6275 97.8356 44.5563C97.5715 44.4981 97.1785 44.388 96.9659 44.3104C96.7533 44.2262 96.3603 44.0126 96.0962 43.8379C95.8192 43.6437 95.4777 43.333 95.278 43.087C95.0847 42.854 94.8335 42.4786 94.7175 42.2456C94.5951 42.0126 94.4276 41.5919 94.3374 41.3071C94.2472 41.0223 94.1377 40.5563 94.0926 40.2715C94.0475 39.9867 94.0153 39.333 94.0153 38.8152C94.0153 38.2974 94.0475 37.6436 94.0926 37.3588C94.1377 37.074 94.2472 36.608 94.3374 36.3232C94.4276 36.0384 94.6209 35.5724 94.7691 35.2941C94.9108 35.0093 95.2071 34.5886 95.4262 34.3556C95.6388 34.1226 95.9867 33.8119 96.1993 33.676C96.4054 33.5336 96.7533 33.3459 96.9659 33.2617C97.1785 33.1776 97.5393 33.0675 97.7712 33.0158C98.0031 32.964 98.5507 32.9251 98.9953 32.9251C99.5944 32.9251 99.9294 32.9575 100.316 33.0546C100.599 33.1258 101.018 33.2747 101.25 33.3912C101.54 33.5271 101.823 33.7472 102.152 34.0837C102.423 34.3556 102.713 34.718 102.809 34.8993C102.906 35.074 103.054 35.4689 103.138 35.7731C103.221 36.0773 103.312 36.4592 103.337 36.6274L103.376 36.9381H96.3539V39.786H107.242C107.242 38.0579 107.209 37.2747 107.177 36.9381C107.145 36.6016 107.074 36.1032 107.022 35.8378C106.964 35.5724 106.849 35.1193 106.752 34.8345C106.662 34.5498 106.488 34.0967 106.365 33.8313C106.237 33.5659 105.972 33.0999 105.773 32.7957C105.573 32.4915 105.186 32.0255 104.922 31.7536C104.658 31.4818 104.278 31.1452 104.085 31.0028C103.891 30.8604 103.556 30.6468 103.344 30.5238C103.131 30.4008 102.751 30.2067 102.506 30.0966C102.262 29.9866 101.778 29.8248 101.443 29.7342C101.108 29.6436 100.612 29.54 100.348 29.5012C100.084 29.4688 99.6202 29.4235 99.3174 29.4105C99.0146 29.3911 98.467 29.4041 98.0933 29.4364ZM118.483 29.43C118.271 29.4623 117.91 29.5335 117.678 29.5918C117.446 29.65 117.053 29.7989 116.808 29.9154C116.564 30.0384 116.164 30.2973 115.919 30.4979C115.681 30.6921 115.307 31.0869 115.082 31.3717C114.708 31.8636 114.67 31.896 114.438 31.8895H114.199V29.8183H110.269V47.812L114.167 47.7797C114.238 37.1129 114.238 37.0287 114.38 36.5174C114.457 36.2326 114.637 35.7666 114.773 35.4818C114.914 35.197 115.159 34.8151 115.314 34.6404C115.468 34.4591 115.765 34.2002 115.977 34.0578C116.184 33.9219 116.602 33.7148 116.905 33.6112C117.453 33.4171 117.459 33.4106 119.224 33.3782L120.996 33.3459L121.028 29.3652C119.353 29.3782 118.696 29.4041 118.483 29.43ZM128.759 29.43C128.495 29.4623 127.999 29.5529 127.664 29.6306C127.329 29.7018 126.794 29.8701 126.472 29.9931C126.15 30.1161 125.66 30.3555 125.377 30.5238C125.048 30.718 124.662 31.0287 124.282 31.4041C123.966 31.7212 123.605 32.1484 123.496 32.3426C123.38 32.5368 123.206 32.8863 123.116 33.1193C123.019 33.3523 122.903 33.7407 122.851 33.9931C122.781 34.3167 122.761 34.6986 122.787 35.32C122.806 36.0514 122.839 36.2779 122.987 36.7116C123.083 36.9964 123.27 37.4041 123.399 37.6177C123.528 37.8313 123.798 38.1679 123.992 38.3621C124.185 38.5627 124.533 38.8475 124.765 38.9964C124.997 39.1453 125.473 39.3847 125.828 39.5207C126.182 39.6631 126.762 39.8378 127.116 39.9155C127.471 39.9932 128.701 40.1485 129.854 40.2715C131.007 40.388 132.154 40.5433 132.399 40.6016C132.644 40.6663 132.979 40.8087 133.14 40.9187C133.295 41.0223 133.494 41.2165 133.572 41.3395C133.655 41.4624 133.752 41.7278 133.791 41.922C133.829 42.1162 133.849 42.4463 133.823 42.6469C133.803 42.854 133.739 43.1324 133.681 43.2618C133.63 43.3977 133.514 43.6049 133.423 43.7149C133.34 43.8314 133.133 44.0191 132.96 44.1356C132.792 44.2521 132.47 44.4075 132.238 44.4851C132.006 44.5628 131.529 44.6599 131.175 44.7052C130.795 44.757 130.267 44.7699 129.887 44.7505C129.532 44.7311 129.023 44.6534 128.759 44.5887C128.495 44.5175 128.089 44.3686 127.857 44.2521C127.625 44.1356 127.277 43.8767 127.078 43.6761C126.839 43.4366 126.633 43.1453 126.478 42.8281C126.35 42.5628 126.247 42.3039 126.247 42.2586C126.247 42.2003 125.789 42.1809 124.185 42.1809H122.123C122.181 42.5045 122.259 42.8346 122.33 43.1194C122.4 43.4042 122.555 43.8573 122.684 44.1227C122.806 44.388 123.038 44.8087 123.206 45.0612C123.373 45.3071 123.715 45.7149 123.966 45.9673C124.217 46.2133 124.623 46.5563 124.868 46.7246C125.113 46.8864 125.589 47.1583 125.924 47.3201C126.259 47.4754 126.794 47.6826 127.116 47.7797C127.438 47.8703 127.954 47.9932 128.276 48.058C128.714 48.1421 129.197 48.168 130.273 48.1615C131.497 48.1615 131.781 48.1421 132.367 48.0127C132.74 47.935 133.262 47.7991 133.526 47.7149C133.791 47.6243 134.254 47.4301 134.557 47.2748C134.86 47.1259 135.279 46.867 135.491 46.7117C135.704 46.5563 136.026 46.278 136.206 46.0968C136.38 45.922 136.657 45.5855 136.812 45.3524C136.967 45.1194 137.173 44.757 137.276 44.5434C137.373 44.3298 137.508 43.935 137.579 43.6696C137.643 43.4042 137.72 42.9188 137.746 42.6016C137.772 42.2456 137.759 41.8055 137.714 41.4689C137.675 41.1647 137.572 40.6987 137.489 40.4333C137.398 40.1356 137.205 39.7472 136.992 39.4365C136.806 39.1517 136.503 38.7893 136.316 38.6275C136.129 38.4592 135.794 38.2197 135.575 38.0838C135.35 37.9478 134.937 37.7537 134.654 37.6436C134.37 37.5336 133.894 37.3912 133.591 37.32C133.288 37.2553 132.186 37.1129 131.143 37.0028C130.099 36.8928 129.01 36.7634 128.727 36.7051C128.443 36.6469 128.05 36.5433 127.857 36.4656C127.664 36.388 127.387 36.2391 127.245 36.1291C127.103 36.019 126.923 35.8054 126.839 35.6436C126.71 35.3977 126.691 35.2747 126.71 34.8281C126.73 34.3815 126.756 34.265 126.923 33.9866C127.033 33.8119 127.264 33.5595 127.438 33.4235C127.619 33.2941 127.922 33.1193 128.115 33.0481C128.308 32.9704 128.714 32.8669 129.017 32.8151C129.397 32.7439 129.771 32.7245 130.241 32.7569C130.615 32.7763 131.091 32.841 131.304 32.8993C131.516 32.9575 131.858 33.087 132.058 33.1905C132.264 33.2941 132.554 33.4883 132.695 33.6177C132.844 33.7536 133.03 33.9802 133.114 34.1226C133.198 34.265 133.301 34.5368 133.346 34.7245L133.43 35.0611H137.166C137.096 34.3362 137.012 33.9025 136.941 33.6371C136.864 33.3717 136.69 32.9187 136.548 32.6339C136.413 32.3491 136.129 31.9089 135.923 31.663C135.717 31.4106 135.35 31.0546 135.098 30.8733C134.854 30.6856 134.435 30.4138 134.171 30.2779C133.907 30.1355 133.456 29.9413 133.172 29.8507C132.889 29.7536 132.38 29.6177 132.045 29.5529C131.645 29.4753 131.046 29.417 130.337 29.4041C129.738 29.3847 129.023 29.3976 128.759 29.43ZM26.8212 30.0902C26.6988 30.2455 25.4296 31.9348 23.9865 33.8442L21.3774 37.32L21.3645 39.6566L27.1949 47.812C30.867 47.812 31.9429 47.7926 31.9622 47.7602C31.9751 47.7343 30.4676 45.6372 28.6122 43.1C26.7503 40.5692 25.2299 38.4851 25.2299 38.4721C25.2299 38.4656 26.6924 36.5368 28.4769 34.1873C30.2679 31.8378 31.7174 29.896 31.7045 29.8636C31.6852 29.8377 30.6286 29.8183 29.3595 29.8183H27.0402L26.8212 30.0902ZM149.787 32.6145C148.621 34.1485 147.345 35.8443 146.952 36.3685L146.231 37.3329L146.218 39.5854L152.048 47.7408L156.945 47.7473C156.687 47.4172 155.154 45.3266 153.369 42.8864C150.605 39.1064 150.141 38.4398 150.206 38.3427C150.244 38.2779 151.7 36.3621 153.433 34.0837C155.173 31.8054 156.59 29.9154 156.59 29.8766C156.59 29.8377 155.766 29.8118 154.245 29.8118H151.907L149.787 32.6145Z" fill="#111111"/>
</svg>
