<svg width="64" height="65" viewBox="0 0 64 65" fill="none" xmlns="http://www.w3.org/2000/svg">
<path d="M9.46979 32.2461L29.0698 51.8461C29.7365 52.5128 30.0587 53.2906 30.0365 54.1795C30.0142 55.0684 29.6698 55.8461 29.0031 56.5128C28.3365 57.1795 27.5587 57.5128 26.6698 57.5128C25.7809 57.5128 25.0031 57.1795 24.3365 56.5128L3.80313 36.0461C3.26979 35.5128 2.86979 34.9128 2.60313 34.2461C2.33646 33.5795 2.20312 32.9128 2.20312 32.2461C2.20312 31.5795 2.33646 30.9128 2.60313 30.2461C2.86979 29.5795 3.26979 28.9795 3.80313 28.4461L24.3365 7.91281C25.0031 7.24614 25.792 6.92392 26.7031 6.94614C27.6142 6.96837 28.4031 7.31281 29.0698 7.97948C29.7365 8.64614 30.0698 9.42392 30.0698 10.3128C30.0698 11.2017 29.7365 11.9795 29.0698 12.6461L9.46979 32.2461Z" fill="black"/>
</svg>
