<svg width="24" height="24" viewBox="0 0 24 24" fill="none" xmlns="http://www.w3.org/2000/svg">
<g clip-path="url(#clip0_2528_659)">
<path d="M12.5 24C8.364 24 5 20.636 5 16.5V6C5 5.73478 5.10536 5.48043 5.29289 5.29289C5.48043 5.10536 5.73478 5 6 5C6.26522 5 6.51957 5.10536 6.70711 5.29289C6.89464 5.48043 7 5.73478 7 6V16.5C7 19.533 9.467 22 12.5 22C15.533 22 18 19.533 18 16.5V5.5C18 3.57 16.43 2 14.5 2C12.57 2 11 3.57 11 5.5V15.5C11 16.327 11.673 17 12.5 17C13.327 17 14 16.327 14 15.5V6C14 5.73478 14.1054 5.48043 14.2929 5.29289C14.4804 5.10536 14.7348 5 15 5C15.2652 5 15.5196 5.10536 15.7071 5.29289C15.8946 5.48043 16 5.73478 16 6V15.5C16 17.43 14.43 19 12.5 19C10.57 19 9 17.43 9 15.5V5.5C9 2.467 11.467 0 14.5 0C17.533 0 20 2.467 20 5.5V16.5C20 20.636 16.636 24 12.5 24Z" fill="#111111"/>
</g>
<defs>
<clipPath id="clip0_2528_659">
<rect width="24" height="24" fill="white"/>
</clipPath>
</defs>
</svg>
