<svg width="461" height="53" viewBox="0 0 461 53" fill="none" xmlns="http://www.w3.org/2000/svg">
<path d="M35.664 40.696V41.056C35.664 42.304 35.232 43.312 34.368 44.08C32.928 45.376 30.48 47.08 27.024 49.192C23.616 51.256 21.216 52.288 19.824 52.288C17.424 52.288 16.224 51.424 16.224 49.696C16.224 49.072 17.304 46.648 19.464 42.424C13.56 48.856 9.048 52.072 5.928 52.072C4.104 52.072 2.784 51.424 1.968 50.128C1.104 48.832 0.672 47.344 0.672 45.664C0.672 45.28 0.72 44.8 0.816 44.224C1.008 42.976 1.44 41.8 2.112 40.696C2.784 39.592 3.672 39.04 4.776 39.04H5.208C6.888 39.232 7.728 40.144 7.728 41.776C7.728 41.872 7.704 41.968 7.656 42.064C7.656 42.16 7.656 42.256 7.656 42.352C7.512 42.928 7.128 43.528 6.504 44.152C5.928 44.776 5.616 45.232 5.568 45.52C5.568 45.568 5.568 45.688 5.568 45.88C5.52 46.024 5.496 46.144 5.496 46.24C5.496 47.056 5.904 47.464 6.72 47.464C7.296 47.464 8.016 47.176 8.88 46.6C9.744 45.976 10.8 45.04 12.048 43.792C13.296 42.496 14.496 41.2 15.648 39.904C16.848 38.608 18.384 36.928 20.256 34.864C22.128 32.8 23.784 31.024 25.224 29.536C26.856 27.712 27.96 26.8 28.536 26.8C29.688 26.8 30.96 26.92 32.352 27.16C31.968 28.312 30.312 31.744 27.384 37.456C24.504 43.12 22.896 46.312 22.56 47.032C23.712 46.6 25.608 45.4 28.248 43.432C30.888 41.416 32.568 40.048 33.288 39.328C33.384 39.232 33.576 39.184 33.864 39.184C35.064 39.184 35.664 39.688 35.664 40.696ZM65.2774 33.712C64.7974 33.712 64.3654 34.288 63.9814 35.44C63.6454 36.592 63.4774 37.648 63.4774 38.608C63.4774 38.944 63.5014 39.208 63.5494 39.4C64.7014 36.904 65.2774 35.008 65.2774 33.712ZM74.3494 41.416C74.3494 42.664 73.5814 43.792 72.0454 44.8C70.0294 46.24 67.8934 46.96 65.6374 46.96C65.0134 46.96 64.4134 46.888 63.8374 46.744C62.3974 48.232 60.6934 49.528 58.7254 50.632C56.7574 51.736 54.8854 52.288 53.1094 52.288C51.6214 52.288 50.3974 52 49.4374 51.424C48.4774 50.848 47.7814 50.008 47.3494 48.904C46.9654 47.8 46.7014 46.72 46.5574 45.664C46.4134 44.608 46.3414 43.312 46.3414 41.776V40.984V40.912C46.2934 41.104 46.1974 41.56 46.0534 42.28L39.3574 48.616C36.7654 51.064 35.0614 52.288 34.2454 52.288C33.7174 52.288 33.1654 52.096 32.5894 51.712C32.0134 51.28 31.7254 50.8 31.7254 50.272V50.128C31.8214 49.408 32.7574 47.2 34.5334 43.504L33.0214 44.656C31.8214 44.656 31.2214 43.816 31.2214 42.136C31.2214 41.704 32.4934 40.36 35.0374 38.104C37.5334 35.8 39.0454 34.12 39.5734 33.064C40.9654 30.184 41.9494 28.456 42.5254 27.88C43.2454 27.16 44.0854 26.8 45.0454 26.8C46.5814 27.184 47.3494 27.736 47.3494 28.456C47.3494 28.6 47.0614 29.32 46.4854 30.616L42.0214 39.544C47.1094 34.552 50.7334 31.36 52.8934 29.968C56.5894 26.896 59.7814 25.36 62.4694 25.36C63.3814 25.36 64.0054 25.528 64.3414 25.864C64.7254 26.2 64.9174 26.752 64.9174 27.52C64.9174 28.192 64.6294 28.72 64.0534 29.104C63.5254 29.44 62.3014 29.944 60.3814 30.616C58.1254 31.384 56.0614 32.92 54.1894 35.224C52.3174 37.48 51.3814 39.832 51.3814 42.28V42.712C51.3814 43.864 51.4054 44.752 51.4534 45.376C51.5494 45.952 51.8134 46.504 52.2454 47.032C52.6774 47.56 53.3014 47.824 54.1174 47.824C56.0374 47.824 58.0294 46.576 60.0934 44.08C59.1814 42.832 58.7254 41.344 58.7254 39.616C58.7254 37.216 59.4694 34.816 60.9574 32.416C62.4454 30.016 64.1974 28.816 66.2134 28.816C67.4134 28.816 68.3014 29.272 68.8774 30.184C69.4534 31.048 69.7414 32.08 69.7414 33.28C69.7414 36.496 68.8294 39.568 67.0054 42.496C67.6294 42.4 68.2534 42.16 68.8774 41.776C69.5014 41.392 70.1974 40.888 70.9654 40.264C71.7814 39.64 72.4534 39.184 72.9814 38.896C73.8934 39.52 74.3494 40.36 74.3494 41.416ZM104.098 4.12C104.098 4.696 103.882 5.416 103.45 6.28C103.066 7.096 102.562 7.504 101.938 7.504C101.794 7.504 101.506 7.312 101.074 6.928C100.69 6.544 100.09 6.16 99.2743 5.776C98.5063 5.344 97.5943 5.128 96.5383 5.128C93.6583 5.128 91.3303 5.872 89.5543 7.36C87.8263 8.8 86.9623 10.888 86.9623 13.624C86.9623 15.832 87.2023 17.752 87.6823 19.384C88.2103 21.016 88.7623 22.288 89.3383 23.2C89.9623 24.112 90.5143 25.648 90.9943 27.808C91.5223 29.968 91.7863 32.632 91.7863 35.8C91.7863 37.624 91.4263 39.184 90.7063 40.48V40.552C90.6583 40.6 90.6343 40.648 90.6343 40.696C90.6343 41.128 90.9223 41.344 91.4983 41.344C91.9303 41.344 92.3623 41.272 92.7943 41.128C93.2263 40.936 93.5623 40.744 93.8023 40.552C94.0423 40.36 94.4743 40.024 95.0983 39.544C95.7223 39.016 96.2023 38.608 96.5383 38.32C97.4983 38.992 97.9783 39.88 97.9783 40.984C97.9783 42.28 97.1863 43.456 95.6023 44.512C94.2583 45.424 92.7703 45.88 91.1383 45.88C90.0823 45.88 89.1703 45.616 88.4023 45.088C85.2823 49.84 81.3943 52.216 76.7383 52.216C75.5383 52.216 74.5063 52 73.6423 51.568C72.7783 51.136 72.1303 50.608 71.6983 49.984C71.2183 49.36 70.8583 48.544 70.6183 47.536C70.3303 46.48 70.1623 45.52 70.1143 44.656C70.0183 43.744 69.9703 42.664 69.9703 41.416C69.9703 37.72 71.3383 34.384 74.0743 31.408C76.8583 28.384 79.7863 26.872 82.8583 26.872C83.7703 26.872 84.3943 27.064 84.7303 27.448C85.1143 27.784 85.3063 28.36 85.3063 29.176C85.3063 29.848 85.0183 30.376 84.4423 30.76C83.8663 31.144 82.6423 31.672 80.7703 32.344C79.1863 32.92 77.8183 34.192 76.6663 36.16C75.5623 38.08 75.0103 39.976 75.0103 41.848V42.28C75.0103 43.48 75.0343 44.416 75.0823 45.088C75.1783 45.712 75.4423 46.312 75.8743 46.888C76.3063 47.416 76.9303 47.68 77.7463 47.68C79.8103 47.68 81.8743 46.192 83.9383 43.216C86.0503 40.24 87.1063 37.816 87.1063 35.944C87.1063 32.632 86.6743 29.752 85.8103 27.304C84.9463 24.856 84.0823 22.6 83.2183 20.536C82.3543 18.472 81.9223 16.216 81.9223 13.768C81.9223 9.352 83.3143 6.064 86.0983 3.904C88.8823 1.744 92.4103 0.663996 96.6823 0.663996C97.9783 0.663996 99.5383 1.096 101.362 1.96C103.186 2.776 104.098 3.496 104.098 4.12ZM112.883 33.712C112.403 33.712 111.971 34.288 111.587 35.44C111.251 36.544 111.083 37.6 111.083 38.608C111.083 38.944 111.107 39.208 111.155 39.4C112.307 36.904 112.883 35.008 112.883 33.712ZM121.955 41.416C121.955 42.664 121.187 43.792 119.651 44.8C117.635 46.24 115.499 46.96 113.243 46.96C112.619 46.96 112.019 46.888 111.443 46.744C110.003 48.232 108.299 49.528 106.331 50.632C104.363 51.736 102.491 52.288 100.715 52.288C99.2269 52.288 98.0029 52 97.0429 51.424C96.0829 50.848 95.4109 50.008 95.0269 48.904C94.5949 47.8 94.3069 46.72 94.1629 45.664C94.0189 44.608 93.9469 43.312 93.9469 41.776C93.9469 39.664 94.5949 37.552 95.8909 35.44C97.1389 33.328 98.6269 31.576 100.355 30.184C102.131 28.744 103.907 27.592 105.683 26.728C107.507 25.816 108.971 25.36 110.075 25.36C110.987 25.36 111.611 25.528 111.947 25.864C112.331 26.2 112.523 26.752 112.523 27.52C112.523 28.192 112.235 28.72 111.659 29.104C111.131 29.44 109.907 29.944 107.987 30.616C105.731 31.384 103.667 32.92 101.795 35.224C99.9229 37.48 98.9869 39.832 98.9869 42.28V42.712C98.9869 43.864 99.0109 44.752 99.0589 45.376C99.1549 45.952 99.4189 46.504 99.8509 47.032C100.283 47.56 100.907 47.824 101.723 47.824C103.643 47.824 105.635 46.576 107.699 44.08C106.787 42.832 106.331 41.344 106.331 39.616C106.331 37.216 107.075 34.816 108.563 32.416C110.051 30.016 111.803 28.816 113.819 28.816C115.019 28.816 115.907 29.272 116.483 30.184C117.059 31.048 117.347 32.08 117.347 33.28C117.347 36.496 116.435 39.568 114.611 42.496C115.235 42.4 115.859 42.16 116.483 41.776C117.107 41.392 117.803 40.888 118.571 40.264C119.387 39.64 120.059 39.184 120.587 38.896C121.499 39.52 121.955 40.36 121.955 41.416ZM155.122 40.696V41.056C155.122 42.304 154.69 43.312 153.826 44.08C152.386 45.376 149.938 47.08 146.482 49.192C143.074 51.256 140.674 52.288 139.282 52.288C136.882 52.288 135.682 51.424 135.682 49.696C135.682 48.832 137.074 45.784 139.858 40.552C131.026 48.376 125.17 52.288 122.29 52.288C121.474 52.288 120.802 52.072 120.274 51.64C119.698 51.208 119.41 50.752 119.41 50.272V50.128C119.554 49.12 120.442 46.984 122.074 43.72L120.706 44.656C119.506 44.656 118.906 43.816 118.906 42.136C118.906 41.56 120.178 40.168 122.722 37.96C125.266 35.752 126.826 34.096 127.402 32.992C128.026 31.744 128.818 30.4 129.778 28.96C130.738 27.52 131.386 26.8 131.722 26.8C132.25 26.8 132.946 26.944 133.81 27.232C134.722 27.52 135.178 27.76 135.178 27.952C135.178 28.672 135.034 29.248 134.746 29.68C134.458 30.064 133.162 32.44 130.858 36.808C128.602 41.176 127.09 44.176 126.322 45.808C127.954 44.848 130.546 42.808 134.098 39.688C137.698 36.568 141.226 33.184 144.682 29.536C146.314 27.712 147.418 26.8 147.994 26.8C149.146 26.8 150.418 26.92 151.81 27.16C151.234 28.888 150.658 30.304 150.082 31.408L142.09 46.96C143.29 46.48 145.186 45.28 147.778 43.36C150.37 41.392 152.026 40.048 152.746 39.328C152.842 39.232 153.034 39.184 153.322 39.184C154.522 39.184 155.122 39.688 155.122 40.696ZM155.05 15.064C153.754 16.456 151.858 17.968 149.362 19.6C146.866 21.184 144.49 21.976 142.234 21.976C140.602 21.976 139.282 21.472 138.274 20.464C137.314 19.456 136.834 18.112 136.834 16.432C136.834 15.616 137.314 15.208 138.274 15.208C138.61 15.208 139.162 15.28 139.93 15.424C140.746 15.52 141.298 15.568 141.586 15.568C141.586 16.768 142.09 17.368 143.098 17.368C145.258 17.368 147.874 15.88 150.946 12.904C151.042 12.808 151.258 12.76 151.594 12.76C152.266 12.76 153.01 13.024 153.826 13.552C154.69 14.032 155.122 14.464 155.122 14.848C155.122 14.944 155.098 15.016 155.05 15.064ZM193.715 41.632C193.715 42.544 193.307 43.312 192.491 43.936C192.443 43.984 191.771 44.536 190.475 45.592C189.179 46.6 188.315 47.248 187.883 47.536C187.499 47.824 186.635 48.376 185.291 49.192C183.995 50.008 182.891 50.584 181.979 50.92C181.115 51.208 179.987 51.52 178.595 51.856C177.251 52.144 175.907 52.288 174.563 52.288C172.115 52.288 170.411 51.448 169.451 49.768C168.443 48.088 167.939 45.544 167.939 42.136C167.939 39.88 169.019 37.48 171.179 34.936C173.339 32.344 175.811 30.256 178.595 28.672C181.379 27.04 183.707 26.224 185.579 26.224C187.307 26.224 188.771 26.56 189.971 27.232C191.219 27.904 191.843 29.008 191.843 30.544C191.843 31.072 191.291 32.464 190.187 34.72C189.083 36.928 188.123 38.032 187.307 38.032C185.483 38.032 184.571 37.48 184.571 36.376V36.088C184.619 35.656 185.003 34.816 185.723 33.568C186.443 32.32 186.803 31.456 186.803 30.976C186.803 30.544 186.299 30.328 185.291 30.328C183.563 30.328 181.019 31.768 177.659 34.648C174.347 37.528 172.691 40.504 172.691 43.576C172.691 45.016 172.931 46.096 173.411 46.816C173.939 47.536 174.923 47.896 176.363 47.896C178.187 47.896 180.347 47.2 182.843 45.808C185.339 44.368 187.451 42.952 189.179 41.56C190.955 40.12 191.867 39.4 191.915 39.4C192.443 39.4 192.875 39.688 193.211 40.264C193.547 40.792 193.715 41.248 193.715 41.632ZM222.906 40.696V41.056C222.906 42.304 222.474 43.312 221.61 44.08C220.17 45.376 217.722 47.08 214.266 49.192C210.858 51.256 208.458 52.288 207.066 52.288C204.666 52.288 203.466 51.424 203.466 49.696C203.466 49.072 204.546 46.648 206.706 42.424C200.802 48.856 196.29 52.072 193.17 52.072C191.346 52.072 190.026 51.424 189.21 50.128C188.346 48.832 187.914 47.344 187.914 45.664C187.914 45.28 187.962 44.8 188.058 44.224C188.25 42.976 188.682 41.8 189.354 40.696C190.026 39.592 190.914 39.04 192.018 39.04H192.45C194.13 39.232 194.97 40.144 194.97 41.776C194.97 41.872 194.946 41.968 194.898 42.064C194.898 42.16 194.898 42.256 194.898 42.352C194.754 42.928 194.37 43.528 193.746 44.152C193.17 44.776 192.858 45.232 192.81 45.52C192.81 45.568 192.81 45.688 192.81 45.88C192.762 46.024 192.738 46.144 192.738 46.24C192.738 47.056 193.146 47.464 193.962 47.464C194.538 47.464 195.258 47.176 196.122 46.6C196.986 45.976 198.042 45.04 199.29 43.792C200.538 42.496 201.738 41.2 202.89 39.904C204.09 38.608 205.626 36.928 207.498 34.864C209.37 32.8 211.026 31.024 212.466 29.536C214.098 27.712 215.202 26.8 215.778 26.8C216.93 26.8 218.202 26.92 219.594 27.16C219.21 28.312 217.554 31.744 214.626 37.456C211.746 43.12 210.138 46.312 209.802 47.032C210.954 46.6 212.85 45.4 215.49 43.432C218.13 41.416 219.81 40.048 220.53 39.328C220.626 39.232 220.818 39.184 221.106 39.184C222.306 39.184 222.906 39.688 222.906 40.696ZM237.688 33.712C237.208 33.712 236.776 34.288 236.392 35.44C236.056 36.544 235.888 37.6 235.888 38.608C235.888 38.944 235.912 39.208 235.96 39.4C237.112 36.904 237.688 35.008 237.688 33.712ZM246.76 41.416C246.76 42.664 245.992 43.792 244.456 44.8C242.44 46.24 240.304 46.96 238.048 46.96C237.424 46.96 236.824 46.888 236.248 46.744C234.808 48.232 233.104 49.528 231.136 50.632C229.168 51.736 227.296 52.288 225.52 52.288C224.032 52.288 222.808 52 221.848 51.424C220.888 50.848 220.216 50.008 219.832 48.904C219.4 47.8 219.112 46.72 218.968 45.664C218.824 44.608 218.752 43.312 218.752 41.776C218.752 39.664 219.4 37.552 220.696 35.44C221.944 33.328 223.432 31.576 225.16 30.184C226.936 28.744 228.712 27.592 230.488 26.728C232.312 25.816 233.776 25.36 234.88 25.36C235.792 25.36 236.416 25.528 236.752 25.864C237.136 26.2 237.328 26.752 237.328 27.52C237.328 28.192 237.04 28.72 236.464 29.104C235.936 29.44 234.712 29.944 232.792 30.616C230.536 31.384 228.472 32.92 226.6 35.224C224.728 37.48 223.792 39.832 223.792 42.28V42.712C223.792 43.864 223.816 44.752 223.864 45.376C223.96 45.952 224.224 46.504 224.656 47.032C225.088 47.56 225.712 47.824 226.528 47.824C228.448 47.824 230.44 46.576 232.504 44.08C231.592 42.832 231.136 41.344 231.136 39.616C231.136 37.216 231.88 34.816 233.368 32.416C234.856 30.016 236.608 28.816 238.624 28.816C239.824 28.816 240.712 29.272 241.288 30.184C241.864 31.048 242.152 32.08 242.152 33.28C242.152 36.496 241.24 39.568 239.416 42.496C240.04 42.4 240.664 42.16 241.288 41.776C241.912 41.392 242.608 40.888 243.376 40.264C244.192 39.64 244.864 39.184 245.392 38.896C246.304 39.52 246.76 40.36 246.76 41.416ZM303.687 41.632C303.687 42.544 303.279 43.312 302.463 43.936C302.127 44.224 301.167 45.064 299.583 46.456C297.999 47.8 296.751 48.784 295.839 49.408C294.927 49.984 293.559 50.608 291.735 51.28C289.911 51.952 287.991 52.288 285.975 52.288C283.671 52.288 281.895 51.448 280.647 49.768C279.447 48.04 278.847 46.072 278.847 43.864V43.288L273.303 48.616C270.711 51.064 269.007 52.288 268.191 52.288C267.663 52.288 267.111 52.096 266.535 51.712C266.007 51.28 265.743 50.8 265.743 50.272V50.128C265.839 49.504 266.607 47.704 268.047 44.728C269.487 41.704 270.327 39.856 270.567 39.184L270.711 38.752C270.663 38.8 270.303 39.232 269.631 40.048C269.007 40.816 268.359 41.584 267.687 42.352C267.015 43.12 266.175 44.008 265.167 45.016C264.207 46.024 263.343 46.84 262.575 47.464C258.831 50.68 255.111 52.288 251.415 52.288C250.167 52.288 248.703 52.024 247.023 51.496C245.295 50.92 244.431 50.152 244.431 49.192C244.431 48.184 245.079 47.512 246.375 47.176C246.663 47.176 247.359 47.248 248.463 47.392C249.567 47.536 250.503 47.608 251.271 47.608C254.247 47.608 257.127 46.168 259.911 43.288C262.695 40.408 264.087 36.832 264.087 32.56C264.087 31.216 263.583 30.544 262.575 30.544C261.471 30.544 259.983 31.288 258.111 32.776C256.287 34.216 254.583 35.8 252.999 37.528C251.415 39.256 249.879 40.864 248.391 42.352C246.903 43.792 245.919 44.512 245.439 44.512C245.055 44.512 244.623 44.272 244.143 43.792C243.615 43.264 243.351 42.688 243.351 42.064C243.351 41.632 244.095 40.672 245.583 39.184C246.399 38.416 247.455 37.432 248.751 36.232C250.047 35.032 251.055 34.096 251.775 33.424C252.495 32.752 253.359 31.984 254.367 31.12C255.375 30.208 256.191 29.512 256.815 29.032C257.487 28.552 258.183 28.072 258.903 27.592C259.671 27.064 260.343 26.704 260.919 26.512C261.495 26.32 262.047 26.224 262.575 26.224C265.071 26.224 266.847 26.752 267.903 27.808C269.007 28.816 269.559 30.448 269.559 32.704C269.559 34 269.439 35.248 269.199 36.448C272.319 33.76 274.119 31.984 274.599 31.12C274.695 30.928 274.839 30.616 275.031 30.184C275.271 29.752 275.439 29.44 275.535 29.248C275.679 29.008 275.871 28.72 276.111 28.384C276.351 28 276.591 27.736 276.831 27.592C277.071 27.4 277.383 27.232 277.767 27.088C278.151 26.944 278.583 26.872 279.063 26.872C280.599 27.16 281.367 27.712 281.367 28.528C281.367 28.768 281.079 29.464 280.503 30.616L276.111 39.544C280.815 34.84 284.391 31.672 286.839 30.04C290.631 27.496 293.535 26.224 295.551 26.224C296.991 26.224 298.431 26.608 299.871 27.376C301.359 28.144 302.103 28.864 302.103 29.536C302.103 30.064 301.887 30.736 301.455 31.552C301.071 32.368 300.567 32.776 299.943 32.776C299.799 32.776 299.583 32.608 299.295 32.272C299.007 31.888 298.527 31.504 297.855 31.12C297.183 30.736 296.319 30.544 295.263 30.544C293.583 30.544 291.303 31.96 288.423 34.792C285.543 37.576 284.103 40.504 284.103 43.576C284.103 45.016 284.343 46.096 284.823 46.816C285.351 47.536 286.335 47.896 287.775 47.896C289.599 47.896 291.639 47.2 293.895 45.808C296.151 44.368 298.023 42.952 299.511 41.56C301.047 40.12 301.839 39.4 301.887 39.4C302.415 39.4 302.847 39.688 303.183 40.264C303.519 40.792 303.687 41.248 303.687 41.632ZM336.036 40.696V41.056C336.036 42.304 335.604 43.312 334.74 44.08C333.3 45.376 330.852 47.08 327.396 49.192C323.988 51.256 321.588 52.288 320.196 52.288C317.796 52.288 316.596 51.424 316.596 49.696C316.596 48.784 317.844 45.928 320.34 41.128H309.612L307.668 44.944C305.172 49.84 303.468 52.288 302.556 52.288C302.028 52.288 301.5 52.096 300.972 51.712C300.396 51.28 300.108 50.8 300.108 50.272V50.128C300.204 49.408 301.14 47.2 302.916 43.504L301.404 44.656C300.204 44.656 299.604 43.816 299.604 42.136C299.604 41.704 300.876 40.36 303.42 38.104C305.916 35.848 307.428 34.192 307.956 33.136C309.348 30.256 310.332 28.528 310.908 27.952C311.628 27.232 312.468 26.872 313.428 26.872C314.964 27.256 315.732 27.808 315.732 28.528C315.732 28.816 315.444 29.536 314.868 30.688L311.844 36.736H322.644C322.692 36.592 322.764 36.424 322.86 36.232C323.004 35.992 323.076 35.848 323.076 35.8L327.036 27.808C327.276 27.136 327.9 26.8 328.908 26.8C330.06 26.8 331.332 26.92 332.724 27.16C332.148 28.888 331.572 30.304 330.996 31.408L323.22 46.6L323.004 46.96C324.204 46.48 326.1 45.28 328.692 43.36C331.284 41.392 332.94 40.048 333.66 39.328C333.756 39.232 333.948 39.184 334.236 39.184C335.436 39.184 336.036 39.688 336.036 40.696ZM350.82 33.712C350.34 33.712 349.908 34.288 349.524 35.44C349.188 36.544 349.02 37.6 349.02 38.608C349.02 38.944 349.044 39.208 349.092 39.4C350.244 36.904 350.82 35.008 350.82 33.712ZM359.892 41.416C359.892 42.664 359.124 43.792 357.588 44.8C355.572 46.24 353.436 46.96 351.18 46.96C350.556 46.96 349.956 46.888 349.38 46.744C347.94 48.232 346.236 49.528 344.268 50.632C342.3 51.736 340.428 52.288 338.652 52.288C337.164 52.288 335.94 52 334.98 51.424C334.02 50.848 333.348 50.008 332.964 48.904C332.532 47.8 332.244 46.72 332.1 45.664C331.956 44.608 331.884 43.312 331.884 41.776C331.884 39.664 332.532 37.552 333.828 35.44C335.076 33.328 336.564 31.576 338.292 30.184C340.068 28.744 341.844 27.592 343.62 26.728C345.444 25.816 346.908 25.36 348.012 25.36C348.924 25.36 349.548 25.528 349.884 25.864C350.268 26.2 350.46 26.752 350.46 27.52C350.46 28.192 350.172 28.72 349.596 29.104C349.068 29.44 347.844 29.944 345.924 30.616C343.668 31.384 341.604 32.92 339.732 35.224C337.86 37.48 336.924 39.832 336.924 42.28V42.712C336.924 43.864 336.948 44.752 336.996 45.376C337.092 45.952 337.356 46.504 337.788 47.032C338.22 47.56 338.844 47.824 339.66 47.824C341.58 47.824 343.572 46.576 345.636 44.08C344.724 42.832 344.268 41.344 344.268 39.616C344.268 37.216 345.012 34.816 346.5 32.416C347.988 30.016 349.74 28.816 351.756 28.816C352.956 28.816 353.844 29.272 354.42 30.184C354.996 31.048 355.284 32.08 355.284 33.28C355.284 36.496 354.372 39.568 352.548 42.496C353.172 42.4 353.796 42.16 354.42 41.776C355.044 41.392 355.74 40.888 356.508 40.264C357.324 39.64 357.996 39.184 358.524 38.896C359.436 39.52 359.892 40.36 359.892 41.416ZM383.7 41.632C383.7 42.544 383.292 43.312 382.476 43.936C382.428 43.984 381.756 44.536 380.46 45.592C379.164 46.6 378.3 47.248 377.868 47.536C377.484 47.824 376.62 48.376 375.276 49.192C373.98 50.008 372.876 50.584 371.964 50.92C371.1 51.208 369.972 51.52 368.58 51.856C367.236 52.144 365.892 52.288 364.548 52.288C362.1 52.288 360.396 51.448 359.436 49.768C358.428 48.088 357.924 45.544 357.924 42.136C357.924 39.88 359.004 37.48 361.164 34.936C363.324 32.344 365.796 30.256 368.58 28.672C371.364 27.04 373.692 26.224 375.564 26.224C377.292 26.224 378.756 26.56 379.956 27.232C381.204 27.904 381.828 29.008 381.828 30.544C381.828 31.072 381.276 32.464 380.172 34.72C379.068 36.928 378.108 38.032 377.292 38.032C375.468 38.032 374.556 37.48 374.556 36.376V36.088C374.604 35.656 374.988 34.816 375.708 33.568C376.428 32.32 376.788 31.456 376.788 30.976C376.788 30.544 376.284 30.328 375.276 30.328C373.548 30.328 371.004 31.768 367.644 34.648C364.332 37.528 362.676 40.504 362.676 43.576C362.676 45.016 362.916 46.096 363.396 46.816C363.924 47.536 364.908 47.896 366.348 47.896C368.172 47.896 370.332 47.2 372.828 45.808C375.324 44.368 377.436 42.952 379.164 41.56C380.94 40.12 381.852 39.4 381.9 39.4C382.428 39.4 382.86 39.688 383.196 40.264C383.532 40.792 383.7 41.248 383.7 41.632ZM427.579 40.984C427.579 42.232 427.123 43.312 426.211 44.224C425.155 45.28 422.827 46.888 419.227 49.048C415.627 51.208 413.131 52.288 411.739 52.288C410.587 52.288 409.747 52.096 409.219 51.712C408.739 51.28 408.499 50.536 408.499 49.48C408.499 48.616 409.819 45.76 412.459 40.912C413.995 37.936 415.051 35.872 415.627 34.72C413.755 36.304 410.707 39.28 406.483 43.648C402.259 47.968 399.907 50.368 399.427 50.848C398.227 51.808 397.291 52.288 396.619 52.288C395.707 52.288 395.059 52.12 394.675 51.784C394.339 51.448 394.171 50.872 394.171 50.056C394.171 48.952 395.491 45.856 398.131 40.768C399.283 38.464 400.291 36.52 401.155 34.936C399.619 36.28 397.339 38.488 394.315 41.56C391.291 44.632 388.699 47.2 386.539 49.264C384.379 51.28 383.011 52.288 382.435 52.288C381.907 52.288 381.379 52.096 380.851 51.712C380.275 51.28 379.987 50.8 379.987 50.272V50.128C380.083 49.408 381.019 47.2 382.795 43.504L381.283 44.656C380.035 44.656 379.411 43.816 379.411 42.136C379.411 41.704 380.683 40.36 383.227 38.104C385.771 35.848 387.307 34.192 387.835 33.136C387.931 32.896 388.099 32.512 388.339 31.984C388.627 31.456 388.819 31.096 388.915 30.904C389.011 30.664 389.155 30.352 389.347 29.968C389.587 29.536 389.755 29.224 389.851 29.032C389.995 28.84 390.163 28.6 390.355 28.312C390.595 28.024 390.811 27.832 391.003 27.736C391.195 27.592 391.411 27.448 391.651 27.304C391.891 27.112 392.131 26.992 392.371 26.944C392.659 26.896 392.947 26.872 393.235 26.872C394.819 26.872 395.611 27.424 395.611 28.528C395.611 28.672 395.323 29.392 394.747 30.688L390.787 38.536C399.091 30.472 404.347 26.44 406.555 26.44C407.611 26.44 408.331 26.584 408.715 26.872C409.147 27.112 409.411 27.688 409.507 28.6V28.672C409.507 29.392 407.875 32.8 404.611 38.896C413.059 30.592 418.435 26.44 420.739 26.44C422.659 26.44 423.619 27.304 423.619 29.032C423.619 29.512 422.251 32.488 419.515 37.96C416.683 43.768 415.219 46.768 415.123 46.96C416.419 46.288 418.291 45.016 420.739 43.144C423.235 41.224 424.723 40.024 425.203 39.544C425.251 39.496 425.419 39.472 425.707 39.472C426.955 39.472 427.579 39.976 427.579 40.984ZM460.419 40.696V41.056C460.419 42.304 459.987 43.312 459.123 44.08C457.683 45.376 455.235 47.08 451.779 49.192C448.371 51.256 445.971 52.288 444.579 52.288C442.179 52.288 440.979 51.424 440.979 49.696C440.979 48.832 442.371 45.784 445.155 40.552C436.323 48.376 430.467 52.288 427.587 52.288C426.771 52.288 426.099 52.072 425.571 51.64C424.995 51.208 424.707 50.752 424.707 50.272V50.128C424.851 49.12 425.739 46.984 427.371 43.72L426.003 44.656C424.803 44.656 424.203 43.816 424.203 42.136C424.203 41.56 425.475 40.168 428.019 37.96C430.563 35.752 432.123 34.096 432.699 32.992C433.323 31.744 434.115 30.4 435.075 28.96C436.035 27.52 436.683 26.8 437.019 26.8C437.547 26.8 438.243 26.944 439.107 27.232C440.019 27.52 440.475 27.76 440.475 27.952C440.475 28.672 440.331 29.248 440.043 29.68C439.755 30.064 438.459 32.44 436.155 36.808C433.899 41.176 432.387 44.176 431.619 45.808C433.251 44.848 435.843 42.808 439.395 39.688C442.995 36.568 446.523 33.184 449.979 29.536C451.611 27.712 452.715 26.8 453.291 26.8C454.443 26.8 455.715 26.92 457.107 27.16C456.531 28.888 455.955 30.304 455.379 31.408L447.387 46.96C448.587 46.48 450.483 45.28 453.075 43.36C455.667 41.392 457.323 40.048 458.043 39.328C458.139 39.232 458.331 39.184 458.619 39.184C459.819 39.184 460.419 39.688 460.419 40.696Z" fill="#B38EFF"/>
</svg>
