<svg width="184" height="16" viewBox="0 0 184 16" fill="none" xmlns="http://www.w3.org/2000/svg">
<g style="mix-blend-mode:hard-light">
<path d="M132.152 16L140.973 0L123.331 0L132.152 16Z" fill="white"/>
<path d="M89.4356 8.04233C89.4356 12.4606 85.9696 16 81.6763 16C77.383 16 73.8354 12.4606 73.8354 8.04233C73.8354 3.62407 77.383 0 81.6763 0C85.9696 0 89.4356 3.62407 89.4356 8.04233Z" fill="white"/>
<path d="M174.134 0V16H183.2V12.0212H177.973V9.56614H181.893V6.43386L177.973 6.43386V3.97884L183.2 3.97884V0L174.134 0Z" fill="white"/>
<path d="M154.45 16H158.37V3.97884L162.209 3.97884V0L150.611 0V3.97884L154.45 3.97884V16Z" fill="white"/>
<path d="M108.548 0L102.912 0V16H110.1C112.533 16 114.51 13.9323 114.51 11.4286C114.51 9.61843 113.469 8.09175 111.978 7.36508C112.583 6.58885 112.958 5.64387 112.958 4.57143C112.958 2.06775 110.981 0 108.548 0Z" fill="white"/>
<path d="M59.8687 5.5873C59.8687 2.49452 57.4017 0 54.3964 0L49.0058 0V16H52.8446V11.1746H53.4163L56.52 16H61.1756L57.1734 10.4127C58.7734 9.43761 59.8687 7.63965 59.8687 5.5873Z" fill="white"/>
<path d="M5.39064 11.1746C8.39594 11.1746 10.863 8.68008 10.863 5.5873C10.863 2.49452 8.39594 0 5.39064 0L0 0L0 16H3.92046L3.92046 11.1746H5.39064Z" fill="white"/>
</g>
<path d="M28.5085 16L37.3296 0L19.6875 0L28.5085 16Z" fill="white"/>
</svg>
