<svg width="112" height="38" viewBox="0 0 112 38" fill="none" xmlns="http://www.w3.org/2000/svg">
<path d="M14.8015 13.4912C14.8196 13.8374 14.7088 14.1436 14.4691 14.4098C14.1915 14.7181 13.5691 15.198 12.6019 15.8495C11.6346 16.501 10.958 16.8369 10.5718 16.8571C10.2523 16.8739 10.0165 16.8328 9.8644 16.734C9.72497 16.6211 9.64758 16.4182 9.63223 16.1253C9.61967 15.8856 9.94431 15.0742 10.6062 13.691C10.989 12.8431 11.2519 12.2552 11.3949 11.9273C10.8987 12.3939 10.0964 13.2638 8.98821 14.5368C7.87929 15.7966 7.26174 16.4965 7.13557 16.6367C6.81665 16.9204 6.56398 17.0672 6.37757 17.077C6.12459 17.0902 5.94239 17.053 5.83099 16.9654C5.7329 16.8771 5.67792 16.7197 5.66606 16.4934C5.65001 16.1871 5.97116 15.3091 6.62952 13.8594C6.91559 13.2035 7.16694 12.6496 7.38359 12.1976C6.97704 12.5928 6.37668 13.2384 5.58249 14.1345C4.7883 15.0307 4.10662 15.7807 3.53745 16.3846C2.96758 16.9753 2.60275 17.2748 2.44297 17.2832C2.29651 17.2908 2.14725 17.2452 1.9952 17.1464C1.82914 17.0349 1.74227 16.906 1.7346 16.7595L1.7325 16.7196C1.74867 16.5184 1.97621 15.8923 2.41514 14.8413L2.01246 15.1828C1.66627 15.201 1.48096 14.977 1.45654 14.511C1.45026 14.3911 1.78357 13.9998 2.45647 13.337C3.12937 12.6742 3.53138 12.1925 3.66249 11.8919C3.68563 11.824 3.72665 11.715 3.78555 11.5651C3.85777 11.4144 3.90579 11.3117 3.92963 11.2571C3.95277 11.1891 3.98818 11.1005 4.03586 10.9912C4.09615 10.8678 4.13822 10.7789 4.16206 10.7242C4.19921 10.6688 4.24233 10.5998 4.2914 10.5171C4.35379 10.4338 4.41092 10.3774 4.46278 10.3479C4.51395 10.3052 4.57177 10.2621 4.63625 10.2187C4.70004 10.1619 4.76487 10.1252 4.83075 10.1084C4.90994 10.0909 4.98948 10.08 5.06937 10.0758C5.50877 10.0528 5.73649 10.1944 5.75254 10.5007C5.75463 10.5406 5.68521 10.7445 5.54427 11.1124L4.55987 13.347C6.74614 10.9893 8.14553 9.79444 8.75802 9.76234C9.05095 9.74699 9.25277 9.77647 9.36348 9.85078C9.4868 9.91107 9.56841 10.067 9.6083 10.3186L9.60934 10.3386C9.61981 10.5383 9.21664 11.5074 8.39984 13.2459C10.6226 10.8195 12.0535 9.58964 12.6926 9.55614C13.2252 9.52823 13.5041 9.75394 13.5292 10.2333C13.5362 10.3664 13.2 11.2119 12.5206 12.7695C11.8194 14.4218 11.4569 15.2753 11.4331 15.33C11.7828 15.1247 12.2836 14.7447 12.9355 14.1898C13.5999 13.6209 13.9953 13.2664 14.1214 13.1263C14.134 13.1122 14.1803 13.1031 14.2602 13.099C14.6064 13.0808 14.7868 13.2115 14.8015 13.4912ZM19.0321 11.2467C18.899 11.2537 18.7875 11.4197 18.6977 11.7449C18.6206 12.056 18.5893 12.3514 18.604 12.631C18.6089 12.7242 18.6194 12.7971 18.6355 12.8496C18.9188 12.1405 19.051 11.6062 19.0321 11.2467ZM21.6607 13.2519C21.6788 13.598 21.4822 13.9221 21.0707 14.2241C20.5324 14.6528 19.9504 14.8836 19.3246 14.9164C19.1515 14.9255 18.984 14.9142 18.8221 14.8826C18.4443 15.3163 17.9905 15.7006 17.4606 16.0355C16.9307 16.3703 16.4195 16.5507 15.9268 16.5765C15.514 16.5981 15.1703 16.536 14.8956 16.3902C14.621 16.2444 14.4224 16.0211 14.2998 15.7205C14.1639 15.4205 14.0683 15.1251 14.013 14.8343C13.9577 14.5434 13.9189 14.185 13.8966 13.7589C13.8659 13.173 14.0149 12.5777 14.3437 11.973C14.6592 11.369 15.0465 10.8614 15.5056 10.4501C15.9773 10.0249 16.4532 9.67949 16.9333 9.414C17.426 9.1345 17.8255 8.98672 18.1318 8.97067C18.3848 8.95742 18.5603 8.99495 18.6584 9.08327C18.7698 9.17089 18.8311 9.32122 18.8422 9.53426C18.852 9.72067 18.7798 9.87133 18.6256 9.98622C18.484 10.0871 18.1518 10.2447 17.629 10.459C17.0143 10.7049 16.4641 11.161 15.9783 11.8273C15.4918 12.4803 15.2664 13.1464 15.302 13.8254L15.3083 13.9453C15.325 14.2648 15.3446 14.5108 15.367 14.6832C15.402 14.8416 15.4832 14.9909 15.6107 15.1311C15.7382 15.2712 15.9152 15.3354 16.1415 15.3235C16.6741 15.2956 17.2086 14.9205 17.7448 14.1981C17.4737 13.8652 17.3256 13.459 17.3005 12.9797C17.2656 12.3139 17.4371 11.6374 17.8149 10.95C18.1928 10.2626 18.6614 9.90424 19.2206 9.87493C19.5535 9.85748 19.8064 9.97107 19.9795 10.2157C20.1518 10.447 20.2467 10.7291 20.2641 11.0619C20.3109 11.954 20.1026 12.8195 19.6392 13.6582C19.8109 13.6225 19.9805 13.5469 20.148 13.4313C20.3155 13.3157 20.5012 13.1657 20.7052 12.9815C20.9225 12.7965 21.1023 12.6603 21.2446 12.5727C21.5066 12.7325 21.6453 12.9589 21.6607 13.2519ZM30.8129 12.612L30.8191 12.7318C30.8359 13.0514 30.7303 13.3306 30.5025 13.5695C30.1345 13.936 29.4862 14.4306 28.5575 15.0534C27.6289 15.6762 26.9714 15.9977 26.5853 16.0179C25.9861 16.0493 25.6722 15.7921 25.6436 15.2461C25.6373 15.1263 25.7594 14.7794 26.0097 14.2056C26.26 13.6317 26.559 12.9684 26.9068 12.2159C27.2671 11.4493 27.495 10.9567 27.5904 10.7381C26.6687 11.494 25.7652 12.3425 24.8799 13.2834L23.0966 15.1793C22.4132 15.8961 21.9583 16.2604 21.732 16.2723C21.5855 16.2799 21.4362 16.2344 21.2842 16.1355C21.1181 16.024 21.0313 15.8951 21.0236 15.7486L21.0215 15.7087C21.0377 15.5076 21.2652 14.8815 21.7041 13.8304L21.3015 14.1719C20.9686 14.1894 20.7899 13.9651 20.7655 13.499C20.7592 13.3792 21.0925 12.9879 21.7654 12.3251C22.425 11.663 22.8204 11.1817 22.9515 10.881C23.2958 10.0619 23.5436 9.56826 23.695 9.40011C23.8843 9.18991 24.112 9.07784 24.3783 9.06388C24.81 9.14807 25.0311 9.29003 25.0415 9.48976C25.0436 9.5297 24.9742 9.73361 24.8333 10.1015L23.69 12.7449C24.6665 11.7592 25.6467 10.8466 26.6308 10.0073C27.6282 9.16727 28.32 8.73715 28.7061 8.71691C29.2387 8.689 29.5172 8.90805 29.5417 9.37408C29.5444 9.42734 29.4091 9.7749 29.1357 10.4168C28.8748 11.0446 28.5544 11.8091 28.1744 12.7102C27.7937 13.598 27.5437 14.1786 27.4245 14.4518C27.7876 14.2459 28.2887 13.8725 28.9279 13.3316C29.5672 12.7908 29.9688 12.4292 30.1328 12.2471C30.1454 12.2331 30.1917 12.224 30.2716 12.2198C30.6178 12.2016 30.7982 12.3324 30.8129 12.612ZM36.2085 11.5481L35.9845 11.8603C35.8905 12.1055 35.6838 12.2365 35.3642 12.2533L30.8105 12.4919L31.0124 12.1409C31.1344 11.9209 31.3418 11.8032 31.6348 11.7878L36.2085 11.5481ZM46.1993 5.37681C46.2335 6.02924 46.0067 6.66866 45.5188 7.29505C45.0435 7.90743 44.4572 8.43885 43.7598 8.88929C44.3687 9.29799 44.6944 9.90844 44.737 10.7207C44.7935 11.7992 44.3595 12.8166 43.435 13.773C42.5097 14.716 41.3814 15.2225 40.0498 15.2922C39.1844 15.3376 38.5008 15.1598 37.9991 14.7588C37.4967 14.3446 37.2285 13.8112 37.1943 13.1588L37.1576 12.4597C37.1458 12.2334 37.2089 12.0365 37.347 11.869C37.4851 11.7015 37.6473 11.6129 37.8337 11.6032C37.9669 11.5962 38.0955 11.6295 38.2195 11.7031C38.3561 11.7627 38.4272 11.8458 38.4328 11.9523C38.4342 11.9789 38.4318 12.0592 38.4254 12.193C38.4324 12.3262 38.4383 12.4393 38.4432 12.5325C38.4572 12.7988 38.4746 13.0049 38.4956 13.1506C38.5292 13.2824 38.5909 13.4394 38.6805 13.6216C38.7702 13.8038 38.917 13.9297 39.1209 13.9991C39.3381 14.0678 39.6198 14.0931 39.966 14.075C40.8182 14.0303 41.594 13.6759 42.2936 13.0117C43.0057 12.3335 43.3409 11.5949 43.299 10.796C43.2815 10.4631 43.1866 10.1811 43.0143 9.94977C42.842 9.71847 42.6559 9.60805 42.4562 9.61852C42.4296 9.61992 42.2908 9.64722 42.0399 9.70042C41.789 9.75362 41.6236 9.78232 41.5437 9.7865C40.7182 9.82977 40.2922 9.59842 40.2657 9.09244C40.2538 8.86609 40.3909 8.67866 40.6768 8.53016C40.9754 8.36764 41.2778 8.27836 41.584 8.26231C41.6906 8.25672 41.8514 8.26832 42.0665 8.2971C42.2816 8.32588 42.4358 8.33783 42.529 8.33295C42.5823 8.33016 42.7824 8.1995 43.1293 7.94099C43.4889 7.66847 43.8572 7.3087 44.2344 6.86168C44.6108 6.40135 44.7889 5.97811 44.7686 5.59198C44.7456 5.15258 44.4279 4.94893 43.8154 4.98103C43.4692 4.99917 43.0693 5.14029 42.6159 5.40439C42.1617 5.65517 41.8288 5.9263 41.6171 6.21778C41.6045 6.23179 41.567 6.28049 41.5046 6.36386C41.4415 6.43393 41.3973 6.48297 41.3721 6.511C41.3462 6.52571 41.3013 6.56144 41.2375 6.61819C41.1863 6.66093 41.1278 6.6907 41.0619 6.7075C41.0094 6.72361 40.9498 6.7334 40.8832 6.73689C40.7501 6.74387 40.6075 6.69794 40.4554 6.59909C40.3034 6.50025 40.2242 6.39091 40.2179 6.27107C40.197 5.87162 40.5969 5.34998 41.4177 4.70614C42.2518 4.0616 43.0816 3.7177 43.9071 3.67444C44.5462 3.64094 45.0805 3.77316 45.5101 4.07109C45.9389 4.3557 46.1686 4.79094 46.1993 5.37681ZM63.075 10.9613C63.0932 11.3074 62.9824 11.6137 62.7427 11.8799C62.4651 12.1882 61.8427 12.6681 60.8755 13.3196C59.9082 13.9711 59.2315 14.307 58.8454 14.3272C58.5259 14.344 58.29 14.3029 58.138 14.2041C57.9986 14.0912 57.9212 13.8883 57.9058 13.5954C57.8933 13.3557 58.2179 12.5443 58.8798 11.1611C59.2626 10.3132 59.5255 9.72533 59.6685 9.39739C59.1723 9.864 58.37 10.7338 57.2618 12.0069C56.1529 13.2667 55.5353 13.9666 55.4092 14.1068C55.0902 14.3905 54.8376 14.5373 54.6512 14.547C54.3982 14.5603 54.216 14.5231 54.1046 14.4355C54.0065 14.3472 53.9515 14.1898 53.9397 13.9635C53.9236 13.6572 54.2448 12.7792 54.9031 11.3294C55.1892 10.6736 55.4405 10.1197 55.6572 9.6677C55.2506 10.0629 54.6503 10.7085 53.8561 11.6046C53.0619 12.5007 52.3802 13.2508 51.811 13.8547C51.2412 14.4454 50.8763 14.7449 50.7166 14.7532C50.5701 14.7609 50.4208 14.7153 50.2688 14.6165C50.1027 14.505 50.0159 14.3761 50.0082 14.2296L50.0061 14.1897C50.0223 13.9885 50.2498 13.3624 50.6887 12.3114L50.2861 12.6529C49.9399 12.671 49.7546 12.4471 49.7301 11.9811C49.7239 11.8612 50.0572 11.4699 50.7301 10.8071C51.403 10.1443 51.805 9.66264 51.9361 9.36203C51.9592 9.29406 52.0002 9.1851 52.0591 9.03514C52.1314 8.88449 52.1794 8.78183 52.2032 8.72718C52.2264 8.65921 52.2618 8.57057 52.3095 8.46125C52.3697 8.33793 52.4118 8.24894 52.4357 8.19428C52.4728 8.13893 52.5159 8.06991 52.565 7.98723C52.6274 7.90385 52.6845 7.84745 52.7364 7.81803C52.7875 7.77529 52.8454 7.73221 52.9098 7.68877C52.9736 7.63202 53.0385 7.59525 53.1043 7.57844C53.1835 7.56094 53.2631 7.5501 53.343 7.54591C53.7824 7.52288 54.0101 7.66449 54.0261 7.97074C54.0282 8.01068 53.9588 8.2146 53.8179 8.58248L52.8335 10.8171C55.0197 8.45941 56.4191 7.26453 57.0316 7.23243C57.3245 7.21708 57.5264 7.24656 57.6371 7.32087C57.7604 7.38116 57.842 7.5371 57.8819 7.78869L57.8829 7.80867C57.8934 8.00839 57.4902 8.97749 56.6734 10.716C58.8962 8.28963 60.3271 7.05972 60.9662 7.02623C61.4988 6.99832 61.7777 7.22403 61.8028 7.70337C61.8098 7.83652 61.4736 8.68194 60.7942 10.2396C60.093 11.8919 59.7305 12.7454 59.7067 12.8001C60.0564 12.5948 60.5572 12.2147 61.2091 11.6599C61.8735 11.091 62.2688 10.7365 62.395 10.5963C62.4076 10.5823 62.4539 10.5732 62.5338 10.569C62.88 10.5509 63.0604 10.6816 63.075 10.9613ZM67.206 7.96094C67.1997 7.84111 67.0701 7.78782 66.8171 7.80108C66.3777 7.8241 65.8135 8.14073 65.1245 8.75096C64.4481 9.34718 64.0163 9.8972 63.8291 10.401L64.0288 10.3906C64.8677 10.3466 65.6148 10.0805 66.2701 9.59216C66.9248 9.09054 67.2367 8.54681 67.206 7.96094ZM69.6147 10.7387C69.6308 11.0449 69.4975 11.3056 69.2151 11.5207C69.1772 11.5627 69.0304 11.6906 68.7746 11.9043C68.5313 12.1039 68.3456 12.2539 68.2173 12.354C68.0884 12.4409 67.889 12.5849 67.6191 12.7859C67.3626 12.9863 67.1239 13.1457 66.9032 13.2641C66.695 13.3684 66.4476 13.4882 66.1609 13.6234C65.8869 13.7446 65.6048 13.8395 65.3147 13.9081C65.0379 13.976 64.753 14.0176 64.4601 14.033C63.6478 14.0755 63.083 13.8715 62.7657 13.4208C62.4476 12.9568 62.2631 12.2388 62.2122 11.2668C62.1808 10.6677 62.4399 10.0065 62.9895 9.28343C63.5257 8.56104 64.1681 7.95326 64.9167 7.46007C65.6778 6.95287 66.3447 6.68427 66.9172 6.65427C67.4232 6.62775 67.8219 6.72034 68.1134 6.93204C68.4175 7.12973 68.5797 7.42165 68.5999 7.80778C68.6495 8.75315 68.233 9.5961 67.3506 10.3366C66.4674 11.0639 65.3667 11.462 64.0485 11.5311L63.6092 11.5541L63.6165 11.6939C63.657 12.4662 63.9967 12.8356 64.6359 12.8021C65.2484 12.77 65.9103 12.535 66.6217 12.0972C67.3331 11.6594 67.9247 11.2278 68.3964 10.8025C68.8681 10.3773 69.1106 10.1643 69.1239 10.1636C69.2305 10.158 69.3345 10.2327 69.4361 10.3876C69.5503 10.5284 69.6098 10.6455 69.6147 10.7387ZM77.6817 10.1156L77.687 10.2155C77.7051 10.5617 77.5999 10.8476 77.3714 11.0732C76.9908 11.4536 76.3365 11.9619 75.4085 12.598C74.4932 13.2201 73.8424 13.5413 73.4563 13.5615C72.7905 13.5964 72.4451 13.3742 72.42 12.8948C72.4109 12.7217 72.6753 12.0336 73.213 10.8305C71.6688 12.7005 70.4639 13.6582 69.5984 13.7036C69.0925 13.7301 68.7169 13.5696 68.4717 13.2219C68.2132 12.875 68.0717 12.4685 68.0473 12.0025C68.0417 11.8959 68.048 11.7621 68.0663 11.6009C68.1014 11.2519 68.2042 10.9194 68.3745 10.6034C68.5449 10.2874 68.7832 10.1214 69.0894 10.1053L69.2093 10.099C69.6781 10.1279 69.9244 10.3686 69.9481 10.8214C69.9495 10.848 69.9442 10.875 69.9323 10.9023C69.9337 10.9289 69.9351 10.9556 69.9365 10.9822C69.9049 11.1441 69.8071 11.3161 69.6431 11.4982C69.4924 11.6797 69.4125 11.8107 69.4033 11.8913C69.404 11.9046 69.4058 11.9379 69.4086 11.9912C69.3973 12.0318 69.3924 12.0655 69.3938 12.0921C69.4057 12.3185 69.5248 12.4257 69.7512 12.4138C69.9109 12.4055 70.1065 12.3151 70.3378 12.1428C70.5684 11.9571 70.8477 11.6821 71.1757 11.3178C71.5031 10.9401 71.8171 10.5632 72.1179 10.1869C72.4319 9.80998 72.8335 9.32162 73.3228 8.72186C73.8121 8.12209 74.2457 7.60536 74.6235 7.17166C75.0497 6.64196 75.3427 6.37293 75.5024 6.36455C75.822 6.34781 76.1766 6.3626 76.5662 6.40894C76.4765 6.73408 76.067 7.71019 75.3378 9.33725C74.6212 10.9503 74.2216 11.8591 74.1388 12.0637C74.4521 11.9271 74.9606 11.5667 75.6643 10.9824C76.3674 10.3848 76.8135 9.98089 77.0028 9.7707C77.028 9.74268 77.0806 9.72657 77.1605 9.72238C77.4933 9.70494 77.6671 9.83602 77.6817 10.1156ZM81.5808 7.20759C81.5746 7.08776 81.4449 7.03447 81.1919 7.04773C80.7525 7.07075 80.1883 7.38738 79.4993 7.99761C78.8229 8.59383 78.3911 9.14385 78.2039 9.64767L78.4036 9.6372C79.2425 9.59324 79.9896 9.32711 80.6449 8.83881C81.2996 8.33719 81.6115 7.79345 81.5808 7.20759ZM83.9895 9.98534C84.0056 10.2916 83.8724 10.5522 83.5899 10.7673C83.552 10.8094 83.4052 10.9372 83.1494 11.1509C82.9061 11.3506 82.7204 11.5005 82.5921 11.6007C82.4632 11.6876 82.2638 11.8315 81.9939 12.0326C81.7374 12.233 81.4987 12.3923 81.278 12.5107C81.0698 12.6151 80.8224 12.7349 80.5357 12.87C80.2617 12.9912 79.9796 13.0861 79.6895 13.1547C79.4127 13.2226 79.1278 13.2643 78.8349 13.2796C78.0226 13.3222 77.4578 13.1181 77.1405 12.6675C76.8224 12.2035 76.6379 11.4855 76.587 10.5135C76.5556 9.9143 76.8147 9.25317 77.3643 8.53008C77.9005 7.80769 78.5429 7.19991 79.2915 6.70672C80.0526 6.19952 80.7195 5.93092 81.292 5.90091C81.798 5.8744 82.1967 5.96699 82.4882 6.17869C82.7923 6.37638 82.9545 6.66829 82.9747 7.05443C83.0243 7.9998 82.6078 8.84275 81.7254 9.58328C80.8422 10.3105 79.7415 10.7087 78.4234 10.7777L77.984 10.8008L77.9913 10.9406C78.0318 11.7128 78.3716 12.0822 79.0107 12.0487C79.6232 12.0166 80.2851 11.7817 80.9965 11.3438C81.7079 10.906 82.2995 10.4745 82.7712 10.0492C83.2429 9.62392 83.4854 9.41093 83.4987 9.41023C83.6053 9.40465 83.7093 9.47931 83.8109 9.6342C83.9251 9.77509 83.9846 9.89213 83.9895 9.98534ZM96.131 9.14876L96.1362 9.24862C96.1543 9.59481 96.0492 9.88071 95.8206 10.1063C95.44 10.4868 94.7857 10.995 93.8578 11.6311C92.9424 12.2532 92.2916 12.5744 91.9055 12.5946C91.2398 12.6295 90.8943 12.4073 90.8692 11.9279C90.8587 11.7282 91.1827 10.9035 91.841 9.45369C89.7536 11.6593 88.3437 12.7813 87.6114 12.8197C87.4117 12.8301 87.2277 12.7597 87.0596 12.6083C86.8914 12.4568 86.8039 12.3146 86.7969 12.1814L86.7948 12.1415C86.7836 11.9284 87.0417 11.2473 87.5689 10.0982C86.0373 11.9542 84.8387 12.9049 83.9733 12.9503C83.4673 12.9768 83.0917 12.8162 82.8465 12.4686C82.588 12.1216 82.4465 11.7151 82.4221 11.2491C82.4165 11.1426 82.4228 11.0087 82.4411 10.8476C82.4762 10.4986 82.579 10.1661 82.7493 9.85006C82.9197 9.53404 83.158 9.36801 83.4642 9.35196L83.5841 9.34568C84.0529 9.37452 84.2992 9.61529 84.3229 10.068C84.3243 10.0946 84.319 10.1216 84.3071 10.1489C84.3085 10.1756 84.3099 10.2022 84.3113 10.2288C84.2797 10.3907 84.1819 10.5627 84.0179 10.7449C83.8672 10.9264 83.7873 11.0574 83.7781 11.138C83.7788 11.1513 83.7806 11.1846 83.7834 11.2378C83.7721 11.2785 83.7672 11.3121 83.7686 11.3388C83.7805 11.5651 83.8996 11.6724 84.126 11.6605C84.2724 11.6528 84.4546 11.5632 84.6726 11.3915C84.9032 11.2059 85.1822 10.9242 85.5096 10.5466C85.8502 10.1682 86.1713 9.79756 86.4727 9.43462C86.7874 9.07099 87.1957 8.58228 87.6976 7.96851C88.1995 7.35473 88.6331 6.838 88.9983 6.41831C89.4245 5.88861 89.7175 5.61958 89.8772 5.6112C90.1968 5.59445 90.5514 5.60925 90.941 5.65559C90.8737 5.89945 90.6851 6.37664 90.3752 7.08717C90.0779 7.78368 89.7315 8.56287 89.3361 9.42475C88.9407 10.2866 88.7131 10.7859 88.6535 10.9225C89.4743 10.2787 90.9474 8.70611 93.0727 6.20478C93.4989 5.67508 93.7919 5.40605 93.9517 5.39767C94.2712 5.38092 94.6258 5.39572 95.0154 5.44206C94.8808 5.92977 94.7416 6.33094 94.5978 6.64556L92.6617 10.9728L92.607 11.0758C92.9329 10.9252 93.4414 10.5648 94.1325 9.99451C94.8229 9.41091 95.2627 9.01401 95.452 8.80382C95.4772 8.77579 95.5298 8.75969 95.6097 8.7555C95.9425 8.73805 96.1163 8.86914 96.131 9.14876ZM100.091 6.23754C100.084 6.1177 99.9547 6.06441 99.7017 6.07767C99.2623 6.1007 98.6981 6.41733 98.0091 7.02756C97.3327 7.62377 96.9009 8.17379 96.7137 8.67761L96.9134 8.66715C97.7522 8.62319 98.4993 8.35705 99.1547 7.86875C99.8093 7.36714 100.121 6.8234 100.091 6.23754ZM102.499 9.01528C102.515 9.32153 102.382 9.58219 102.1 9.79727C102.062 9.83931 101.915 9.96717 101.659 10.1808C101.416 10.3805 101.23 10.5304 101.102 10.6306C100.973 10.7175 100.774 10.8615 100.504 11.0625C100.247 11.2629 100.008 11.4223 99.7877 11.5407C99.5796 11.645 99.3322 11.7648 99.0455 11.9C98.7715 12.0212 98.4894 12.1161 98.1992 12.1847C97.9224 12.2526 97.6375 12.2942 97.3446 12.3096C96.5324 12.3521 95.9676 12.1481 95.6502 11.6974C95.3322 11.2334 95.1477 10.5154 95.0968 9.54342C95.0654 8.94425 95.3244 8.28311 95.874 7.56003C96.4103 6.83764 97.0527 6.22985 97.8012 5.73666C98.5624 5.22947 99.2293 4.96086 99.8018 4.93086C100.308 4.90434 100.707 4.99693 100.998 5.20864C101.302 5.40633 101.464 5.69824 101.484 6.08438C101.534 7.02974 101.118 7.8727 100.235 8.61323C99.352 9.34044 98.2513 9.7386 96.9331 9.80768L96.4937 9.83071L96.501 9.97051C96.5415 10.7428 96.8813 11.1122 97.5204 11.0787C98.1329 11.0466 98.7949 10.8116 99.5063 10.3738C100.218 9.93595 100.809 9.5044 101.281 9.07913C101.753 8.65386 101.995 8.44088 102.008 8.44018C102.115 8.4346 102.219 8.50925 102.321 8.66415C102.435 8.80503 102.494 8.92208 102.499 9.01528ZM104.511 14.3773C103.406 15.45 102.862 16.1461 102.878 16.4657L102.879 16.4856C103.106 16.4738 103.375 16.2527 103.686 15.8225C103.997 15.3923 104.272 14.9106 104.511 14.3773ZM109.801 8.31217C109.887 8.42782 109.933 8.53225 109.938 8.62545C109.943 8.71866 109.94 8.80556 109.931 8.88614C109.922 8.96673 109.9 9.04802 109.864 9.13C109.828 9.21199 109.798 9.28031 109.775 9.33496C109.763 9.3756 109.726 9.43096 109.663 9.50102C109.6 9.57109 109.556 9.62013 109.531 9.64816C109.505 9.66287 109.454 9.71226 109.378 9.79634C109.302 9.8671 109.257 9.90949 109.245 9.9235C109.219 9.95153 108.927 10.2339 108.368 10.7706C107.822 11.3065 107.372 11.7707 107.019 12.1631C106.666 12.5554 106.455 12.8602 106.386 13.0774C106.271 13.4439 106.093 13.8605 105.85 14.3272C105.622 14.8065 105.341 15.3085 105.008 15.8333C104.688 16.3574 104.325 16.8038 103.917 17.1723C103.509 17.5408 103.112 17.7352 102.726 17.7554C101.993 17.7938 101.609 17.4601 101.572 16.7544C101.549 16.315 101.826 15.7398 102.402 15.0286C102.966 14.3181 103.553 13.6665 104.163 13.0738C104.786 12.4937 105.11 12.1763 105.134 12.1216C105.158 12.067 105.187 11.9787 105.22 11.8568C105.268 11.7475 105.321 11.6112 105.379 11.4479C105.45 11.2706 105.509 11.1207 105.556 10.998C104.796 11.7855 104.13 12.1943 103.557 12.2243C102.758 12.2662 102.212 12.0344 101.919 11.5291C101.625 11.0238 101.454 10.3051 101.405 9.37304C101.367 8.65402 101.703 7.91547 102.41 7.15738C103.131 6.38528 103.967 5.76737 104.917 5.30367C105.867 4.82664 106.701 4.56929 107.42 4.53161C107.779 4.51277 108.218 4.60327 108.736 4.80311C109.254 5.00295 109.517 5.18941 109.526 5.36251C109.535 5.52229 109.485 5.72516 109.378 5.97111C109.283 6.20305 109.149 6.32355 108.976 6.33262C108.936 6.33472 108.853 6.27898 108.727 6.16543C108.614 6.05118 108.442 5.94672 108.21 5.85206C107.991 5.74339 107.735 5.69673 107.442 5.71209C106.51 5.76093 105.492 6.21481 104.389 7.07373C103.298 7.91863 102.775 8.76717 102.82 9.61933L102.838 9.95886C102.871 10.598 103.114 10.9057 103.567 10.882C103.9 10.8645 104.294 10.6235 104.751 10.159C105.22 9.6938 105.641 9.19108 106.014 8.65086C106.398 8.09662 106.786 7.58899 107.175 7.12796C107.565 6.66693 107.86 6.43118 108.06 6.42072C108.166 6.41513 108.283 6.46912 108.409 6.58268C108.548 6.69553 108.62 6.79191 108.624 6.8718L108.625 6.89177L107.484 9.9557L108.892 8.54007C109.199 8.28366 109.399 8.153 109.492 8.14812C109.612 8.14184 109.715 8.19652 109.801 8.31217ZM12.8437 25.0495C12.8165 24.5302 12.4721 24.2011 11.8106 24.0622L9.83535 29.1726C10.2839 28.8153 10.6424 28.5228 10.9109 28.2951C11.192 28.0534 11.5095 27.743 11.8635 27.3639C12.2175 26.9849 12.4712 26.6044 12.6248 26.2225C12.7917 25.8399 12.8646 25.4489 12.8437 25.0495ZM14.3658 25.0498C14.4502 26.6609 13.0206 28.5517 10.0768 30.722C9.68999 30.4753 9.46858 30.3267 9.41253 30.2762C9.0928 31.054 8.751 31.7929 8.38714 32.4929C8.02327 33.1929 7.58757 33.9234 7.08003 34.6843C6.5718 35.4319 6.00928 36.0355 5.39249 36.4951C4.78901 36.954 4.17437 37.1998 3.54856 37.2326C3.28226 37.2466 2.97357 37.216 2.6225 37.141C2.27072 37.0526 2.06963 36.9096 2.01922 36.712C2.01015 36.5389 2.09919 36.3272 2.28636 36.0771C2.45951 35.8144 2.63929 35.6781 2.8257 35.6683C3.10108 35.8275 3.33862 35.9018 3.53835 35.8913C4.00438 35.8669 4.49744 35.5941 5.01754 35.0728C5.53694 34.5382 6.01607 33.8722 6.45494 33.0748C6.89381 32.2774 7.24471 31.5848 7.50764 30.9969C7.78388 30.4083 8.02226 29.8617 8.2228 29.3572C8.41281 28.9066 9.07158 27.2098 10.1991 24.2668C9.22983 24.6247 8.29868 25.3277 7.40565 26.3759C6.52524 27.4101 5.92304 28.4029 5.59906 29.3545C5.5072 29.6397 5.35053 29.8349 5.12906 29.9399C4.89991 29.8985 4.70091 29.7955 4.53206 29.6307C4.37652 29.4653 4.29387 29.2894 4.2841 29.103C4.27503 28.9299 4.39739 28.5897 4.65119 28.0824C4.90498 27.5751 5.1125 27.2037 5.27373 26.9683C6.01681 25.8612 6.89441 24.9006 7.90652 24.0865C8.91864 23.2725 9.99058 22.8358 11.1224 22.7764L11.2622 22.7691C12.1143 22.7245 12.8319 22.9138 13.4149 23.3372C14.0104 23.7466 14.3274 24.3175 14.3658 25.0498ZM17.4847 31.3552C17.3516 31.3622 17.2401 31.5283 17.1504 31.8534C17.0732 32.1645 17.042 32.4599 17.0566 32.7395C17.0615 32.8327 17.072 32.9056 17.0881 32.9582C17.3714 32.249 17.5036 31.7147 17.4847 31.3552ZM20.1133 33.3604C20.1314 33.7066 19.9348 34.0307 19.5234 34.3326C18.9851 34.7614 18.403 34.9921 17.7772 35.0249C17.6041 35.034 17.4366 35.0228 17.2748 34.9912C16.8969 35.4249 16.4431 35.8092 15.9132 36.144C15.3834 36.4789 14.8721 36.6592 14.3794 36.685C13.9667 36.7067 13.6229 36.6446 13.3483 36.4987C13.0736 36.3529 12.875 36.1297 12.7524 35.829C12.6165 35.5291 12.5209 35.2336 12.4656 34.9428C12.4103 34.652 12.3715 34.2935 12.3492 33.8674C12.3185 33.2816 12.4675 32.6863 12.7963 32.0816C13.1118 31.4776 13.4991 30.9699 13.9582 30.5587C14.43 30.1334 14.9059 29.788 15.386 29.5225C15.8787 29.243 16.2782 29.0953 16.5844 29.0792C16.8374 29.066 17.0129 29.1035 17.111 29.1918C17.2224 29.2794 17.2837 29.4298 17.2949 29.6428C17.3046 29.8292 17.2324 29.9799 17.0782 30.0948C16.9366 30.1956 16.6044 30.3532 16.0816 30.5676C15.467 30.8134 14.9167 31.2695 14.431 31.9358C13.9445 32.5889 13.719 33.2549 13.7546 33.934L13.7609 34.0538C13.7776 34.3734 13.7972 34.6193 13.8196 34.7917C13.8546 34.9501 13.9358 35.0994 14.0634 35.2396C14.1909 35.3798 14.3678 35.4439 14.5942 35.4321C15.1268 35.4042 15.6612 35.029 16.1975 34.3066C15.9263 33.9737 15.7782 33.5676 15.7531 33.0882C15.7182 32.4225 15.8897 31.7459 16.2676 31.0585C16.6454 30.3711 17.114 30.0128 17.6732 29.9835C18.0061 29.966 18.2591 30.0796 18.4321 30.3242C18.6044 30.5555 18.6993 30.8376 18.7168 31.1705C18.7635 32.0626 18.5552 32.928 18.0918 33.7667C18.2635 33.731 18.4331 33.6554 18.6006 33.5398C18.7681 33.4242 18.9539 33.2743 19.1578 33.09C19.3751 32.9051 19.5549 32.7688 19.6972 32.6812C19.9592 32.8411 20.0979 33.0675 20.1133 33.3604ZM26.7205 33.0742C26.7338 33.3272 26.6317 33.5462 26.4145 33.7311C26.4018 33.7451 26.2235 33.908 25.8793 34.2198C25.5344 34.5183 25.3042 34.7106 25.1885 34.7967C25.0862 34.8822 24.8546 35.0479 24.4936 35.2938C24.146 35.539 23.8481 35.7148 23.6 35.8213C23.3645 35.9137 23.0561 36.0167 22.6749 36.1301C22.3063 36.2296 21.9355 36.289 21.5627 36.3086C20.8836 36.3442 20.3987 36.1359 20.108 35.6839C19.804 35.2325 19.6272 34.5341 19.5776 33.5887C19.5448 32.9629 19.8095 32.2815 20.3717 31.5444C20.9332 30.794 21.5886 30.1788 22.3378 29.699C23.0864 29.2058 23.7203 28.9456 24.2396 28.9184C24.7189 28.8932 25.1299 28.9652 25.4726 29.1341C25.8285 29.3024 26.0177 29.5996 26.04 30.0256C26.0477 30.1721 25.9148 30.5663 25.6414 31.2081C25.3672 31.8367 25.117 32.1569 24.8906 32.1687C24.3846 32.1953 24.1236 32.0554 24.1076 31.7491L24.1034 31.6693C24.1104 31.5487 24.2047 31.3101 24.3863 30.9535C24.5679 30.5968 24.6552 30.3519 24.6482 30.2187C24.6419 30.0989 24.499 30.0463 24.2194 30.061C23.74 30.0861 23.0553 30.5225 22.1651 31.3703C21.2882 32.2173 20.8721 33.0669 20.9168 33.9191C20.9377 34.3186 21.02 34.6147 21.1636 34.8074C21.3205 34.9995 21.5987 35.085 21.9982 35.0641C22.5041 35.0376 23.0932 34.8131 23.7653 34.3907C24.4368 33.9549 25.0021 33.5314 25.4612 33.1202C25.9329 32.6949 26.1754 32.4819 26.1887 32.4812C26.3352 32.4735 26.4592 32.5472 26.5608 32.7021C26.6617 32.8436 26.7149 32.9677 26.7205 33.0742ZM33.0204 32.744C33.0337 32.997 32.9317 33.216 32.7144 33.401C32.7018 33.415 32.5234 33.5779 32.1792 33.8896C31.8344 34.1881 31.6041 34.3804 31.4885 34.4666C31.3862 34.5521 31.1545 34.7177 30.7936 34.9636C30.4459 35.2088 30.148 35.3847 29.8999 35.4911C29.6645 35.5836 29.3561 35.6865 28.9748 35.8C28.6062 35.8994 28.2355 35.9589 27.8626 35.9784C27.1836 36.014 26.6987 35.8058 26.408 35.3537C26.1039 34.9023 25.9271 34.2039 25.8776 33.2586C25.8448 32.6328 26.1095 31.9513 26.6717 31.2142C27.2332 30.4638 27.8885 29.8487 28.6378 29.3688C29.3863 28.8756 30.0203 28.6154 30.5395 28.5882C31.0189 28.5631 31.4299 28.635 31.7725 28.804C32.1285 28.9722 32.3176 29.2694 32.34 29.6955C32.3476 29.8419 32.2148 30.2361 31.9413 30.878C31.6672 31.5065 31.4169 31.8267 31.1905 31.8386C30.6846 31.8651 30.4236 31.7252 30.4075 31.419L30.4033 31.3391C30.4104 31.2186 30.5047 30.98 30.6863 30.6233C30.8678 30.2666 30.9551 30.0217 30.9482 29.8886C30.9419 29.7687 30.7989 29.7162 30.5193 29.7308C30.04 29.7559 29.3552 30.1924 28.465 31.0401C27.5882 31.8872 27.172 32.7368 27.2167 33.5889C27.2376 33.9884 27.3199 34.2845 27.4635 34.4772C27.6205 34.6693 27.8987 34.7549 28.2981 34.7339C28.8041 34.7074 29.3931 34.4829 30.0653 34.0605C30.7367 33.6248 31.302 33.2013 31.7611 32.79C32.2328 32.3647 32.4754 32.1518 32.4887 32.1511C32.6351 32.1434 32.7592 32.217 32.8607 32.3719C32.9616 32.5135 33.0149 32.6375 33.0204 32.744ZM41.9032 32.0182L41.9085 32.118C41.9266 32.4642 41.8214 32.7501 41.5929 32.9757C41.2123 33.3562 40.558 33.8644 39.63 34.5005C38.7147 35.1226 38.0639 35.4438 37.6778 35.464C37.012 35.4989 36.6666 35.2767 36.6415 34.7973C36.6289 34.5577 36.9707 33.6919 37.6669 32.2001C35.3307 34.4989 33.7631 35.6692 32.9642 35.711C32.7379 35.7229 32.5483 35.6728 32.3956 35.5606C32.2295 35.4491 32.143 35.3268 32.136 35.1937L32.1339 35.1537C32.1592 34.872 32.3745 34.2666 32.7798 33.3375L32.4139 33.617C32.081 33.6344 31.9024 33.4101 31.8779 32.9441C31.8696 32.7843 32.2022 32.3797 32.8758 31.7302C33.5494 31.0807 33.958 30.5987 34.1018 30.2841C34.2567 29.9288 34.4569 29.5445 34.7023 29.1311C34.9476 28.7177 35.1169 28.5085 35.2101 28.5036C35.3566 28.496 35.5517 28.5258 35.7956 28.5931C36.0528 28.6597 36.1828 28.7197 36.1855 28.773C36.196 28.9727 36.1644 29.1346 36.0908 29.2586C36.0165 29.3693 35.6916 30.0472 35.1159 31.2924C34.5536 32.5369 34.1778 33.391 33.9885 33.8549C34.4273 33.5649 35.1166 32.9613 36.0566 32.0442C37.0098 31.1264 37.9393 30.1364 38.845 29.0742C39.2711 28.5445 39.5641 28.2754 39.7239 28.2671C40.0435 28.2503 40.3981 28.2651 40.7877 28.3115C40.653 28.7992 40.5138 29.2003 40.3701 29.515L38.3792 33.9452C38.7051 33.7946 39.2136 33.4342 39.9047 32.8639C40.5951 32.2803 41.035 31.8834 41.2242 31.6732C41.2495 31.6452 41.302 31.6291 41.3819 31.6249C41.7148 31.6075 41.8886 31.7385 41.9032 32.0182ZM50.7778 31.5531L50.783 31.6529C50.8011 31.9991 50.696 32.285 50.4675 32.5106C50.0868 32.8911 49.4325 33.3993 48.5046 34.0354C47.5892 34.6575 46.9384 34.9787 46.5523 34.9989C45.8866 35.0338 45.5411 34.8116 45.516 34.3323C45.5034 34.0926 45.8453 33.2268 46.5415 31.735C44.2053 34.0338 42.6377 35.2041 41.8388 35.246C41.6124 35.2578 41.4229 35.2077 41.2701 35.0955C41.1041 34.984 41.0175 34.8617 41.0106 34.7286L41.0085 34.6886C41.0338 34.4069 41.249 33.8015 41.6543 32.8724L41.2884 33.1519C40.9556 33.1693 40.7769 32.945 40.7525 32.479C40.7441 32.3192 41.0767 31.9146 41.7503 31.2651C42.4239 30.6157 42.8326 30.1336 42.9763 29.819C43.1313 29.4637 43.3314 29.0794 43.5768 28.666C43.8222 28.2526 43.9914 28.0434 44.0847 28.0385C44.2311 28.0309 44.4263 28.0607 44.6701 28.128C44.9273 28.1946 45.0573 28.2546 45.0601 28.3079C45.0706 28.5076 45.039 28.6695 44.9654 28.7935C44.8911 28.9042 44.5661 29.5821 43.9905 30.8273C43.4282 32.0718 43.0524 32.9259 42.863 33.3898C43.3018 33.0998 43.9912 32.4962 44.9311 31.5791C45.8844 30.6613 46.8138 29.6713 47.7195 28.6091C48.1457 28.0794 48.4387 27.8104 48.5985 27.802C48.918 27.7852 49.2726 27.8 49.6622 27.8464C49.5276 28.3341 49.3884 28.7352 49.2447 29.0499L47.2538 33.4801C47.5797 33.3295 48.0882 32.9691 48.7793 32.3988C49.4697 31.8152 49.9095 31.4183 50.0988 31.2081C50.124 31.1801 50.1766 31.164 50.2565 31.1598C50.5893 31.1424 50.7631 31.2734 50.7778 31.5531Z" fill="#F68121"/>
</svg>
