<svg width="64" height="64" viewBox="0 0 64 64" fill="none" xmlns="http://www.w3.org/2000/svg">
<path fill-rule="evenodd" clip-rule="evenodd" d="M4 32C4 16.5362 16.5194 4 32.0375 4C47.4806 4 60 16.5362 60 32C60 47.4638 47.4806 60 32.0375 60C16.5194 60 4 47.4638 4 32ZM32.7871 6.17687H31.2877L25.7402 23.2922H7.74825C7.59832 23.7426 7.44839 24.218 7.29845 24.7184L21.842 35.2278L16.2944 52.3431L17.4939 53.2439L31.9624 42.6594L46.5809 53.2439L47.7804 52.3431L42.2329 35.3029L56.7764 24.7184C56.6264 24.218 56.4765 23.7426 56.3266 23.2922H38.3346L32.7871 6.17687Z" fill="white"/>
</svg>
