<svg width="88" height="88" viewBox="0 0 88 88" fill="none" xmlns="http://www.w3.org/2000/svg">
<path d="M15 62.0002C15 62.0002 32.9999 88.7954 57 76.0001C81.0001 63.2048 70.5 38 70.5 38" stroke="#231F20" stroke-width="10" stroke-linecap="round"/>
<path d="M17.1426 23.1533C17.5662 27.3859 19.8675 32.729 23.4283 34.5971C24.9625 35.4071 27.241 34.8976 27.6303 32.6506C28.1573 28.6902 27.4482 24.6443 25.6266 21.2198C24.896 19.5793 23.8127 18.1769 22.478 17.1439C21.5021 16.5611 20.3439 16.5301 19.3452 17.0602C18.3464 17.5903 17.621 18.621 17.383 19.8481C16.3526 23.8848 21.8712 25.6092 22.9016 21.5725L23.0276 21.05L21.7109 23.0096L21.0354 23.2316L19.0432 22.278C20.9781 24.0416 22.6269 28.0391 22.1345 30.9131L26.3365 28.9536C24.5159 27.6711 23.2652 25.559 22.9016 23.1533C22.854 21.3725 21.5999 19.9417 20.0393 19.8873C18.4636 19.9015 17.1894 21.3554 17.1769 23.1533H17.1426Z" fill="#231F20"/>
<path d="M34.4774 14.4143C34.9125 18.7384 37.294 24.5126 40.9349 26.4591C42.4691 27.2691 44.759 26.7465 45.1369 24.4996C45.6468 20.3737 44.8904 16.1736 42.9958 12.6115C42.2636 10.9425 41.1675 9.51641 39.8129 8.47029C38.8481 7.88666 37.7013 7.84403 36.7053 8.35478C35.7093 8.86552 34.9758 9.87241 34.7179 11.083C33.6874 15.1328 39.2175 16.8572 40.2365 12.8205L40.3739 12.298L39.0572 14.2575L38.3702 14.4796L36.3437 13.526C38.3588 15.368 40.122 19.7705 39.6182 22.749L43.8202 20.8025C42.0798 19.875 40.3853 16.5437 40.2021 14.4012C39.79 10.2731 34.0538 10.2208 34.4774 14.4012V14.4143Z" fill="#231F20"/>
</svg>
