<svg width="88" height="88" viewBox="0 0 88 88" fill="none" xmlns="http://www.w3.org/2000/svg">
<g id="pic">
<g id="scribble final version-139">
<path id="Path" d="M35.2656 46.854C35.2656 46.854 41.8203 48.5636 42.6807 51.6796C43.4905 54.5901 37.3661 55.9317 37.3661 55.9317C37.3661 55.9317 47.9953 56.9271 48.1345 53.3999C48.2737 49.8727 44.4143 46.378 41.6304 46.5511C38.8466 46.7242 35.2656 46.854 35.2656 46.854Z" fill="#231F20"/>
<path id="Path_2" d="M36.379 48.8028C34.1631 48.4885 31.8962 48.5547 29.7105 48.9975C27.6423 49.4017 25.7217 50.2339 24.1176 51.4211L23.738 51.7457L23.5735 51.908C23.5735 51.908 23.5735 51.9621 23.5735 51.9946C23.4726 52.1427 23.3879 52.2984 23.3204 52.4598C23.1348 53.0066 22.9911 53.5632 22.8902 54.126C22.4435 56.7599 22.3756 59.4305 22.6877 62.0785C22.9736 64.916 23.4723 67.7349 24.1808 70.5178C24.8168 73.0049 25.6626 75.4493 26.7116 77.8319C27.3696 79.3466 28.1541 80.8289 28.9007 82.2896L29.4574 83.3715L29.9003 84.5833C30.1661 85.3515 30.4444 86.1089 30.7481 86.8555C31.1024 87.7751 30.3685 88.1646 28.8627 87.9374C27.9273 87.7593 27.0305 87.4562 26.2054 87.0394C25.6993 86.8006 25.2206 86.5217 24.7756 86.2063C24.5351 86.044 24.3453 85.8601 24.1049 85.6978C23.9341 85.4894 23.7778 85.2726 23.6367 85.0486C21.7543 81.9006 20.2003 78.6167 18.9928 75.2352C17.8112 71.8394 17.0478 68.3473 16.7151 64.8158C16.5127 62.6519 16.209 60.488 16.0572 58.27C15.9809 57.1132 15.9809 55.9536 16.0572 54.7969C16.1766 53.5158 16.4914 52.2537 16.9935 51.0424C17.342 50.2667 17.8193 49.5379 18.4107 48.8785L18.9295 48.3483L19.3851 47.9805C19.679 47.7356 19.9919 47.5079 20.3215 47.2988C21.5714 46.459 22.951 45.7709 24.4213 45.2539C27.2179 44.3009 30.1929 43.7877 33.2029 43.7392C36.8607 43.626 40.4958 44.2758 43.7941 45.6326C46.9602 46.8475 49.2944 49.2426 50.121 52.1244C50.1902 52.4458 50.2283 52.7715 50.2349 53.0982C50.2349 53.4228 50.1589 53.7474 50.1336 54.0719C50.1083 54.3965 49.8426 54.6778 49.6781 54.97L49.0201 55.7598L48.185 56.4306C47.89 56.6318 47.5769 56.8126 47.2486 56.9716C46.7051 57.2394 46.1382 57.4709 45.553 57.6641C43.575 58.2637 41.51 58.6278 39.4159 58.746C38.4036 58.8542 37.4166 58.8218 36.4043 58.8542C35.392 58.8867 34.3924 58.8542 33.4054 58.7352C32.4184 58.6162 31.6718 58.6487 30.8747 58.508C30.0775 58.3673 29.4068 58.2591 28.8627 58.1293C28.4165 57.9989 27.9913 57.8208 27.5973 57.5991C27.0292 57.2948 26.6142 56.8203 26.4332 56.2683C26.3255 56.0442 26.2408 55.8125 26.1801 55.5759C26.0789 54.8834 27.5341 54.4939 29.7864 54.4939C33.0449 54.7375 36.322 54.7375 39.5804 54.4939C41.0218 54.3898 42.4397 54.1168 43.7941 53.6824C44.0725 53.5742 44.3003 53.4552 44.5533 53.3578C44.8064 53.2605 44.7178 53.2605 44.7305 53.2496C44.6166 53.2496 44.7305 53.3254 44.7305 53.2496C44.6932 53.1825 44.6509 53.1175 44.6039 53.0549C44.5228 52.9355 44.4341 52.8199 44.3382 52.7087C44.1105 52.4923 43.9586 52.2326 43.7308 52.0054C43.219 51.4784 42.6073 51.0285 41.9214 50.6746C40.2457 49.7356 38.3494 49.1225 36.3664 48.8785L36.379 48.8028Z" fill="#231F20"/>
<path id="Path_3" d="M32.8131 12.6536C32.9649 12.0801 33.1168 11.5175 33.2939 10.9441L33.4711 10.349C33.5191 10.093 33.5867 9.84001 33.6735 9.59162L34.1923 8.08769C34.496 7.07064 35.0022 6.17261 35.3818 5.2313L36.1537 4.05196L36.5333 3.4677L36.9508 3.00245C37.8127 1.88564 39.0346 1.00626 40.4686 0.470658C41.1469 0.205789 41.8757 0.0481634 42.6197 0.00541306C43.0472 -0.0163498 43.4758 0.027625 43.8851 0.135249C44.2434 0.23951 44.5872 0.3774 44.91 0.546395C45.7495 1.02456 46.4716 1.63835 47.0359 2.35328C47.736 3.29819 48.2331 4.34247 48.5037 5.43687C48.807 6.60965 49.0142 7.79909 49.1237 8.99654C49.1237 9.61326 49.225 10.23 49.2503 10.8467C49.2756 11.4634 49.2503 12.1559 49.2503 12.4264C49.2503 13.8978 49.2503 15.3585 49.1111 16.8191C48.9339 19.7188 48.6808 22.5968 48.2127 25.4749C47.871 28.0175 47.5167 30.5709 47.1751 33.0486C46.8828 36.354 45.9193 39.5905 44.328 42.6132C43.7586 43.5545 43.0626 43.1758 42.5311 42.1696C41.7591 40.7765 41.3613 39.2534 41.367 37.7119C41.4303 36.922 41.367 36.1214 41.4935 35.3316L41.7086 32.962L42.063 28.1798C42.1768 26.5893 42.2907 24.9339 42.3919 23.3867C42.4932 21.8395 42.7589 20.1408 42.9361 18.5827C43.1533 16.6404 43.1745 14.6856 42.9993 12.7401L42.9867 12.091V11.6041L42.8348 10.587C42.7613 10.1417 42.5803 9.71431 42.3034 9.33195C42.171 9.1491 41.9117 9.06484 41.6707 9.12637C41.4662 9.18684 41.2832 9.29114 41.1392 9.42932C40.5166 10.0922 40.0523 10.8531 39.7726 11.669C39.6998 11.8174 39.6364 11.9691 39.5828 12.1234L39.2412 13.0539C39.0261 13.6923 38.7983 14.3198 38.6085 14.969C38.1909 16.2565 37.8619 17.5765 37.5835 18.8965C36.6948 22.9032 36.1576 26.961 35.9765 31.0362C35.9436 34.1424 36.1932 37.2462 36.7231 40.3194C36.8243 40.9902 37.0015 41.6286 37.09 42.2994C37.1805 43.1934 37.1165 44.0938 36.9002 44.9719C36.6915 45.5095 36.3152 45.9883 35.812 46.3568C35.6101 46.5347 35.3945 46.701 35.1667 46.8545C34.7997 47.06 34.3948 46.9302 33.9013 46.5191C33.1484 45.9533 32.5594 45.2459 32.1804 44.4525C31.5357 43.0419 31.1103 41.565 30.915 40.0597C30.6619 38.5666 30.4595 37.0411 30.3583 35.5263C30.1643 32.462 30.1981 29.3903 30.4595 26.3296C30.6535 24.0503 30.9445 21.7709 31.3326 19.4916C31.5351 18.3447 31.7628 17.2086 32.0032 16.0726C32.2437 14.9365 32.4461 13.7788 32.7119 12.6319L32.8131 12.6536Z" fill="#231F20"/>
<path id="Path_4" d="M65.3302 18.6696C65.6466 17.7608 65.9249 16.8411 66.1654 15.9431C66.4058 15.045 66.6842 14.1795 66.8487 13.3247V13.0109V12.8162C66.8543 12.7658 66.8543 12.7151 66.8487 12.6647C66.8624 12.5568 66.8624 12.448 66.8487 12.3401C66.8617 12.0857 66.7869 11.8336 66.6335 11.6152C66.5365 11.4414 66.3023 11.3576 66.0894 11.4204C65.9192 11.5174 65.7584 11.6259 65.6086 11.745C65.4655 11.8418 65.3341 11.9505 65.2163 12.0696C65.1316 12.1386 65.0553 12.2147 64.9886 12.2968L64.9126 12.3726L64.7861 12.5673L64.5077 12.9677C63.7865 14.0496 63.1411 15.1316 62.4072 16.2893C60.99 18.5398 59.6867 20.8876 58.4972 23.2788C57.4469 25.4427 56.6498 27.6066 55.7893 29.7706C55.2705 31.1663 54.8276 32.5837 54.3468 33.9794L53.6129 36.0568C53.3978 36.7276 52.9422 37.3876 52.7018 37.9935C52.5373 38.3614 52.2969 38.3938 51.9679 38.4696C51.6389 38.5453 51.1707 38.3938 50.7025 37.9178C50.1377 37.3294 49.6772 36.6732 49.3359 35.9702C48.9768 35.1487 48.868 34.2626 49.0196 33.3951C49.2979 31.8155 49.6523 30.2683 50.0572 28.7427C50.4161 27.2089 50.924 25.7033 51.5756 24.2417C52.8495 21.2948 54.3807 18.434 56.1563 15.6834C56.7004 14.8611 57.2192 14.0063 57.7253 13.1516L59.4209 10.5765L60.0157 9.92733C60.2434 9.61356 60.4585 9.29979 60.7243 8.9752C61.2304 8.32602 61.7619 7.72012 62.2933 7.13586C63.2266 6.0902 64.4725 5.2791 65.8996 4.788C66.6562 4.55504 67.484 4.55504 68.2406 4.788C68.6075 4.9503 68.9745 5.10177 69.3414 5.27489L70.3284 5.86997C71.5229 6.93216 72.3354 8.26533 72.6694 9.71094C72.8689 10.4929 72.9707 11.2909 72.9731 12.0913C73.0083 12.4513 73.0083 12.8132 72.9731 13.1732C72.9731 13.4654 72.9731 13.7683 72.8971 14.0388C72.772 15.134 72.5478 16.2192 72.2265 17.2847C71.4261 19.8294 70.4328 22.3268 69.2529 24.7611C67.5446 28.4181 65.4568 31.9129 63.4828 35.3751C61.9264 38.0692 60.5598 40.785 58.9274 43.4466C58.5605 44.0309 58.2315 44.6259 57.8139 45.1994C57.3325 46.0022 56.6446 46.7013 55.802 47.2443C55.1847 47.5006 54.4825 47.5656 53.8153 47.4282C53.52 47.3977 53.2281 47.347 52.9422 47.2767C52.5246 47.1361 52.3475 46.779 52.3095 46.1948C52.2341 45.4772 52.401 44.7563 52.7904 44.1174L56.6877 37.0414C57.9531 34.6178 59.2185 32.1509 60.4838 29.6732C62.3264 26.0519 63.8821 22.3288 65.1404 18.5289L65.3302 18.6696Z" fill="#231F20"/>
<path id="Path_5" d="M58.9051 68.3531C56.387 71.0924 53.6153 73.6541 50.6169 76.0134C49.5551 76.9404 48.413 77.7976 47.2004 78.5777C46.0482 79.3006 44.8045 79.9103 43.4928 80.3954C42.759 80.6668 41.9903 80.8629 41.2025 80.9796C40.2674 81.1282 39.3043 81.0837 38.3934 80.8498L37.6721 80.6334C37.457 80.536 37.2419 80.417 37.0394 80.3088C36.6171 80.0811 36.241 79.7961 35.9259 79.4649C35.6147 79.1345 35.3552 78.7707 35.154 78.3829C34.9957 78.031 34.8688 77.6693 34.7744 77.301C34.5524 76.0056 34.7223 74.6832 35.2679 73.46C36.0547 71.5627 37.1448 69.7676 38.5073 68.1259C40.1132 66.047 42.1708 64.251 44.5684 62.8351C45.3276 62.4023 45.7072 62.9325 45.6946 63.8413C45.6528 65.0058 45.2128 66.1342 44.4292 67.0872C43.999 67.5416 43.6447 68.0285 43.2524 68.4938C43.0499 68.7318 42.8728 68.9698 42.7083 69.2079L42.1262 69.8895C41.4225 70.7813 40.7925 71.7141 40.2408 72.681C39.6944 73.5307 39.3019 74.4463 39.0767 75.3967C38.99 75.7523 38.956 76.1158 38.9755 76.4787C39.0387 76.7167 39.0387 76.9223 39.1526 77.0305C39.2665 77.1387 39.2159 77.1062 39.2665 77.1495C39.2982 77.1973 39.3545 77.2294 39.4183 77.236C39.4183 77.236 39.4943 77.301 39.5828 77.301C39.6667 77.2898 39.7521 77.2898 39.8359 77.301C40.4171 77.2423 40.9775 77.0801 41.4809 76.8249C42.8151 76.1473 44.051 75.3375 45.1631 74.4121C47.8696 72.2555 50.304 69.8621 52.4264 67.2711C53.778 65.6676 55.0201 63.9986 56.1466 62.2725C56.9817 60.9741 57.8168 59.6649 58.4875 58.3233C58.6646 57.9879 58.8038 57.6417 58.9557 57.3063C59.0316 57.144 59.1075 56.9708 59.1708 56.7977L59.3226 56.3974C59.4876 55.9836 59.598 55.5554 59.6516 55.1207C59.8373 54.5057 59.5219 53.8602 58.8798 53.541C58.2471 53.2489 57.4372 53.66 56.9817 53.963C56.7539 54.1145 56.5641 54.32 56.3996 54.4282C56.2793 54.5209 56.1296 54.5811 55.9694 54.6013C55.9694 54.6013 55.6404 54.6013 55.4886 54.6013C55.3035 54.6175 55.1169 54.6175 54.9318 54.6013C54.5783 54.5722 54.2368 54.4761 53.9321 54.32C53.588 54.102 53.2776 53.8475 53.0084 53.5627C52.7585 53.3268 52.538 53.0694 52.3504 52.7945C52.1298 52.3171 52.0515 51.8002 52.1227 51.2905C52.1199 50.9932 52.1888 50.6985 52.3251 50.425C52.3971 50.2826 52.4817 50.1451 52.5782 50.0138L52.73 49.8082L52.8186 49.7C52.8186 49.6027 52.8186 49.6027 52.8186 49.5918L52.9199 49.5053C53.7777 48.8901 54.6777 48.3193 55.6151 47.7958C56.5139 47.3028 57.5146 46.9612 58.5634 46.7896C59.0449 46.7272 59.5319 46.7018 60.0186 46.7138H60.7525L61.4485 46.8437C62.4172 47.05 63.3287 47.4177 64.1311 47.9256L65.2066 49.0076C65.5461 49.3608 65.831 49.7499 66.0544 50.1653C66.2695 50.5873 66.3961 51.0525 66.5859 51.5069C66.7757 51.9613 66.7377 52.5023 66.8136 53C66.8896 53.4977 66.8136 54.082 66.7504 54.6122C66.6676 55.1653 66.5322 55.7117 66.3455 56.2459C66.2113 56.8154 66.0295 57.3758 65.8013 57.923L65.5483 58.5722C65.485 58.7344 65.4217 58.8967 65.3458 59.0482C63.7509 62.4054 61.6218 65.5584 59.0189 68.418L58.9051 68.3531Z" fill="#231F20"/>
<path id="Path_6" d="M65.3318 72.0965C63.5317 74.1047 61.5744 76.0061 59.4731 77.7876C58.6759 78.4151 57.98 79.1076 57.1195 79.681C55.6001 80.7016 53.988 81.6169 52.2985 82.4184C51.4194 82.8355 50.5059 83.1971 49.5653 83.5004C48.5677 83.843 47.5126 84.0475 46.4398 84.1063C45.3784 84.1398 44.3257 83.9306 43.3902 83.5004C42.3081 83.0603 41.5173 82.2249 41.2391 81.2283C41.112 80.5706 41.2041 79.8957 41.5048 79.2807C41.7508 78.7671 42.107 78.2974 42.5551 77.8958C43.2769 77.1965 44.1327 76.6074 45.0858 76.1538C45.6806 75.8942 45.9716 76.3053 46.0222 77.0302C46.0834 77.8958 45.9459 78.7633 45.6173 79.5837C45.4702 79.8608 45.3599 80.1511 45.2883 80.4492C45.2883 80.5574 45.2883 80.4492 45.2883 80.5142C45.2883 80.5142 45.2124 80.5142 45.4908 80.644C45.9102 80.8442 46.401 80.9058 46.87 80.8171C47.2477 80.7801 47.618 80.7 47.9709 80.5791C48.3505 80.406 48.7428 80.2869 49.135 80.0814C51.101 78.986 52.8164 77.5926 54.1965 75.9699C55.8795 74.2279 57.7016 72.5401 59.258 70.6466C60.2285 69.5057 61.12 68.3171 61.928 67.087C63.1902 65.3298 64.0931 63.4015 64.5979 61.385C64.7497 60.755 64.6656 60.1001 64.3575 59.5132C64.3211 59.4205 64.2499 59.3406 64.155 59.286C64.0995 59.248 64.0207 59.248 63.9652 59.286L64.2436 59.0913L64.3954 58.9939C64.484 58.9939 64.5979 58.8208 64.6485 58.7883C64.7017 58.7427 64.7484 58.6918 64.7877 58.6368C64.9142 58.4854 64.7877 58.5178 64.7877 58.8316C64.7619 59.0438 64.7619 59.2577 64.7877 59.47C64.7877 59.6106 64.7877 59.7513 64.7877 59.8919V59.9677L64.5093 60.0218C63.9786 60.1419 63.4204 60.1419 62.8896 60.0218C62.3392 59.7979 61.8741 59.4453 61.5483 59.0047C61.3459 58.7667 61.1308 58.5503 60.9663 58.3231C60.7091 57.9361 60.6238 57.4828 60.7258 57.0464C60.8097 56.5105 61.0886 56.0109 61.523 55.6182C61.9284 55.202 62.4014 54.8376 62.9276 54.5362C64.005 53.9364 65.3478 53.8004 66.5592 54.1683C67.3913 54.3731 68.1546 54.7439 68.7863 55.2503C68.9297 55.3585 69.0562 55.4667 69.1659 55.5749C69.2798 55.6831 69.3557 55.7696 69.4443 55.867L69.9378 56.4729C70.2117 56.8535 70.4325 57.2602 70.5958 57.6847C70.7596 58.0333 70.8784 58.3961 70.9501 58.7667C71.1904 59.9719 71.1647 61.205 70.8741 62.4021C70.6596 63.3768 70.3419 64.3329 69.9251 65.2585C68.7299 67.7126 67.1919 70.034 65.3445 72.1722L65.3318 72.0965Z" fill="#231F20"/>
</g>
</g>
</svg>
