<svg width="88" height="88" viewBox="0 0 88 88" fill="none" xmlns="http://www.w3.org/2000/svg">
<g id="pic">
<g id="Vector">
<path d="M40.8215 74.1263C40.8215 74.1263 40.7605 74.1263 40.7267 74.1263C39.9813 74.0721 39.4189 73.4286 39.4663 72.6835C40.4488 58.4721 39.1343 44.2946 35.5565 30.5507C34.4859 26.4322 32.7783 21.467 29.0515 19.5771C26.6664 18.3714 23.4748 18.5137 20.2833 19.9768C17.7084 21.1555 15.4791 22.9573 13.8325 25.1723C8.81824 31.9257 9.49585 41.3819 10.1531 50.5333L10.2073 51.2513C10.7155 58.3908 10.9324 65.6388 10.8443 72.7919C10.8375 73.537 10.2344 74.1263 9.47552 74.133C8.73016 74.1263 8.12708 73.5099 8.13386 72.7648C8.22195 65.6862 8.01189 58.5128 7.50369 51.4545L7.44948 50.7365C6.7922 41.5445 6.04006 31.1332 11.6574 23.5669C13.575 20.9861 16.1703 18.893 19.1585 17.5247C23.1021 15.7161 27.161 15.5874 30.2848 17.1725C34.9806 19.5568 36.9727 25.2129 38.1924 29.8801C41.8447 43.9085 43.1863 58.3773 42.1835 72.8799C42.1361 73.5979 41.5398 74.1398 40.8351 74.1398L40.8215 74.1263Z" fill="#111111"/>
<path d="M11.2237 74.8714C10.7088 74.8714 10.2209 74.5802 9.99051 74.0857C9.67881 73.4083 9.97695 72.6022 10.6546 72.2906C15.1945 70.2043 20.1071 70.482 24.8639 70.753C27.6692 70.9156 30.5694 71.0781 33.2866 70.7327C33.5847 70.692 33.8896 70.6514 34.1945 70.6108C36.7559 70.2518 39.6628 69.8453 41.9328 71.7623C42.502 72.2432 42.5765 73.0967 42.0954 73.6725C41.6143 74.2415 40.7538 74.316 40.1846 73.835C38.8429 72.7038 36.7694 72.9951 34.574 73.2999C34.2555 73.3473 33.9371 73.388 33.6321 73.4286C30.6642 73.8012 27.6421 73.6318 24.7149 73.4625C20.0868 73.1983 15.723 72.9477 11.7929 74.7563C11.61 74.8376 11.4203 74.8782 11.2305 74.8782L11.2237 74.8714Z" fill="#111111"/>
<path d="M51.8055 74.5801C51.1279 74.5801 50.5384 74.0721 50.4638 73.3812L46.6489 39.763C46.0933 34.8655 45.4631 29.3111 46.8658 24.0885C48.2074 19.0895 52.1172 13.7382 57.8226 13.0676C61.8341 12.6002 66.0826 14.5781 69.1861 18.3714C71.8762 21.6567 73.3804 25.7345 74.6137 29.6497C78.9029 43.3463 80.8002 57.5983 80.2513 72.0061C80.2242 72.7512 79.6008 73.3609 78.8419 73.3067C78.0966 73.2796 77.5138 72.6496 77.5409 71.9045C78.083 57.8015 76.2264 43.8611 72.0252 30.4626C70.8801 26.8048 69.4842 23.0182 67.0923 20.0852C64.6122 17.0573 61.1903 15.3977 58.1411 15.7567C53.7164 16.2783 50.5519 20.8032 49.4813 24.793C48.2142 29.521 48.8105 34.7978 49.339 39.4581L53.1539 73.0763C53.2352 73.8215 52.7067 74.4921 51.9613 74.5734C51.9071 74.5734 51.8597 74.5801 51.8055 74.5801Z" fill="#111111"/>
<path d="M52.9506 73.5437C52.3476 73.5437 51.7987 73.1373 51.6361 72.5277C51.4464 71.8029 51.8868 71.0645 52.6118 70.8749C61.0751 68.6937 70.1076 68.2331 78.7267 69.5405C79.4653 69.6556 79.9735 70.3465 79.8651 71.0849C79.7499 71.8232 79.0588 72.3313 78.3202 72.2229C70.0534 70.9697 61.4004 71.41 53.2827 73.5031C53.1675 73.5302 53.0523 73.5437 52.9439 73.5437H52.9506Z" fill="#111111"/>
<path d="M39.3782 51.9625C39.3782 50.5807 39.385 49.1921 39.3918 47.8102C39.3918 47.2818 39.202 46.9025 38.9242 46.6519C38.8768 45.8323 38.8294 45.0194 38.7752 44.1998C38.809 44.0982 38.8361 44.0169 38.8429 43.9966C39.1072 43.1702 39.3714 42.3573 39.3511 41.47C39.3376 40.8739 39.2088 40.2778 38.9852 39.7291C40.5573 40.0271 41.1671 37.3312 39.4934 36.6606C32.7038 33.924 28.7669 42.2761 27.5405 47.8305C25.9481 55.0446 26.6189 62.5093 27.3304 69.7979C27.4727 71.2339 29.0583 71.6268 29.8579 70.9833C30.4406 71.5997 31.5587 71.6945 32.1008 70.9968C32.5615 71.1594 33.0968 71.1594 33.727 70.8952C33.8083 70.8613 33.8557 70.8072 33.9303 70.7665C34.0794 72.7106 36.6949 72.6157 36.8846 70.6784C36.905 70.4617 36.9253 70.2449 36.9456 70.0349C37.0337 70.3872 37.1354 70.7327 37.2641 71.0713C37.7587 72.3584 39.7916 72.7445 40.1371 71.0713C41.4517 64.6701 39.7238 58.357 39.3782 51.9761V51.9625Z" fill="#111111"/>
<path d="M79.1197 68.2602C78.6115 66.0452 78.144 63.8234 77.6968 61.5948C77.7578 59.6711 77.7171 57.7473 77.5748 55.8236C78.1033 55.6475 78.5099 55.1733 78.4625 54.4011C78.3473 52.5519 78.1372 50.7094 77.8323 48.8805C77.7442 48.3589 77.4257 48.0541 77.0327 47.8983C76.8498 47.1396 76.6736 46.3809 76.4771 45.6223C76.3077 43.6172 75.9757 41.6325 75.5013 39.6817C75.725 39.343 75.9147 38.9772 76.0095 38.5437C76.328 37.0738 75.664 35.3871 75.3319 33.9782C75.1354 33.1653 74.3562 32.7657 73.6108 32.8808C73.3737 32.6505 73.0687 32.4812 72.6486 32.4744C66.0216 32.4202 64.6325 40.9078 64.3276 46.2658C63.9007 53.7034 64.9171 61.3103 65.4321 68.7276C65.5134 69.8724 66.5231 70.3465 67.343 70.1772C67.8986 71.0646 69.2132 70.9494 69.7824 70.123C69.9043 70.2246 70.0195 70.333 70.1618 70.421C70.9207 70.8613 72.1133 70.5227 72.3301 69.5472C72.3572 69.5947 72.364 69.6488 72.3911 69.6962C72.7909 70.3872 73.7463 70.7326 74.424 70.2585C74.5459 70.1704 74.6408 70.0688 74.756 69.974C74.8847 69.9943 75.0067 70.0078 75.1354 70.0281C75.1896 70.0349 75.2167 70.0281 75.2574 70.0281C75.7927 70.8274 77.1005 71.1052 77.8255 70.0485C77.7781 70.1162 77.7374 70.184 77.69 70.2517C78.6996 70.3872 79.323 69.1476 79.1265 68.267L79.1197 68.2602Z" fill="#111111"/>
</g>
</g>
</svg>
