<svg width="816" height="96" viewBox="0 0 816 96" fill="none" xmlns="http://www.w3.org/2000/svg">
<path d="M53.0664 54.9557C52.9149 54.9509 52.7676 55.0076 52.6565 55.1134C52.5453 55.2193 52.4792 55.3658 52.4725 55.5213C52.3951 57.837 47.9284 57.9519 47.8423 57.9607C47.7563 57.9695 43.2896 57.8458 43.2121 55.5213C43.2099 55.444 43.1927 55.3678 43.1616 55.2973C43.1304 55.2268 43.0859 55.1634 43.0306 55.1107C42.9753 55.0581 42.9104 55.0173 42.8396 54.9906C42.7688 54.964 42.6936 54.9521 42.6183 54.9557C42.5425 54.958 42.468 54.9756 42.3989 55.0075C42.3298 55.0394 42.2675 55.0849 42.2155 55.1416C42.1635 55.1982 42.123 55.2648 42.0961 55.3375C42.0692 55.4103 42.0566 55.4878 42.0589 55.5655C42.1707 59.1008 47.6099 59.145 47.8337 59.145C48.0575 59.145 53.4967 59.0566 53.6086 55.5655C53.6133 55.4114 53.5593 55.2614 53.4581 55.1475C53.3568 55.0337 53.2163 54.9648 53.0664 54.9557Z" fill="#111111"/>
<path d="M40.4915 47.2038C40.0262 46.6809 39.5164 46.2017 38.9681 45.772C37.5048 44.6513 35.8127 43.8866 34.0195 43.5359C31.9755 43.05 29.8679 42.9097 27.7799 43.1205C27.4194 43.1322 27.0735 43.2694 26.7988 43.5094C26.6003 43.7565 26.5044 44.074 26.532 44.3932C26.532 44.3932 26.532 44.4727 26.532 44.5169C26.6857 45.5412 27.1816 46.4786 27.9348 47.1684C28.2228 47.4734 28.5368 47.7515 28.8729 47.9992C29.5271 48.479 30.2245 48.8933 30.9556 49.2366L31.3257 49.3956C33.8361 50.6214 36.6666 50.975 39.3899 50.4032C40.0157 50.2844 40.575 49.9278 40.9562 49.4045C41.0721 49.2134 41.1483 48.9997 41.18 48.777C41.2361 48.5688 41.2361 48.3488 41.18 48.1406C41.1395 48.0532 41.0905 47.9703 41.0337 47.8931C40.8704 47.6495 40.6891 47.419 40.4915 47.2038Z" fill="#111111"/>
<path d="M42.3712 51.3484C42.3057 51.2068 42.189 51.0971 42.0459 51.0426C41.9029 50.9881 41.7447 50.9932 41.6052 51.0567C39.8202 51.7828 37.9222 52.172 36.0025 52.2057C33.0161 52.3029 30.3481 52.2587 27.8609 50.5971L27.792 50.553C25.1585 49.3068 20.8209 39.788 21.0705 35.7665C21.0705 35.2539 21.2254 34.6087 21.6471 34.4762L21.7762 34.4143C22.8864 33.7514 31.7682 36.4029 43.5416 47.1679C43.6568 47.2642 43.8038 47.3111 43.9518 47.2989C44.0999 47.2866 44.2376 47.2162 44.3363 47.1023C44.4351 46.9884 44.4872 46.8397 44.4819 46.6873C44.4765 46.5348 44.4141 46.3904 44.3076 46.2841C32.8009 35.7577 23.2909 32.3196 21.2512 33.3979C20.6832 33.6012 20.0119 34.1757 19.9172 35.7312C19.659 39.894 24.0052 50.0492 27.2671 51.6401C29.427 52.954 31.922 53.57 34.4275 53.4077C34.9611 53.4077 35.5033 53.4077 36.0541 53.4077C38.1196 53.3669 40.1608 52.9417 42.0786 52.1527C42.1505 52.1212 42.2155 52.0751 42.2696 52.017C42.3236 51.959 42.3656 51.8903 42.393 51.815C42.4203 51.7398 42.4325 51.6596 42.4288 51.5794C42.425 51.4992 42.4054 51.4206 42.3712 51.3484Z" fill="#111111"/>
<path d="M75.7269 11.0908L75.5978 10.6754C75.2966 9.62369 74.7372 9.32319 74.2552 9.25248C72.3877 8.98733 69.9521 12.2928 68.9107 13.8661C68.1922 13.4176 67.505 12.9185 66.8538 12.3724C63.6436 9.8358 58.7897 6 47.8424 6C36.8951 6 32.0412 9.8358 28.831 12.3724C28.1798 12.9185 27.4925 13.4176 26.7741 13.8661C25.7327 12.2928 23.3315 8.98733 21.4295 9.25248C21.0939 9.31836 20.786 9.48844 20.5474 9.73974C20.3089 9.99105 20.1511 10.3115 20.0956 10.6578L19.9579 11.0908C17.3157 19.5402 14.0711 29.9517 17.4448 49.007C17.4375 49.0657 17.4375 49.1251 17.4448 49.1837C17.6083 50.1206 17.7891 51.0751 17.987 52.0562C18.185 54.2392 23.2627 72.2869 26.4384 78.7389C29.7691 85.3764 33.6591 89.4508 37.2824 89.9635C38.625 90.0165 57.077 90.0077 58.454 89.9635C62.0256 89.4862 65.9587 85.4118 69.2464 78.7742C72.4221 72.34 77.4998 54.2746 77.6634 52.0915C77.8613 51.1105 78.042 50.1471 78.2142 49.2014C78.2183 49.1485 78.2183 49.0953 78.2142 49.0423C81.6137 29.9517 78.3691 19.5402 75.7269 11.0908ZM37.3771 88.7438C34.1927 88.3284 30.5781 84.4837 27.4712 78.1997C24.2524 71.6859 19.2263 53.4615 19.1747 51.9589C22.3504 55.8743 28.6417 60.4702 32.5317 63.1747C35.3072 65.0507 37.3563 67.8647 38.3238 71.1291C38.5849 71.9435 38.6958 72.8007 38.6508 73.6569C38.5734 74.3374 38.4873 75.071 38.3926 75.8311C37.7988 80.7805 37.1275 86.3663 39.1328 88.8675L37.3771 88.7438ZM76.5101 51.9589C76.4585 53.4615 71.4324 71.6859 68.2136 78.1997C65.1067 84.4837 61.492 88.3284 58.3593 88.7438L56.5606 88.7968C58.5573 86.2956 57.8946 80.7098 57.3008 75.7692C57.2061 75.0091 57.12 74.2756 57.0426 73.595C56.9976 72.7389 57.1085 71.8816 57.3696 71.0673C58.3371 67.8028 60.3861 64.9888 63.1617 63.1128C67.0948 60.426 73.343 55.8301 76.5187 51.9589H76.5101ZM77.1039 48.8744C75.8646 51.791 70.5717 56.6167 62.5334 62.1318C59.5301 64.1519 57.315 67.1932 56.2766 70.7226C55.9662 71.6813 55.8405 72.693 55.9065 73.7011C55.984 74.3905 56.0701 75.1329 56.1647 75.9018C56.6725 80.2414 57.3782 86.0746 55.5881 88.1251C55.3981 88.3453 55.1668 88.5238 54.908 88.6498C54.6492 88.7759 54.3682 88.8469 54.082 88.8587C52.0251 88.8587 43.6081 88.8587 41.5598 88.8587C40.9973 88.8204 40.472 88.557 40.0967 88.1251C38.3754 86.0746 39.0381 80.1707 39.5545 75.9195C39.6492 75.1505 39.7352 74.4081 39.8127 73.7187C39.8787 72.7107 39.753 71.699 39.4426 70.7403C38.4042 67.2109 36.1891 64.1696 33.1858 62.1495C25.1217 56.6167 19.8288 51.791 18.5808 48.8744C15.5858 31.9403 17.8751 21.9089 20.3021 14.0251C21.2746 14.7764 24.3471 17.8079 25.2077 26.3192C25.334 27.5388 25.73 28.7126 26.3654 29.7512C27.0008 30.7897 27.8588 31.6654 28.874 32.3115C33.3837 35.1663 39.6578 39.5324 42.1536 41.2558C42.3709 41.4109 42.6291 41.4941 42.8938 41.4945C43.1465 41.4937 43.394 41.4203 43.6081 41.2823C43.8285 41.1423 44.0034 40.9381 44.1107 40.6958C44.218 40.4535 44.2527 40.1839 44.2105 39.9212C43.4618 34.689 41.4135 21.7144 38.6594 14.2903C38.6047 14.1426 38.495 14.0233 38.3546 13.9587C38.2142 13.894 38.0545 13.8893 37.9107 13.9456C37.7669 14.0019 37.6507 14.1145 37.5878 14.2587C37.5248 14.4029 37.5203 14.5668 37.575 14.7145C40.2946 22.0503 42.3257 34.9276 43.0745 40.1157C43.0838 40.1521 43.0803 40.1907 43.0646 40.2247C43.0488 40.2587 43.0218 40.2858 42.9884 40.3013C42.9613 40.3228 42.928 40.3344 42.8938 40.3344C42.8595 40.3344 42.8262 40.3228 42.7991 40.3013C40.3032 38.5336 34.0034 34.2294 29.442 31.3305C28.5769 30.776 27.8465 30.026 27.3066 29.1376C26.7667 28.2492 26.4315 27.2459 26.3265 26.2043C25.3196 16.2435 21.3951 13.3181 20.6292 12.8408C20.7755 12.3724 20.9132 11.957 21.0595 11.4532L21.1627 11.0025C21.266 10.6489 21.4037 10.4545 21.5672 10.428C22.2988 10.3219 24.1491 11.9747 26.0511 14.9532L26.3179 15.3686L26.7569 15.1741C27.7437 14.6717 28.6659 14.0453 29.5023 13.3092C32.592 10.8699 37.248 7.18433 47.808 7.18433C58.3679 7.18433 63.0584 10.8699 66.1481 13.3092C66.9844 14.0453 67.9066 14.6717 68.8935 15.1741L69.3324 15.3686L69.5992 14.9532C71.4754 11.9747 73.3774 10.3307 74.0831 10.4191C74.2466 10.4191 74.3843 10.6401 74.4876 11.0113L74.6253 11.4444C74.7716 11.904 74.9093 12.3282 75.0556 12.832C74.2897 13.3092 70.3652 16.2347 69.3668 26.1954C69.2572 27.2332 68.9189 28.2318 68.3776 29.1154C67.8363 29.9989 67.1063 30.7444 66.2427 31.2951C61.6814 34.194 55.3815 38.5336 52.8857 40.2659C52.8586 40.2874 52.8253 40.2991 52.791 40.2991C52.7568 40.2991 52.7235 40.2874 52.6964 40.2659C52.663 40.2505 52.636 40.2233 52.6202 40.1893C52.6045 40.1553 52.601 40.1167 52.6103 40.0803C53.3591 34.8923 55.3902 22.0149 58.1098 14.6792C58.1645 14.5315 58.1599 14.3675 58.097 14.2233C58.0341 14.0791 57.9179 13.9665 57.7741 13.9102C57.6303 13.854 57.4706 13.8587 57.3302 13.9233C57.1898 13.988 57.0801 14.1073 57.0254 14.2549C54.2713 21.7056 52.223 34.6802 51.4743 39.8859C51.4321 40.1485 51.4668 40.4181 51.5741 40.6604C51.6813 40.9028 51.8563 41.1069 52.0767 41.247C52.2908 41.3849 52.5383 41.4584 52.791 41.4591C53.0557 41.4588 53.3139 41.3755 53.5312 41.2205C56.027 39.4528 62.301 35.1663 66.8452 32.2761C67.855 31.6345 68.7098 30.7658 69.3449 29.7354C69.98 28.7049 70.3789 27.5399 70.5115 26.328C71.3721 17.8168 74.4446 14.7852 75.4171 14.034C77.8097 21.9089 80.0989 31.9403 77.1039 48.8744Z" fill="#111111"/>
<path d="M56.2743 50.4025C59.0004 50.975 61.8339 50.6214 64.3471 49.395L64.7085 49.2359C65.4345 48.8932 66.1262 48.4788 66.7741 47.9985C67.1102 47.7508 67.4241 47.4728 67.7122 47.1677C68.4653 46.478 68.9613 45.5405 69.115 44.5163C69.115 44.4721 69.115 44.4367 69.115 44.3925C69.1426 44.0734 69.0467 43.7559 68.8482 43.5087C68.5827 43.276 68.25 43.1394 67.9015 43.1198C65.813 42.9119 63.7055 43.0552 61.6619 43.5441C59.8694 43.8922 58.1774 44.6537 56.7133 45.7713C56.1654 46.1983 55.6556 46.6745 55.1899 47.1943C54.9982 47.4101 54.8228 47.6406 54.6649 47.8836C54.6081 47.9608 54.5591 48.0437 54.5186 48.1311C54.4625 48.3393 54.4625 48.5593 54.5186 48.7675C54.5504 48.9902 54.6265 49.2039 54.7424 49.395C55.1138 49.9143 55.6597 50.2733 56.2743 50.4025Z" fill="#111111"/>
<path d="M74.4374 33.3988C72.3977 32.3559 62.8877 35.794 51.4155 46.3204C51.3548 46.3759 51.3063 46.444 51.2731 46.5202C51.2398 46.5963 51.2227 46.6788 51.2227 46.7623C51.2227 46.8457 51.2398 46.9282 51.2731 47.0044C51.3063 47.0806 51.3548 47.1486 51.4155 47.2042C51.4683 47.2592 51.5313 47.303 51.6007 47.3328C51.6702 47.3626 51.7447 47.378 51.8199 47.378C51.8952 47.378 51.9697 47.3626 52.0392 47.3328C52.1086 47.303 52.1716 47.2592 52.2244 47.2042C63.9205 36.4038 72.8022 33.7524 73.9124 34.4152L74.0415 34.4771C74.4632 34.6097 74.5923 35.2549 74.6181 35.7675C74.8677 39.7889 70.5301 49.3077 67.8966 50.5539L67.8277 50.5981C65.3405 52.2597 62.6639 52.3039 59.7034 52.2067C57.779 52.1803 55.8751 51.7971 54.0834 51.0754C53.9439 51.0118 53.7858 51.0067 53.6427 51.0612C53.4996 51.1157 53.3829 51.2254 53.3175 51.367C53.2857 51.4378 53.2678 51.5143 53.2649 51.5922C53.262 51.6701 53.274 51.7478 53.3004 51.8209C53.3268 51.894 53.367 51.961 53.4186 52.0181C53.4703 52.0752 53.5324 52.1212 53.6015 52.1536C55.5193 52.9422 57.5604 53.3674 59.6259 53.4087C60.1681 53.4087 60.7103 53.4087 61.2353 53.4087C63.7411 53.5754 66.2375 52.9591 68.3958 51.641C71.6576 50.0413 76.0038 39.8861 75.7456 35.7321C75.6767 34.1413 75.0054 33.5668 74.4374 33.3988Z" fill="#111111"/>
<g clip-path="url(#clip0_1_968)">
<path d="M160.31 94.8098C160.221 94.8112 160.133 94.7931 160.052 94.7568C159.971 94.7205 159.899 94.6669 159.84 94.5998L149.27 82.4398C149.241 82.405 149.215 82.3682 149.19 82.3298L143.87 72.8798C141.829 69.2324 140.636 65.1718 140.38 60.9998L138.94 37.1298C138.381 29.1633 138.515 21.1632 139.34 13.2198C139.331 13.1702 139.331 13.1194 139.34 13.0698L143.52 1.5998C143.565 1.47093 143.651 1.36054 143.765 1.28624C143.879 1.21193 144.015 1.17798 144.15 1.1898C144.287 1.19996 144.416 1.25425 144.519 1.34445C144.622 1.43466 144.693 1.55588 144.72 1.6898L148.86 22.1498C148.876 22.2299 148.876 22.3124 148.86 22.3925C148.844 22.4727 148.813 22.5488 148.767 22.6167C148.722 22.6845 148.663 22.7427 148.595 22.7878C148.527 22.833 148.451 22.8642 148.37 22.8798C148.207 22.9123 148.038 22.879 147.899 22.7872C147.761 22.6954 147.664 22.5526 147.63 22.3898L143.94 4.1198L140.57 13.4198C139.766 21.271 139.639 29.1768 140.19 37.0498L141.62 60.9198C141.882 64.9055 143.037 68.7813 145 72.2598L150.29 81.6698L160.47 93.3698L162.38 92.1598L155.33 79.1598C155.266 79.0413 155.241 78.9049 155.261 78.7713C155.281 78.6378 155.344 78.5143 155.44 78.4198L156.44 77.4198L150.24 67.2198C150.168 67.1013 150.138 66.962 150.154 66.8243C150.17 66.6865 150.232 66.5581 150.33 66.4598L152.26 64.5198L148.09 57.1498C148.03 57.0486 147.997 56.9328 147.997 56.8148C147.997 56.6968 148.03 56.581 148.09 56.4798L152.49 50.2298C152.577 50.1083 152.705 50.0223 152.85 49.9874C152.995 49.9525 153.148 49.9711 153.28 50.0398L165.65 56.1998C165.723 56.2339 165.788 56.2826 165.842 56.3428C165.895 56.403 165.935 56.4734 165.96 56.5498L167.6 61.0998L168.67 61.4898C168.747 61.518 168.818 61.5611 168.878 61.6166C168.938 61.6721 168.987 61.7389 169.021 61.8132C169.055 61.8875 169.075 61.9678 169.078 62.0496C169.081 62.1313 169.069 62.213 169.04 62.2898C169.012 62.3666 168.969 62.4371 168.914 62.4973C168.858 62.5575 168.791 62.6061 168.717 62.6405C168.643 62.6748 168.562 62.6942 168.481 62.6975C168.399 62.7009 168.317 62.688 168.24 62.6598L166.9 62.1698C166.815 62.1378 166.737 62.0883 166.672 62.0247C166.606 61.961 166.555 61.8844 166.52 61.7998L164.87 57.1998L153.24 51.3198L149.38 56.7998L153.59 64.2398C153.654 64.3602 153.678 64.4979 153.658 64.6328C153.639 64.7677 153.576 64.8928 153.48 64.9898L151.56 66.9098L157.76 77.1098C157.833 77.2298 157.864 77.3708 157.848 77.5103C157.832 77.6498 157.769 77.7799 157.67 77.8798L156.61 78.9298L163.72 92.0798C163.797 92.2183 163.817 92.3813 163.776 92.5344C163.735 92.6874 163.636 92.8185 163.5 92.8998L160.64 94.7198C160.54 94.7783 160.426 94.8093 160.31 94.8098Z" fill="#111111"/>
<path d="M155.84 79.4498C155.708 79.4499 155.578 79.4079 155.47 79.3298L150.12 75.4698C150.057 75.4197 150.003 75.3588 149.96 75.2898L147.77 71.7198C145.448 67.9333 144.076 63.6413 143.77 59.2098L142.47 40.8898C141.77 31.6998 142.59 11.1298 143.47 1.74985C143.491 1.58532 143.574 1.43502 143.702 1.33057C143.831 1.22612 143.995 1.17567 144.16 1.18985C144.324 1.20754 144.474 1.28861 144.579 1.4157C144.684 1.54279 144.735 1.7058 144.72 1.86985C143.83 11.2098 143.01 31.6698 143.72 40.7898L145 59.1198C145.305 63.3517 146.619 67.4491 148.83 71.0698L151 74.5298L156.25 78.3098C156.358 78.388 156.438 78.4982 156.48 78.6248C156.521 78.7514 156.521 78.8877 156.48 79.0143C156.439 79.1409 156.359 79.2513 156.251 79.3295C156.143 79.4077 156.014 79.4499 155.88 79.4498H155.84Z" fill="#111111"/>
<path d="M165.372 57.3807C165.227 57.3788 165.087 57.327 164.976 57.2341C164.865 57.1412 164.789 57.0129 164.762 56.8707L163.112 48.1907C163.107 48.1475 163.107 48.1039 163.112 48.0607L163.612 15.2507L153.202 18.8407C150.202 20.7107 144.202 26.9507 143.452 30.1407C143.405 30.2961 143.3 30.4273 143.159 30.5072C143.017 30.587 142.851 30.6093 142.694 30.5693C142.536 30.5294 142.401 30.4303 142.315 30.2927C142.229 30.1551 142.199 29.9896 142.232 29.8307C143.182 26.0907 149.682 19.5107 152.602 17.7407L152.722 17.6807L164.002 13.7807C164.097 13.75 164.199 13.7422 164.298 13.7578C164.397 13.7735 164.491 13.8121 164.572 13.8707C164.653 13.9286 164.719 14.0051 164.764 14.0939C164.81 14.1827 164.833 14.2811 164.832 14.3807L164.352 48.0007L166.002 56.6407C166.031 56.8037 165.995 56.9717 165.902 57.1083C165.808 57.2449 165.664 57.3392 165.502 57.3707L165.372 57.3807Z" fill="#111111"/>
<path d="M152.931 46.4495C152.848 46.4495 152.766 46.4332 152.69 46.4016C152.613 46.3699 152.544 46.3235 152.485 46.265C152.427 46.2065 152.38 46.1371 152.349 46.0606C152.317 45.9842 152.301 45.9023 152.301 45.8195V18.2695C152.32 18.1174 152.394 17.9775 152.509 17.8761C152.624 17.7747 152.772 17.7188 152.926 17.7188C153.079 17.7188 153.227 17.7747 153.342 17.8761C153.457 17.9775 153.531 18.1174 153.551 18.2695V45.8195C153.551 45.9849 153.486 46.1436 153.37 46.2615C153.254 46.3794 153.096 46.4469 152.931 46.4495Z" fill="#111111"/>
<path d="M164.402 52.2498C164.306 52.2502 164.21 52.2298 164.122 52.1898L142.812 41.3998C142.676 41.3175 142.576 41.1867 142.532 41.0336C142.488 40.8806 142.504 40.7166 142.576 40.5747C142.649 40.4328 142.772 40.3236 142.921 40.2688C143.071 40.2141 143.235 40.218 143.382 40.2798L164.682 51.0698C164.83 51.1448 164.942 51.2751 164.995 51.4323C165.047 51.5896 165.035 51.7611 164.962 51.9098C164.908 52.0117 164.828 52.097 164.729 52.1569C164.63 52.2167 164.518 52.2488 164.402 52.2498Z" fill="#111111"/>
<path d="M176.597 94.8097C176.481 94.8092 176.367 94.7782 176.267 94.7197L173.397 92.8997C173.265 92.8151 173.17 92.6833 173.131 92.5311C173.092 92.3789 173.112 92.2176 173.187 92.0797L180.297 78.9297L179.237 77.8797C179.139 77.7798 179.076 77.6497 179.06 77.5102C179.044 77.3707 179.074 77.2297 179.147 77.1097L185.347 66.9097L183.427 64.9997C183.331 64.9027 183.269 64.7776 183.249 64.6427C183.23 64.5078 183.253 64.3701 183.317 64.2497L187.527 56.8097L183.667 51.3297L171.997 57.1997L170.347 61.7997C170.313 61.8843 170.262 61.9609 170.196 62.0246C170.131 62.0882 170.053 62.1377 169.967 62.1697L168.627 62.6597C168.472 62.7167 168.301 62.7098 168.151 62.6404C168.001 62.571 167.884 62.4449 167.827 62.2897C167.77 62.1346 167.777 61.9631 167.847 61.8131C167.916 61.663 168.042 61.5467 168.197 61.4897L169.267 61.0997L170.997 56.5497C171.022 56.4733 171.063 56.4029 171.116 56.3427C171.169 56.2825 171.235 56.2338 171.307 56.1997L183.587 49.9997C183.72 49.931 183.873 49.9124 184.018 49.9473C184.163 49.9822 184.291 50.0682 184.377 50.1897L188.777 56.4397C188.838 56.5409 188.87 56.6567 188.87 56.7747C188.87 56.8927 188.838 57.0085 188.777 57.1097L184.607 64.4797L186.537 66.4197C186.635 66.518 186.697 66.6464 186.714 66.7842C186.73 66.9219 186.7 67.0612 186.627 67.1797L180.427 77.3797L181.427 78.3797C181.524 78.4742 181.587 78.5977 181.607 78.7312C181.626 78.8648 181.602 79.0012 181.537 79.1197L174.537 92.1197L176.447 93.3297L186.627 81.6297L191.997 72.2597C193.947 68.7778 195.088 64.9023 195.337 60.9197L196.717 37.8097C197.307 29.4338 197.173 21.0226 196.317 12.6697L192.997 4.0497L189.277 22.3697C189.232 22.5187 189.133 22.6455 188.999 22.7257C188.866 22.8058 188.707 22.8337 188.554 22.8039C188.401 22.774 188.265 22.6886 188.171 22.5641C188.078 22.4396 188.034 22.2849 188.047 22.1297L192.187 1.6897C192.213 1.55659 192.282 1.43562 192.383 1.34531C192.484 1.255 192.612 1.20034 192.747 1.1897C192.883 1.17834 193.018 1.21116 193.134 1.28326C193.249 1.35536 193.338 1.46287 193.387 1.5897L197.457 12.2997C197.466 12.356 197.466 12.4134 197.457 12.4697C198.33 20.9151 198.47 29.4201 197.877 37.8897L196.527 60.9997C196.259 65.1748 195.053 69.2356 192.997 72.8797L187.677 82.3297C187.653 82.3681 187.626 82.4049 187.597 82.4397L177.067 94.5997C177.009 94.6668 176.937 94.7204 176.856 94.7567C176.774 94.793 176.686 94.8111 176.597 94.8097Z" fill="#111111"/>
<path d="M181.069 79.4507C180.937 79.4487 180.809 79.405 180.703 79.326C180.597 79.247 180.518 79.1366 180.478 79.0105C180.439 78.8844 180.44 78.7489 180.481 78.6233C180.522 78.4977 180.602 78.3883 180.709 78.3107L185.999 74.5307L188.129 71.0607C190.342 67.4477 191.656 63.3565 191.959 59.1307L193.399 38.6407C194.159 28.6407 193.119 11.1907 192.229 1.87072C192.215 1.70667 192.266 1.54366 192.371 1.41657C192.476 1.28948 192.626 1.20841 192.789 1.19072C192.955 1.17392 193.121 1.2234 193.25 1.32833C193.379 1.43327 193.462 1.58513 193.479 1.75072C194.369 11.1207 195.419 28.7507 194.649 38.7507L193.159 59.2107C192.846 63.6376 191.475 67.9245 189.159 71.7107L186.999 75.2907C186.957 75.3596 186.903 75.4206 186.839 75.4707L181.489 79.3307C181.368 79.4195 181.219 79.4621 181.069 79.4507Z" fill="#111111"/>
<path d="M184.003 46.4395C183.838 46.4395 183.681 46.3742 183.564 46.2579C183.448 46.1417 183.383 45.984 183.383 45.8195V18.2695C183.402 18.1174 183.476 17.9775 183.591 17.8761C183.706 17.7747 183.854 17.7188 184.008 17.7188C184.161 17.7188 184.309 17.7747 184.424 17.8761C184.539 17.9775 184.614 18.1174 184.633 18.2695V45.8195C184.63 45.9849 184.563 46.1426 184.445 46.2586C184.327 46.3746 184.168 46.4396 184.003 46.4395Z" fill="#111111"/>
<path d="M168.458 62.6994C168.375 62.6994 168.293 62.6831 168.217 62.6514C168.141 62.6198 168.071 62.5734 168.013 62.5149C167.954 62.4564 167.908 62.3869 167.876 62.3105C167.844 62.234 167.828 62.1521 167.828 62.0694V9.35938C167.847 9.20723 167.922 9.06734 168.037 8.96594C168.152 8.86454 168.3 8.80859 168.453 8.80859C168.606 8.80859 168.755 8.86454 168.87 8.96594C168.985 9.06734 169.059 9.20723 169.078 9.35938V62.0694C169.078 62.2347 169.013 62.3935 168.897 62.5114C168.781 62.6292 168.623 62.6968 168.458 62.6994Z" fill="#111111"/>
<path d="M172.68 15.0003C172.589 14.9999 172.499 14.98 172.417 14.9421C172.334 14.9041 172.26 14.849 172.2 14.7803L168.46 10.3303L164.71 14.7803C164.602 14.9049 164.449 14.9821 164.285 14.9952C164.12 15.0083 163.957 14.9562 163.83 14.8503C163.767 14.7974 163.716 14.7326 163.678 14.6596C163.641 14.5865 163.618 14.5068 163.611 14.4249C163.605 14.343 163.615 14.2607 163.64 14.1826C163.666 14.1046 163.707 14.0324 163.76 13.9703L168 9.00027C168.06 8.92523 168.136 8.86465 168.223 8.82302C168.309 8.78138 168.404 8.75977 168.5 8.75977C168.596 8.75977 168.691 8.78138 168.778 8.82302C168.864 8.86465 168.94 8.92523 169 9.00027L173.22 14.0003C173.287 14.0915 173.328 14.199 173.338 14.3115C173.349 14.4239 173.33 14.5372 173.281 14.6395C173.233 14.7417 173.159 14.8291 173.065 14.8926C172.972 14.9561 172.863 14.9933 172.75 15.0003H172.68Z" fill="#111111"/>
<path d="M171.561 57.3792H171.441C171.361 57.3649 171.283 57.3344 171.215 57.2896C171.146 57.2448 171.087 57.1866 171.041 57.1184C170.995 57.0503 170.964 56.9736 170.948 56.8929C170.933 56.8123 170.934 56.7294 170.951 56.6492L172.591 47.9992L172.071 14.3592C172.071 14.259 172.094 14.1603 172.14 14.071C172.185 13.9818 172.251 13.9046 172.332 13.846C172.413 13.7873 172.507 13.7489 172.606 13.7338C172.705 13.7187 172.806 13.7274 172.901 13.7592L184.211 17.6592C184.253 17.6751 184.293 17.6952 184.331 17.7192C187.331 19.5192 193.891 26.1692 194.841 29.9492C194.882 30.1096 194.858 30.2798 194.774 30.4224C194.689 30.5649 194.552 30.668 194.391 30.7092C194.231 30.7503 194.061 30.7259 193.918 30.6416C193.776 30.5572 193.672 30.4196 193.631 30.2592C192.831 27.0992 186.741 20.6792 183.741 18.8192L173.341 15.2292L173.841 48.0392C173.841 48.0392 173.841 48.1292 173.841 48.1692L172.181 56.8492C172.162 56.9984 172.087 57.1352 171.973 57.233C171.859 57.3309 171.712 57.3829 171.561 57.3792Z" fill="#111111"/>
<path d="M172.541 52.2496C172.425 52.2509 172.311 52.2197 172.212 52.1596C172.113 52.0995 172.033 52.0129 171.981 51.9096C171.907 51.7621 171.894 51.5915 171.944 51.4345C171.995 51.2774 172.105 51.1464 172.251 51.0696L193.551 40.2796C193.7 40.2064 193.871 40.1948 194.028 40.2472C194.186 40.2996 194.316 40.4118 194.391 40.5596C194.429 40.6324 194.452 40.712 194.459 40.7938C194.466 40.8756 194.457 40.9579 194.431 41.036C194.406 41.1142 194.366 41.1866 194.313 41.249C194.259 41.3114 194.194 41.3626 194.121 41.3996L172.821 52.1896C172.733 52.2284 172.637 52.2489 172.541 52.2496Z" fill="#111111"/>
</g>
<g clip-path="url(#clip1_1_968)">
<path d="M272.53 39.64C272.365 39.6374 272.207 39.5698 272.091 39.452C271.975 39.3341 271.91 39.1754 271.91 39.01V30.59C271.929 30.4379 272.003 30.298 272.118 30.1966C272.234 30.0952 272.382 30.0392 272.535 30.0392C272.688 30.0392 272.836 30.0952 272.952 30.1966C273.067 30.298 273.141 30.4379 273.16 30.59V39C273.161 39.0836 273.146 39.1666 273.115 39.2442C273.084 39.3218 273.038 39.3924 272.979 39.452C272.92 39.5115 272.851 39.5588 272.773 39.5911C272.696 39.6234 272.614 39.64 272.53 39.64Z" fill="#111111"/>
<path d="M263.288 63.7492C263.189 63.7488 263.092 63.7261 263.004 63.6828C262.916 63.6395 262.838 63.5767 262.778 63.4992C255.688 53.9992 257.628 42.1292 257.708 41.6292L259.518 12.5492C259.523 12.4648 259.545 12.3824 259.583 12.3068C259.621 12.2312 259.673 12.164 259.738 12.1092L260.818 11.2092C260.907 11.1318 261.017 11.0821 261.134 11.0661C261.252 11.0502 261.371 11.0686 261.478 11.1192C261.584 11.1674 261.676 11.2444 261.741 11.3416C261.806 11.4387 261.843 11.5522 261.848 11.6692L262.248 35.1492C262.249 35.2319 262.234 35.3141 262.204 35.391C262.173 35.468 262.128 35.5382 262.07 35.5976C262.013 35.657 261.944 35.7045 261.868 35.7374C261.792 35.7703 261.71 35.7879 261.628 35.7892C261.545 35.7934 261.462 35.7803 261.384 35.7508C261.306 35.7212 261.236 35.6759 261.177 35.6176C261.117 35.5593 261.071 35.4893 261.04 35.4122C261.009 35.335 260.995 35.2522 260.998 35.1692L260.648 14.6192L258.998 41.7792C258.998 41.9592 257.068 53.6692 263.838 62.7792C263.934 62.9125 263.974 63.0781 263.95 63.2406C263.925 63.4032 263.839 63.5498 263.708 63.6492C263.586 63.7353 263.435 63.7711 263.288 63.7492Z" fill="#111111"/>
<path d="M264.52 35.5094C264.374 35.5098 264.231 35.4591 264.118 35.366C264.005 35.2729 263.928 35.1433 263.9 34.9994C263.745 32.3032 264.311 29.6143 265.54 27.2094C265.592 27.1118 265.667 27.0291 265.76 26.9694C270.76 23.7794 280.99 23.3394 281.42 23.3294C281.503 23.324 281.585 23.3354 281.663 23.363C281.742 23.3906 281.813 23.4338 281.874 23.4899C281.935 23.546 281.983 23.6139 282.017 23.6895C282.051 23.7651 282.069 23.8467 282.07 23.9294C282.076 24.0949 282.016 24.2558 281.903 24.3775C281.791 24.4991 281.635 24.5716 281.47 24.5794C281.37 24.5794 271.38 25.0094 266.57 27.9394C265.51 30.0859 265.017 32.4684 265.14 34.8594C265.151 34.9412 265.146 35.0243 265.124 35.1038C265.102 35.1833 265.064 35.2576 265.013 35.3221C264.961 35.3866 264.897 35.44 264.825 35.4791C264.752 35.5181 264.672 35.5421 264.59 35.5494L264.52 35.5094Z" fill="#111111"/>
<path d="M258.14 44.1293H258.07C257.988 44.1206 257.909 44.0958 257.837 44.0563C257.765 44.0168 257.702 43.9634 257.651 43.8992C257.6 43.835 257.562 43.7613 257.539 43.6824C257.517 43.6034 257.51 43.5208 257.52 43.4393C258.16 37.6993 263.16 31.4893 264.6 31.4893C264.681 31.4847 264.763 31.4962 264.84 31.5231C264.917 31.55 264.988 31.5918 265.049 31.6461C265.109 31.7004 265.159 31.7662 265.194 31.8397C265.23 31.9131 265.25 31.9928 265.255 32.0743C265.26 32.1557 265.248 32.2372 265.221 32.3142C265.194 32.3912 265.152 32.4621 265.098 32.5229C265.044 32.5837 264.978 32.6333 264.905 32.6687C264.831 32.7041 264.751 32.7247 264.67 32.7293C263.8 33.1093 259.35 38.3193 258.76 43.5793C258.741 43.7304 258.667 43.8694 258.553 43.9706C258.439 44.0717 258.292 44.1281 258.14 44.1293Z" fill="#111111"/>
<path d="M276.741 76.5609C276.642 76.5617 276.543 76.5385 276.454 76.4933C276.366 76.448 276.289 76.382 276.231 76.3009L266.541 63.0009C266.493 62.9347 266.458 62.8596 266.439 62.7799C266.42 62.7003 266.417 62.6176 266.43 62.5367C266.443 62.4558 266.472 62.3783 266.515 62.3086C266.558 62.239 266.615 62.1785 266.681 62.1309C266.746 62.0807 266.821 62.0442 266.9 62.0235C266.98 62.0029 267.063 61.9985 267.144 62.0106C267.225 62.0227 267.303 62.0512 267.373 62.0942C267.443 62.1372 267.504 62.1939 267.551 62.2609L277.241 75.5709C277.309 75.6642 277.35 75.7743 277.359 75.8893C277.369 76.0042 277.346 76.1196 277.295 76.2227C277.243 76.3259 277.164 76.4129 277.067 76.4743C276.969 76.5357 276.857 76.5691 276.741 76.5709V76.5609Z" fill="#111111"/>
<path d="M298.47 69.1492C297.884 69.1454 297.302 69.0613 296.74 68.8992L290.45 67.0692C290.368 67.0455 290.291 67.0048 290.226 66.9496C290.16 66.8945 290.107 66.8262 290.07 66.7492L288.5 63.5392H287.5L285.93 66.7492C285.892 66.8262 285.839 66.8945 285.774 66.9496C285.708 67.0048 285.632 67.0455 285.55 67.0692L279.26 68.8992C278.13 69.221 276.933 69.2221 275.803 68.9025C274.673 68.5828 273.654 67.955 272.86 67.0892L265 58.4592C264.897 58.3436 264.84 58.1941 264.84 58.0392V44.1292C264.84 43.9648 264.905 43.8071 265.021 43.6908C265.138 43.5745 265.295 43.5092 265.46 43.5092H266.46C267.062 43.5092 267.639 43.27 268.065 42.8443C268.491 42.4186 268.73 41.8412 268.73 41.2392C268.73 41.0748 268.795 40.9171 268.911 40.8008C269.028 40.6845 269.185 40.6192 269.35 40.6192H272.78C272.866 40.618 272.952 40.6352 273.031 40.6697C273.111 40.7042 273.182 40.7552 273.24 40.8192C273.34 40.9192 282.63 51.0192 287.96 51.0192C293.29 51.0192 302.58 40.9192 302.68 40.8192C302.738 40.7552 302.809 40.7042 302.888 40.6697C302.968 40.6352 303.053 40.618 303.14 40.6192H306.57C306.651 40.6192 306.732 40.6352 306.807 40.6664C306.882 40.6976 306.951 40.7432 307.008 40.8008C307.066 40.8584 307.111 40.9267 307.143 41.0019C307.174 41.0772 307.19 41.1578 307.19 41.2392C307.19 41.8412 307.429 42.4186 307.855 42.8443C308.28 43.27 308.858 43.5092 309.46 43.5092H310.46C310.624 43.5092 310.782 43.5745 310.898 43.6908C311.015 43.8071 311.08 43.9648 311.08 44.1292V57.9992C311.08 58.1541 311.023 58.3036 310.92 58.4192L303.07 67.0492C302.489 67.6975 301.781 68.2187 300.989 68.5801C300.198 68.9415 299.34 69.1353 298.47 69.1492ZM291.07 65.9992L297.07 67.7492C297.974 68.0069 298.932 68.0077 299.836 67.7516C300.74 67.4955 301.555 66.9926 302.19 66.2992L309.9 57.7992V44.7992H309.5C308.663 44.8083 307.85 44.5181 307.209 43.9808C306.567 43.4436 306.138 42.6947 306 41.8692H303.45C302 43.3792 293.5 52.2692 288 52.2692C282.5 52.2692 274 43.3792 272.55 41.8692H270C269.854 42.6805 269.428 43.4147 268.795 43.9431C268.163 44.4715 267.364 44.7604 266.54 44.7592H266.14V57.7592L273.83 66.2092C274.464 66.9026 275.28 67.4055 276.184 67.6616C277.088 67.9177 278.046 67.9169 278.95 67.6592L284.95 65.9092L286.56 62.5992C286.614 62.4947 286.696 62.4069 286.796 62.3453C286.897 62.2836 287.012 62.2504 287.13 62.2492H288.91C289.028 62.2504 289.143 62.2836 289.243 62.3453C289.344 62.4069 289.425 62.4947 289.48 62.5992L291.07 65.9992Z" fill="#111111"/>
<path d="M287.998 93.7C275.288 93.7 263.208 64.6 262.708 63.36C262.699 63.3138 262.699 63.2662 262.708 63.22C262.568 62.34 259.338 41.51 264.038 34.53C268.438 28 279.458 23.93 281.068 23.37L285.328 17.9C285.388 17.8251 285.464 17.7646 285.551 17.723C285.637 17.6815 285.732 17.6599 285.828 17.66H290.168C290.264 17.6599 290.359 17.6815 290.445 17.723C290.532 17.7646 290.608 17.8251 290.668 17.9L294.928 23.37C296.538 23.93 307.558 28 311.998 34.53C316.698 41.53 313.468 62.34 313.328 63.22C313.337 63.2662 313.337 63.3138 313.328 63.36C312.788 64.6 300.708 93.7 287.998 93.7ZM263.888 63C264.548 64.58 276.398 92.5 287.998 92.5C299.598 92.5 311.448 64.53 312.108 63C312.318 61.63 315.258 41.66 310.958 35.28C306.508 28.69 294.468 24.59 294.348 24.54C294.233 24.5044 294.132 24.4346 294.058 24.34L289.868 18.96H286.128L281.938 24.34C281.864 24.4346 281.763 24.5044 281.648 24.54C281.528 24.59 269.488 28.69 265.038 35.28C260.738 41.61 263.678 61.58 263.888 63Z" fill="#111111"/>
<path d="M303.47 39.64C303.303 39.64 303.143 39.5736 303.025 39.4555C302.906 39.3373 302.84 39.1771 302.84 39.01V30.59C302.859 30.4379 302.933 30.298 303.048 30.1966C303.164 30.0952 303.312 30.0392 303.465 30.0392C303.618 30.0392 303.766 30.0952 303.882 30.1966C303.997 30.298 304.071 30.4379 304.09 30.59V39C304.091 39.0827 304.076 39.1649 304.046 39.2419C304.015 39.3188 303.97 39.389 303.913 39.4484C303.855 39.5079 303.786 39.5554 303.71 39.5882C303.634 39.6211 303.553 39.6387 303.47 39.64Z" fill="#111111"/>
<path d="M312.713 63.7507C312.578 63.7516 312.447 63.7056 312.343 63.6207C312.212 63.5213 312.125 63.3746 312.101 63.2121C312.076 63.0496 312.117 62.884 312.213 62.7507C319.003 53.6707 317.073 42.0007 317.053 41.8407L315.353 14.6207L315.003 35.1707C315.014 35.2594 315.006 35.3495 314.98 35.4349C314.954 35.5204 314.909 35.5993 314.85 35.6664C314.791 35.7335 314.718 35.7872 314.637 35.824C314.555 35.8608 314.467 35.8799 314.378 35.8799C314.288 35.8799 314.2 35.8608 314.118 35.824C314.037 35.7872 313.964 35.7335 313.905 35.6664C313.846 35.5993 313.802 35.5204 313.775 35.4349C313.749 35.3495 313.741 35.2594 313.753 35.1707L314.153 11.6907C314.157 11.5737 314.194 11.4602 314.259 11.3631C314.325 11.2659 314.416 11.1889 314.523 11.1407C314.63 11.0901 314.749 11.0716 314.866 11.0876C314.983 11.1036 315.093 11.1533 315.183 11.2307L316.263 12.1307C316.327 12.1855 316.38 12.2527 316.417 12.3283C316.455 12.4039 316.477 12.4863 316.483 12.5707L318.293 41.7007C318.373 42.1307 320.293 53.9807 313.223 63.5007C313.162 63.5782 313.085 63.641 312.996 63.6843C312.908 63.7276 312.811 63.7503 312.713 63.7507Z" fill="#111111"/>
<path d="M307.272 19.3904C307.142 19.3911 307.016 19.3509 306.91 19.2755C306.804 19.2002 306.724 19.0934 306.682 18.9704C303.242 8.83043 289.722 4.14043 288.002 3.59043C286.282 4.14043 272.762 8.83043 269.322 19.0004C269.269 19.1569 269.156 19.2859 269.008 19.359C268.86 19.4322 268.689 19.4435 268.532 19.3904C268.376 19.3374 268.247 19.2244 268.174 19.0762C268.101 18.928 268.089 18.7569 268.142 18.6004C272.002 7.21043 287.142 2.60043 287.822 2.36043C287.94 2.33038 288.064 2.33038 288.182 2.36043C288.822 2.55043 304.002 7.21043 307.862 18.6004C307.889 18.6779 307.9 18.7599 307.895 18.8416C307.89 18.9234 307.868 19.0033 307.832 19.0768C307.796 19.1502 307.745 19.2158 307.684 19.2696C307.622 19.3234 307.55 19.3645 307.472 19.3904C307.406 19.4009 307.339 19.4009 307.272 19.3904Z" fill="#111111"/>
<path d="M309.912 28.0799H309.782C309.702 28.0644 309.626 28.0331 309.558 27.9878C309.49 27.9425 309.432 27.8841 309.388 27.8161C309.343 27.7481 309.312 27.6717 309.297 27.5917C309.283 27.5116 309.284 27.4294 309.302 27.3499C311.692 15.5999 289.902 10.3499 288.002 9.94987C286.102 10.3799 264.312 15.6099 266.702 27.3499C266.719 27.4294 266.72 27.5116 266.706 27.5917C266.691 27.6717 266.66 27.7481 266.615 27.8161C266.571 27.8841 266.513 27.9425 266.445 27.9878C266.378 28.0331 266.301 28.0644 266.222 28.0799C266.141 28.0974 266.059 28.0989 265.978 28.0843C265.897 28.0696 265.82 28.0391 265.751 27.9944C265.682 27.9498 265.623 27.8919 265.577 27.8242C265.531 27.7565 265.498 27.6802 265.482 27.5999C264.342 21.9999 267.902 16.9099 275.772 12.9999C279.628 11.1184 283.688 9.68566 287.872 8.72987C287.957 8.70984 288.046 8.70984 288.132 8.72987C292.315 9.68566 296.375 11.1184 300.232 12.9999C308.102 16.9999 311.662 21.9999 310.522 27.6299C310.482 27.7609 310.402 27.8757 310.292 27.9569C310.182 28.0381 310.048 28.0812 309.912 28.0799Z" fill="#111111"/>
<path d="M311.48 35.5104H311.41C311.328 35.503 311.248 35.4791 311.175 35.44C311.103 35.4009 311.039 35.3475 310.987 35.283C310.936 35.2185 310.898 35.1443 310.876 35.0648C310.854 34.9852 310.849 34.9021 310.86 34.8204C310.983 32.4294 310.491 30.0468 309.43 27.9004C304.62 24.9704 294.63 24.5404 294.53 24.5404C294.365 24.5326 294.209 24.46 294.097 24.3384C293.984 24.2168 293.925 24.0558 293.93 23.8904C293.931 23.8076 293.949 23.726 293.983 23.6504C294.017 23.5749 294.065 23.507 294.126 23.4508C294.187 23.3947 294.259 23.3515 294.337 23.324C294.415 23.2964 294.497 23.2849 294.58 23.2904C295.01 23.2904 305.21 23.7404 310.24 26.9304C310.333 26.9901 310.409 27.0728 310.46 27.1704C311.696 29.5871 312.262 32.2908 312.1 35.0004C312.072 35.1442 311.995 35.2738 311.882 35.3669C311.769 35.46 311.627 35.5107 311.48 35.5104Z" fill="#111111"/>
<path d="M317.858 44.1308C317.704 44.1293 317.556 44.0715 317.442 43.9684C317.328 43.8652 317.255 43.7238 317.238 43.5708C316.648 38.2608 312.118 33.0108 311.308 32.7208C311.228 32.721 311.149 32.7048 311.076 32.6732C311.003 32.6415 310.937 32.5952 310.883 32.537C310.829 32.4789 310.787 32.4101 310.76 32.3351C310.733 32.26 310.722 32.1803 310.728 32.1008C310.736 31.9301 310.81 31.7694 310.936 31.6534C311.061 31.5374 311.227 31.4754 311.398 31.4808C312.838 31.4808 317.838 37.6908 318.478 43.4808C318.488 43.5623 318.481 43.6449 318.459 43.7239C318.436 43.8028 318.398 43.8765 318.347 43.9407C318.296 44.0049 318.233 44.0583 318.161 44.0978C318.089 44.1373 318.01 44.1621 317.928 44.1708L317.858 44.1308Z" fill="#111111"/>
<path d="M288 93.7C284.92 93.7 282.41 91.78 282.41 89.43C282.41 87.08 284.92 85.17 288 85.17C291.08 85.17 293.59 87.08 293.59 89.43C293.59 91.78 291.08 93.7 288 93.7ZM288 86.42C285.61 86.42 283.66 87.77 283.66 89.42C283.66 91.07 285.66 92.42 288 92.42C290.34 92.42 292.34 91.06 292.34 89.42C292.34 87.78 290.39 86.42 288 86.42Z" fill="#111111"/>
<path d="M287.999 93.7009C283.419 93.7009 279.699 90.8909 279.699 87.4509C279.699 84.0109 283.419 81.2109 287.999 81.2109C292.579 81.2109 296.299 84.0109 296.299 87.4509C296.299 90.8909 292.579 93.7009 287.999 93.7009ZM287.999 82.4609C284.109 82.4609 280.999 84.7009 280.999 87.4609C280.999 90.2209 284.159 92.4609 287.999 92.4609C291.839 92.4609 294.999 90.2209 294.999 87.4609C294.999 84.7009 291.889 82.4609 287.999 82.4609Z" fill="#111111"/>
<path d="M299.261 76.5592C299.145 76.5574 299.033 76.5239 298.935 76.4625C298.838 76.4011 298.759 76.3141 298.707 76.211C298.656 76.1078 298.633 75.9925 298.643 75.8776C298.652 75.7626 298.693 75.6525 298.761 75.5592L308.451 62.2492C308.498 62.1822 308.559 62.1255 308.629 62.0825C308.699 62.0395 308.777 62.011 308.858 61.9989C308.939 61.9867 309.022 61.9911 309.102 62.0118C309.181 62.0325 309.256 62.069 309.321 62.1192C309.387 62.1668 309.444 62.2272 309.487 62.2969C309.53 62.3665 309.559 62.4441 309.572 62.525C309.585 62.6059 309.582 62.6885 309.563 62.7682C309.544 62.8479 309.509 62.923 309.461 62.9892L299.771 76.2992C299.713 76.3803 299.636 76.4463 299.548 76.4915C299.459 76.5368 299.36 76.56 299.261 76.5592Z" fill="#111111"/>
<path d="M292.818 81.6591C292.749 81.6695 292.678 81.6695 292.608 81.6591L289.828 80.6591C289.74 80.6248 289.658 80.5739 289.588 80.5091L288.588 79.5091H287.438L286.438 80.5091C286.369 80.5739 286.287 80.6248 286.198 80.6591L283.418 81.6591C283.298 81.7012 283.167 81.7055 283.044 81.6716C282.92 81.6377 282.81 81.567 282.728 81.4691L278.648 76.5891H273.998C273.899 76.5899 273.8 76.5667 273.712 76.5215C273.623 76.4762 273.546 76.4102 273.488 76.3291L266.968 67.3291C266.915 67.2639 266.875 67.1884 266.852 67.1074C266.829 67.0263 266.822 66.9414 266.833 66.8578C266.844 66.7742 266.871 66.6936 266.914 66.621C266.957 66.5484 267.014 66.4853 267.083 66.4356C267.151 66.3859 267.228 66.3506 267.31 66.3319C267.393 66.3132 267.478 66.3114 267.561 66.3267C267.644 66.342 267.722 66.374 267.793 66.4209C267.863 66.4677 267.922 66.5284 267.968 66.5991L274.308 75.2991H278.938C279.03 75.2994 279.121 75.3202 279.204 75.36C279.287 75.3997 279.36 75.4575 279.418 75.5291L283.418 80.2891L285.658 79.4991L286.768 78.3591C286.826 78.3007 286.894 78.2546 286.97 78.2237C287.045 78.1927 287.127 78.1775 287.208 78.1791H288.868C288.95 78.1775 289.031 78.1927 289.107 78.2237C289.183 78.2546 289.251 78.3007 289.308 78.3591L290.418 79.4991L292.658 80.2891L296.658 75.5291C296.716 75.4575 296.789 75.3997 296.872 75.36C296.955 75.3202 297.046 75.2994 297.138 75.2991H301.768L308.108 66.5991C308.154 66.5284 308.214 66.4677 308.284 66.4209C308.354 66.374 308.433 66.342 308.516 66.3267C308.599 66.3114 308.684 66.3132 308.766 66.3319C308.848 66.3506 308.926 66.3859 308.994 66.4356C309.062 66.4853 309.119 66.5484 309.162 66.621C309.205 66.6936 309.233 66.7742 309.244 66.8578C309.254 66.9414 309.248 67.0263 309.225 67.1074C309.201 67.1884 309.162 67.2639 309.108 67.3291L302.588 76.3291C302.53 76.4102 302.454 76.4762 302.365 76.5215C302.276 76.5667 302.178 76.5899 302.078 76.5891H297.378L293.298 81.4391C293.239 81.5088 293.166 81.5647 293.083 81.6027C293 81.6408 292.91 81.66 292.818 81.6591Z" fill="#111111"/>
<path d="M294.582 79.5594C294.423 79.5593 294.269 79.4986 294.152 79.3895C292.497 77.804 290.294 76.9189 288.002 76.9189C285.71 76.9189 283.507 77.804 281.852 79.3895C281.732 79.5022 281.571 79.5623 281.406 79.5567C281.241 79.5511 281.085 79.4801 280.972 79.3595C280.86 79.2388 280.799 79.0783 280.805 78.9132C280.811 78.7482 280.882 78.5922 281.002 78.4795C282.886 76.6752 285.394 75.668 288.002 75.668C290.611 75.668 293.119 76.6752 295.002 78.4795C295.062 78.5372 295.109 78.6064 295.142 78.6829C295.174 78.7593 295.191 78.8415 295.191 78.9245C295.191 79.0075 295.174 79.0896 295.142 79.166C295.109 79.2425 295.062 79.3117 295.002 79.3695C294.893 79.4853 294.742 79.5535 294.582 79.5594Z" fill="#111111"/>
<path d="M298.57 66.8305C298.263 66.8334 297.958 66.7964 297.66 66.7205L291.66 65.1905C291.575 65.1676 291.496 65.1273 291.427 65.0722C291.358 65.0172 291.301 64.9485 291.26 64.8705L288.74 60.0005C288.25 59.9204 287.75 59.9204 287.26 60.0005L284.71 64.9105C284.669 64.9885 284.613 65.0572 284.544 65.1122C284.475 65.1673 284.395 65.2076 284.31 65.2305L278.31 66.7605C277.674 66.9246 277.004 66.9127 276.374 66.726C275.743 66.5393 275.175 66.1849 274.73 65.7005L267.14 57.4305C267.045 57.3077 266.996 57.1557 267 57.0005V47.8505C267.001 47.7098 267.048 47.5733 267.135 47.4628C267.222 47.3522 267.344 47.274 267.48 47.2405L273.33 45.8205C273.424 45.7995 273.52 45.7994 273.614 45.8202C273.707 45.8409 273.795 45.882 273.87 45.9405L286 55.6105L288 55.7805L290 55.6105L302.09 45.9405C302.166 45.882 302.254 45.8409 302.347 45.8202C302.44 45.7994 302.537 45.7995 302.63 45.8205L308.48 47.2405C308.617 47.274 308.738 47.3522 308.825 47.4628C308.912 47.5733 308.96 47.7098 308.96 47.8505V57.0005C308.957 57.1547 308.9 57.3031 308.8 57.4205L301.21 65.6905C300.871 66.0508 300.462 66.3378 300.008 66.5339C299.554 66.7299 299.065 66.8309 298.57 66.8305ZM292.27 64.0005L298 65.5105C298.418 65.6171 298.856 65.6092 299.27 65.4878C299.683 65.3664 300.057 65.1359 300.35 64.8205L307.77 56.7205V48.3405L302.69 47.1105L290.69 56.7005C290.594 56.781 290.475 56.8299 290.35 56.8405L288.05 57.0005H288L285.73 56.8105C285.605 56.7999 285.487 56.751 285.39 56.6705L273.39 47.0805L268.31 48.3105V56.6905L275.74 64.7905C276.032 65.1059 276.403 65.3366 276.815 65.4581C277.227 65.5796 277.664 65.5873 278.08 65.4805L283.73 64.0005L286.29 59.0805C286.331 59.0002 286.389 58.9299 286.459 58.8746C286.53 58.8193 286.613 58.7803 286.7 58.7605C287.555 58.5605 288.445 58.5605 289.3 58.7605C289.388 58.7803 289.47 58.8193 289.541 58.8746C289.612 58.9299 289.67 59.0002 289.71 59.0805L292.27 64.0005Z" fill="#111111"/>
</g>
<g clip-path="url(#clip2_1_968)">
<path d="M383.629 55.1691C383.511 55.169 383.396 55.1363 383.295 55.0745C383.194 55.0127 383.113 54.9243 383.059 54.8191L380.169 48.8191C380.129 48.7312 380.109 48.6357 380.109 48.5391V35.5391C380.11 35.4505 380.129 35.363 380.165 35.2821C380.201 35.2012 380.254 35.1286 380.319 35.0691L383.209 32.4291C383.327 32.3143 383.485 32.25 383.649 32.25C383.814 32.25 383.972 32.3143 384.089 32.4291C384.205 32.5485 384.269 32.708 384.269 32.8741C384.269 33.0402 384.205 33.1998 384.089 33.3191L381.399 35.7691V48.4091L384.229 54.2791C384.265 54.3526 384.286 54.4324 384.291 54.514C384.295 54.5956 384.284 54.6773 384.257 54.7544C384.23 54.8315 384.188 54.9026 384.134 54.9635C384.079 55.0243 384.013 55.0738 383.939 55.1091C383.842 55.1539 383.736 55.1745 383.629 55.1691Z" fill="#111111"/>
<path d="M407.999 93.0699H407.939L396.609 91.9099C396.518 91.9 396.43 91.8708 396.35 91.8242C396.271 91.7777 396.203 91.7149 396.149 91.6399L386.149 76.6399C386.09 76.5544 386.055 76.454 386.049 76.3499L384.409 58.3499L382.999 54.7699C382.99 54.6969 382.99 54.6229 382.999 54.5499V14.9099C383 14.797 383.031 14.6864 383.089 14.5899C384.666 12.3032 386.641 10.3183 388.919 8.72988C394.497 4.80974 401.183 2.77731 407.999 2.92988C414.815 2.77731 421.501 4.80974 427.079 8.72988C429.358 10.3183 431.333 12.3032 432.909 14.5899C432.968 14.6864 432.999 14.797 432.999 14.9099V54.5499C433.009 54.6229 433.009 54.6969 432.999 54.7699L431.579 58.3999L429.939 76.3999C429.934 76.504 429.899 76.6044 429.839 76.6899L419.839 91.6899C419.786 91.7649 419.718 91.8277 419.638 91.8742C419.559 91.9208 419.471 91.95 419.379 91.9599L408.059 93.0699H407.999ZM396.999 90.6999L407.999 91.8199L418.999 90.6999L428.739 76.1299L430.379 58.2099C430.369 58.1537 430.369 58.0961 430.379 58.0399L431.749 54.4299V15.0999C430.869 13.8199 423.749 4.17988 407.999 4.17988C392.249 4.17988 385.119 13.8199 384.249 15.0999V54.4299L385.619 57.9999C385.63 58.0561 385.63 58.1137 385.619 58.1699L387.259 76.0899L396.999 90.6999Z" fill="#111111"/>
<path d="M417.92 82.0894C417.822 82.0878 417.726 82.0635 417.639 82.0184C417.552 81.9733 417.477 81.9086 417.42 81.8294L415.87 79.6894H400.13L398.58 81.8294C398.517 81.9149 398.434 81.9835 398.338 82.0289C398.241 82.0743 398.136 82.0951 398.03 82.0894C397.925 82.0802 397.825 82.0452 397.738 81.9876C397.651 81.93 397.579 81.8516 397.53 81.7594L383.08 54.8394C383.045 54.7623 383.027 54.6788 383.027 54.5944C383.027 54.5099 383.045 54.4264 383.08 54.3494L386.4 44.2794V21.8594C386.401 21.6902 386.469 21.5284 386.59 21.4094C386.84 21.1594 392.94 15.3594 399.07 15.3594C399.224 15.3609 399.372 15.4187 399.486 15.5218C399.6 15.625 399.673 15.7664 399.69 15.9194L402.11 37.3294L408 38.3894L413.89 37.3294L416.31 15.9194C416.327 15.7664 416.399 15.625 416.513 15.5218C416.628 15.4187 416.776 15.3609 416.93 15.3594C423.06 15.3594 429.16 21.1594 429.41 21.4094C429.53 21.5284 429.598 21.6902 429.6 21.8594V44.2794L433 54.3494C433.034 54.4264 433.052 54.5099 433.052 54.5944C433.052 54.6788 433.034 54.7623 433 54.8394L418.47 81.7594C418.42 81.8516 418.349 81.93 418.261 81.9876C418.174 82.0452 418.074 82.0802 417.97 82.0894H417.92ZM399.81 78.4394H416.19C416.289 78.4402 416.387 78.4641 416.475 78.5092C416.564 78.5543 416.641 78.6194 416.7 78.6994L417.84 80.2894L431.69 54.4894L428.39 44.5794C428.375 44.5136 428.375 44.4452 428.39 44.3794V22.1294C427.39 21.2094 422.39 16.9394 417.53 16.6294L415.08 37.9394C415.063 38.0718 415.004 38.1955 414.913 38.2925C414.821 38.3896 414.701 38.455 414.57 38.4794L408.11 39.6394H407.89L401.43 38.4794C401.298 38.455 401.178 38.3896 401.087 38.2925C400.995 38.1955 400.936 38.0718 400.92 37.9394L398.51 16.6294C393.63 16.9394 388.67 21.2094 387.65 22.1294V44.3794C387.665 44.4452 387.665 44.5136 387.65 44.5794L384.35 54.4894L398.2 80.2894L399.3 78.6994C399.359 78.6194 399.435 78.5543 399.524 78.5092C399.612 78.4641 399.71 78.4402 399.81 78.4394Z" fill="#111111"/>
<path d="M432.372 55.1697C432.279 55.169 432.187 55.1485 432.102 55.1097C432.029 55.0744 431.963 55.0249 431.908 54.964C431.854 54.9031 431.812 54.8321 431.785 54.755C431.758 54.6778 431.746 54.5961 431.751 54.5146C431.756 54.433 431.777 54.3532 431.812 54.2797L434.642 48.4097V35.8297L432.002 33.3797C431.887 33.2603 431.822 33.1007 431.822 32.9347C431.822 32.7686 431.887 32.609 432.002 32.4897C432.12 32.3748 432.278 32.3105 432.442 32.3105C432.607 32.3105 432.765 32.3748 432.882 32.4897L435.772 35.1297C435.838 35.1892 435.89 35.2617 435.927 35.3426C435.963 35.4235 435.982 35.511 435.982 35.5997V48.5997C435.983 48.6962 435.962 48.7917 435.922 48.8797L433.032 54.8797C432.964 54.9887 432.865 55.0747 432.747 55.1264C432.629 55.1782 432.499 55.1932 432.372 55.1697Z" fill="#111111"/>
<path d="M418.671 86.22C418.598 86.2351 418.523 86.2351 418.451 86.22L414.101 84.56H401.901L397.551 86.18C397.413 86.229 397.261 86.2289 397.123 86.1798C396.985 86.1306 396.867 86.0354 396.791 85.91L393.551 80.35C393.492 80.2535 393.461 80.1429 393.461 80.03V74C393.48 73.8479 393.554 73.708 393.669 73.6066C393.784 73.5052 393.933 73.4492 394.086 73.4492C394.239 73.4492 394.387 73.5052 394.502 73.6066C394.618 73.708 394.692 73.8479 394.711 74V79.83L397.611 84.83L401.611 83.36C401.684 83.3457 401.758 83.3457 401.831 83.36H414.211C414.284 83.3457 414.358 83.3457 414.431 83.36L418.431 84.83L421.331 79.83V74C421.35 73.8479 421.424 73.708 421.539 73.6066C421.654 73.5052 421.803 73.4492 421.956 73.4492C422.109 73.4492 422.257 73.5052 422.372 73.6066C422.488 73.708 422.562 73.8479 422.581 74V80C422.581 80.1129 422.55 80.2235 422.491 80.32L419.251 85.88C419.194 85.9834 419.11 86.0696 419.007 86.1294C418.905 86.1892 418.789 86.2205 418.671 86.22Z" fill="#111111"/>
<path d="M415.359 58.3905C415.259 58.3894 415.16 58.3643 415.071 58.3173C414.983 58.2703 414.907 58.2029 414.849 58.1205L412.529 54.7105C409.526 55.1605 406.472 55.1605 403.469 54.7105L401.149 58.1205C401.078 58.2274 400.975 58.3091 400.855 58.354C400.734 58.3989 400.603 58.4046 400.479 58.3705L390.739 55.9005C390.616 55.8644 390.506 55.7952 390.419 55.7005L388.349 53.2905C388.254 53.1748 388.201 53.0302 388.199 52.8805V48.0005C388.201 47.8911 388.231 47.784 388.286 47.6897C388.341 47.5954 388.42 47.5171 388.515 47.4626C388.61 47.4081 388.718 47.3793 388.827 47.3789C388.936 47.3785 389.044 47.4066 389.139 47.4605L393.289 49.8605C397.763 52.4397 402.836 53.7974 407.999 53.7974C413.163 53.7974 418.236 52.4397 422.709 49.8605L426.859 47.4605C426.954 47.4066 427.062 47.3785 427.171 47.3789C427.281 47.3793 427.388 47.4081 427.483 47.4626C427.578 47.5171 427.657 47.5954 427.712 47.6897C427.768 47.784 427.798 47.8911 427.799 48.0005V52.8805C427.797 53.0302 427.744 53.1748 427.649 53.2905L425.579 55.7005C425.493 55.7952 425.382 55.8644 425.259 55.9005L415.519 58.3705C415.468 58.3877 415.413 58.3945 415.359 58.3905ZM413.879 54.4805L415.629 57.0505L424.759 54.7305L426.549 52.6505V49.0805L423.329 50.9405C420.398 52.6369 417.204 53.8332 413.879 54.4805ZM391.239 54.7305L400.369 57.0505L402.119 54.4805C398.795 53.8332 395.601 52.6369 392.669 50.9405L389.449 49.0805V52.6505L391.239 54.7305Z" fill="#111111"/>
<path d="M399.792 79.6608C399.679 79.6612 399.568 79.6306 399.471 79.5725C399.374 79.5143 399.295 79.4307 399.242 79.3308L391.312 64.5808C391.264 64.4917 391.24 64.3919 391.242 64.2908V59.2908L390.292 55.4608C390.272 55.3814 390.268 55.2988 390.28 55.2179C390.293 55.1369 390.321 55.0592 390.363 54.9891C390.405 54.919 390.461 54.8579 390.527 54.8093C390.593 54.7607 390.667 54.7255 390.747 54.7058C390.826 54.6861 390.909 54.6823 390.99 54.6945C391.071 54.7067 391.148 54.7347 391.218 54.777C391.289 54.8192 391.35 54.8748 391.398 54.9407C391.447 55.0066 391.482 55.0814 391.502 55.1608L392.502 59.0608C392.507 59.1107 392.507 59.1609 392.502 59.2108V64.1508L400.352 78.7608C400.43 78.9081 400.446 79.0802 400.397 79.2395C400.348 79.3988 400.239 79.5323 400.092 79.6108C399.998 79.6534 399.894 79.6707 399.792 79.6608Z" fill="#111111"/>
<path d="M416.209 79.6593C416.108 79.6612 416.008 79.6371 415.919 79.5893C415.772 79.5108 415.662 79.3773 415.613 79.218C415.565 79.0587 415.581 78.8866 415.659 78.7393L423.519 64.1293V59.1893C423.514 59.1395 423.514 59.0892 423.519 59.0393L424.519 55.1393C424.539 55.0599 424.574 54.9851 424.622 54.9192C424.671 54.8534 424.732 54.7977 424.802 54.7555C424.872 54.7132 424.95 54.6852 425.031 54.673C425.112 54.6608 425.195 54.6646 425.274 54.6843C425.353 54.704 425.428 54.7392 425.494 54.7878C425.56 54.8364 425.616 54.8975 425.658 54.9676C425.7 55.0377 425.728 55.1155 425.74 55.1964C425.753 55.2773 425.749 55.3599 425.729 55.4393L424.789 59.2693V64.2693C424.787 64.3712 424.76 64.471 424.709 64.5593L416.759 79.3293C416.707 79.43 416.628 79.5142 416.531 79.5725C416.434 79.6307 416.322 79.6608 416.209 79.6593Z" fill="#111111"/>
</g>
<g clip-path="url(#clip3_1_968)">
<path d="M538.551 62.4697C538.453 62.4655 538.358 62.4417 538.271 62.3997L528.331 57.3997C528.25 57.3603 528.179 57.3042 528.122 57.2353C528.066 57.1663 528.024 57.086 528.001 56.9997C527.983 57.0923 527.944 57.1794 527.887 57.2541C527.83 57.3288 527.755 57.389 527.671 57.4297L517.731 62.4297C517.617 62.4894 517.487 62.5105 517.361 62.4897L509.361 61.3397C509.199 61.3125 509.053 61.2271 508.951 61.0997L504.951 55.8697C504.9 55.8091 504.863 55.7388 504.84 55.6631C504.818 55.5875 504.811 55.5081 504.821 55.4297L505.481 48.1897C505.491 48.0559 505.544 47.929 505.632 47.8281C505.721 47.7271 505.839 47.6575 505.971 47.6297L514.971 45.7297C515.072 45.7047 515.179 45.7047 515.281 45.7297L528.041 49.7297L540.801 45.7297C540.906 45.7047 541.015 45.7047 541.121 45.7297L550.121 47.6297C550.252 47.6585 550.371 47.7282 550.461 47.8287C550.551 47.9293 550.607 48.0556 550.621 48.1897L551.281 55.4297C551.295 55.5876 551.249 55.7451 551.151 55.8697L547.151 61.0997C547.05 61.2294 546.903 61.3153 546.741 61.3397L538.741 62.4897L538.551 62.4697ZM529.171 56.3997L538.661 61.1997L546.251 60.1097L550.001 55.2697L549.411 48.7297L541.001 46.9997L528.191 50.9997H528.001C527.938 51.0094 527.874 51.0094 527.811 50.9997L515.001 46.9997L506.601 48.7697L506.001 55.2697L509.731 60.1097L517.321 61.1997L526.811 56.3997L527.371 53.5397C527.39 53.3878 527.466 53.2485 527.582 53.1488C527.698 53.0491 527.847 52.996 528.001 52.9997C528.146 52.9989 528.287 53.0482 528.4 53.1393C528.513 53.2304 528.591 53.3577 528.621 53.4997L529.171 56.3997Z" fill="#111111"/>
<path d="M516.14 47.2795C515.976 47.2795 515.818 47.2142 515.702 47.0979C515.586 46.9816 515.52 46.8239 515.52 46.6595C515.35 37.15 514.346 27.6737 512.52 18.3395C512.487 18.1777 512.52 18.0094 512.611 17.8715C512.702 17.7337 512.844 17.6376 513.005 17.6045C513.167 17.5713 513.336 17.6038 513.473 17.6948C513.611 17.7857 513.707 17.9277 513.74 18.0895C515.574 27.5067 516.578 37.0667 516.74 46.6595C516.738 46.8198 516.675 46.9731 516.563 47.0883C516.452 47.2035 516.301 47.2719 516.14 47.2795Z" fill="#111111"/>
<path d="M510.911 47.8097C510.744 47.8097 510.584 47.7433 510.465 47.6251C510.347 47.507 510.281 47.3467 510.281 47.1797C510.281 29.5697 508.891 20.7996 508.871 20.7096C508.858 20.6288 508.861 20.5463 508.881 20.4668C508.9 20.3873 508.935 20.3124 508.983 20.2464C509.031 20.1804 509.092 20.1246 509.162 20.0823C509.232 20.0399 509.31 20.0118 509.391 19.9997C509.471 19.9854 509.553 19.9873 509.633 20.0054C509.712 20.0235 509.787 20.0573 509.854 20.1048C509.92 20.1523 509.976 20.2127 510.018 20.2822C510.061 20.3517 510.089 20.4291 510.101 20.5097C510.101 20.5997 511.531 29.5097 511.531 47.1797C511.531 47.345 511.466 47.5038 511.35 47.6216C511.234 47.7395 511.076 47.807 510.911 47.8097Z" fill="#111111"/>
<path d="M528.002 76.8909C527.837 76.8909 527.678 76.8259 527.56 76.7099C527.442 76.5939 527.375 76.4362 527.372 76.2709V71.3909C527.361 71.3021 527.369 71.2121 527.395 71.1266C527.421 71.0411 527.465 70.9622 527.525 70.8951C527.584 70.828 527.656 70.7743 527.738 70.7375C527.819 70.7007 527.908 70.6816 527.997 70.6816C528.087 70.6816 528.175 70.7007 528.257 70.7375C528.338 70.7743 528.411 70.828 528.47 70.8951C528.529 70.9622 528.573 71.0411 528.599 71.1266C528.626 71.2121 528.633 71.3021 528.622 71.3909V76.2709C528.622 76.3523 528.606 76.4329 528.575 76.5081C528.544 76.5833 528.498 76.6517 528.441 76.7093C528.383 76.7668 528.315 76.8125 528.239 76.8437C528.164 76.8748 528.084 76.8909 528.002 76.8909Z" fill="#111111"/>
<path d="M498.6 54.7C498.45 54.7023 498.303 54.6489 498.19 54.55C498 54.39 493.66 50.47 493.66 39.74C493.66 29.01 498.16 26.82 498.35 26.74C498.444 26.6956 498.548 26.6768 498.652 26.6856C498.755 26.6944 498.855 26.7304 498.94 26.79C499.026 26.8466 499.097 26.9237 499.146 27.0145C499.195 27.1053 499.22 27.2069 499.22 27.31V54.08C499.22 54.1994 499.186 54.3163 499.123 54.4172C499.059 54.5181 498.968 54.5988 498.86 54.65C498.777 54.681 498.689 54.6979 498.6 54.7ZM498 28.58C496.84 29.78 494.94 32.81 494.94 39.74C494.94 46.67 496.76 50.5 498 52.32V28.58Z" fill="#111111"/>
<path d="M515.369 86.1999C514.282 86.155 513.245 85.7303 512.439 84.9999C511.109 83.8214 510.125 82.3041 509.589 80.6099C508.269 76.7199 509.209 72.9999 511.709 72.1499C514.209 71.2999 517.219 73.6899 518.539 77.5799C519.859 81.4799 518.929 85.1899 516.419 86.0399C516.081 86.1529 515.726 86.207 515.369 86.1999ZM512.749 73.1999C512.534 73.2007 512.321 73.2379 512.119 73.3099C510.329 73.9099 509.719 77.0599 510.769 80.1799C511.236 81.651 512.089 82.9701 513.239 83.9999C513.596 84.3603 514.037 84.6245 514.524 84.7679C515.01 84.9113 515.524 84.9292 516.019 84.8199C517.799 84.2099 518.419 81.0599 517.359 77.9399C516.419 75.2099 514.429 73.2199 512.749 73.2199V73.1999Z" fill="#111111"/>
<path d="M512.452 83.28C511.322 83.28 510.142 82.22 509.592 80.6C509.307 79.812 509.245 78.961 509.412 78.1401C509.469 77.77 509.621 77.4212 509.855 77.1283C510.088 76.8354 510.394 76.6085 510.742 76.4701C511.102 76.371 511.482 76.3669 511.845 76.458C512.208 76.5491 512.541 76.7324 512.812 76.99C513.438 77.5476 513.904 78.2622 514.162 79.06C514.792 80.94 514.292 82.7501 513.012 83.1901C512.831 83.25 512.642 83.2803 512.452 83.28ZM511.302 77.63C511.249 77.6195 511.194 77.6195 511.142 77.63C510.999 77.7028 510.877 77.8108 510.788 77.9438C510.699 78.0768 510.645 78.2304 510.632 78.3901C510.517 78.9852 510.566 79.6001 510.772 80.17C511.202 81.42 512.092 82.1701 512.612 81.9701C513.132 81.7701 513.392 80.6701 512.972 79.4301C512.774 78.8794 512.44 78.3876 512.002 78.0001C511.818 77.7991 511.571 77.6683 511.302 77.63Z" fill="#111111"/>
<path d="M511.5 82.9403C511.367 82.9404 511.237 82.8984 511.13 82.8203L497 72.5503C496.897 72.4757 496.82 72.3708 496.78 72.2503L492.89 60.9103C492.875 60.8377 492.875 60.763 492.89 60.6903L493.89 35.7403L498 10.3803C498.017 10.2691 498.064 10.1648 498.137 10.0785C498.209 9.99213 498.303 9.9271 498.41 9.89034C498.509 9.85626 498.616 9.84848 498.719 9.86775C498.822 9.88703 498.919 9.9327 499 10.0003L500.61 11.4003C500.684 11.468 500.742 11.5519 500.778 11.6456C500.815 11.7393 500.829 11.8402 500.82 11.9403L499.22 27.3803C499.211 27.462 499.186 27.541 499.147 27.613C499.107 27.685 499.054 27.7484 498.99 27.7995C498.925 27.8507 498.852 27.8886 498.773 27.9111C498.694 27.9335 498.611 27.9401 498.53 27.9303C498.448 27.9229 498.37 27.8993 498.298 27.8608C498.226 27.8224 498.162 27.7699 498.111 27.7065C498.06 27.6431 498.022 27.5701 497.999 27.4917C497.977 27.4134 497.97 27.3313 497.98 27.2503L499.55 12.1403L499 11.6903L495 35.8703L494.06 60.6203L497.8 71.6203L511.8 81.7703C511.909 81.8458 511.991 81.9545 512.034 82.0802C512.077 82.2059 512.078 82.342 512.038 82.4686C511.998 82.5951 511.918 82.7054 511.81 82.7831C511.702 82.8609 511.572 82.9019 511.44 82.9003L511.5 82.9403Z" fill="#111111"/>
<path d="M510 75.4096C509.823 75.4076 509.654 75.3357 509.53 75.2096L500.53 65.2096C500.474 65.1492 500.431 65.0782 500.404 65.0009C500.376 64.9236 500.365 64.8415 500.37 64.7596L500.77 55.6196L498.39 54.7096C498.313 54.6817 498.242 54.6388 498.181 54.5834C498.121 54.528 498.072 54.4612 498.038 54.3868C498.003 54.3124 497.984 54.2319 497.981 54.15C497.978 54.0681 497.991 53.9864 498.02 53.9096C498.078 53.7532 498.196 53.6263 498.348 53.557C498.5 53.4876 498.673 53.4813 498.83 53.5396L501.64 54.6196C501.762 54.6659 501.867 54.7499 501.939 54.8595C502.011 54.9691 502.046 55.0987 502.04 55.2296L501.63 64.5596L510.49 74.4196C510.604 74.5373 510.669 74.6952 510.669 74.8596C510.669 75.024 510.604 75.1819 510.49 75.2996C510.42 75.3517 510.341 75.3884 510.257 75.4074C510.172 75.4263 510.084 75.4271 510 75.4096Z" fill="#111111"/>
<path d="M497.317 72.6692H497.267C497.186 72.6629 497.107 72.6406 497.034 72.6034C496.961 72.5663 496.896 72.5151 496.843 72.4528C496.79 72.3906 496.75 72.3184 496.725 72.2406C496.7 72.1627 496.691 72.0807 496.697 71.9992L497.187 65.5492C497.197 65.4199 497.247 65.2967 497.329 65.1965C497.411 65.0963 497.522 65.0239 497.647 64.9892L500.817 64.1392C500.97 64.1172 501.126 64.1522 501.255 64.2374C501.384 64.3227 501.477 64.4524 501.516 64.6017C501.556 64.7511 501.539 64.9098 501.469 65.0476C501.399 65.1854 501.281 65.2928 501.137 65.3492L498.397 66.0792L497.937 72.0792C497.932 72.2393 497.864 72.3908 497.748 72.5012C497.632 72.6116 497.478 72.672 497.317 72.6692Z" fill="#111111"/>
<path d="M501.901 75.9994C501.736 75.9967 501.578 75.9292 501.462 75.8113C501.346 75.6935 501.281 75.5347 501.281 75.3694V72.6494C501.281 72.521 501.321 72.3956 501.394 72.2902C501.467 72.1847 501.571 72.1042 501.691 72.0594L506.391 70.3994C506.469 70.3709 506.551 70.3582 506.633 70.362C506.716 70.3657 506.797 70.3859 506.871 70.4213C506.946 70.4567 507.012 70.5066 507.067 70.5681C507.122 70.6296 507.164 70.7014 507.191 70.7794C507.243 70.936 507.233 71.1066 507.162 71.2557C507.091 71.4048 506.966 71.5207 506.811 71.5794L502.531 73.0994V75.3594C502.533 75.4429 502.517 75.5259 502.486 75.6035C502.455 75.6811 502.409 75.7518 502.35 75.8113C502.292 75.8709 502.222 75.9182 502.145 75.9505C502.068 75.9828 501.985 75.9994 501.901 75.9994Z" fill="#111111"/>
<path d="M539.839 47.2797C539.674 47.2797 539.517 47.2144 539.4 47.0981C539.284 46.9818 539.219 46.8241 539.219 46.6597C539.383 37.0671 540.387 27.5073 542.219 18.0897C542.234 18.0042 542.266 17.9227 542.315 17.8506C542.363 17.7785 542.426 17.7174 542.5 17.6712C542.573 17.625 542.656 17.5947 542.742 17.5824C542.828 17.5701 542.915 17.576 542.999 17.5997C543.162 17.6334 543.304 17.7302 543.396 17.8688C543.488 18.0074 543.521 18.1767 543.489 18.3397C541.664 27.674 540.66 37.1502 540.489 46.6597C540.487 46.7433 540.47 46.8258 540.436 46.9024C540.403 46.979 540.354 47.0482 540.294 47.1059C540.233 47.1636 540.162 47.2087 540.084 47.2385C540.006 47.2684 539.922 47.2824 539.839 47.2797Z" fill="#111111"/>
<path d="M545.079 47.8097C544.912 47.8097 544.752 47.7434 544.634 47.6252C544.516 47.5071 544.449 47.3468 544.449 47.1797C544.449 29.4697 545.869 20.5997 545.879 20.5097C545.893 20.4288 545.922 20.3512 545.965 20.2816C546.009 20.212 546.066 20.1517 546.133 20.1043C546.2 20.0569 546.275 20.0232 546.355 20.0052C546.436 19.9873 546.518 19.9854 546.599 19.9997C546.68 20.0118 546.757 20.04 546.827 20.0825C546.896 20.1249 546.957 20.1809 547.004 20.2471C547.052 20.3133 547.085 20.3883 547.103 20.4678C547.122 20.5472 547.123 20.6295 547.109 20.7097C547.109 20.7997 545.699 29.5797 545.699 47.1797C545.699 47.3451 545.634 47.5039 545.518 47.6217C545.402 47.7396 545.245 47.8071 545.079 47.8097Z" fill="#111111"/>
<path d="M515.611 74.2094C515.526 74.229 515.437 74.229 515.351 74.2094L509.891 71.7294C509.768 71.6729 509.666 71.5782 509.601 71.4594L500.861 55.4594C500.81 55.3675 500.783 55.2644 500.781 55.1594V44.9994C500.781 44.8949 500.807 44.792 500.855 44.6996C500.904 44.6072 500.975 44.5281 501.061 44.4694L502.391 43.5994L503.151 24.3794C503.155 24.2812 503.182 24.1854 503.231 24.1C503.28 24.0147 503.349 23.9425 503.431 23.8894L512.791 17.7194C512.877 17.6597 512.977 17.6251 513.081 17.6194L527.931 16.3594H528.051L542.911 17.6194C543.015 17.6283 543.114 17.6627 543.201 17.7194L552.561 23.8894C552.642 23.9442 552.71 24.0169 552.758 24.1018C552.807 24.1868 552.835 24.2817 552.841 24.3794L553.601 43.5994L554.921 44.4694C555.009 44.5268 555.081 44.6056 555.13 44.6983C555.179 44.791 555.203 44.8946 555.201 44.9994V55.1494C555.203 55.2536 555.179 55.3567 555.131 55.4494L546.391 71.4494C546.326 71.5682 546.224 71.6629 546.101 71.7194L540.641 74.1994C540.554 74.2411 540.458 74.2628 540.361 74.2628C540.264 74.2628 540.169 74.2411 540.081 74.1994C540.001 74.1994 531.481 69.6594 527.991 69.6494C524.501 69.6394 516.001 74.0994 515.901 74.1394C515.812 74.1872 515.712 74.2113 515.611 74.2094ZM510.611 70.6294L515.611 72.8894C517.061 72.1394 523.741 68.7594 527.391 68.3794V61.8394C527.391 61.6749 527.457 61.5172 527.573 61.401C527.689 61.2847 527.847 61.2194 528.011 61.2194C528.176 61.2194 528.333 61.2847 528.45 61.401C528.566 61.5172 528.631 61.6749 528.631 61.8394V68.3794C532.291 68.7694 538.951 72.1394 540.411 72.8894L545.411 70.6294L554.001 54.9994V45.2994L552.691 44.4394C552.608 44.3847 552.539 44.3107 552.49 44.2237C552.441 44.1366 552.414 44.0391 552.411 43.9394L551.601 24.7194L542.601 18.8194L528.001 17.5694L513.341 18.8194L504.341 24.7194L503.591 43.9394C503.586 44.0398 503.557 44.1376 503.507 44.2246C503.457 44.3116 503.386 44.3852 503.301 44.4394L502.001 45.2994V54.9994L510.611 70.6294Z" fill="#111111"/>
<path d="M554.58 45.5907C554.428 45.5789 554.286 45.5127 554.18 45.4042C554.073 45.2958 554.009 45.1525 554 45.0007V23.2507L543.21 11.9207L528 9.71068L512.77 11.9207L502 23.2507V45.0007C501.981 45.1528 501.907 45.2927 501.792 45.3941C501.676 45.4955 501.528 45.5515 501.375 45.5515C501.222 45.5515 501.074 45.4955 500.958 45.3941C500.843 45.2927 500.769 45.1528 500.75 45.0007V23.0007C500.75 22.841 500.811 22.6873 500.92 22.5707L512 10.9007C512.094 10.7973 512.222 10.7301 512.36 10.7107L527.9 8.46068C527.96 8.45061 528.02 8.45061 528.08 8.46068L543.6 10.7107C543.741 10.7325 543.87 10.7991 543.97 10.9007L555 22.5707C555.109 22.6873 555.17 22.841 555.17 23.0007V45.0007C555.163 45.1548 555.098 45.3007 554.989 45.4098C554.88 45.5189 554.734 45.5834 554.58 45.5907Z" fill="#111111"/>
<path d="M554.58 23.6302C554.434 23.6302 554.294 23.5791 554.182 23.4859C554.071 23.3927 553.995 23.2633 553.97 23.1202C550.51 5.40024 534.64 3.49023 528 3.49023C521.36 3.49023 505.48 5.40024 502 23.1202C501.992 23.2081 501.966 23.2934 501.923 23.3705C501.88 23.4477 501.821 23.5149 501.751 23.568C501.68 23.621 501.599 23.6586 501.513 23.6784C501.427 23.6982 501.338 23.6996 501.252 23.6827C501.165 23.6658 501.083 23.6309 501.011 23.5803C500.938 23.5296 500.877 23.4644 500.832 23.3887C500.787 23.313 500.758 23.2287 500.747 23.1411C500.736 23.0535 500.744 22.9646 500.77 22.8802C502 16.6802 507.08 2.24023 528 2.24023C548.92 2.24023 554 16.6802 555.2 22.8802C555.232 23.0433 555.199 23.2126 555.107 23.3512C555.015 23.4898 554.872 23.5865 554.71 23.6202L554.58 23.6302Z" fill="#111111"/>
<path d="M528 93.0005C527.032 93.0365 526.067 92.8771 525.163 92.5318C524.259 92.1865 523.433 91.6623 522.736 90.9906C522.039 90.3189 521.484 89.5136 521.105 88.6226C520.726 87.7317 520.531 86.7736 520.531 85.8055C520.531 84.8374 520.726 83.8792 521.105 82.9883C521.484 82.0974 522.039 81.292 522.736 80.6203C523.433 79.9486 524.259 79.4245 525.163 79.0791C526.067 78.7338 527.032 78.5744 528 78.6105C529.861 78.6799 531.624 79.4683 532.916 80.8101C534.209 82.1518 534.931 83.9424 534.931 85.8055C534.931 87.6686 534.209 89.4591 532.916 90.8009C531.624 92.1426 529.861 92.931 528 93.0005ZM528 79.8605C526.822 79.8605 525.672 80.2097 524.693 80.8639C523.714 81.5182 522.952 82.448 522.501 83.5358C522.051 84.6236 521.934 85.8205 522.165 86.9749C522.395 88.1294 522.963 89.1896 523.796 90.0213C524.629 90.853 525.69 91.4189 526.845 91.6474C528 91.8758 529.196 91.7566 530.283 91.3047C531.37 90.8528 532.299 90.0886 532.952 89.1088C533.604 88.129 533.952 86.9777 533.95 85.8005C533.926 84.2334 533.29 82.7378 532.179 81.6333C531.067 80.5289 529.567 79.9034 528 79.8905V79.8605Z" fill="#111111"/>
<path d="M527.999 92.9994C525.744 92.9229 523.607 91.9733 522.039 90.351C520.47 88.7288 519.594 86.5607 519.594 84.3044C519.594 82.0481 520.47 79.88 522.039 78.2577C523.607 76.6354 525.744 75.6859 527.999 75.6094C530.254 75.6859 532.391 76.6354 533.959 78.2577C535.527 79.88 536.404 82.0481 536.404 84.3044C536.404 86.5607 535.527 88.7288 533.959 90.351C532.391 91.9733 530.254 92.9229 527.999 92.9994ZM527.999 76.8594C526.518 76.8256 525.061 77.2339 523.813 78.0321C522.566 78.8304 521.585 79.9823 520.995 81.3409C520.405 82.6995 520.234 84.203 520.503 85.6595C520.771 87.1159 521.468 88.4592 522.504 89.5178C523.54 90.5764 524.868 91.3022 526.318 91.6026C527.768 91.903 529.275 91.7643 530.646 91.2042C532.017 90.6441 533.19 89.6881 534.015 88.4582C534.841 87.2283 535.28 85.7804 535.279 84.2994C535.29 82.3533 534.53 80.482 533.166 79.0938C531.802 77.7056 529.945 76.9131 527.999 76.8894V76.8594Z" fill="#111111"/>
<path d="M527.997 93.0008C524.597 92.8808 521.997 91.7508 520.307 89.6408C517.047 85.6408 517.977 79.7108 518.027 79.4608L520.627 70.7108C520.678 70.5538 520.788 70.4223 520.933 70.3441C521.078 70.2658 521.248 70.2467 521.407 70.2908C521.566 70.3394 521.699 70.4485 521.778 70.5946C521.856 70.7406 521.874 70.9117 521.827 71.0708L519.237 79.7408C519.237 79.7408 518.387 85.3308 521.237 88.8508C522.727 90.6708 524.987 91.6408 527.947 91.7508C529.205 91.7842 530.455 91.5419 531.609 91.0409C532.763 90.5399 533.793 89.7924 534.627 88.8508C537.517 85.3308 536.627 79.7208 536.627 79.6608L534.137 71.1008C534.091 70.9417 534.108 70.7706 534.187 70.6246C534.266 70.4785 534.399 70.3694 534.557 70.3208C534.635 70.2978 534.717 70.2905 534.798 70.2991C534.879 70.3078 534.958 70.3323 535.029 70.3713C535.101 70.4103 535.164 70.463 535.215 70.5264C535.266 70.5898 535.304 70.6627 535.327 70.7408L537.917 79.4108C537.977 79.7408 538.917 85.7008 535.657 89.6708C533.927 91.7808 531.357 92.9108 527.997 93.0008Z" fill="#111111"/>
<path d="M557.388 54.7005C557.299 54.6994 557.211 54.6825 557.128 54.6505C557.019 54.5999 556.926 54.5195 556.861 54.4187C556.795 54.3179 556.76 54.2007 556.758 54.0805V27.3105C556.759 27.2077 556.786 27.1068 556.834 27.0163C556.883 26.9258 556.953 26.8484 557.038 26.7905C557.123 26.7319 557.223 26.6965 557.326 26.6877C557.43 26.6789 557.534 26.6971 557.628 26.7405C557.828 26.8205 562.328 28.8805 562.328 39.7405C562.328 50.6005 557.998 54.3905 557.798 54.5505C557.683 54.6478 557.538 54.701 557.388 54.7005ZM557.998 28.5805V52.3105C559.218 50.4705 561.068 46.5605 561.068 39.7405C561.068 32.9205 559.168 29.7805 557.998 28.5805Z" fill="#111111"/>
<path d="M540.609 86.2001C540.269 86.2006 539.931 86.1432 539.609 86.0301C537.099 85.1801 536.159 81.4701 537.479 77.5701C538.799 73.6801 541.809 71.2901 544.309 72.1401C546.809 72.9901 547.749 76.7101 546.429 80.6001C545.887 82.3036 544.887 83.8255 543.539 85.0001C542.734 85.732 541.697 86.1569 540.609 86.2001ZM538.609 77.9701C537.549 81.0901 538.159 84.2401 539.949 84.8501C540.448 84.9575 540.967 84.9358 541.455 84.787C541.943 84.6383 542.385 84.3674 542.739 84.0001C543.894 82.9701 544.747 81.6466 545.209 80.1701C546.269 77.0501 545.649 73.9001 543.869 73.3001C542.089 72.7001 539.679 74.8501 538.629 78.0001L538.609 77.9701Z" fill="#111111"/>
<path d="M528 89.41C527.204 89.41 526.441 89.0939 525.879 88.5313C525.316 87.9687 525 87.2057 525 86.41C525 85.6144 525.316 84.8513 525.879 84.2887C526.441 83.7261 527.204 83.41 528 83.41C528.796 83.41 529.559 83.7261 530.121 84.2887C530.684 84.8513 531 85.6144 531 86.41C531 87.2057 530.684 87.9687 530.121 88.5313C529.559 89.0939 528.796 89.41 528 89.41ZM528 84.67C527.654 84.67 527.316 84.7726 527.028 84.9649C526.74 85.1572 526.516 85.4305 526.383 85.7503C526.251 86.0701 526.216 86.4219 526.284 86.7614C526.351 87.1009 526.518 87.4127 526.763 87.6574C527.007 87.9022 527.319 88.0689 527.659 88.1364C527.998 88.2039 528.35 88.1692 528.67 88.0368C528.989 87.9043 529.263 87.68 529.455 87.3923C529.647 87.1045 529.75 86.7661 529.75 86.42C529.75 85.9559 529.566 85.5108 529.237 85.1826C528.909 84.8544 528.464 84.67 528 84.67Z" fill="#111111"/>
<path d="M543.542 83.2808C543.352 83.2811 543.163 83.2507 542.982 83.1908C541.692 82.7508 541.192 80.9408 541.832 79.0608C542.088 78.2647 542.554 77.5527 543.182 77.0008C543.446 76.7361 543.779 76.5505 544.142 76.4651C544.506 76.3797 544.886 76.3978 545.24 76.5175C545.594 76.6373 545.908 76.8537 546.145 77.1424C546.382 77.4311 546.534 77.7804 546.582 78.1508C546.745 78.9728 546.68 79.8236 546.392 80.6108C545.852 82.2208 544.672 83.2808 543.542 83.2808ZM544.692 77.6308C544.427 77.6713 544.183 77.8019 544.002 78.0008C543.542 78.4077 543.198 78.9285 543.002 79.5108C542.582 80.7508 542.852 81.8808 543.372 82.0508C543.892 82.2208 544.782 81.5008 545.202 80.2508C545.411 79.6817 545.463 79.0669 545.352 78.4708C545.334 78.3127 545.278 78.1612 545.189 78.0291C545.101 77.8969 544.982 77.7878 544.842 77.7108C544.798 77.6749 544.747 77.6477 544.692 77.6308Z" fill="#111111"/>
<path d="M544.489 82.9392C544.389 82.94 544.291 82.9168 544.202 82.8715C544.113 82.8263 544.037 82.7603 543.979 82.6792C543.93 82.613 543.896 82.5379 543.877 82.4582C543.857 82.3785 543.854 82.2959 543.867 82.215C543.88 82.1341 543.909 82.0565 543.952 81.9869C543.996 81.9172 544.052 81.8568 544.119 81.8092L558.119 71.6592L561.859 60.6592L560.909 35.8292L556.909 11.7292L556.389 12.1792L557.999 27.2492C558.013 27.4132 557.962 27.5762 557.857 27.7033C557.753 27.8304 557.602 27.9115 557.439 27.9292C557.358 27.9389 557.276 27.9322 557.197 27.9097C557.119 27.8871 557.046 27.849 556.983 27.7978C556.919 27.7465 556.867 27.683 556.828 27.6111C556.79 27.5392 556.766 27.4604 556.759 27.3792L555.159 11.9992C555.145 11.8987 555.157 11.7966 555.194 11.7021C555.231 11.6077 555.291 11.5241 555.369 11.4592L556.999 9.99916C557.083 9.92725 557.184 9.8784 557.293 9.85736C557.402 9.83633 557.514 9.84384 557.619 9.87916C557.724 9.91647 557.817 9.98187 557.887 10.0683C557.958 10.1547 558.003 10.2587 558.019 10.3692L562.189 35.6592L563.189 60.6592C563.198 60.7322 563.198 60.8062 563.189 60.8792L559.259 72.2492C559.215 72.3707 559.135 72.4755 559.029 72.5492L544.849 82.8192C544.745 82.8971 544.619 82.9392 544.489 82.9392Z" fill="#111111"/>
<path d="M545.997 75.4109C545.884 75.4039 545.776 75.3667 545.682 75.3032C545.589 75.2398 545.514 75.1523 545.466 75.0501C545.418 74.9479 545.398 74.8346 545.409 74.7221C545.42 74.6097 545.461 74.5022 545.527 74.4109L554.397 64.5509L553.997 55.1809C553.988 55.0494 554.022 54.9184 554.094 54.8081C554.166 54.6979 554.273 54.6145 554.397 54.5709L557.197 53.4909C557.348 53.4499 557.508 53.4662 557.647 53.5367C557.787 53.6072 557.895 53.7269 557.951 53.8726C558.007 54.0183 558.007 54.1795 557.951 54.3252C557.895 54.4708 557.786 54.5905 557.647 54.6609L555.257 55.5709L555.667 64.7109C555.672 64.7928 555.661 64.8749 555.633 64.9522C555.606 65.0295 555.563 65.1005 555.507 65.1609L546.507 75.1609C546.448 75.2396 546.371 75.3032 546.282 75.3466C546.193 75.3901 546.096 75.4121 545.997 75.4109Z" fill="#111111"/>
<path d="M558.657 72.6695C558.495 72.6779 558.336 72.6234 558.213 72.5171C558.09 72.4109 558.013 72.2613 557.997 72.0995L557.537 66.0995L554.797 65.3695C554.651 65.314 554.53 65.2059 554.459 65.0663C554.388 64.9268 554.372 64.7657 554.413 64.6146C554.454 64.4635 554.55 64.3332 554.682 64.249C554.814 64.1649 554.973 64.133 555.127 64.1595L558.287 65.0095C558.413 65.0428 558.525 65.1148 558.608 65.2153C558.69 65.3158 558.739 65.4397 558.747 65.5695L559.247 72.0195C559.258 72.185 559.204 72.3483 559.095 72.4737C558.986 72.5992 558.833 72.6767 558.667 72.6895L558.657 72.6695Z" fill="#111111"/>
<path d="M554.08 76.001C553.914 75.9984 553.757 75.9308 553.641 75.813C553.525 75.6951 553.46 75.5363 553.46 75.371V73.101L549.18 71.581C549.102 71.5541 549.03 71.512 548.968 71.457C548.907 71.402 548.857 71.3353 548.822 71.2608C548.786 71.1863 548.766 71.1055 548.762 71.0231C548.759 70.9407 548.771 70.8584 548.8 70.781C548.826 70.7034 548.867 70.6317 548.921 70.5703C548.975 70.5089 549.041 70.459 549.114 70.4236C549.188 70.3881 549.268 70.3679 549.35 70.364C549.431 70.3601 549.513 70.3727 549.59 70.401L554.29 72.061C554.411 72.1054 554.516 72.1855 554.591 72.2909C554.666 72.3962 554.708 72.5217 554.71 72.651V75.361C554.711 75.4445 554.696 75.5275 554.665 75.6051C554.634 75.6827 554.587 75.7534 554.529 75.8129C554.47 75.8725 554.4 75.9198 554.323 75.9521C554.246 75.9844 554.163 76.001 554.08 76.001Z" fill="#111111"/>
<path d="M517.002 59.88H516.912L510.672 59C510.512 58.9751 510.369 58.889 510.272 58.76L507.452 55.11C507.357 54.9839 507.315 54.8266 507.332 54.67L507.732 50.24C507.742 50.1074 507.796 49.982 507.885 49.8827C507.973 49.7834 508.091 49.7157 508.222 49.69L514.792 48.3C514.897 48.2749 515.007 48.2749 515.112 48.3L525.512 51.56C525.648 51.6048 525.765 51.6945 525.843 51.8145C525.921 51.9345 525.956 52.0775 525.942 52.22L525.672 55.22C525.661 55.3262 525.623 55.4277 525.561 55.5152C525.5 55.6027 525.418 55.6731 525.322 55.72L517.322 59.77C517.229 59.8394 517.117 59.8779 517.002 59.88ZM511.092 57.78L516.892 58.61L524.442 54.8L524.642 52.61L514.882 49.54L508.882 50.79L508.542 54.52L511.092 57.78Z" fill="#111111"/>
<path d="M538.999 59.8791C538.898 59.881 538.798 59.8569 538.709 59.8091L530.709 55.7591C530.615 55.7102 530.535 55.639 530.476 55.5517C530.417 55.4645 530.38 55.364 530.369 55.2591L530.089 52.2591C530.075 52.1153 530.112 51.9713 530.192 51.8511C530.272 51.731 530.391 51.642 530.529 51.5991L540.929 48.3391C541.03 48.3141 541.137 48.3141 541.239 48.3391L547.809 49.7291C547.94 49.7559 548.059 49.8236 548.148 49.9225C548.238 50.0213 548.294 50.1462 548.309 50.2791L548.709 54.7091C548.723 54.867 548.677 55.0244 548.579 55.1491L545.769 58.7991C545.668 58.9287 545.521 59.0146 545.359 59.0391L539.119 59.9291L538.999 59.8791ZM531.529 54.7991L539.079 58.6091L544.889 57.7791L547.389 54.5191L547.049 50.7891L541.049 49.5391L531.289 52.6091L531.529 54.7991Z" fill="#111111"/>
</g>
<path d="M672.291 6.06L672.101 5.89C671.721 5.64 662.471 0 648.001 0C633.531 0 624.281 5.64 623.901 5.89L623.711 6.06C612.781 19.85 605.911 62.33 632.271 91L632.391 91.1C634.055 92.1153 635.847 92.9023 637.721 93.44C644.41 95.5618 651.592 95.5618 658.281 93.44C660.154 92.9023 661.947 92.1153 663.611 91.1L663.731 91C690.091 62.33 683.221 19.85 672.291 6.06ZM623.421 9.11C623.731 12.1809 624.228 15.23 624.911 18.24C622.094 27.3853 620.054 36.7518 618.811 46.24L618.741 46.84C618.741 46.99 618.741 47.14 618.741 47.28C618.687 47.8583 618.741 48.4416 618.901 49C618.901 49.12 618.971 49.25 619.011 49.37C620.631 54.6884 623.377 59.596 627.061 63.76L628.551 65.48C628.902 72.6638 629.66 79.8219 630.821 86.92C609.241 60.4 614.061 23.85 623.421 9.11ZM625.871 46.56C630.291 42.56 636.461 45.3 638.791 46.76C638.973 46.8564 639.128 46.9975 639.241 47.17C639.131 47.77 635.811 50.09 631.631 49.99C630.411 50 626.511 48.71 625.871 46.56ZM663.311 89.15C663.081 89.4 662.881 89.65 662.641 89.91L662.461 90.02C661.074 90.8007 659.61 91.4342 658.091 91.91C651.536 94.0603 644.466 94.0603 637.911 91.91C636.392 91.4278 634.927 90.7876 633.541 90L633.361 89.89C633.121 89.63 632.921 89.38 632.691 89.13C631.302 81.3273 630.403 73.4452 630.001 65.53C632.001 63.93 642.771 54.91 645.001 46C645.091 45.6733 645.148 45.3382 645.171 45C645.208 44.408 645.151 43.8139 645.001 43.24V43.19L644.471 41.26C643.471 37.77 642.411 34.26 641.201 30.82L639.371 25.66C639.06 24.7862 638.456 24.0474 637.661 23.57C635.781 22.42 628.001 18.57 626.301 17.75C625.479 14.2658 624.97 10.7149 624.781 7.14L624.851 7.06L625.081 6.92C632.166 3.2729 640.033 1.40579 648.001 1.48C655.969 1.40579 663.836 3.2729 670.921 6.92L671.151 7.06L671.221 7.14C671.032 10.7149 670.523 14.2658 669.701 17.75C668.001 18.59 660.221 22.42 658.341 23.57C657.546 24.0474 656.941 24.7862 656.631 25.66L654.801 30.82C653.591 34.26 652.501 37.82 651.531 41.26L651.001 43.19V43.24C650.844 43.8128 650.78 44.407 650.811 45C650.84 45.3389 650.904 45.674 651.001 46C653.251 54.93 664.001 64 666.001 65.55C665.599 73.4652 664.7 81.3473 663.311 89.15ZM670.131 46.56C669.491 48.71 665.591 49.96 664.371 49.99C660.191 50.09 656.871 47.77 656.761 47.17C656.874 46.9975 657.029 46.8564 657.211 46.76C659.541 45.3 665.711 42.53 670.131 46.56ZM667.451 65.48L668.941 63.76C672.629 59.5969 675.378 54.6892 677.001 49.37C677.001 49.25 677.071 49.12 677.111 49C677.279 48.4568 677.347 47.8875 677.311 47.32C677.311 47.18 677.311 47.03 677.311 46.88L677.241 46.28C675.998 36.7918 673.958 27.4253 671.141 18.28C671.824 15.27 672.321 12.2209 672.631 9.15C681.991 23.89 686.811 60.44 665.231 86.96C666.377 79.8477 667.118 72.6762 667.451 65.48Z" fill="#111111"/>
<path d="M802.872 43.4L802.672 40.63C802.656 40.4311 802.571 40.2439 802.432 40.1L801.332 39.03L801.002 26.65C800.9 21.546 799.365 16.5735 796.572 12.3C796.014 11.479 795.414 10.6879 794.772 9.93003C794.772 8.81003 794.772 8.08003 794.772 7.93003C794.766 7.76304 794.71 7.60174 794.611 7.46725C794.512 7.33275 794.374 7.23131 794.217 7.17621C794.059 7.1211 793.888 7.1149 793.727 7.1584C793.566 7.2019 793.421 7.29309 793.312 7.42003C793.142 7.62003 792.952 7.81003 792.772 8.00003C788.772 4.80003 780.512 3.05176e-05 767.522 3.05176e-05C754.532 3.05176e-05 746.292 4.84003 742.252 8.03003C742.072 7.84003 741.882 7.65003 741.712 7.45003C741.605 7.32285 741.461 7.231 741.301 7.18641C741.14 7.14182 740.97 7.14657 740.812 7.20003C740.652 7.25357 740.512 7.35532 740.412 7.49136C740.312 7.6274 740.256 7.79109 740.252 7.96003C740.252 8.07003 740.252 8.80003 740.252 9.96003C739.612 10.7162 739.015 11.5075 738.462 12.33C735.666 16.5924 734.121 21.5536 734.002 26.65L733.672 39.03L732.572 40.13C732.43 40.2709 732.344 40.4597 732.332 40.66L732.132 43.43C731.874 46.9661 731.994 50.5197 732.492 54.03C733.262 59.31 734.552 62.19 736.422 62.78C736.812 65.78 738.622 78.71 742.022 86.93C742.999 89.3289 744.669 91.3815 746.82 92.8247C748.97 94.2678 751.503 95.0358 754.092 95.03C754.266 95.0298 754.435 94.9745 754.575 94.8721C754.715 94.7697 754.82 94.6254 754.872 94.46C754.929 94.2928 754.932 94.1119 754.879 93.9431C754.827 93.7744 754.723 93.6263 754.582 93.52C745.702 86.88 743.342 64.39 742.942 59.62C748.705 59.9593 754.43 60.7653 760.062 62.03C760.157 62.0721 760.259 62.0959 760.362 62.1C762.502 62.55 764.362 62.96 765.572 63.24L767.342 63.64H767.662L769.432 63.24C770.672 62.96 772.492 62.55 774.632 62.1C774.739 62.0971 774.845 62.0734 774.942 62.03C780.574 60.7585 786.299 59.9459 792.062 59.6C791.662 64.37 789.302 86.86 780.422 93.5C780.282 93.607 780.178 93.7546 780.124 93.9227C780.071 94.0909 780.07 94.2715 780.122 94.44C780.179 94.6054 780.285 94.7491 780.426 94.8512C780.568 94.9534 780.738 95.0089 780.912 95.01C783.499 95.0246 786.031 94.2674 788.184 92.8351C790.338 91.4029 792.016 89.3608 793.002 86.97C796.402 78.75 798.212 65.83 798.602 62.82C800.472 62.23 801.762 59.35 802.532 54.07C803.029 50.5359 803.143 46.9586 802.872 43.4ZM793.102 10.03C793.102 13.33 792.702 19.97 790.642 24.12C783.202 18.96 781.462 16.06 781.052 14.98C783.232 14.64 789.102 13.49 793.102 10.03ZM780.212 44.84H780.282L790.102 44.03L793.302 48.3L790.782 48.64C789.402 47.42 785.632 46.23 784.342 46.03H784.222C781.456 46.2879 778.709 46.7322 776.002 47.36L774.082 47.74L774.912 44.58C775.102 43.9851 775.486 43.471 776.002 43.12L790.402 33.12C790.282 37.03 789.932 40.86 789.782 42.39L780.192 43.17C779.972 43.1793 779.765 43.2757 779.616 43.4379C779.467 43.6001 779.388 43.8149 779.397 44.035C779.407 44.2552 779.503 44.4626 779.665 44.6117C779.828 44.7608 780.042 44.8393 780.262 44.83L780.212 44.84ZM767.502 1.70003C779.762 1.70003 787.572 6.12003 791.502 9.17003C787.002 12.7 780.122 13.4 780.002 13.41C779.836 13.4245 779.677 13.4898 779.548 13.597C779.42 13.7043 779.327 13.8484 779.282 14.01C779.112 14.62 778.822 18.01 790.112 25.79C790.314 27.5292 790.408 29.2793 790.392 31.03L775.002 41.75C774.179 42.324 773.578 43.1646 773.302 44.13L772.302 47.98C770.762 48.09 769.162 48.16 767.522 48.16C765.882 48.16 764.302 48.09 762.742 47.97L761.742 44.1C761.447 43.1412 760.833 42.3121 760.002 41.75L744.612 31.03C744.577 29.2667 744.658 27.5029 744.852 25.75C756.142 18.03 755.862 14.62 755.682 14.03C755.638 13.8684 755.545 13.7243 755.417 13.617C755.288 13.5098 755.129 13.4445 754.962 13.43C754.882 13.43 748.022 12.72 743.502 9.19003C747.432 6.12003 755.242 1.70003 767.502 1.70003ZM754.862 43.18L745.272 42.4C745.122 40.87 744.772 37.04 744.652 33.13L759.052 43.13C759.55 43.4782 759.919 43.9808 760.102 44.56L760.942 47.75L759.002 47.36C756.296 46.7322 753.549 46.2879 750.782 46.03H750.662C749.372 46.22 745.602 47.41 744.222 48.64L741.702 48.31L744.902 44.03L754.722 44.83H754.792C755.013 44.8393 755.227 44.7608 755.39 44.6117C755.552 44.4626 755.648 44.2552 755.657 44.035C755.667 43.8149 755.588 43.6001 755.439 43.4379C755.29 43.2757 755.083 43.1793 754.862 43.17V43.18ZM753.932 14.96C753.512 16.1 751.732 18.96 744.362 24.1C742.302 19.95 741.942 13.31 741.902 10.03C745.882 13.48 751.732 14.63 753.932 14.96ZM736.132 60.53C735.412 59.53 734.672 57.46 734.132 53.83C733.643 50.4162 733.525 46.9592 733.782 43.52L734.002 41.03L735.122 39.92C735.274 39.7686 735.36 39.5641 735.362 39.35L735.712 26.66C735.798 21.8869 737.222 17.2337 739.822 13.23C739.982 12.99 740.152 12.77 740.312 12.54C740.512 16.42 741.182 21.89 743.212 25.48C742.996 27.4388 742.909 29.4098 742.952 31.38C741.652 33.23 735.532 42.56 735.882 53.74C735.851 56.0061 735.935 58.2724 736.132 60.53ZM743.002 34.36C743.162 38.27 743.512 41.84 743.622 42.93L739.522 48.45V48.53C739.495 48.5951 739.471 48.6619 739.452 48.73C739.457 48.7498 739.457 48.7703 739.452 48.79C739.452 48.79 739.452 48.79 739.452 48.85C739.447 51.8556 739.92 54.8429 740.852 57.7C739.946 57.46 739.143 56.9326 738.562 56.1969C737.982 55.4612 737.655 54.557 737.632 53.62C737.272 45.39 740.902 37.96 743.002 34.36ZM751.622 93.1C749.824 92.7138 748.147 91.8956 746.736 90.716C745.325 89.5365 744.222 88.0312 743.522 86.33C739.862 77.38 738.002 62.15 738.002 62.03C737.794 60.6822 737.667 59.3231 737.622 57.96C738.594 58.9439 739.893 59.538 741.272 59.63C741.592 63.79 743.582 84.39 751.652 93.1H751.622ZM760.022 60.34C754.281 59.0443 748.44 58.2414 742.562 57.94C741.619 55.3741 741.096 52.6727 741.012 49.94L744.062 50.35C745.364 52.0438 747.155 53.297 749.192 53.94C750.053 54.1725 750.941 54.2836 751.832 54.27C754.033 54.2444 756.21 53.8104 758.252 52.99C758.449 52.8894 758.598 52.7155 758.667 52.5059C758.736 52.2963 758.72 52.0679 758.622 51.87C758.575 51.7722 758.508 51.6848 758.426 51.6131C758.344 51.5413 758.248 51.4867 758.145 51.4522C758.042 51.4178 757.933 51.4043 757.824 51.4125C757.715 51.4207 757.609 51.4504 757.512 51.5C756.812 51.84 752.562 53.17 749.642 52.33C748.084 51.835 746.697 50.9094 745.642 49.66C747.255 48.7597 748.995 48.109 750.802 47.73C753.459 48.006 756.097 48.4401 758.702 49.03C759.972 49.29 760.842 49.46 761.412 49.56L763.122 56.03C763.038 56.4545 762.853 56.8524 762.582 57.19L760.022 60.34ZM769.022 61.63L767.502 62.03L765.942 61.68C764.872 61.44 763.472 61.12 761.882 60.78L763.882 58.27C764.37 57.65 764.684 56.9114 764.792 56.13C764.817 56.0214 764.817 55.9086 764.792 55.8L763.192 49.73C764.602 49.82 766.042 49.88 767.522 49.88C769.002 49.88 770.452 49.82 771.852 49.73L770.252 55.8C770.228 55.9086 770.228 56.0214 770.252 56.13C770.361 56.9114 770.675 57.65 771.162 58.27L773.162 60.78C771.532 61.03 770.132 61.39 769.062 61.63H769.022ZM775.002 60.34L772.472 57.17C772.187 56.8432 771.984 56.4521 771.882 56.03L773.592 49.54L776.302 49.03C778.894 48.4376 781.518 48.0034 784.162 47.73C785.972 48.108 787.715 48.7552 789.332 49.65C788.281 50.9056 786.894 51.8353 785.332 52.33C782.412 53.17 778.162 51.84 777.462 51.5C777.365 51.4504 777.26 51.4207 777.151 51.4125C777.042 51.4043 776.933 51.4178 776.83 51.4522C776.727 51.4867 776.631 51.5413 776.549 51.6131C776.467 51.6848 776.4 51.7722 776.352 51.87C776.255 52.0679 776.239 52.2963 776.308 52.5059C776.377 52.7155 776.526 52.8894 776.722 52.99C778.765 53.8104 780.942 54.2444 783.142 54.27C784.034 54.2831 784.922 54.172 785.782 53.94C787.82 53.297 789.61 52.0438 790.912 50.35L794.002 49.91C793.918 52.6426 793.395 55.3438 792.452 57.91C786.577 58.2218 780.739 59.0348 775.002 60.34ZM797.002 62.03C797.002 62.19 795.132 77.42 791.442 86.37C790.743 88.0712 789.64 89.5765 788.229 90.7561C786.818 91.9356 785.141 92.7538 783.342 93.14C791.412 84.43 793.402 63.83 793.732 59.6C795.112 59.508 796.411 58.9139 797.382 57.93C797.331 59.2794 797.204 60.6249 797.002 61.96V62.03ZM797.442 53.76C797.418 54.6965 797.091 55.6 796.511 56.3354C795.93 57.0707 795.128 57.5986 794.222 57.84C795.155 54.9829 795.628 51.9956 795.622 48.99C795.622 48.99 795.622 48.99 795.622 48.93C795.618 48.9103 795.618 48.8898 795.622 48.87C795.606 48.7996 795.579 48.7322 795.542 48.67C795.546 48.6435 795.546 48.6166 795.542 48.59L791.352 42.93C791.462 41.84 791.812 38.27 791.972 34.35C794.102 37.95 797.732 45.38 797.462 53.71L797.442 53.76ZM800.842 53.88C800.312 57.51 799.572 59.59 798.842 60.58C799.04 58.3224 799.124 56.0561 799.092 53.79C799.442 42.61 793.322 33.27 792.022 31.43C792.066 29.4598 791.979 27.4888 791.762 25.53C793.762 21.94 794.462 16.47 794.662 12.59C794.822 12.82 794.992 13.04 795.152 13.28C797.772 17.2881 799.21 21.9527 799.302 26.74L799.652 39.43C799.655 39.6441 799.741 39.8486 799.892 40L801.002 41.03L801.172 43.49C801.445 46.9377 801.341 50.4048 800.862 53.83L800.842 53.88Z" fill="#111111"/>
<path d="M746.631 28.2897C746.507 28.4735 746.459 28.6989 746.498 28.9175C746.537 29.1362 746.66 29.3308 746.841 29.4597L760.841 39.1897C761.181 39.4343 761.428 39.7868 761.541 40.1897C761.552 40.2352 761.569 40.2789 761.591 40.3197L763.651 44.4497C763.717 44.5776 763.813 44.6868 763.932 44.7673C764.051 44.8477 764.188 44.8967 764.331 44.9097C765.601 44.9997 766.591 45.0397 767.551 45.0397C768.511 45.0397 769.551 45.0397 770.771 44.9097C770.914 44.8967 771.052 44.8477 771.171 44.7673C771.289 44.6868 771.386 44.5776 771.451 44.4497L773.511 40.3197C773.517 40.2766 773.517 40.2329 773.511 40.1897C773.625 39.7868 773.872 39.4343 774.211 39.1897L788.161 29.4597C788.327 29.3269 788.436 29.1365 788.466 28.9267C788.497 28.717 788.447 28.5033 788.327 28.3287C788.207 28.1541 788.025 28.0314 787.818 27.9852C787.611 27.939 787.394 27.9728 787.211 28.0797L773.271 37.8197C772.675 38.2554 772.231 38.8676 772.001 39.5697L770.181 43.2197C769.181 43.2897 768.341 43.3197 767.551 43.3197C766.761 43.3197 765.931 43.3197 764.921 43.2197L763.101 39.5697C762.859 38.8608 762.396 38.2477 761.781 37.8197L747.791 28.0797C747.609 27.9554 747.385 27.9078 747.168 27.9471C746.951 27.9864 746.758 28.1094 746.631 28.2897Z" fill="#111111"/>
<defs>
<clipPath id="clip0_1_968">
<rect width="96" height="96" fill="white" transform="translate(120)"/>
</clipPath>
<clipPath id="clip1_1_968">
<rect width="96" height="96" fill="white" transform="translate(240)"/>
</clipPath>
<clipPath id="clip2_1_968">
<rect width="96" height="96" fill="white" transform="translate(360)"/>
</clipPath>
<clipPath id="clip3_1_968">
<rect width="96" height="96" fill="white" transform="translate(480)"/>
</clipPath>
</defs>
</svg>
