<svg width="88" height="88" viewBox="0 0 88 88" fill="none" xmlns="http://www.w3.org/2000/svg">
<path d="M50.1826 76.2328C50.4482 76.4438 49.9859 76.7051 49.1008 76.8558C48.6797 76.9117 48.2532 76.9117 47.8321 76.8558C47.5961 76.7553 47.3601 76.6649 47.1929 76.5744C47.0257 76.484 46.6126 75.4592 46.3963 75.0875C46.214 74.7468 46.1066 74.3696 46.0815 73.9823C45.993 73.2187 45.8553 72.4451 45.757 71.6714C45.7381 71.495 45.7583 71.3164 45.816 71.149C45.9882 70.559 45.9882 69.9305 45.816 69.3405C45.816 69.2501 45.816 69.1395 45.6586 69.0592C45.5013 68.9788 45.3046 67.3009 45.3931 67.0497C45.4816 66.7985 45.5898 66.4971 45.6783 66.2259L45.9734 65.3919C45.9734 65.3116 45.9734 65.2312 46.111 65.1508C46.4553 64.9599 46.3766 64.7992 46.4454 64.6284C46.5226 64.3788 46.6214 64.1367 46.7405 63.905C46.8417 63.7649 46.9646 63.6428 47.1044 63.5433C47.2224 63.4327 47.5764 63.5433 47.6256 63.5433C47.6748 63.5433 47.9206 63.5433 48.078 63.5433H48.2354C48.2354 63.5433 48.5304 63.8246 48.8648 64.136L49.3467 64.558C49.4213 64.6339 49.4873 64.7182 49.5434 64.8092L49.6516 65.1106C49.7204 65.2814 49.8089 65.5125 49.9073 65.7436C50.0745 66.2259 50.2318 66.7483 50.281 66.8186C50.3302 66.889 50.281 67.0497 50.281 67.1602C50.281 67.2708 50.8022 68.6472 50.7826 68.7176C50.7826 69.029 50.9596 69.3204 50.6547 69.662C50.6213 69.7211 50.6213 69.7938 50.6547 69.8529C50.7286 70.3861 50.7286 70.9272 50.6547 71.4604C50.6675 71.7338 50.7003 72.0059 50.7531 72.2743C50.7531 72.2743 50.7531 72.3848 50.694 72.435C50.6641 72.4942 50.6473 72.5593 50.6449 72.6259C50.6658 73.3004 50.7382 73.9723 50.8612 74.6353C50.9202 74.776 50.576 75.5496 50.6547 75.7204C50.7334 75.8912 50.0843 76.1223 50.1826 76.2328Z" fill="#231F20"/>
<path d="M23.3311 63.3827C26.2038 66.9013 29.818 69.7109 33.9035 71.6013C35.4139 72.258 36.9726 72.7921 38.5652 73.1988C41.3891 73.9406 44.3099 74.222 47.2198 74.0327C50.1726 73.8862 53.09 73.3111 55.8842 72.3247C58.3636 71.4395 60.7054 70.1943 62.8374 68.6273C65.5527 66.5902 68.0046 64.2102 70.1348 61.544C70.8331 60.7403 71.0494 61.0517 70.8036 62.0263C70.6324 62.6826 70.3951 63.319 70.0955 63.9252C69.6521 64.7586 69.1211 65.5402 68.5121 66.2562C67.2969 67.6521 65.9641 68.9364 64.529 70.0942C63.0734 71.2443 61.516 72.2534 59.8771 73.1083C56.5753 74.7725 53.0138 75.8334 49.3539 76.2431C47.1442 76.5021 44.9184 76.5894 42.6958 76.5043C40.4264 76.4051 38.1774 76.0238 35.9983 75.369C31.238 73.9074 26.8658 71.358 23.2131 67.914C20.9703 65.8179 19.0358 63.4017 17.4696 60.7403C15.1338 56.6837 13.7283 52.1391 13.3587 47.4479C13.035 43.8639 13.3448 40.2497 14.2733 36.7778C14.5093 36.0343 14.706 35.2908 14.9617 34.5373C16.0337 31.7944 16.732 31.1011 17.4991 30.8098C17.6703 30.733 17.8481 30.6724 18.0302 30.6289C18.5317 30.6289 18.3941 31.8145 17.8236 33.7435C16.9819 36.6319 16.5221 39.6223 16.4566 42.6353C15.9365 50.2081 18.4171 57.6768 23.341 63.3626L23.3311 63.3827Z" fill="#231F20"/>
<path d="M42.7595 11.4187C42.5432 11.2881 42.8972 11.1274 43.5856 10.8963C43.9063 10.8083 44.2371 10.7644 44.5691 10.7657C44.7573 10.8346 44.9385 10.9221 45.11 11.0269C45.3547 11.4953 45.5715 11.9785 45.7591 12.4737C45.8903 12.7916 45.9572 13.1334 45.9558 13.4784L46.0247 15.4878C46.0238 15.6375 45.9902 15.7851 45.9263 15.9199C45.7243 16.3865 45.6594 16.9031 45.7395 17.4068C45.7395 17.4872 45.7395 17.5676 45.8378 17.648C46.0161 18.1716 46.0434 18.7366 45.9165 19.2756C45.6839 19.6787 45.4801 20.0984 45.3067 20.5315C45.3067 20.5918 45.3067 20.6521 45.1887 20.7023C44.8838 20.843 44.933 20.9635 44.9133 21.0941C44.8832 21.279 44.8269 21.4584 44.7462 21.6266C44.6483 21.7333 44.5356 21.8247 44.4118 21.8979C44.2288 21.9775 44.0265 21.9985 43.8315 21.9582C43.6938 21.8879 43.4971 21.9582 43.3201 21.9582H43.1332C42.7448 21.6045 42.413 21.1909 42.1498 20.7324C42.1498 20.7324 42.0514 20.3105 41.9629 19.8784C41.8744 19.4464 41.7564 19.0144 41.7269 18.8737C41.6974 18.7331 41.7269 18.6828 41.8154 18.5924C41.9039 18.502 41.599 17.2863 41.6089 17.236C41.6089 16.9849 41.54 16.7236 41.8252 16.4724C41.8842 16.4222 41.8252 16.372 41.8252 16.3217C41.8193 15.8778 41.8723 15.435 41.9826 15.0056C41.9973 14.7848 41.9973 14.5632 41.9826 14.3424C41.9826 14.3424 41.9826 14.2621 42.0416 14.2219C42.0696 14.1755 42.0896 14.1245 42.1006 14.0712C42.1498 13.5566 42.1498 13.0384 42.1006 12.5239C42.1006 12.4234 42.376 11.8507 42.317 11.7302C42.258 11.6096 42.8382 11.479 42.7595 11.4187Z" fill="#231F20"/>
<path d="M14.4842 47.7887C14.1597 47.9997 13.963 47.3667 14.258 46.4324C14.4288 45.9966 14.6293 45.5736 14.8579 45.1664C14.9929 44.9798 15.099 44.7731 15.1726 44.5535C15.1726 44.5535 15.3595 44.3827 15.5169 44.2722L16.1463 43.9306C16.3999 43.7812 16.6897 43.7081 16.9822 43.7196C17.5723 43.7196 18.2018 43.6192 18.8312 43.5589C18.9838 43.5499 19.1362 43.581 19.2737 43.6493C19.7519 43.8646 20.2908 43.8932 20.7883 43.7297C20.8768 43.7297 20.9653 43.7297 21.0243 43.579C21.0833 43.4283 22.5094 43.1871 22.7159 43.2775C22.9496 43.3828 23.1894 43.4734 23.4338 43.5488C23.6797 43.6392 23.9158 43.7598 24.1715 43.8703C24.2403 43.8703 24.3091 43.8703 24.378 44.011C24.5648 44.3727 24.6927 44.3124 24.8501 44.3425C25.0721 44.3859 25.2872 44.4602 25.4893 44.5636C25.6191 44.6738 25.7289 44.8065 25.8139 44.9554C25.8727 45.169 25.8727 45.3949 25.8139 45.6085C25.7352 45.7592 25.8139 45.9802 25.8139 46.1812C25.8188 46.2481 25.8188 46.3152 25.8139 46.3821C25.5005 46.8228 25.1518 47.2362 24.7714 47.6179L23.9846 48.0299C23.5814 48.1705 23.1486 48.3413 23.0601 48.3916C22.9716 48.4418 22.8733 48.3916 22.7651 48.3212C22.6569 48.2509 21.4767 48.8336 21.4177 48.8336C21.1423 48.8336 20.8866 49.0145 20.5719 48.7131C20.5129 48.6528 20.4637 48.7131 20.4047 48.7131C19.9294 48.7936 19.4442 48.7936 18.9689 48.7131C18.7213 48.7205 18.4747 48.7473 18.2313 48.7934C18.1821 48.7934 18.1329 48.7934 18.0936 48.7332C18.0411 48.6968 17.9799 48.6759 17.9165 48.6729C17.2957 48.673 16.6752 48.7066 16.0578 48.7734C15.9201 48.8336 15.1726 48.3413 14.9759 48.3815C14.7793 48.4217 14.5924 47.6983 14.4842 47.7887Z" fill="#231F20"/>
<path d="M19.5373 66.7478C16.5345 62.9342 14.3499 58.5185 13.125 53.7869C11.9325 49.0942 11.6849 44.2029 12.3973 39.4094C12.8582 35.9492 13.778 32.5691 15.1313 29.3623C18.8572 20.8914 25.5869 14.1779 33.9649 10.5741C35.3376 9.98994 36.7432 9.49005 38.1742 9.07703L40.328 8.54453L42.5704 8.19288C47.8367 7.61241 53.1624 8.34679 58.0896 10.3329C61.2617 11.5676 64.1925 13.3709 66.7442 15.6579C69.2471 18.0341 71.1415 21.0009 72.2615 24.2985C72.9205 26.3079 71.9468 26.3079 70.3831 25.2128C69.6455 24.6401 68.5833 23.9267 67.5507 23.0526C66.9525 22.6411 66.3779 22.1949 65.8296 21.7164C65.1983 21.264 64.591 20.7777 64.0102 20.2595C59.7444 16.3575 54.3606 13.9651 48.6581 13.4375C47.9498 13.3523 47.2371 13.312 46.5239 13.3169H45.4618L44.3996 13.3873C44.0554 13.3873 43.6915 13.3873 43.3473 13.4676L42.3048 13.6384C41.6164 13.7188 40.9083 13.8997 40.1903 14.0604C37.3062 14.7326 34.5287 15.8149 31.939 17.2755C28.7392 19.1162 25.944 21.6093 23.7269 24.5999C21.478 27.6323 19.7426 31.0284 18.5932 34.6471C17.317 38.6222 16.7996 42.8106 17.0688 46.985C17.3645 51.1653 18.5172 55.2353 20.452 58.9311C21.0455 60.0703 21.7022 61.1739 22.4189 62.2366L23.5991 63.7537L24.199 64.5173L24.8579 65.2206C26.608 67.1243 28.5914 68.7891 30.7588 70.1739C34.0734 72.2746 37.7421 73.7261 41.577 74.454C45.3827 75.1442 49.2928 74.9311 53.005 73.831C55.8308 72.9543 58.4909 71.5955 60.8729 69.8122C63.2488 68.076 65.3571 65.9865 67.1278 63.6131C67.9539 62.6084 68.5833 61.5132 69.3603 60.4683C69.97 59.4636 70.5208 58.5895 70.9633 57.8661C71.2894 57.242 71.6713 56.65 72.1042 56.0978C72.6248 55.3419 73.3394 54.7474 74.1695 54.3797C74.5078 54.2331 74.8562 54.1122 75.212 54.018C75.7234 53.9175 75.9692 54.4199 75.9987 55.495C76.0084 56.1675 75.9623 56.8397 75.8611 57.5044C75.6572 58.3957 75.3943 59.2718 75.0743 60.1267C74.8087 60.8501 74.4547 61.5233 74.0908 62.2366L73.5991 63.2413L73.0188 64.246C72.6156 64.9092 72.2419 65.6125 71.7993 66.2555C71.3567 66.8985 70.8158 67.5013 70.3733 68.1343C68.3351 70.6161 65.9606 72.7881 63.3217 74.5846C60.5934 76.4262 57.6096 77.8385 54.4704 78.7742C53.6816 79.0134 52.8805 79.2079 52.0707 79.357L50.8512 79.6182C50.448 79.6986 50.0349 79.7187 49.6219 79.7689C48.7958 79.8493 47.9795 79.9699 47.1435 80H44.7242C44.1088 79.9931 43.4946 79.9461 42.8851 79.8593L41.0558 79.6283C39.8363 79.4474 38.6561 79.0958 37.4563 78.8245C36.2564 78.5532 35.1648 78.0408 34.0141 77.649C32.8634 77.2571 31.8013 76.6442 30.7096 76.1117C26.3791 73.8329 22.5478 70.6777 19.4488 66.8382L19.5373 66.7478Z" fill="#231F20"/>
<path d="M46.6018 45.9095C46.5597 45.9891 46.5267 46.0734 46.5035 46.1606C46.5426 46.2097 46.5934 46.2478 46.651 46.2712C46.7392 46.3117 46.8315 46.342 46.9263 46.3616H47.1525H47.4968C47.734 46.3615 47.9709 46.3413 48.2049 46.3013C48.8933 46.241 49.5719 46.02 50.2898 45.9095C52.8075 45.5277 55.4334 44.9047 58.1577 44.533C59.3706 44.3125 60.5957 44.1682 61.826 44.101C63.4338 43.8928 65.0668 44.1395 66.5467 44.8143C67.009 45.0354 66.7631 45.598 66.232 46.1405C65.711 46.7247 65.0225 47.1256 64.2651 47.2859C62.922 47.3752 61.5873 47.5666 60.2721 47.8586L55.9645 48.5117C54.1647 48.7528 52.3748 49.5164 50.457 49.9886C49.9358 50.1092 49.385 50.1996 48.854 50.3001C48.5884 50.3001 48.3032 50.3805 48.0278 50.4206L47.0444 50.5513C46.2182 50.6216 45.4118 50.6115 44.6152 50.6417L43.4842 50.5312H42.9334C42.7662 50.5312 42.481 50.5312 42.5499 50.3001L42.3827 47.3563C42.3827 46.8941 42.304 46.3515 42.3138 45.9597V44.955C42.2647 42.9455 42.4319 40.9361 42.4122 38.987C42.398 38.2271 42.3389 37.4689 42.2352 36.7163L42.0876 35.591C42.0876 35.2193 42.0876 34.8475 42.0286 34.4758C41.9696 34.104 41.9696 33.8227 42.0286 33.4711C42.2057 32.2453 42.5597 31.8635 43.494 31.6023C43.7003 31.5326 43.9105 31.4755 44.1234 31.4315C44.802 31.3109 45.4216 31.8233 45.8445 32.7376C47.1329 35.4604 46.9952 38.3339 47.0345 41.0768C47.0345 42.0815 47.0345 43.0862 46.946 44.0909L46.887 45.6181V45.7788L46.6018 45.9095Z" fill="#231F20"/>
</svg>
