<svg width="215" height="68" viewBox="0 0 215 68" fill="none" xmlns="http://www.w3.org/2000/svg">
<rect y="11.5903" width="212" height="56" rx="24" transform="rotate(-3 0 11.5903)" fill="#F68121"/>
<path d="M29.2391 43.0872C27.5054 41.4958 26.5712 39.4138 26.4364 36.8413C26.3016 34.2689 27.0135 32.1086 28.5721 30.3607C30.1459 28.5959 32.1951 27.6474 34.7196 27.515C37.5477 27.3668 39.8303 28.2726 41.5672 30.2324C42.3323 31.0735 42.9127 32.0605 43.3086 33.1933L41.1515 33.3064C40.7741 32.525 40.3151 31.8682 39.7745 31.3357C38.4411 30.0437 36.7917 29.4493 34.8264 29.5522C32.893 29.6536 31.3443 30.3676 30.1801 31.6944C29.016 33.0211 28.4871 34.6991 28.5934 36.7283C28.6998 38.7575 29.4012 40.371 30.6976 41.5688C31.9941 42.7666 33.609 43.3148 35.5423 43.2135C37.5396 43.1088 39.1548 42.2872 40.388 40.7485C40.8834 40.1137 41.2679 39.3486 41.5414 38.453L43.6985 38.34C43.3803 39.6064 42.8776 40.7142 42.1903 41.6634C40.6257 43.9084 38.4453 45.1042 35.6491 45.2507C33.1246 45.383 30.9879 44.6618 29.2391 43.0872ZM46.6442 44.1938L46.0161 32.2103L56.4418 31.6639L57.0699 43.6474L55.1525 43.7479L54.6187 33.5619L48.0277 33.9073L48.5615 44.0933L46.6442 44.1938ZM60.6686 48.0251L59.8019 31.4878L61.7193 31.3873L61.8198 33.3047L61.8437 33.3034L62.0646 32.9313C62.3144 32.5017 62.7808 32.0767 63.4638 31.6564C64.1459 31.2201 64.9982 30.9751 66.0208 30.9215C67.6186 30.8378 69.0081 31.3658 70.1894 32.5055C71.3698 33.6293 72.0065 35.078 72.0995 36.8515C72.1924 38.6251 71.7111 40.1404 70.6554 41.3973C69.5989 42.6383 68.2718 43.3007 66.674 43.3844C65.6514 43.438 64.7705 43.2919 64.0314 42.9461C63.3074 42.5835 62.8063 42.1932 62.5281 41.7752L62.2708 41.4522L62.2468 41.4535L62.586 47.9246L60.6686 48.0251ZM63.0167 34.1312C62.2933 35.0022 61.9655 36.0849 62.0333 37.3791C62.1011 38.6733 62.5403 39.7157 63.3508 40.5064C64.1772 41.2962 65.1737 41.6606 66.3401 41.5995C67.5065 41.5383 68.4514 41.0722 69.1748 40.2012C69.9142 39.3293 70.2499 38.2462 70.1821 36.952C70.1143 35.6578 69.6671 34.6158 68.8407 33.8259C68.0302 33.0353 67.0417 32.6705 65.8753 32.7316C64.7089 32.7928 63.756 33.2593 63.0167 34.1312ZM76.0325 41.1155C74.7881 39.9951 74.1191 38.5401 74.0253 36.7506C73.9315 34.9611 74.4448 33.4441 75.5652 32.1998C76.6856 30.9554 78.1406 30.2864 79.9302 30.1926C81.7197 30.0988 83.2366 30.6121 84.481 31.7325C85.7253 32.8529 86.3944 34.3079 86.4882 36.0975C86.582 37.887 86.0687 39.4039 84.9482 40.6483C83.8278 41.8926 82.3729 42.5617 80.5833 42.6555C78.7938 42.7493 77.2768 42.2359 76.0325 41.1155ZM76.9979 33.3984C76.2266 34.272 75.8748 35.3559 75.9427 36.6501C76.0105 37.9443 76.4736 38.9855 77.332 39.7737C78.1905 40.5618 79.2428 40.9233 80.4891 40.8579C81.7354 40.7926 82.7442 40.3232 83.5155 39.4496C84.2869 38.5761 84.6386 37.4922 84.5708 36.1979C84.503 34.9037 84.0399 33.8625 83.1814 33.0744C82.323 32.2862 81.2706 31.9248 80.0244 31.9901C78.7781 32.0554 77.7693 32.5249 76.9979 33.3984ZM90.3554 40.3649C89.1431 39.2428 88.49 37.787 88.3962 35.9975C88.3024 34.2079 88.7997 32.6918 89.8882 31.4491C90.9766 30.2065 92.3677 29.5408 94.0614 29.452C96.0267 29.349 97.6214 29.9704 98.8455 31.3162C99.3735 31.9134 99.7694 32.5896 100.033 33.3448L98.1159 33.4453C97.9176 33.0231 97.633 32.6374 97.2622 32.2884C96.4534 31.5297 95.4179 31.1834 94.1556 31.2495C92.9892 31.3107 92.0363 31.7772 91.2969 32.6491C90.5735 33.5201 90.2457 34.6027 90.3136 35.897C90.3814 37.1912 90.8365 38.2328 91.679 39.0218C92.5214 39.8108 93.5019 40.176 94.6203 40.1174C95.9305 40.0487 96.9541 39.5544 97.6909 38.6346C98.0232 38.2487 98.2718 37.7951 98.4367 37.2737L100.354 37.1732C100.189 37.999 99.8605 38.7612 99.3684 39.46C98.2311 40.9936 96.6798 41.8119 94.7145 41.9149C93.0209 42.0037 91.5678 41.487 90.3554 40.3649ZM102.981 41.2413L102.353 29.2578L104.27 29.1573L104.741 38.145L104.73 38.3859L104.778 38.3834L110.741 28.8182L112.898 28.7051L113.526 40.6887L111.609 40.7892L111.138 31.8015L111.149 31.5606L111.102 31.5631L105.138 41.1283L102.981 41.2413ZM117.123 40.5002L116.244 23.7232L124.273 23.3024C125.743 23.2254 126.947 23.5788 127.886 24.3628C128.839 25.1299 129.348 26.1287 129.412 27.359C129.474 28.5414 129.125 29.521 128.365 30.2978C128.014 30.6367 127.627 30.8973 127.204 31.0797L127.21 31.1995C127.776 31.282 128.307 31.4785 128.803 31.7889C129.881 32.4855 130.458 33.5528 130.533 34.9908C130.608 36.4128 130.165 37.5976 129.206 38.5451C128.245 39.4767 126.854 39.9902 125.033 40.0857L117.123 40.5002ZM118.772 30.6804L124.524 30.379C125.419 30.3321 126.109 30.0636 126.597 29.5734C127.083 29.0673 127.307 28.4467 127.268 27.7117C127.229 26.9767 126.942 26.3909 126.407 25.9544C125.87 25.5018 125.155 25.299 124.26 25.3459L118.508 25.6473L118.772 30.6804ZM119.174 38.3499L124.926 38.0485C126.076 37.9882 126.95 37.686 127.546 37.1421C128.142 36.5981 128.419 35.9187 128.376 35.1038C128.33 34.225 127.982 33.5463 127.332 33.0677C126.698 32.5722 125.797 32.3551 124.631 32.4162L118.878 32.7176L119.174 38.3499ZM133.904 44.187L133.037 27.6497L134.955 27.5492L135.055 29.4666L135.079 29.4653L135.3 29.0932C135.55 28.6636 136.016 28.2386 136.699 27.8183C137.381 27.382 138.234 27.137 139.256 27.0834C140.854 26.9997 142.244 27.5277 143.425 28.6674C144.605 29.7912 145.242 31.2399 145.335 33.0134C145.428 34.787 144.947 36.3023 143.891 37.5592C142.834 38.8002 141.507 39.4626 139.909 39.5463C138.887 39.5999 138.006 39.4538 137.267 39.108C136.543 38.7454 136.042 38.3551 135.763 37.9371L135.506 37.6141L135.482 37.6154L135.821 44.0865L133.904 44.187ZM136.252 30.2931C135.529 31.1641 135.201 32.2467 135.269 33.541C135.337 34.8352 135.776 35.8776 136.586 36.6683C137.413 37.4581 138.409 37.8225 139.576 37.7614C140.742 37.7002 141.687 37.2341 142.41 36.3631C143.15 35.4912 143.485 34.4081 143.418 33.1139C143.35 31.8197 142.903 30.7777 142.076 29.9878C141.266 29.1972 140.277 28.8324 139.111 28.8935C137.944 28.9547 136.991 29.4212 136.252 30.2931ZM149.172 37.2825C147.991 36.1427 147.354 34.6861 147.261 32.9125C147.168 31.1389 147.65 29.6317 148.706 28.3907C149.762 27.1337 151.088 26.4633 152.686 26.3796C153.693 26.3268 154.55 26.4742 155.257 26.8217C155.98 27.1683 156.513 27.5569 156.856 27.9876L157.091 28.3358L157.115 28.3345L157.013 26.3932L158.93 26.2927L159.558 38.2762L157.641 38.3767L157.54 36.4594L157.516 36.4606L157.318 36.8075C157.053 37.2539 156.58 37.6953 155.898 38.1316C155.215 38.5519 154.362 38.7889 153.339 38.8425C151.742 38.9262 150.352 38.4062 149.172 37.2825ZM150.161 29.5641C149.438 30.4351 149.11 31.5178 149.178 32.812C149.246 34.1062 149.685 35.1487 150.496 35.9393C151.322 36.7292 152.318 37.0935 153.485 37.0324C154.651 36.9713 155.596 36.5052 156.32 35.6341C157.059 34.7622 157.395 33.6792 157.327 32.385C157.259 31.0907 156.812 30.0487 155.985 29.2589C155.175 28.4682 154.187 28.1034 153.02 28.1646C151.854 28.2257 150.901 28.6922 150.161 29.5641ZM162.161 30.4493L161.935 26.1352L163.852 26.0348L164.072 30.229C164.114 31.0279 164.378 31.6389 164.865 32.062C165.367 32.4683 166.065 32.648 166.96 32.6011C167.903 32.5517 168.726 32.3723 169.431 32.063C169.761 31.9336 170.041 31.7747 170.271 31.5864L169.964 25.7145L171.881 25.614L172.509 37.5975L170.592 37.698L170.359 33.2641C170.051 33.4886 169.763 33.6638 169.498 33.7899C168.811 34.1463 167.957 34.3513 166.934 34.4049C165.496 34.4803 164.358 34.1634 163.52 33.4543C162.682 32.7452 162.228 31.7435 162.161 30.4493ZM176.744 35.8375C175.562 34.6978 174.925 33.2411 174.832 31.4675C174.739 29.694 175.221 28.1867 176.278 26.9457C177.333 25.6887 178.66 25.0184 180.258 24.9346C181.264 24.8819 182.121 25.0292 182.828 25.3767C183.552 25.7233 184.085 26.112 184.428 26.5426L184.662 26.8908L184.686 26.8895L184.584 24.9482L186.502 24.8477L187.13 36.8313L185.212 36.9318L185.112 35.0144L185.088 35.0157L184.89 35.3625C184.625 35.809 184.151 36.2504 183.469 36.6867C182.786 37.107 181.934 37.3439 180.911 37.3975C179.313 37.4813 177.924 36.9613 176.744 35.8375ZM177.733 28.1191C177.01 28.9902 176.682 30.0728 176.75 31.367C176.817 32.6613 177.257 33.7037 178.067 34.4944C178.894 35.2842 179.89 35.6486 181.056 35.5874C182.223 35.5263 183.168 35.0602 183.891 34.1892C184.63 33.3173 184.966 32.2342 184.898 30.94C184.831 29.6458 184.383 28.6037 183.557 27.8139C182.746 27.0232 181.758 26.6585 180.592 26.7196C179.425 26.7807 178.472 27.2472 177.733 28.1191Z" fill="white"/>
</svg>
