<svg width="153" height="64" viewBox="0 0 153 64" fill="none" xmlns="http://www.w3.org/2000/svg">
<rect y="7.85059" width="150" height="56" rx="24" transform="rotate(-3 0 7.85059)" fill="#92FF3C"/>
<path d="M27.7148 41.4461L26.8356 24.6691L28.9926 24.5561L29.3757 31.8661L38.3634 31.395L37.9803 24.0851L40.1373 23.972L41.0166 40.749L38.8596 40.862L38.4702 33.4322L29.4825 33.9033L29.8719 41.3331L27.7148 41.4461ZM45.4862 38.9767C44.3049 37.8369 43.6678 36.3803 43.5749 34.6067C43.4819 32.8331 43.9637 31.3258 45.0202 30.0849C46.0759 28.8279 47.4026 28.1575 49.0004 28.0738C50.007 28.021 50.8639 28.1684 51.5711 28.5159C52.2942 28.8625 52.8273 29.2511 53.1703 29.6818L53.4048 30.03L53.4288 30.0287L53.3271 28.0874L55.2444 27.9869L55.8725 39.9704L53.9551 40.0709L53.8546 38.1536L53.8306 38.1548L53.6325 38.5017C53.3675 38.9481 52.894 39.3895 52.2119 39.8258C51.5289 40.2461 50.6762 40.4831 49.6536 40.5367C48.0558 40.6204 46.6666 40.1004 45.4862 38.9767ZM46.4756 31.2583C45.7522 32.1293 45.4244 33.212 45.4923 34.5062C45.5601 35.8004 45.9992 36.8429 46.8097 37.6335C47.6362 38.4234 48.6326 38.7877 49.799 38.7266C50.9654 38.6655 51.9103 38.1994 52.6337 37.3283C53.3731 36.4564 53.7089 35.3734 53.6411 34.0791C53.5732 32.7849 53.1261 31.7429 52.2996 30.9531C51.4891 30.1624 50.5007 29.7976 49.3343 29.8588C48.1679 29.9199 47.215 30.3864 46.4756 31.2583ZM59.4749 44.3479L58.6082 27.8106L60.5256 27.7101L60.6261 29.6275L60.6501 29.6262L60.8709 29.2542C61.1207 28.8245 61.5871 28.3995 62.2701 27.9792C62.9522 27.5429 63.8045 27.2979 64.8271 27.2443C66.4249 27.1606 67.8145 27.6886 68.9957 28.8284C70.1762 29.9521 70.8129 31.4008 70.9058 33.1743C70.9988 34.9479 70.5174 36.4632 69.4617 37.7201C68.4052 38.9611 67.0781 39.6235 65.4803 39.7072C64.4577 39.7608 63.5768 39.6147 62.8377 39.2689C62.1138 38.9063 61.6126 38.516 61.3344 38.098L61.0771 37.775L61.0532 37.7763L61.3923 44.2474L59.4749 44.3479ZM61.823 30.454C61.0996 31.325 60.7718 32.4077 60.8396 33.7019C60.9075 34.9961 61.3466 36.0386 62.1571 36.8292C62.9836 37.6191 63.98 37.9834 65.1464 37.9223C66.3128 37.8611 67.2577 37.3951 67.9811 36.524C68.7205 35.6521 69.0563 34.5691 68.9884 33.2748C68.9206 31.9806 68.4735 30.9386 67.647 30.1487C66.8365 29.3581 65.8481 28.9933 64.6817 29.0544C63.5153 29.1156 62.5624 29.5821 61.823 30.454ZM74.1033 43.5813L73.2366 27.044L75.154 26.9435L75.2545 28.8608L75.2784 28.8596L75.4993 28.4875C75.7491 28.0579 76.2155 27.6329 76.8984 27.2125C77.5805 26.7762 78.4329 26.5313 79.4555 26.4777C81.0533 26.394 82.4428 26.922 83.6241 28.0617C84.8045 29.1855 85.4412 30.6341 85.5342 32.4077C85.6271 34.1813 85.1458 35.6965 84.0901 36.9535C83.0336 38.1945 81.7065 38.8569 80.1086 38.9406C79.086 38.9942 78.2052 38.8481 77.4661 38.5023C76.7421 38.1397 76.241 37.7494 75.9627 37.3314L75.7055 37.0084L75.6815 37.0097L76.0207 43.4808L74.1033 43.5813ZM76.4514 29.6873C75.728 30.5584 75.4002 31.641 75.468 32.9352C75.5358 34.2295 75.975 35.2719 76.7855 36.0626C77.6119 36.8524 78.6084 37.2168 79.7748 37.1556C80.9412 37.0945 81.8861 36.6284 82.6095 35.7574C83.3489 34.8855 83.6846 33.8024 83.6168 32.5082C83.549 31.214 83.1018 30.1719 82.2754 29.3821C81.4649 28.5914 80.4764 28.2267 79.31 28.2878C78.1436 28.3489 77.1907 28.8154 76.4514 29.6873ZM89.4432 36.673C88.2148 35.5517 87.5538 34.0963 87.46 32.3068C87.3662 30.5172 87.8715 29.0007 88.9759 27.7572C90.0804 26.5137 91.5034 25.8463 93.245 25.755C94.9866 25.6638 96.4712 26.1708 97.6987 27.276C98.9262 28.3813 99.5856 29.8047 99.6769 31.5463L99.7146 32.2654L89.4087 32.8055C89.5952 33.9172 90.0987 34.8121 90.9193 35.4901C91.7399 36.1681 92.7015 36.4782 93.804 36.4204C94.9863 36.3584 95.9821 35.9457 96.7913 35.1824C97.158 34.8427 97.4427 34.4673 97.6455 34.0561L99.5628 33.9556C99.3146 34.7217 98.9419 35.4061 98.4448 36.0089C97.2672 37.3845 95.7516 38.1208 93.8982 38.2179C92.1565 38.3092 90.6716 37.7942 89.4432 36.673ZM89.3687 31.1253L97.5895 30.6944C97.3963 29.7593 96.9154 28.9914 96.1469 28.3908C95.3776 27.7742 94.4417 27.4948 93.3392 27.5526C92.2367 27.6103 91.3272 27.9865 90.6105 28.6809C89.893 29.3594 89.4791 30.1742 89.3687 31.1253ZM102.63 37.52L102.002 25.5364L103.919 25.436L104.013 27.2335L104.037 27.2322C104.257 26.8362 104.551 26.4843 104.919 26.1766C105.762 25.4435 106.783 25.0456 107.981 24.9827C109.435 24.9065 110.618 25.3092 111.529 26.1907C112.456 27.0554 112.961 28.2867 113.045 29.8845L113.415 36.9548L111.498 37.0552L111.133 30.1048C111.073 28.9544 110.74 28.1066 110.135 27.5616C109.529 27.0005 108.722 26.7464 107.716 26.7991C106.613 26.8569 105.738 27.2713 105.089 28.0423C104.44 28.7973 104.146 29.766 104.208 30.9484L104.547 37.4195L102.63 37.52ZM115.616 33.1143L117.653 33.0075C117.852 33.4297 118.102 33.7771 118.405 34.0496C119.162 34.731 120.107 35.0419 121.242 34.9824C122.264 34.9289 123.006 34.7217 123.468 34.3611C123.946 33.9996 124.171 33.5552 124.143 33.0279C124.128 32.7403 124.011 32.4981 123.793 32.3013C123.59 32.1036 123.261 31.9366 122.805 31.8003C122.349 31.6639 121.944 31.565 121.588 31.5036C121.247 31.4253 120.746 31.3394 120.084 31.2459C117.42 30.8408 116.04 29.7355 115.945 27.93C115.896 26.9873 116.254 26.1754 117.019 25.4944C117.784 24.7975 118.885 24.4113 120.323 24.3359C122.113 24.2421 123.558 24.7672 124.66 25.9111C125.103 26.4326 125.438 27.0159 125.664 27.6609L123.627 27.7677C123.467 27.4557 123.244 27.171 122.958 26.9136C122.319 26.3382 121.472 26.0782 120.417 26.1335C119.571 26.1778 118.924 26.372 118.477 26.7158C118.047 27.0588 117.842 27.43 117.863 27.8295C117.878 28.1171 117.987 28.3597 118.189 28.5574C118.408 28.7542 118.745 28.9208 119.201 29.0571C119.656 29.1935 120.055 29.3008 120.395 29.3791C120.751 29.4405 121.26 29.518 121.921 29.6115C124.586 30.0166 125.966 31.1219 126.061 32.9274C126.114 33.95 125.728 34.8275 124.901 35.5597C124.074 36.292 122.886 36.6988 121.336 36.78C119.386 36.8821 117.85 36.3058 116.727 35.0508C116.249 34.4991 115.879 33.8535 115.616 33.1143Z" fill="#111111"/>
</svg>
