<svg width="152" height="65" viewBox="0 0 152 65" fill="none" xmlns="http://www.w3.org/2000/svg">
<rect x="2.92969" y="0.773438" width="149" height="56" rx="24" transform="rotate(3 2.92969 0.773438)" fill="#B38EFF"/>
<path d="M26.9832 37.0821L27.8624 20.3052L35.0526 20.682C36.922 20.78 38.382 21.3532 39.4326 22.4016C40.4831 23.45 40.9682 24.7412 40.8878 26.275C40.8217 27.5373 40.3737 28.5953 39.5439 29.4491C38.73 30.3036 37.6121 30.8459 36.1901 31.0758L40.1651 37.773L37.6485 37.6411L33.9007 31.1961L29.4668 30.9637L29.1402 37.1952L26.9832 37.0821ZM29.5736 28.9265L34.6066 29.1903C35.9009 29.2581 36.8986 29.022 37.5998 28.482C38.3019 27.926 38.6789 27.1526 38.7308 26.162C38.7827 25.1714 38.4882 24.3709 37.8473 23.7605C37.2072 23.1341 36.24 22.787 34.9458 22.7192L29.9127 22.4554L29.5736 28.9265ZM43.7935 36.425C42.6891 35.1815 42.1838 33.665 42.2776 31.8755C42.3714 30.0859 43.0324 28.6305 44.2608 27.5093C45.4892 26.388 46.9741 25.873 48.7158 25.9643C50.4574 26.0556 51.8808 26.715 52.9861 27.9425C54.0913 29.17 54.5983 30.6546 54.5071 32.3962L54.4694 33.1152L44.1635 32.5751C44.2327 33.7003 44.64 34.6429 45.3852 35.4029C46.1305 36.163 47.0543 36.5719 48.1568 36.6297C49.3392 36.6916 50.3726 36.3853 51.2572 35.7107C51.6574 35.4112 51.9798 35.0676 52.2244 34.6799L54.1418 34.7804C53.8148 35.5163 53.3726 36.158 52.8152 36.7056C51.5003 37.9505 49.9161 38.5243 48.0626 38.4272C46.321 38.3359 44.898 37.6685 43.7935 36.425ZM44.2994 30.8999L52.5201 31.3308C52.4257 30.3805 52.0278 29.5666 51.3263 28.8889C50.6256 28.1953 49.724 27.8196 48.6216 27.7618C47.5191 27.7041 46.5752 27.983 45.7899 28.5988C45.0054 29.1986 44.5086 29.9656 44.2994 30.8999ZM56.5808 43.1995L57.4474 26.6622L59.3648 26.7627L59.2643 28.6801L59.2883 28.6814L59.5468 28.3344C59.8402 27.9332 60.3485 27.5593 61.0716 27.2127C61.7956 26.8501 62.6689 26.6956 63.6915 26.7491C65.2893 26.8329 66.616 27.5032 67.6717 28.7602C68.7282 30.0012 69.2099 31.5085 69.117 33.2821C69.024 35.0556 68.3869 36.5123 67.2057 37.652C66.0252 38.7758 64.6361 39.2958 63.0383 39.212C62.0157 39.1585 61.1549 38.9211 60.456 38.4999C59.7739 38.0636 59.3164 37.6231 59.0833 37.1783L58.8612 36.8302L58.8373 36.8289L58.4981 43.3L56.5808 43.1995ZM60.3683 29.6272C59.5578 30.4178 59.1186 31.4603 59.0508 32.7545C58.983 34.0487 59.3108 35.1314 60.0342 36.0024C60.7735 36.8743 61.7264 37.3408 62.8928 37.402C64.0592 37.4631 65.0477 37.0983 65.8582 36.3076C66.6846 35.5178 67.1318 34.4758 67.1996 33.1816C67.2674 31.8873 66.9317 30.8043 66.1923 29.9324C65.4689 29.0613 64.524 28.5952 63.3576 28.5341C62.1912 28.473 61.1947 28.8373 60.3683 29.6272ZM72.5827 37.9338C71.4623 36.6895 70.949 35.1725 71.0428 33.383C71.1366 31.5934 71.8056 30.1385 73.05 29.018C74.2943 27.8976 75.8113 27.3843 77.6008 27.4781C79.3903 27.5719 80.8453 28.241 81.9657 29.4853C83.0861 30.7296 83.5995 32.2466 83.5057 34.0361C83.4119 35.8257 82.7428 37.2807 81.4985 38.4011C80.2541 39.5215 78.7372 40.0348 76.9477 39.941C75.1581 39.8472 73.7031 39.1782 72.5827 37.9338ZM74.3495 30.3599C73.4911 31.1481 73.028 32.1892 72.9601 33.4835C72.8923 34.7777 73.2441 35.8616 74.0154 36.7351C74.7868 37.6087 75.7956 38.0782 77.0419 38.1435C78.2881 38.2088 79.3405 37.8474 80.1989 37.0592C81.0574 36.2711 81.5205 35.2299 81.5883 33.9356C81.6561 32.6414 81.3044 31.5575 80.533 30.684C79.7617 29.8104 78.7529 29.341 77.5066 29.2756C76.2603 29.2103 75.208 29.5717 74.3495 30.3599ZM85.8187 40.1656L86.4467 28.182L88.3641 28.2825L88.2636 30.1999L88.2876 30.2011C88.5322 29.8134 88.8214 29.4921 89.1552 29.2372C89.9741 28.5912 90.9508 28.2979 92.0853 28.3574L93.5233 28.4327L93.4228 30.3501L91.9848 30.2747C90.8983 30.2178 89.9851 30.5224 89.2452 31.1886C88.5221 31.8397 88.1321 32.7084 88.0752 33.795L87.736 40.2661L85.8187 40.1656ZM94.3787 30.4002L94.4729 28.6027L96.0307 28.6843L96.1689 26.0479L98.0863 26.1484L97.9481 28.7848L101.783 28.9858L101.689 30.7833L97.8539 30.5823L97.4143 38.9708L101.369 39.1781L101.275 40.9756L95.4027 40.6679L95.9365 30.4818L94.3787 30.4002ZM104.788 39.6216C103.684 38.3781 103.178 36.8616 103.272 35.072C103.366 33.2825 104.027 31.8271 105.255 30.7059C106.484 29.5846 107.969 29.0696 109.71 29.1609C111.452 29.2522 112.875 29.9116 113.98 31.1391C115.086 32.3666 115.593 33.8512 115.501 35.5928L115.464 36.3118L105.158 35.7717C105.227 36.8969 105.634 37.8395 106.38 38.5995C107.125 39.3596 108.049 39.7685 109.151 39.8263C110.334 39.8882 111.367 39.5819 112.252 38.9073C112.652 38.6078 112.974 38.2642 113.219 37.8765L115.136 37.9769C114.809 38.7128 114.367 39.3546 113.81 39.9022C112.495 41.147 110.91 41.7209 109.057 41.6238C107.315 41.5325 105.892 40.8651 104.788 39.6216ZM105.294 34.0965L113.515 34.5273C113.42 33.5771 113.022 32.7632 112.321 32.0855C111.62 31.3919 110.718 31.0162 109.616 30.9584C108.513 30.9006 107.57 31.1796 106.784 31.7954C106 32.3951 105.503 33.1622 105.294 34.0965ZM117.814 41.8424L118.442 29.8588L120.359 29.9593L120.259 31.8767L120.283 31.8779C120.527 31.4902 120.817 31.1689 121.15 30.914C121.969 30.268 122.946 29.9747 124.08 30.0342L125.518 30.1095L125.418 32.0269L123.98 31.9515C122.893 31.8946 121.98 32.1992 121.24 32.8654C120.517 33.5165 120.127 34.3852 120.07 35.4717L119.731 41.9429L117.814 41.8424Z" fill="white"/>
</svg>
