<svg width="243" height="56" viewBox="0 0 243 56" fill="none" xmlns="http://www.w3.org/2000/svg">
<g clip-path="url(#clip0_4026_8340)">
<path d="M37.3142 55.7844C30.8558 55.3967 24.8078 52.7367 19.7102 48.0198C16.4594 45.0152 13.4894 40.1367 12.2042 35.7213C11.9558 34.8706 11.4482 32.6736 11.4482 32.469C11.4482 32.4582 12.161 32.4152 13.0358 32.3936C14.2778 32.3506 14.7962 32.2859 15.3794 32.1029C15.7898 31.9629 16.157 31.8982 16.2002 31.9521C16.2434 31.9952 16.3622 32.4475 16.4594 32.9536C17.0426 35.7752 18.8354 39.6198 20.7254 42.0859C22.2374 44.0567 23.8142 45.5106 26.0822 47.0075C26.9138 47.5567 28.1882 48.3106 28.9118 48.6767C30.3806 49.409 32.9186 50.2921 33.6206 50.3244H34.0002L34.0202 29.5075H25.3802V18.0921H35.8562H46.3322V33.9229C46.3322 47.9875 46.3538 49.7536 46.4942 49.7536C46.5806 49.7536 47.0774 49.5813 47.5958 49.3767C48.5246 49.0106 49.097 48.5798 49.583 47.9013L49.799 47.6105L48.7838 46.5552C48.233 45.9736 47.5526 45.2521 47.2826 44.9613L46.775 44.4121L48.287 42.8182C49.1078 41.9352 49.7882 41.1813 49.7882 41.1382C49.7882 41.1059 49.1078 40.3629 48.2654 39.4906L46.7426 37.9075L48.2654 36.3244C49.1078 35.4521 49.7882 34.709 49.7882 34.6767C49.7882 34.6444 49.1078 33.8906 48.287 33.0075L46.7858 31.4029L47.7578 30.3475C48.2978 29.7659 48.773 29.2598 48.8162 29.2382C48.8702 29.2059 49.1078 28.9475 49.3454 28.6567L49.7882 28.1398L48.2762 26.5352L46.775 24.9306L47.1854 24.4998C47.4014 24.2629 48.0818 23.5413 48.6866 22.8952C49.3022 22.249 49.7882 21.689 49.7666 21.6352C49.745 21.5921 49.259 21.0429 48.6866 20.4182L47.6282 19.2982L48.5462 18.4906L49.4534 17.6829L50.4578 18.7167C51.0086 19.2875 51.8726 20.1813 52.3694 20.6982L53.2658 21.6459L51.7322 23.2613C50.8898 24.1444 50.2202 24.9198 50.2418 24.9736C50.2526 25.0275 50.8142 25.6306 51.4622 26.2982C52.121 26.9767 52.7906 27.6875 52.9634 27.8706L53.2766 28.2044L51.8942 29.6044C51.1382 30.369 50.447 31.1013 50.3606 31.2306C50.2094 31.4459 50.2742 31.5321 51.7322 33.0613L53.2658 34.6767L51.7646 36.249C50.9438 37.1106 50.2742 37.8536 50.2742 37.9075C50.2742 37.9506 50.9438 38.7044 51.7646 39.5659L53.255 41.149L51.743 42.7429C50.9006 43.6259 50.2202 44.3798 50.2202 44.4229C50.2202 44.5844 52.3154 46.6306 52.4882 46.6306C52.7474 46.6306 54.3566 45.3059 55.4366 44.2075C58.9142 40.6644 61.247 36.0552 61.9274 31.3382C62.6078 26.6859 61.9058 22.1629 59.843 17.9306C55.2098 8.41056 44.831 3.26287 34.4522 5.34133C29.0198 6.42902 23.7062 9.77825 20.477 14.1506C19.6778 15.2275 19.1054 16.1967 18.2846 17.8552C17.8958 18.6306 17.561 19.2767 17.5286 19.2767C17.507 19.2767 17.1614 19.1152 16.7618 18.9106C15.8222 18.4367 14.915 18.1459 13.889 17.9844C13.4354 17.909 13.0682 17.7906 13.0682 17.7259C13.0682 17.4998 14.7854 14.1506 15.3902 13.1921C17.993 9.08902 21.5678 5.76133 25.8662 3.4244C28.631 1.91671 31.2662 1.0121 34.6142 0.419789C36.245 0.12902 40.0142 0.0213276 41.8178 0.204404C50.1662 1.07671 57.791 5.73979 62.4566 12.8152C63.5258 14.4413 65.0162 17.4998 65.5346 19.1475C66.4958 22.1629 66.8846 24.7044 66.8846 27.9459C66.8846 30.3798 66.701 32.049 66.1934 34.3429C65.783 36.2167 65.4698 37.1859 64.6706 38.9736C61.6034 45.909 56.0414 51.2182 48.9026 54.0075C45.3386 55.3967 41.2778 56.0106 37.3142 55.7844Z" fill="#111111"/>
<path d="M37 21C35.8954 21 35 21.8954 35 23C35 23.5523 35.4477 24 36 24H38C38.5523 24 39 23.5523 39 23C39 21.8954 38.1046 21 37 21Z" fill="white"/>
<path d="M142.463 38.7902C141.869 37.7456 140.725 35.6672 140.725 35.6133C140.725 35.581 141.081 35.4518 141.513 35.3226C142.485 35.021 142.787 34.8702 143.327 34.3856C143.835 33.9226 144.116 33.4164 144.343 32.5549C144.44 32.2102 144.699 29.6256 144.937 26.8149C145.433 20.881 145.563 19.4379 145.649 18.6626L145.703 18.0918H153.317H160.921V28.4303V38.7687H157.951H154.981V30.5302V22.2918H152.993H151.006L150.941 22.8087C150.909 23.0887 150.779 24.5318 150.661 26.0072C150.067 33.4164 149.721 35.0426 148.36 36.8195C147.399 38.0687 145.347 39.1349 143.295 39.4472C142.885 39.5118 142.885 39.5118 142.463 38.7902Z" fill="#111111"/>
<path d="M119.017 28.646V18.0922H122.041H125.065V23.3152C125.065 27.6014 125.086 28.5383 125.205 28.5383C125.367 28.5383 127.43 26.7829 129.925 24.5106C135.487 19.4383 137.679 17.5537 137.992 17.5537H138.241V28.1614V38.7691H135.217H132.193V33.4922C132.193 30.5952 132.16 28.2152 132.106 28.2152C131.966 28.2152 125 34.3322 122.419 36.7229C120.691 38.3168 119.578 39.1999 119.287 39.1999H119.017V28.646Z" fill="#111111"/>
<path d="M205.632 33.8691C202.652 30.9399 200.146 28.5383 200.06 28.5383C199.93 28.5383 199.908 29.2599 199.908 33.6537V38.7691L196.917 38.7476L193.914 38.7152L193.882 28.1399L193.86 17.5537H194.141C194.476 17.5537 194.562 17.6291 197.802 20.7306C199.854 22.6906 202.986 25.6522 204.736 27.2891C205.103 27.6337 205.46 27.8814 205.514 27.8383C205.6 27.7952 205.632 26.2229 205.632 22.9276V18.0922H208.656H211.68V28.646V39.1999H211.367C211.086 39.1999 210.309 38.4676 205.632 33.8691Z" fill="#111111"/>
<path d="M82.6201 28.4303V18.0918H89.9641H97.3081V20.2995V22.5072L92.9665 22.5287L88.6141 22.561L88.5817 30.6703L88.5601 38.7687H85.5901H82.6201V28.4303Z" fill="#111111"/>
<path d="M99.9004 28.4303V18.0918H104.253C106.64 18.0918 109.048 18.1456 109.599 18.1995C110.776 18.3287 112.04 18.641 112.709 18.9749C113.876 19.5456 115.193 20.9133 115.776 22.141C116.684 24.0149 116.63 26.4164 115.658 28.3333C115.15 29.3456 113.703 30.7456 112.644 31.2518C111.294 31.898 110.7 32.0056 108.141 32.0595L105.84 32.1133V35.441V38.7687H102.87H99.9004V28.4303ZM108.897 27.5795C110.376 27.0087 110.96 25.4903 110.29 23.9826C109.793 22.8733 109.016 22.4856 107.169 22.421L105.84 22.378V25.0595C105.84 26.5349 105.873 27.7841 105.927 27.8272C106.089 28.0103 108.249 27.8164 108.897 27.5795Z" fill="#111111"/>
<path d="M165.024 28.441V18.0918H168.048H171.072V21.9687V25.8456H172.898C178.157 25.8456 180.598 26.8149 181.862 29.4103C183.557 32.9103 182.294 36.7118 178.967 38.1118C177.66 38.661 177.369 38.6826 170.997 38.7364L165.024 38.7903V28.441ZM175.036 34.4072C175.425 34.2887 175.706 34.1056 176.03 33.761C176.267 33.5026 176.472 33.2441 176.472 33.201C176.483 33.1472 176.526 32.8995 176.58 32.6303C176.742 31.8118 176.537 31.1549 175.943 30.5733C175.241 29.8949 174.755 29.7764 172.746 29.7764H171.126L171.094 32.178L171.072 34.5687H172.779C173.988 34.5687 174.647 34.5256 175.036 34.4072Z" fill="#111111"/>
<path d="M227.988 36.8301V34.8916H230.418H232.848V29.9916C232.848 26.0393 232.816 25.0916 232.708 25.0916C232.632 25.0916 231.628 25.4793 230.472 25.9532C229.327 26.427 228.301 26.8363 228.183 26.8793C227.999 26.9332 227.988 26.8147 227.988 24.5532V22.1732L228.615 21.8932C228.949 21.7424 230.71 20.9562 232.524 20.1378C234.339 19.3193 235.926 18.6193 236.067 18.5762C236.207 18.5332 236.682 18.3393 237.125 18.1347C237.568 17.9301 238.054 17.7686 238.205 17.7686H238.464V26.3301V34.8916H240.678H242.892V36.8301V38.7686H235.44H227.988V36.8301Z" fill="#111111"/>
<path d="M213.732 30.1532V28.6455H218.916H224.1V30.1532V31.6609H218.916H213.732V30.1532Z" fill="#111111"/>
<path d="M216.886 27.0301C215.838 26.7501 215.136 26.3625 214.499 25.684C213.549 24.6825 213.127 23.5302 213.225 22.1409C213.354 20.1378 214.488 18.6409 216.367 17.984C217.253 17.6717 218.43 17.5209 219.381 17.5963C222.102 17.8225 223.938 19.3194 224.338 21.6348C224.673 23.5732 223.69 25.5871 221.951 26.524C220.655 27.2348 218.484 27.4501 216.886 27.0301ZM219.856 24.0363C220.59 23.5194 220.839 22.1086 220.342 21.3009C219.845 20.504 218.571 20.224 217.858 20.7517C217.318 21.1609 217.145 21.5055 217.102 22.2702C217.059 23.164 217.361 23.8317 217.944 24.144C218.452 24.424 219.391 24.3702 219.856 24.0363Z" fill="#111111"/>
<path d="M11.6642 30.4557C8.84536 30.1757 6.21016 28.8834 3.99616 26.6865C2.79736 25.5019 1.11256 23.2834 0.507761 22.1203L0.334961 21.7865L1.22056 22.0772C2.16016 22.4003 3.86656 22.7234 4.55776 22.7234C4.79536 22.7234 5.71336 22.5834 6.60976 22.4003C9.37456 21.8511 10.433 21.9911 13.0574 23.2619C13.9754 23.7142 14.6558 23.9834 14.7098 23.9295C14.7746 23.8649 14.5478 23.5957 14.1806 23.2619C12.323 21.6034 10.5086 20.8819 8.53216 21.0326C8.07856 21.0649 7.61416 21.1295 7.50616 21.1619C7.38736 21.1942 7.77616 20.9788 8.38096 20.6772C9.79576 19.9772 10.8542 19.708 12.1934 19.708C14.753 19.708 16.6322 20.6234 18.7274 22.8742C19.8506 24.0803 20.4122 24.5326 21.0926 24.7803C21.3086 24.8557 21.4922 24.9526 21.4922 24.9957C21.4922 25.0926 19.9154 25.7926 19.2242 25.9972C17.6906 26.4496 15.3254 26.6219 13.8458 26.3849C13.4678 26.3203 12.7874 26.148 12.3338 26.008C11.8802 25.868 11.4806 25.7711 11.4482 25.8034C11.2646 25.9972 13.4678 27.2142 14.6882 27.5803C15.7682 27.9034 17.1722 27.9034 18.5654 27.5803C19.1162 27.4511 19.5914 27.3649 19.613 27.3757C19.6886 27.4619 18.2738 28.5388 17.4206 29.0449C15.3794 30.2726 13.7702 30.6603 11.6642 30.4557Z" fill="#111111"/>
</g>
<defs>
<clipPath id="clip0_4026_8340">
<rect width="243" height="56" fill="white"/>
</clipPath>
</defs>
</svg>
