<svg width="16" height="16" viewBox="0 0 16 16" fill="none" xmlns="http://www.w3.org/2000/svg">
<g clip-path="url(#clip0_4648_1687)">
<path d="M10.2993 10.3121H7.99196C7.61164 10.3106 7.23754 10.2154 6.90277 10.0349C6.56801 9.85442 6.2829 9.59417 6.07269 9.27722C5.86248 8.96026 5.73364 8.59637 5.69758 8.21775C5.66152 7.83914 5.71936 7.45747 5.86596 7.10653C6.01257 6.75559 6.24342 6.44621 6.5381 6.20576C6.83277 5.9653 7.18218 5.8012 7.55539 5.72797C7.92861 5.65474 8.31412 5.67465 8.6778 5.78592C9.04149 5.89719 9.37214 6.0964 9.64049 6.36592C9.8568 6.57963 10.0282 6.83441 10.1447 7.1153C10.2611 7.39619 10.3202 7.69753 10.3185 8.00159V10.3121H10.2993ZM12.2113 12.2113V8.00159C12.21 7.17123 11.9628 6.35985 11.5009 5.66982C11.039 4.9798 10.383 4.44205 9.61579 4.12444C8.84857 3.80682 8.00446 3.72356 7.18997 3.88517C6.37549 4.04678 5.62712 4.44602 5.03929 5.03251C4.45146 5.61899 4.05051 6.36645 3.88704 7.18056C3.72357 7.99468 3.80489 8.83897 4.12075 9.60692C4.43661 10.3749 4.97286 11.032 5.66182 11.4955C6.35079 11.959 7.1616 12.2081 7.99196 12.2113H12.2113ZM14.104 14.1072V8.00159C14.104 6.79401 13.7459 5.61355 13.075 4.60948C12.4042 3.60541 11.4506 2.82284 10.3349 2.36071C9.21926 1.89859 7.99162 1.77768 6.80724 2.01327C5.62286 2.24886 4.53494 2.83036 3.68105 3.68425C2.82716 4.53814 2.24565 5.62606 2.01007 6.81044C1.77448 7.99482 1.89539 9.22246 2.35751 10.3381C2.81963 11.4538 3.60221 12.4074 4.60628 13.0783C5.61034 13.7491 6.79081 14.1072 7.99839 14.1072H14.104ZM7.99839 16.0032C6.41514 16.0064 4.86654 15.5398 3.54857 14.6625C2.2306 13.7852 1.20251 12.5366 0.594424 11.0748C-0.0136631 9.61301 -0.174416 8.00365 0.132511 6.45043C0.439438 4.89721 1.20025 3.46996 2.31865 2.34931C3.43705 1.22866 4.86277 0.46498 6.41537 0.154932C7.96796 -0.155116 9.57764 0.00240106 11.0407 0.607549C12.5037 1.2127 13.7544 2.23827 14.6343 3.55447C15.5142 4.87068 15.9839 6.41834 15.9839 8.00159V16L7.99839 16.0032Z" fill="#111111"/>
</g>
<defs>
<clipPath id="clip0_4648_1687">
<rect width="15.9839" height="16" fill="white"/>
</clipPath>
</defs>
</svg>
