<svg width="16" height="18" viewBox="0 0 16 18" fill="none" xmlns="http://www.w3.org/2000/svg">
<g clip-path="url(#clip0_4648_1673)">
<path d="M8.00482 16.4079C7.15475 16.4089 6.31124 16.2591 5.51342 15.9657C4.32189 15.4524 3.32637 14.5706 2.67313 13.4497C2.05341 12.2194 1.78316 10.8426 1.8918 9.46935C2.19155 4.89441 7.53799 3.69539 9.49868 6.27524C11.4594 8.85509 8.25052 10.6978 8.18172 9.59711C8.01465 6.85509 5.79843 7.81824 5.72472 9.46443C5.47902 14.403 13.6264 13.8232 13.7247 8.28016C13.7591 5.01234 11.5429 2.93863 10.4225 2.01971C12.263 2.67832 13.7689 4.03699 14.6128 5.80019C15.4566 7.56339 15.5702 9.58848 14.9287 11.4349C14.4376 12.8812 13.5066 14.1378 12.266 15.0286C11.0253 15.9195 9.5371 16.4 8.00974 16.403M8.00974 0.914063C6.95335 0.91857 5.9082 1.13111 4.93395 1.53954C3.9597 1.94797 3.07544 2.54429 2.33166 3.29446C1.58788 4.04463 0.999138 4.93396 0.599054 5.91166C0.198971 6.88937 -0.00461962 7.9363 -9.2733e-05 8.99269C-0.0131685 11.1253 0.82116 13.1759 2.31948 14.6935C3.81779 16.2112 5.85746 17.0718 7.99008 17.0861C10.1346 17.088 12.1921 16.238 13.7099 14.7229C15.2277 13.2079 16.0815 11.152 16.0834 9.00743C16.0854 6.86289 15.2354 4.80541 13.7203 3.28761C12.2053 1.76981 10.1494 0.916017 8.00482 0.914062L8.00974 0.914063Z" fill="black"/>
</g>
<defs>
<clipPath id="clip0_4648_1673">
<rect width="16" height="16.172" fill="white" transform="translate(0 0.914062)"/>
</clipPath>
</defs>
</svg>
