<svg width="32" height="16" viewBox="0 0 32 16" fill="none" xmlns="http://www.w3.org/2000/svg">
<path d="M12.5921 12.4849C13.2414 13.1343 13.2477 14.2027 12.4789 14.7033C11.2717 15.4897 9.87452 15.9354 8.43493 15.9935C6.99534 16.0516 5.56679 15.7198 4.30015 15.0332C3.03351 14.3466 1.97579 13.3307 1.23871 12.0927C0.501634 10.8548 0.112549 9.44076 0.112549 8C0.112549 6.55924 0.501634 5.14522 1.23871 3.90728C1.97579 2.66933 3.03351 1.65342 4.30015 0.966823C5.56679 0.280229 6.99534 -0.0515594 8.43493 0.00649946C9.87452 0.0645583 11.2717 0.510309 12.4789 1.29668C13.2477 1.79733 13.2414 2.86567 12.5921 3.51506C11.9448 4.16235 10.8974 4.12674 10.0637 3.74548C9.72892 3.59198 9.37741 3.47809 9.01626 3.40613C8.29213 3.26281 7.54437 3.29283 6.83406 3.49373C6.12375 3.69463 5.47104 4.06071 4.92925 4.56207C4.38746 5.06342 3.97195 5.68584 3.71667 6.37847C3.46139 7.07109 3.37359 7.81429 3.46042 8.54733C3.54725 9.28038 3.80627 9.98249 4.2163 10.5963C4.62633 11.2101 5.17576 11.7182 5.81969 12.0791C6.46362 12.44 7.1838 12.6435 7.92138 12.6729C8.65897 12.7023 9.39305 12.5568 10.0637 12.2482C10.9016 11.867 11.949 11.8293 12.5921 12.4787V12.4849Z" fill="#111111"/>
<path d="M9.81232 14.341C9.62402 14.1518 9.51831 13.8957 9.51831 13.6287C9.51831 13.3618 9.62402 13.1057 9.81232 12.9165L20.7869 1.94191C21.0898 1.63925 21.5004 1.46924 21.9286 1.46924C22.3567 1.46924 22.7674 1.63925 23.0702 1.94191C23.3729 2.24477 23.5429 2.65541 23.5429 3.08357C23.5429 3.51173 23.3729 3.92237 23.0702 4.22523L12.9524 14.341C12.7462 14.5474 12.5013 14.7113 12.2317 14.823C11.9621 14.9348 11.6731 14.9923 11.3813 14.9923C11.0895 14.9923 10.8005 14.9348 10.5309 14.823C10.2614 14.7113 10.0164 14.5474 9.81022 14.341H9.81232Z" fill="#111111"/>
<path d="M30.9821 12.1834C31.2936 11.8695 31.4684 11.4452 31.4684 11.003C31.4684 10.5607 31.2936 10.1365 30.9821 9.82255L23.1288 1.96919C22.8149 1.6577 22.3906 1.48291 21.9484 1.48291C21.5062 1.48291 21.0819 1.6577 20.768 1.96919C20.4571 2.283 20.2827 2.70685 20.2827 3.14856C20.2827 3.59026 20.4571 4.01411 20.768 4.32792L28.6234 12.1834C28.9372 12.4942 29.3611 12.6686 29.8028 12.6686C30.2445 12.6686 30.6683 12.4942 30.9821 12.1834Z" fill="#111111"/>
<path d="M31.3361 11.0248C31.3361 10.5848 31.1613 10.1628 30.8502 9.85165C30.539 9.54052 30.1171 9.36572 29.677 9.36572H21.9745C21.5345 9.36572 21.1125 9.54052 20.8014 9.85165C20.4902 10.1628 20.3154 10.5848 20.3154 11.0248C20.316 11.4646 20.491 11.8863 20.802 12.1973C21.113 12.5083 21.5347 12.6833 21.9745 12.6839H29.677C30.1169 12.6833 30.5386 12.5083 30.8496 12.1973C31.1606 11.8863 31.3356 11.4646 31.3361 11.0248Z" fill="#111111"/>
<path d="M7.90172 12.6839C10.206 12.6839 11.5467 11.2029 12.1395 10.6101L12.7009 10.9348L8.31649 14.7285L7.89753 14.2529C7.024 13.7313 5.79227 12.6839 7.90172 12.6839Z" fill="#111111"/>
<path d="M8.105 10.0256C9.20176 10.0256 10.0909 9.11583 10.0909 7.99361C10.0909 6.8714 9.20176 5.96167 8.105 5.96167C7.00824 5.96167 6.11914 6.8714 6.11914 7.99361C6.11914 9.11583 7.00824 10.0256 8.105 10.0256Z" fill="#111111"/>
</svg>
