<svg width="20" height="16" viewBox="0 0 20 16" fill="none" xmlns="http://www.w3.org/2000/svg">
<path d="M16.9284 7.16535C16.8967 7.84374 16.9126 8.53828 16.8016 9.20052C16.6907 9.92737 16.2945 10.5573 15.8032 11.1065C14.7572 12.0595 13.5052 12.4633 12.1263 12.6409C10.5574 12.8348 9.00421 12.8025 7.43522 12.5925C6.34168 12.4148 5.29568 12.0756 4.43987 11.3326C3.18784 10.2504 2.91842 8.81287 3.0769 7.22996C3.09275 7.06843 3.1086 6.90691 3.12445 6.74539C3.1403 6.68078 3.15615 6.61617 3.18784 6.56772C3.44142 5.77626 3.86932 5.08172 4.50326 4.5487C5.05796 4.09643 5.73944 3.72493 6.43677 3.57957C6.78543 3.51496 7.1341 3.48265 7.48276 3.45035C8.13254 3.36959 8.78233 3.25652 9.44796 3.20806C9.57475 3.19191 9.70154 3.19191 9.84417 3.17576C11.3498 3.095 12.8395 3.30498 14.2817 3.80569C14.3451 3.838 14.4085 3.8703 14.4878 3.90261C15.8032 4.581 16.659 5.61474 16.9126 7.11689C16.9126 7.11689 16.9126 7.1492 16.9284 7.16535Z" fill="white"/>
<path d="M10.0788 11.8818C10.8712 11.7848 11.7904 11.7202 12.6938 11.5426C13.7556 11.3326 14.6907 10.848 15.2929 9.87889C15.7684 9.08744 15.8635 8.21522 15.7208 7.29455C15.5782 6.40618 15.2295 5.66317 14.4847 5.13015C13.4387 4.38715 12.2183 4.17718 10.9822 4.14487C9.84108 4.11257 8.6683 4.17717 7.52722 4.32254C6.68725 4.43561 5.86313 4.7425 5.2292 5.35628C4.35753 6.1962 4.13566 7.26224 4.26245 8.4575C4.38923 9.76583 5.05486 10.6219 6.1801 11.1549C7.36873 11.7364 8.6683 11.7202 10.0788 11.8818Z" fill="#111111"/>
<path d="M19.5871 8.39233C19.3018 7.7947 18.8105 7.37474 18.1766 7.21322C18.0181 7.16476 17.8596 7.13246 17.6853 7.084L17.4951 7.03554V7.00324C18.0974 6.82557 18.5253 6.48637 18.7947 5.9695C19.2068 5.17805 19.1909 4.40274 18.7313 3.51437C18.3668 2.80367 17.6378 2.27065 16.8612 2.15759C16.1956 2.06067 15.5775 2.27065 15.1179 2.75522C14.9911 2.90059 14.8643 3.04596 14.7217 3.20748C14.69 3.23978 14.6741 3.27209 14.6424 3.30439C14.8009 2.39987 14.69 1.62457 14.3096 1.04309C13.9926 0.558523 13.4855 0.219327 12.8991 0.106261C12.1384 -0.0391081 11.4569 0.203175 11.0607 0.800806C10.7912 1.18846 10.5852 1.62457 10.4109 1.99607C10.3633 2.10913 10.2999 2.2222 10.2524 2.33526C9.95128 0.816958 9.04792 -0.103718 7.95438 0.00934746C6.11597 0.219326 5.84654 1.67302 5.84654 2.94904C5.26015 2.14143 4.67376 1.5115 3.62777 1.67302L3.35834 1.70533C2.31235 1.8507 1.61502 2.78752 1.40899 3.78896C1.29805 4.28968 1.2822 4.79039 1.50408 5.2588C1.69426 5.64646 2.28065 6.38946 2.7561 6.40561C2.70856 6.40561 2.66101 6.40561 2.59762 6.40561C2.42329 6.40561 2.23311 6.40561 2.05877 6.42176C1.06032 6.55098 0.39469 7.1163 0.0777216 8.13389L0.0301758 8.58615C-0.11246 9.55528 0.252055 10.4437 1.09202 11.0574C1.75765 11.5582 2.62932 11.5743 3.45343 11.0897L3.50098 11.0574L3.46928 11.0897L2.97798 12.0912L2.86704 12.705C2.7878 13.4157 3.16816 14.1748 3.86549 14.6917C5.00658 15.5316 6.2586 15.1439 7.09857 14.0617C7.2729 13.8518 7.38384 13.5933 7.49478 13.3349C7.52647 13.2703 7.54232 13.2057 7.57402 13.1572C7.57402 13.238 7.58987 13.3187 7.58987 13.3995C7.60572 13.6902 7.62157 13.9971 7.70081 14.2879C7.89099 15.047 8.33474 15.6123 8.95283 15.8546C9.20641 15.9515 9.45998 16 9.69771 16C10.3792 16 11.0448 15.6285 11.3618 15.0147C11.552 14.6432 11.6788 14.2556 11.8055 13.8679C11.8531 13.7387 11.8848 13.6256 11.9323 13.5126C11.9482 13.5449 11.964 13.5933 11.9799 13.6256C12.0591 13.8195 12.1701 14.0617 12.3127 14.2879C12.6931 14.9017 13.3745 15.6608 14.7058 15.3539C15.4665 15.1762 16.1797 14.4332 16.4016 13.6095C16.4808 13.2864 16.4967 12.9634 16.4333 12.6403C16.4016 12.4627 16.3223 12.285 16.2589 12.1235C16.2431 12.075 16.1639 11.8973 16.1956 11.8489C16.2273 11.7681 16.5601 11.8489 16.7027 11.9135C17.0038 12.0266 17.3049 12.1396 17.6061 12.1235C18.4936 12.1073 19.1751 11.6066 19.6188 10.6536C19.9199 9.95909 19.9199 9.08687 19.5871 8.39233ZM3.12062 7.21322C3.13646 7.10015 3.15231 6.98709 3.15231 6.87402L3.16816 6.72865L3.23156 6.55098C3.50098 5.72722 3.94473 5.04883 4.53113 4.56426C4.92734 4.24122 5.38694 4.01509 5.81485 3.82126C6.2269 3.62744 6.65481 3.57898 7.09857 3.51437L7.2729 3.49822C7.36799 3.48207 7.46308 3.46591 7.55817 3.44976C7.65326 3.43361 7.73251 3.41746 7.8276 3.41746C8.35059 3.3367 8.92113 3.27209 9.50753 3.22363C9.61846 3.20748 9.7294 3.20748 9.84034 3.20748C11.3301 3.12672 12.8198 3.33669 14.2462 3.83741L14.4522 3.93433C15.831 4.64502 16.6235 5.67876 16.8612 7.13246C16.8612 7.16476 16.877 7.18091 16.8929 7.21322C16.877 7.4232 16.877 7.63318 16.8612 7.827C16.8453 8.29541 16.8295 8.77998 16.7502 9.23224C16.6393 9.87833 16.3065 10.5083 15.7676 11.1059C14.8484 11.9458 13.6915 12.4304 12.1225 12.6242C10.6169 12.8019 9.04792 12.7857 7.44723 12.5757C6.16351 12.3658 5.21261 11.9781 4.46773 11.3159C3.35834 10.3144 2.93043 9.02226 3.12062 7.21322Z" fill="#111111"/>
<path d="M7.82975 8.42482C8.38118 8.42482 8.8282 7.96923 8.8282 7.40724C8.8282 6.84524 8.38118 6.38965 7.82975 6.38965C7.27832 6.38965 6.8313 6.84524 6.8313 7.40724C6.8313 7.96923 7.27832 8.42482 7.82975 8.42482Z" fill="white"/>
<path d="M12.2665 8.42531C12.8179 8.42531 13.265 7.96972 13.265 7.40772C13.265 6.84573 12.8179 6.39014 12.2665 6.39014C11.7151 6.39014 11.2681 6.84573 11.2681 7.40772C11.2681 7.96972 11.7151 8.42531 12.2665 8.42531Z" fill="white"/>
</svg>
