<svg width="55" height="12" viewBox="0 0 55 12" fill="none" xmlns="http://www.w3.org/2000/svg">
<path d="M49.1747 0C48.0225 0 46.8963 0.350773 45.9383 1.00796C44.9803 1.66515 44.2336 2.59924 43.7927 3.6921C43.3518 4.78496 43.2365 5.98751 43.4612 7.14768C43.686 8.30786 44.2408 9.37356 45.0555 10.21C45.8702 11.0464 46.9082 11.6161 48.0382 11.8468C49.1682 12.0776 50.3395 11.9592 51.4039 11.5065C52.4684 11.0538 53.3781 10.2872 54.0182 9.30367C54.6583 8.32012 55 7.16378 55 5.98087C55 4.39465 54.3863 2.87339 53.2938 1.75176C52.2013 0.630128 50.7196 0 49.1747 0ZM52.5578 9.44672H45.787V2.49971H52.5534L52.5578 9.44672Z" fill="#111111"/>
<path d="M8.70357 6.00382C8.5542 5.85046 8.56765 5.8888 8.68864 5.72164C8.78722 5.58208 8.89028 5.44561 8.98737 5.30912C10.251 3.73876 9.98665 0.949214 7.85517 0.369529C7.36141 0.230149 6.85115 0.162017 6.33909 0.167099C4.98283 0.167099 2.53917 0.137959 1.18291 0.183966C0.917653 0.194315 0.662861 0.292971 0.457006 0.46504C0.25115 0.637109 0.1054 0.873258 0.0417409 1.13784C0.00889278 1.29446 -0.00465937 1.45469 0.00140875 1.61478C0.00140875 3.06859 0.00140875 4.5224 0.00140875 5.97621C0.00140875 7.4883 0.00140875 9.00089 0.00140875 10.514C-0.00755331 11.2808 0.63174 11.7853 1.34572 11.7807C2.78114 11.7807 5.30248 11.7807 6.73641 11.7807C7.77004 11.7577 8.88132 11.474 9.56244 10.6137C10.2884 9.70122 10.4138 8.08792 9.57737 6.96229C9.306 6.62427 9.01416 6.30415 8.70357 6.00382ZM2.14932 2.01657C2.14932 2.01657 5.36222 2.01657 6.20465 2.02577C6.81706 2.02577 7.33985 2.42756 7.37868 3.07625C7.42761 3.56412 7.29591 4.05302 7.00975 4.44573C6.89473 4.60828 6.77822 4.77237 6.66918 4.94106C6.64921 4.97718 6.61966 5.00674 6.58396 5.02629C6.54826 5.04583 6.50789 5.05457 6.46754 5.05147C6.00301 5.05147 2.14782 5.05147 2.14782 5.05147L2.14932 2.01657ZM6.66918 9.89906C6.4788 9.93296 6.28585 9.94938 6.09263 9.94813C5.295 9.94813 2.14782 9.94813 2.14782 9.94813V6.87488C2.14782 6.87488 6.04184 6.87488 6.50638 6.87488C6.54883 6.87197 6.59136 6.87934 6.63053 6.89639C6.6697 6.91343 6.70443 6.93969 6.73193 6.97303C6.9515 7.21686 7.19047 7.44382 7.39062 7.7076C7.99706 8.49124 7.73866 9.7365 6.66918 9.89752V9.89906Z" fill="#111111"/>
<path d="M15.2264 0.145702C14.0449 0.245384 12.9201 0.605775 11.7909 0.927822L11.652 0.966161L12.0135 3.08093L12.1927 3.02419C13.0083 2.7638 13.8364 2.54678 14.6737 2.37397C15.2428 2.25031 15.8301 2.24302 16.4019 2.35249C17.7462 2.59019 18.3437 3.78177 18.5125 5.01015H14.7305L14.378 6.88109H18.5334C18.384 8.29503 17.7701 9.57248 16.2361 9.77644C14.844 9.9758 13.5206 9.436 12.2032 9.07561L12.015 9.02193L11.6684 11.1321C11.6684 11.1321 11.7013 11.1444 11.8014 11.172C13.9343 11.8115 16.2914 12.52 18.4109 11.4465C21.0995 10.1629 21.4819 6.44863 20.8008 3.81398C20.1196 1.17933 17.7835 -0.124204 15.2264 0.145702Z" fill="#111111"/>
<path d="M38.3068 5.5729L43.0163 0.151783H40.0992L36.4322 4.5991C36.2242 4.85158 36.0919 5.16052 36.0513 5.48856V0.151783H33.6614V11.7715H36.0513V5.92409C36.0892 6.2335 36.209 6.52632 36.3978 6.77061L40.2605 11.7715H43.209L38.3068 5.67259V5.5729Z" fill="#111111"/>
<path d="M27.6852 0.17786C27.3777 0.0724588 27.0523 0.0327935 26.7293 0.0613084C25.9137 0.111916 25.4118 0.48917 25.1415 1.27742C24.5112 3.10848 21.5313 11.7807 21.5313 11.7807H24.0511L26.8891 2.99807L29.6225 11.7807C29.6225 11.7807 30.5187 11.7608 30.8727 11.7608C31.2267 11.7608 32.1707 11.7807 32.1707 11.7807C32.1707 11.7807 29.1505 2.67755 28.6815 1.25748C28.6117 1.00878 28.4849 0.78091 28.3115 0.593036C28.1381 0.405163 27.9233 0.262782 27.6852 0.17786Z" fill="#111111"/>
</svg>
