<svg width="20" height="16" viewBox="0 0 20 16" fill="none" xmlns="http://www.w3.org/2000/svg">
<g clip-path="url(#clip0_4648_1683)">
<path d="M10.6217 15.9861C8.73297 15.8563 6.94972 15.0676 5.58304 13.7575C4.57322 12.7857 3.82578 11.5741 3.41032 10.2356C3.33588 9.98897 3.19165 9.36088 3.19165 9.30505C3.19165 9.24922 3.39636 9.30505 3.6569 9.30505C3.88457 9.30854 4.11161 9.28035 4.33152 9.22131C4.40406 9.18692 4.48396 9.17094 4.56414 9.17478C4.59918 9.268 4.62413 9.36471 4.63858 9.46324C4.86964 10.4108 5.28719 11.3029 5.86685 12.0873C6.29236 12.6394 6.81214 13.1119 7.40218 13.483C7.64411 13.6412 8.007 13.8552 8.21637 13.9483C8.64648 14.1592 9.10131 14.3155 9.57025 14.4135H9.67726V8.43968H7.19281V5.18292H13.2085V9.72843C13.2085 13.7668 13.2085 14.2739 13.255 14.2739C13.3635 14.248 13.4694 14.2122 13.5714 14.1669C13.8017 14.0891 14.0019 13.941 14.1437 13.7436L14.2042 13.6598L13.9157 13.3574L13.483 12.8921L13.3388 12.734L13.7715 12.2687C13.9233 12.1209 14.0677 11.9656 14.2042 11.8035C14.2042 11.8035 14.0087 11.5801 13.7668 11.3382L13.3295 10.873L13.7668 10.4077C14.0087 10.1565 14.2042 9.94245 14.2042 9.94245C14.2042 9.94245 14.0087 9.71913 13.7715 9.4772L13.3388 9.01194L13.6179 8.70953C13.7761 8.54204 13.911 8.39781 13.925 8.39316C13.9791 8.34151 14.0289 8.28549 14.0739 8.22567L14.2042 8.07679L13.7668 7.61154L13.3388 7.14629L13.4551 7.02067L13.8878 6.55542C14.005 6.44783 14.1081 6.3259 14.1948 6.19252L13.8878 5.84358L13.5807 5.52256L13.8459 5.28993L14.1065 5.05731L14.3949 5.35507L14.9439 5.92733L15.1998 6.19717L14.7625 6.66242C14.6036 6.81206 14.4602 6.97728 14.3344 7.15559C14.4436 7.2876 14.5601 7.41341 14.6834 7.53244L15.116 7.9977L15.2044 8.0954L14.809 8.49552C14.5903 8.71884 14.3903 8.9282 14.367 8.96077C14.3437 8.99333 14.3437 9.04451 14.7625 9.4865L15.1998 9.95175L14.7718 10.417C14.6205 10.564 14.4776 10.7193 14.3437 10.8823C14.4776 11.0452 14.6205 11.2005 14.7718 11.3475L15.1998 11.8128L14.7625 12.278C14.5205 12.5339 14.3251 12.7433 14.3251 12.7433C14.5187 12.9772 14.7371 13.1893 14.9765 13.376C15.29 13.1805 15.5736 12.9407 15.8186 12.6642C16.8123 11.6576 17.4635 10.3633 17.6796 8.96542C17.8825 7.65263 17.6762 6.30921 17.0887 5.11779C16.4481 3.79068 15.3836 2.71483 14.0633 2.06018C12.7431 1.40553 11.2424 1.20941 9.79822 1.50278C8.20162 1.83967 6.77777 2.73556 5.7831 4.0291C5.54052 4.37179 5.33026 4.73625 5.15501 5.11779C5.08999 5.25832 5.01698 5.39502 4.93634 5.52721L4.71768 5.4202C4.46113 5.27598 4.18309 5.17387 3.89418 5.11779C3.76391 5.11779 3.6569 5.06196 3.6569 5.04335C3.85212 4.59606 4.0743 4.16102 4.32221 3.74064C5.07339 2.57055 6.10907 1.6101 7.33239 0.949135C8.11413 0.519918 8.96404 0.228745 9.84475 0.0884198C10.531 -0.00217757 11.2247 -0.0224436 11.9151 0.0279371C13.109 0.156575 14.2595 0.547832 15.2843 1.17364C16.3091 1.79945 17.1827 2.6443 17.8424 3.64759C18.202 4.2202 18.4984 4.83015 18.7264 5.46673C18.9933 6.28185 19.1237 7.13543 19.1126 7.99304C19.1217 8.61152 19.0545 9.22877 18.9125 9.83079C18.8235 10.2925 18.6766 10.7412 18.4752 11.1661C18.0442 12.1476 17.4231 13.0341 16.6477 13.7743C15.8723 14.5146 14.958 15.0939 13.9576 15.4789C12.8943 15.883 11.7571 16.0559 10.6217 15.9861Z" fill="#111111"/>
<path d="M10.5286 5.99707C10.3764 5.9983 10.2308 6.05962 10.1236 6.16768C10.0164 6.27574 9.95629 6.42178 9.9563 6.57398C9.95629 6.61165 9.96379 6.64894 9.97834 6.68367C9.99289 6.71841 10.0142 6.74991 10.0411 6.77632C10.0679 6.80274 10.0997 6.82355 10.1347 6.83753C10.1697 6.85152 10.2071 6.8584 10.2448 6.85779H10.817C10.8547 6.8584 10.8921 6.85152 10.9271 6.83753C10.962 6.82355 10.9939 6.80274 11.0207 6.77632C11.0476 6.74991 11.0689 6.71841 11.0834 6.68367C11.098 6.64894 11.1055 6.61165 11.1055 6.57398C11.1043 6.42135 11.0431 6.27532 10.9352 6.16739C10.8272 6.05946 10.6812 5.99829 10.5286 5.99707Z" fill="white"/>
<path d="M3.25676 8.71426C2.41741 8.62227 1.63696 8.23863 1.05147 7.63022C0.665828 7.23527 0.329907 6.79467 0.0511777 6.31821L0 6.22516L0.255888 6.30891C0.566727 6.40921 0.888519 6.47169 1.21431 6.49501C1.41129 6.47488 1.60699 6.44382 1.80052 6.40196C2.11083 6.31151 2.43658 6.28673 2.757 6.32919C3.07742 6.37164 3.38548 6.48041 3.66153 6.64854C3.80693 6.73357 3.96354 6.79778 4.12678 6.83929C4.12678 6.83929 4.08026 6.74159 3.9779 6.64854C3.73482 6.39513 3.43165 6.20725 3.09655 6.10233C2.76144 5.9974 2.40526 5.97884 2.06106 6.04837C2.02384 6.04837 2.1355 5.99719 2.3123 5.90879C2.64752 5.7254 3.02353 5.6294 3.40564 5.62964C3.76609 5.63351 4.12093 5.71929 4.44334 5.88049C4.76575 6.0417 5.04729 6.27411 5.26665 6.56014C5.44756 6.79321 5.68008 6.98114 5.94591 7.10914C6.01105 7.10914 6.06223 7.15566 6.06223 7.16962C5.85663 7.28992 5.63813 7.38668 5.41088 7.45808C4.90742 7.59102 4.38358 7.62888 3.86624 7.56974C3.72447 7.53557 3.58468 7.49364 3.44751 7.44412C3.365 7.41448 3.27898 7.39571 3.19163 7.38829C3.14045 7.44412 3.77319 7.79306 4.12213 7.89541C4.4869 7.98876 4.86931 7.98876 5.23408 7.89541C5.33332 7.86914 5.43442 7.85048 5.53649 7.83958C5.34834 8.02143 5.13718 8.17784 4.9084 8.30484C4.42422 8.63372 3.8385 8.77891 3.25676 8.71426Z" fill="#111111"/>
</g>
<defs>
<clipPath id="clip0_4648_1683">
<rect width="19.1125" height="16" fill="white"/>
</clipPath>
</defs>
</svg>
