<svg width="17" height="20" viewBox="0 0 17 20" fill="none" xmlns="http://www.w3.org/2000/svg">
<g clip-path="url(#clip0_4648_1746)">
<path d="M3.35705 11.8853L2.26154 12.9188C2.45101 13.3029 2.58881 13.656 2.24259 13.9695C2.61797 14.4041 3.02071 14.8143 3.44834 15.1976C3.62059 15.3354 3.96509 15.2838 4.23208 15.2631C4.54902 15.239 4.74883 15.3285 4.86424 15.6351C4.93363 15.7925 5.01663 15.9435 5.11228 16.0864C5.59803 16.9339 5.60147 16.9477 4.98137 17.7228C4.90903 17.8124 4.70749 17.9089 4.63687 17.871C4.51285 17.7969 4.3406 17.6074 4.36471 17.5075C4.51113 16.915 4.16663 16.7978 3.70844 16.7444C3.50789 16.7295 3.3106 16.6854 3.12279 16.6135C2.99705 16.5567 2.81446 16.3913 2.82824 16.3035C2.8937 15.9021 2.61637 15.7316 2.41139 15.5025C2.13063 15.1994 1.85847 14.8876 1.55014 14.5483C1.13157 15.0753 0.838748 14.829 0.552812 14.5672C-0.203368 13.8782 -0.180975 12.7672 0.602764 12.166C0.695074 12.1043 0.796095 12.0567 0.90248 12.0248C1.05578 11.9628 1.24698 11.9473 1.36239 11.8525C1.85847 11.4167 2.33044 10.9551 2.81618 10.5073C2.9455 10.3757 3.09006 10.26 3.24681 10.1628C3.91514 9.79758 4.07361 9.81825 4.63687 10.335C6.23535 11.8112 8.59863 11.9834 10.6277 10.7708C10.7522 10.6804 10.8997 10.6272 11.0532 10.6175C10.8763 10.7994 10.69 10.9719 10.4951 11.1342C8.31614 12.8034 5.92014 12.2745 4.35438 10.4797C4.18213 10.2747 3.99954 10.0784 3.76184 10.2902C3.70302 10.3652 3.66179 10.4524 3.64122 10.5454C3.62065 10.6384 3.62125 10.7349 3.64298 10.8276C4.19763 12.9653 5.08644 14.9427 6.5454 16.6256C6.89955 16.9975 7.30154 17.3207 7.74082 17.5867C7.82574 17.6228 7.91805 17.638 8.01003 17.6311C8.10202 17.6242 8.19102 17.5954 8.26963 17.5471C10.6346 15.8591 12.0764 13.5854 12.619 10.7243C12.6758 10.4211 12.619 10.2334 12.333 10.1111C12.2147 10.0582 12.1068 9.98474 12.0144 9.89404C12.507 9.98706 12.9841 10.0939 13.3527 10.4935C13.6937 10.8591 14.0561 11.2042 14.4379 11.527C14.6963 11.7475 14.8513 12.073 15.3267 12.0575C15.7574 12.042 16.188 12.9325 16.1122 13.4958C16.0887 13.7195 16.0205 13.9361 15.9116 14.1329C15.8027 14.3297 15.6554 14.5026 15.4783 14.6413C15.201 14.8669 14.9254 15.0271 14.6171 14.6103C14.1916 15.0271 13.7799 15.4233 13.3769 15.8263C13.3475 15.856 13.3245 15.8913 13.3091 15.93C13.2937 15.9688 13.2863 16.0103 13.2873 16.052C13.3665 16.5154 13.0703 16.6187 12.7154 16.679C12.6017 16.6979 12.4898 16.7289 12.3709 16.7393C11.9213 16.7823 11.601 16.9115 11.7301 17.4782C11.7543 17.585 11.5992 17.7866 11.4769 17.852C11.4011 17.8916 11.1927 17.7883 11.1135 17.6918C10.9452 17.4785 10.8008 17.2475 10.6829 17.0028C10.6365 16.8932 10.6334 16.7701 10.6742 16.6583C10.7483 16.474 10.893 16.3138 10.9602 16.1312C11.2065 15.4612 11.613 15.0977 12.3761 15.27C12.4453 15.2736 12.5145 15.2632 12.5796 15.2396C12.6447 15.2159 12.7043 15.1794 12.755 15.1322C13.1288 14.7773 13.4802 14.3984 13.7627 14.109V12.843L12.6982 11.8456C12.5931 12.1609 12.5053 12.4227 12.4157 12.6828C11.6552 14.9437 10.2285 16.9216 8.32303 18.3567C8.22704 18.4505 8.09917 18.5045 7.96502 18.5081C7.83087 18.5116 7.70035 18.4643 7.59958 18.3757C6.5937 17.6815 5.77003 16.755 5.19841 15.6748C4.53869 14.4501 3.9806 13.1789 3.35705 11.8853Z" fill="black"/>
<path d="M7.95809 5.59461C9.14918 5.61189 10.3232 5.88073 11.4031 6.38352C11.6959 6.51099 11.8406 6.71597 11.7648 7.02602C11.6236 7.61052 11.4697 8.19158 11.3032 8.76919C11.2171 9.07063 10.9862 9.08958 10.7158 9.03101C9.1282 8.68374 7.48992 8.6341 5.88419 8.8846C5.6307 8.92729 5.37994 8.98481 5.13318 9.05685C4.79901 9.14814 4.55269 9.05685 4.46312 8.71235C4.31499 8.14564 4.18752 7.57205 4.05834 7.00018C3.98082 6.66429 4.13585 6.46276 4.44418 6.33012C5.55009 5.8386 6.74788 5.58788 7.95809 5.59461ZM10.8519 8.46775C10.9757 8.05093 11.0712 7.62623 11.1378 7.19654C11.1417 7.09052 11.1219 6.98496 11.0799 6.88754C11.0379 6.79012 10.9747 6.70326 10.895 6.63328C10.3351 6.25778 8.47139 5.9839 7.71005 6.13031C8.2268 6.26122 8.70221 6.3818 9.17417 6.49721C10.0957 6.72113 10.7365 7.19827 10.7606 8.24038C10.7606 8.27828 10.7916 8.31617 10.8519 8.46775Z" fill="black"/>
<path d="M7.72882 2.64579C7.64097 2.11009 7.90107 1.58473 7.44977 1.14032C7.36709 1.06108 7.44977 0.623568 7.57035 0.568448C7.67909 0.520183 7.79702 0.496111 7.91598 0.497895C8.03495 0.49968 8.1521 0.527278 8.25935 0.578783C8.37648 0.644238 8.45227 1.0697 8.36614 1.15582C7.92002 1.60884 8.19389 2.12559 8.10949 2.63373C10.0042 2.83871 11.5011 3.60867 12.3158 5.38974C12.7689 6.37501 12.7964 7.57732 12.3606 8.45924C12.5484 6.92966 12.3606 5.58783 11.3616 4.48715C10.3625 3.38646 9.12232 2.93689 7.66164 2.9834C5.61186 3.05402 3.01088 4.73002 3.33471 8.17675C2.90064 6.76774 3.20208 5.49653 4.12878 4.3769C5.05549 3.25728 6.2578 2.75603 7.72882 2.64579Z" fill="black"/>
<path d="M5.59814 19.6125C6.28715 19.0526 9.62364 19.0664 10.199 19.6125C9.55129 20.1206 6.38705 20.1361 5.59814 19.6125Z" fill="black"/>
<path d="M6.48169 9.64599C7.39686 9.97518 8.40162 9.95309 9.30143 9.58398C9.17569 9.99739 8.72267 10.2609 8.10946 10.2937C7.46696 10.335 6.88992 10.2041 6.48169 9.64599Z" fill="black"/>
<path d="M10.0732 0C10.4711 0.315218 10.5039 1.44001 10.0732 1.88442V0Z" fill="black"/>
<path d="M6.4698 0.0102539C6.38745 0.313998 6.32985 0.623914 6.29755 0.936961C6.31928 1.24363 6.36711 1.5479 6.44052 1.84644C6.21336 1.59289 6.0902 1.26299 6.09563 0.922615C6.10106 0.582237 6.23468 0.256431 6.4698 0.0102539Z" fill="black"/>
<path d="M5.80659 1.90681C5.38974 1.40556 5.42247 0.332443 5.80659 0V1.90681Z" fill="black"/>
<path d="M9.4978 0.103271C9.88709 0.399542 9.92154 1.25218 9.4978 1.80683V0.103271Z" fill="black"/>
<path d="M8.92944 0.241211C9.33423 0.530592 9.35146 1.335 8.92944 1.63472V0.241211Z" fill="black"/>
<path d="M7.06223 0.232422C6.7539 0.688886 6.8073 1.16774 7.01744 1.65349C6.52136 1.25903 6.55926 0.449457 7.06223 0.232422Z" fill="black"/>
<path d="M10.8519 8.4679C10.7847 8.31632 10.7537 8.27843 10.7537 8.24053C10.7296 7.19842 10.0888 6.72128 9.16725 6.49736C8.69529 6.38195 8.22677 6.26137 7.70312 6.13046C8.46447 5.98405 10.3351 6.25793 10.8949 6.63343C10.9747 6.70341 11.0378 6.79026 11.0798 6.88769C11.1219 6.98511 11.1417 7.09067 11.1378 7.19669C11.0712 7.62638 10.9757 8.05108 10.8519 8.4679Z" fill="white"/>
</g>
<defs>
<clipPath id="clip0_4648_1746">
<rect width="16.114" height="20" fill="white"/>
</clipPath>
</defs>
</svg>
