<svg width="263" height="68" viewBox="0 0 263 68" fill="none" xmlns="http://www.w3.org/2000/svg">
<g clip-path="url(#clip0_5193_8257)">
<path d="M34.9302 45.0952C20.9404 45.0952 7.94329 38.9059 0 28.4104L3.96319 25.4951C11.1463 34.9861 23.0777 40.4885 35.8506 40.21C48.1845 39.9426 59.0579 34.2791 65.6828 24.6719L69.7724 27.4126C62.2367 38.3406 49.9125 44.7817 35.9597 45.084C35.6164 45.0916 35.2723 45.0952 34.9302 45.0952Z" fill="#111111"/>
<path d="M65.6828 20.4229C59.0579 10.8157 48.1845 5.15217 35.8506 4.88476C23.0761 4.60188 11.1463 10.1087 3.96319 19.5997L0 16.6844C8.13726 5.93217 21.5734 -0.294755 35.9597 0.0107409C49.9125 0.313061 62.2367 6.75423 69.7724 17.6822L65.6828 20.4229Z" fill="#111111"/>
<path d="M39.0049 34.7748L24.9136 12.8736L68.4596 0.999023L39.0049 34.7748ZM32.6645 15.8183L39.6061 26.6074L54.1159 9.96865L32.6645 15.8183Z" fill="#111111"/>
<path d="M88.0503 2.31445L100.327 33.9441H103.7L115.858 2.27002L121.811 2.29046L103.878 49.863C101.684 55.6884 99.4855 57.7113 95.7821 59.0002L93.2691 53.8385C95.0396 53.2352 96.7288 52.0144 97.7956 49.1488L102.158 37.8174L98.8406 37.8309C98.2769 37.8372 97.7172 37.7376 97.1913 37.5374C95.1978 36.7628 94.3586 34.2968 93.3921 31.6968L82.0886 2.29412L88.0503 2.31445Z" fill="#111111"/>
<path d="M132.45 16.1611L149.81 14.5003C149.81 11.8826 147.614 7.05073 138.679 7.05073C132.756 7.05073 127.906 8.71147 127.243 13.393H121.83C122.852 6.0943 129.489 2.16797 138.73 2.16797C153.639 2.16797 155.783 9.91943 155.783 15.8592V37.5535H149.81V26.1273C148.175 31.01 141.692 37.7547 133.931 37.7547C125.098 37.7547 120.81 33.0738 120.81 26.6309C120.81 21.3457 125.302 16.866 132.45 16.1611ZM133.982 32.8726C139.904 32.8726 146.593 28.342 149.758 18.9298L133.471 20.3893C128.774 20.842 126.783 23.9125 126.783 26.6812C126.783 30.2548 128.978 32.8726 133.982 32.8726Z" fill="#111111"/>
<path d="M183.739 34.3833C182.932 36.433 181.289 37.806 179.093 37.806H173.324C171.129 37.806 169.495 36.433 168.677 34.3833L156.294 2.30822H162.268L174.549 33.93H177.919L190.083 2.27881H196.006L183.739 34.3833Z" fill="#111111"/>
<path d="M201.767 22.7542C201.767 27.1322 202.839 32.4162 212.486 32.4162C218.662 32.4162 222.286 30.4032 222.95 26.3275H228.82C227.901 33.8759 221.062 37.7504 212.486 37.7504C197.377 37.7504 195.387 27.082 195.387 21.0939C195.387 8.2113 201.767 2.17236 212.486 2.17236C223.206 2.17236 229.484 8.2113 229.484 22.7542L201.767 22.7542ZM212.486 7.40599C205.085 7.40599 202.277 11.2302 201.818 18.2756H222.797C222.338 11.2302 219.888 7.40599 212.486 7.40599Z" fill="#111111"/>
<path d="M232.661 23.7235H238.363C238.413 29.7418 243.649 32.8255 248.492 32.8255C253.991 32.8255 256.211 31.1342 256.211 28.0008C256.211 24.42 254.092 22.4802 247.836 21.2866C240.117 19.8942 234.618 16.7608 234.618 10.5437C234.618 5.52015 238.655 1.88965 247.685 1.88965C258.078 1.88965 261.801 10.0508 262.153 14.0795L256.452 14.1292C256.15 10.0508 252.932 6.51491 247.685 6.51491C242.993 6.51491 240.168 8.00676 240.168 10.7425C240.168 13.8262 242.892 15.4175 247.836 16.3128C257.069 18.0041 261.911 21.9831 261.911 27.8517C261.911 33.0243 259.087 37.6993 248.492 37.6993C239.412 37.6993 232.661 31.1342 232.661 23.7235Z" fill="#111111"/>
</g>
<defs>
<clipPath id="clip0_5193_8257">
<rect width="262" height="59" fill="white"/>
</clipPath>
</defs>
</svg>
