<svg width="263" height="68" viewBox="0 0 263 68" fill="none" xmlns="http://www.w3.org/2000/svg">
<path d="M30.6444 37.592H23.7697C19.9756 37.592 16.895 34.3691 16.895 30.3999C16.895 26.4392 19.9756 23.2078 23.7697 23.2078C25.6019 23.2078 27.3286 23.9542 28.6258 25.3112C29.9229 26.6682 30.6363 28.4747 30.6363 30.3914V37.592H30.6444ZM36.2788 43.4864V30.3999C36.2788 26.9056 34.9816 23.6234 32.6144 21.1469C30.2553 18.6789 27.1098 17.3134 23.7697 17.3134C16.8706 17.3134 11.2606 23.1824 11.2606 30.3914C11.2606 37.6005 16.8706 43.478 23.7697 43.478H36.2788V43.4864ZM41.9131 49.3724V30.3999C41.9131 25.3281 40.0242 20.5702 36.603 16.9826C33.1738 13.4035 28.6177 11.4274 23.7778 11.4274C13.7738 11.4274 5.64246 19.9426 5.63436 30.3999C5.63436 40.8657 13.7738 49.3724 23.7778 49.3724H41.9131ZM23.7697 55.2669C10.6445 55.2669 0 44.131 0 30.3999C0 16.6688 10.6445 5.53296 23.7697 5.53296C36.8949 5.53296 47.5394 16.6688 47.5394 30.3999V55.2669H23.7697Z" fill="#111111"/>
<path d="M85.1715 30.3037H78.7794C78.6942 29.6475 78.5195 29.0552 78.2553 28.5267C77.9911 27.9983 77.6416 27.5466 77.207 27.1716C76.7723 26.7966 76.2567 26.5111 75.6601 26.3151C75.072 26.1106 74.4201 26.0083 73.7041 26.0083C72.4343 26.0083 71.3391 26.3194 70.4186 26.9415C69.5067 27.5637 68.8036 28.4628 68.3093 29.639C67.8235 30.8151 67.5806 32.2384 67.5806 33.9088C67.5806 35.6475 67.8277 37.1049 68.322 38.281C68.8249 39.4486 69.528 40.3307 70.4314 40.9273C71.3434 41.5154 72.4215 41.8094 73.6658 41.8094C74.3647 41.8094 74.9996 41.7199 75.5706 41.5409C76.1502 41.362 76.6573 41.102 77.0919 40.7611C77.5351 40.4117 77.8973 39.9898 78.1786 39.4955C78.4684 38.9927 78.6686 38.4259 78.7794 37.7952L85.1715 37.8336C85.0607 38.9927 84.724 40.1347 84.1615 41.2597C83.6076 42.3847 82.8448 43.4117 81.8732 44.3407C80.9016 45.2611 79.7169 45.9941 78.3192 46.5395C76.93 47.085 75.3362 47.3577 73.538 47.3577C71.1686 47.3577 69.0465 46.8378 67.1715 45.7981C65.305 44.7498 63.8306 43.2242 62.7482 41.2213C61.6658 39.2185 61.1246 36.781 61.1246 33.9088C61.1246 31.0282 61.6743 28.5864 62.7737 26.5836C63.8732 24.5807 65.3604 23.0594 67.2354 22.0196C69.1104 20.9799 71.2112 20.46 73.538 20.46C75.1232 20.46 76.5891 20.6816 77.9357 21.1248C79.2823 21.5594 80.4669 22.1986 81.4897 23.0424C82.5124 23.8776 83.3434 24.9046 83.9826 26.1233C84.6218 27.3421 85.0181 28.7356 85.1715 30.3037ZM86.7954 32.1446V27.3634H105.205V32.1446H98.9275V46.9998H92.9957V32.1446H86.7954ZM107.183 54.3634V27.3634H113.371V30.7256H113.562C113.818 30.129 114.18 29.5537 114.649 28.9998C115.126 28.4458 115.731 27.9941 116.464 27.6446C117.206 27.2867 118.092 27.1077 119.124 27.1077C120.487 27.1077 121.761 27.4657 122.946 28.1816C124.139 28.8975 125.102 30.0012 125.835 31.4927C126.568 32.9841 126.935 34.8847 126.935 37.1944C126.935 39.4188 126.581 41.281 125.874 42.781C125.175 44.281 124.229 45.406 123.035 46.156C121.851 46.906 120.534 47.281 119.085 47.281C118.097 47.281 117.24 47.1191 116.516 46.7952C115.791 46.4713 115.182 46.0452 114.687 45.5168C114.202 44.9884 113.827 44.4216 113.562 43.8165H113.435V54.3634H107.183ZM113.307 37.1816C113.307 38.2384 113.447 39.1588 113.729 39.9429C114.018 40.727 114.432 41.3364 114.969 41.7711C115.514 42.1972 116.166 42.4103 116.925 42.4103C117.692 42.4103 118.344 42.1972 118.881 41.7711C119.418 41.3364 119.822 40.727 120.095 39.9429C120.376 39.1588 120.517 38.2384 120.517 37.1816C120.517 36.1248 120.376 35.2086 120.095 34.433C119.822 33.6574 119.418 33.0566 118.881 32.6304C118.352 32.2043 117.7 31.9912 116.925 31.9912C116.158 31.9912 115.506 32.2 114.969 32.6177C114.432 33.0353 114.018 33.6319 113.729 34.4074C113.447 35.183 113.307 36.1077 113.307 37.1816ZM138.377 47.3705C136.314 47.3705 134.542 46.9486 133.059 46.1049C131.584 45.2526 130.446 44.0679 129.645 42.5509C128.853 41.0253 128.456 39.2569 128.456 37.2455C128.456 35.2256 128.853 33.4571 129.645 31.9401C130.446 30.4145 131.584 29.2299 133.059 28.3861C134.542 27.5338 136.314 27.1077 138.377 27.1077C140.439 27.1077 142.208 27.5338 143.682 28.3861C145.165 29.2299 146.303 30.4145 147.095 31.9401C147.897 33.4571 148.297 35.2256 148.297 37.2455C148.297 39.2569 147.897 41.0253 147.095 42.5509C146.303 44.0679 145.165 45.2526 143.682 46.1049C142.208 46.9486 140.439 47.3705 138.377 47.3705ZM138.415 42.6532C139.165 42.6532 139.8 42.4231 140.32 41.9628C140.84 41.5026 141.236 40.8634 141.509 40.0452C141.79 39.227 141.931 38.281 141.931 37.2071C141.931 36.1162 141.79 35.1617 141.509 34.3435C141.236 33.5253 140.84 32.8861 140.32 32.4259C139.8 31.9657 139.165 31.7356 138.415 31.7356C137.64 31.7356 136.983 31.9657 136.446 32.4259C135.918 32.8861 135.513 33.5253 135.232 34.3435C134.959 35.1617 134.823 36.1162 134.823 37.2071C134.823 38.281 134.959 39.227 135.232 40.0452C135.513 40.8634 135.918 41.5026 136.446 41.9628C136.983 42.4231 137.64 42.6532 138.415 42.6532ZM156.419 38.9074L162.696 27.3634H168.704V46.9998H162.785V35.4174L156.521 46.9998H150.5V27.3634H156.419V38.9074ZM162.133 20.4088H166.25C166.241 22.0111 165.636 23.2981 164.434 24.2696C163.241 25.2412 161.622 25.727 159.576 25.727C157.531 25.727 155.907 25.2412 154.706 24.2696C153.512 23.2981 152.92 22.0111 152.929 20.4088H157.007C156.998 20.9713 157.19 21.4827 157.582 21.9429C157.974 22.4032 158.639 22.6333 159.576 22.6333C160.488 22.6333 161.14 22.4074 161.532 21.9557C161.924 21.504 162.125 20.9884 162.133 20.4088ZM171.683 46.9998V27.3634H189.415V46.9998H183.496V32.1446H177.526V46.9998H171.683ZM197.91 47.3321C196.657 47.3321 195.545 47.1233 194.573 46.7057C193.61 46.2796 192.848 45.6404 192.285 44.7881C191.731 43.9273 191.454 42.8492 191.454 41.5537C191.454 40.4628 191.646 39.5424 192.029 38.7924C192.413 38.0424 192.941 37.433 193.615 36.9642C194.288 36.4955 195.064 36.1418 195.941 35.9032C196.819 35.656 197.757 35.4898 198.754 35.4046C199.87 35.3023 200.769 35.1958 201.451 35.085C202.133 34.9657 202.627 34.7995 202.934 34.5864C203.25 34.3648 203.407 34.0537 203.407 33.6532V33.5892C203.407 32.933 203.181 32.4259 202.73 32.0679C202.278 31.71 201.669 31.531 200.902 31.531C200.075 31.531 199.41 31.71 198.907 32.0679C198.404 32.4259 198.085 32.9202 197.948 33.5509L192.183 33.3463C192.353 32.1532 192.792 31.0878 193.5 30.1503C194.216 29.2043 195.196 28.4628 196.44 27.9259C197.693 27.3804 199.197 27.1077 200.953 27.1077C202.206 27.1077 203.36 27.2569 204.417 27.5552C205.474 27.8449 206.394 28.2711 207.179 28.8336C207.963 29.3875 208.568 30.0694 208.994 30.879C209.429 31.6887 209.646 32.6134 209.646 33.6532V46.9998H203.765V44.264H203.612C203.262 44.9287 202.815 45.4912 202.269 45.9515C201.733 46.4117 201.098 46.7569 200.365 46.987C199.64 47.2171 198.822 47.3321 197.91 47.3321ZM199.841 43.2412C200.514 43.2412 201.119 43.1049 201.656 42.8321C202.201 42.5594 202.636 42.1844 202.96 41.7071C203.284 41.2213 203.446 40.6588 203.446 40.0196V38.1532C203.267 38.2469 203.049 38.3321 202.794 38.4088C202.546 38.4856 202.274 38.558 201.975 38.6262C201.677 38.6944 201.37 38.754 201.055 38.8052C200.74 38.8563 200.437 38.9032 200.147 38.9458C199.559 39.0395 199.056 39.1844 198.639 39.3804C198.23 39.5765 197.914 39.8321 197.693 40.1475C197.48 40.4543 197.373 40.8208 197.373 41.2469C197.373 41.8946 197.603 42.389 198.064 42.7299C198.532 43.0708 199.125 43.2412 199.841 43.2412ZM212.468 54.3634V27.3634H218.656V30.7256H218.848C219.103 30.129 219.466 29.5537 219.934 28.9998C220.412 28.4458 221.017 27.9941 221.75 27.6446C222.491 27.2867 223.377 27.1077 224.409 27.1077C225.772 27.1077 227.046 27.4657 228.231 28.1816C229.424 28.8975 230.387 30.0012 231.12 31.4927C231.853 32.9841 232.22 34.8847 232.22 37.1944C232.22 39.4188 231.866 41.281 231.159 42.781C230.46 44.281 229.514 45.406 228.321 46.156C227.136 46.906 225.819 47.281 224.37 47.281C223.382 47.281 222.525 47.1191 221.801 46.7952C221.076 46.4713 220.467 46.0452 219.973 45.5168C219.487 44.9884 219.112 44.4216 218.848 43.8165H218.72V54.3634H212.468ZM218.592 37.1816C218.592 38.2384 218.733 39.1588 219.014 39.9429C219.304 40.727 219.717 41.3364 220.254 41.7711C220.799 42.1972 221.451 42.4103 222.21 42.4103C222.977 42.4103 223.629 42.1972 224.166 41.7711C224.703 41.3364 225.108 40.727 225.38 39.9429C225.662 39.1588 225.802 38.2384 225.802 37.1816C225.802 36.1248 225.662 35.2086 225.38 34.433C225.108 33.6574 224.703 33.0566 224.166 32.6304C223.637 32.2043 222.985 31.9912 222.21 31.9912C221.443 31.9912 220.791 32.2 220.254 32.6177C219.717 33.0353 219.304 33.6319 219.014 34.4074C218.733 35.183 218.592 36.1077 218.592 37.1816ZM234.496 46.9998V27.3634H240.747V34.6759H242.128L246.896 27.3634H254.132L247.523 37.1944L254.196 46.9998H246.871L242.562 40.4799H240.747V46.9998H234.496Z" fill="#111111"/>
</svg>
