<svg width="263" height="59" viewBox="0 0 263 59" fill="none" xmlns="http://www.w3.org/2000/svg">
<path d="M64.1082 8.61963V18.8844H74.4892V50.0633H87.4202V18.8844H97.8013V8.61963H64.1082ZM152.075 8.68188V50.0596H164.018V41.5636L167.151 38.5168L173.7 50.0596H187.322L175.387 30.658L186.804 19.7011H172.193L164.072 28.3729V8.68188H152.075ZM223.982 10.8498L224.036 20.4078H219.857V26.9703H223.787L223.798 41.6845C223.798 43.2056 223.799 45.8985 225.837 47.954C228.211 50.4172 232.446 50.4771 233.719 50.4771C236.208 50.4771 238.59 50.1818 241.256 49.8326V41.5673C240.559 41.6845 239.803 41.8017 239.112 41.8017C235.922 41.8017 235.867 39.8082 235.867 38.634L235.964 26.952L245.498 26.9482L245.552 41.6844C245.552 43.2055 245.55 45.8984 247.573 47.9539C249.956 50.4171 254.185 50.477 255.462 50.477C257.954 50.477 260.329 50.1817 263 49.8325V41.5672C262.3 41.6844 261.551 41.8016 260.856 41.8016C257.664 41.8016 257.607 39.8081 257.607 38.6339L257.552 26.9702H262.949V20.4078H257.777L257.748 10.8497H245.755L245.777 20.4078H236.037V10.8497H223.982L223.982 10.8498ZM202.354 18.4669C192.609 18.4669 185.827 24.8599 185.827 34.7668C185.827 43.2066 191.28 51.2938 202.412 51.2938C209.599 51.2938 214.818 48.4274 218.353 42.9735L208.494 38.8134C207.279 41.2767 205.772 42.7428 203.046 42.7428C200.849 42.7428 199.743 41.6212 199.453 41.3329C198.115 39.983 198.06 38.3996 198.004 37.052H218.994C218.881 32.4231 218.819 27.3791 214.412 22.9823C210.764 19.4058 206.005 18.4669 202.354 18.4669ZM110.272 18.705C107.143 18.705 102.854 18.9956 99.4928 20.7557C95.2019 23.0385 94.5641 26.2659 94.0958 28.8416L105.288 28.5523C105.694 26.4406 106.45 25.7398 109.171 25.7398C112.597 25.7398 113.173 27.1437 113.235 29.1968C111.434 29.7242 110.156 30.0182 106.853 30.4822C101.575 31.1877 98.3348 31.6614 95.6063 34.4739C93.4573 36.6418 93.0527 39.1626 93.0527 40.9814C93.0527 46.1399 96.361 50.7701 103.897 50.7701C109.519 50.7701 112.304 48.779 113.811 47.7196V50.0633H125.587C124.715 48.8329 124.536 48.3045 124.536 46.317V29.7828C124.536 26.1476 124.538 18.705 110.272 18.705ZM148.993 19.0565C144.41 19.0565 142.207 19.4058 138.96 22.3378V19.5216H127.481V50.0633H139.369V35.7629C139.425 33.7707 139.541 29.1382 146.563 29.1382C147.369 29.1382 148.179 29.1945 148.993 29.2554V19.0565ZM202.644 26.15C204.267 26.15 206.128 27.0875 206.643 29.2554C206.761 29.7218 206.761 30.1939 206.817 30.658H198.116C198.408 29.315 199.049 26.15 202.644 26.15H202.644ZM113.17 35.9387C113.17 36.9934 113.172 38.2238 112.598 39.5129C111.552 41.8613 108.763 42.9735 107.085 42.9735C104.825 42.9735 104.129 41.4538 104.129 40.6335C104.129 40.2772 104.245 38.8707 106.563 37.9309C107.606 37.5816 108.65 37.3426 109.635 37.1106C110.85 36.759 112.011 36.3488 113.17 35.9387Z" fill="#111111"/>
<path d="M28.9354 56.0128C25.8662 56.0146 22.8201 55.476 19.934 54.4167C15.6384 52.5698 12.0429 49.38 9.66911 45.316C7.43208 40.8746 6.44917 35.8942 6.83167 30.9255C7.92585 14.3929 27.2455 10.0593 34.3367 19.385C41.4257 28.7107 29.8256 35.4466 29.5845 31.3942C28.9725 21.485 20.954 24.9584 20.6572 30.9068C19.7671 48.7706 49.2217 46.6683 49.5741 26.6271C49.7781 14.8241 41.7224 7.31949 37.6772 3.99842C51.475 8.84525 58.7702 24.0842 53.974 38.034C50.2742 48.8011 40.2272 56.0104 28.954 55.994M28.954 2.52639e-05C12.9841 -0.0209745 0.020889 13.0522 2.54359e-05 29.1982C-0.0209308 45.3441 12.9099 58.4502 28.8798 58.4713C44.8496 58.4923 57.8128 45.4191 57.8337 29.2732C57.8128 13.1436 44.8891 0.0703371 28.9354 0.0375249L28.954 2.52639e-05V2.52639e-05Z" fill="#111111"/>
</svg>
