<svg width="48" height="49" viewBox="0 0 48 49" fill="none" xmlns="http://www.w3.org/2000/svg">
<circle cx="24" cy="24.8071" r="24" fill="black"/>
<path fill-rule="evenodd" clip-rule="evenodd" d="M13.3717 15.1777C11.0492 15.3515 9.29371 17.1501 9.18065 19.3662C9.0875 21.1922 9 23.2934 9 24.7438C9 26.2109 9.08951 28.3437 9.18385 30.184C9.296 32.3718 11.0113 34.1585 13.3015 34.3598C15.8366 34.5828 19.5047 34.8071 24 34.8071C28.4836 34.8071 32.1443 34.5839 34.6787 34.3616C36.9778 34.1599 38.6965 32.3616 38.8071 30.1653C38.9047 28.2277 39 26.0107 39 24.7438C39 23.4906 38.9067 21.3074 38.8102 19.3848C38.6986 17.1601 36.9403 15.3503 34.6089 15.1762C32.1135 14.99 28.5142 14.8071 24 14.8071C19.4741 14.8071 15.8679 14.9909 13.3717 15.1777ZM21 20.5033L28.7333 24.7438L21 28.9843V20.5033Z" fill="white"/>
</svg>
