<svg width="48" height="49" viewBox="0 0 48 49" fill="none" xmlns="http://www.w3.org/2000/svg">
<path d="M24 0.807129C10.7452 0.807129 0 11.5523 0 24.8071C0 38.062 10.7452 48.8071 24 48.8071C37.2548 48.8071 48 38.062 48 24.8071C48 11.5523 37.2548 0.807129 24 0.807129ZM36.4743 15.9886L32.2117 36.3384C32.1601 36.5845 32.0475 36.8137 31.8842 37.005C31.7209 37.1963 31.5122 37.3434 31.2772 37.4329C31.0422 37.5225 30.7885 37.5515 30.5393 37.5174C30.2902 37.4833 30.0536 37.3871 29.8513 37.2377L23.6511 32.657L19.8947 36.2008C19.8455 36.2471 19.7876 36.2833 19.7243 36.307C19.661 36.3308 19.5936 36.3417 19.5261 36.3391C19.4585 36.3366 19.3922 36.3206 19.3309 36.2921C19.2696 36.2636 19.2146 36.2232 19.1691 36.1732L19.0883 36.0845L19.741 29.7681L31.5052 19.0196C31.5633 18.9665 31.5995 18.8936 31.6066 18.8151C31.6136 18.7367 31.591 18.6585 31.5432 18.5959C31.4954 18.5333 31.4259 18.4909 31.3484 18.4771C31.2708 18.4632 31.1909 18.4789 31.1244 18.5211L16.0795 28.0433L9.6 25.8672C9.42771 25.8093 9.27755 25.6995 9.17013 25.5529C9.0627 25.4063 9.00326 25.2301 8.99998 25.0483C8.99669 24.8666 9.04971 24.6883 9.15177 24.5379C9.25383 24.3875 9.39992 24.2724 9.57 24.2083L34.9219 14.6581C35.1174 14.5845 35.3292 14.5648 35.535 14.6011C35.7407 14.6373 35.933 14.7282 36.0917 14.8641C36.2503 15.0001 36.3695 15.1762 36.4368 15.374C36.5041 15.5718 36.5171 15.7841 36.4743 15.9886Z" fill="black"/>
</svg>
