<svg width="80" height="80" viewBox="0 0 80 80" fill="none" xmlns="http://www.w3.org/2000/svg">
<path d="M55.6739 47.3681C53.8704 48.3081 44.5277 52.1491 42.5387 53.1858C40.5496 54.223 39.4447 54.2128 37.8734 53.4618C36.3022 52.7107 26.3599 48.695 24.5689 47.8391C23.6738 47.4112 23.2031 47.0502 23.2031 46.7092V43.2934C23.2031 43.2934 36.1467 40.4758 38.2364 39.7263C40.3259 38.9767 41.0509 38.9496 42.8291 39.601C44.6075 40.2524 55.2404 42.1707 56.998 42.8143C56.998 42.8143 56.9972 45.8649 56.9972 46.1816C56.9974 46.5193 56.5919 46.8897 55.6739 47.3681Z" fill="#A41E11"/>
<path d="M55.6743 43.949C53.8708 44.8886 44.5281 48.73 42.5391 49.7668C40.5501 50.8039 39.4451 50.7938 37.8739 50.0427C36.3024 49.292 26.3603 45.2756 24.5694 44.42C22.7784 43.564 22.7409 42.9748 24.5002 42.2861C26.2594 41.597 36.1471 37.7181 38.237 36.9684C40.3266 36.2191 41.0515 36.1917 42.8297 36.8432C44.6082 37.4946 53.8951 41.1908 55.6525 41.8344C57.4102 42.4786 57.4778 43.009 55.6743 43.949Z" fill="#D82C20"/>
<path d="M55.6739 41.7957C53.8704 42.7357 44.5277 46.5768 42.5387 47.6139C40.5496 48.6506 39.4447 48.6405 37.8734 47.8894C36.302 47.1387 26.3599 43.1227 24.5689 42.2667C23.6738 41.8388 23.2031 41.4783 23.2031 41.1372V37.7211C23.2031 37.7211 36.1467 34.9037 38.2364 34.154C40.3259 33.4045 41.0509 33.3773 42.8291 34.0287C44.6075 34.68 55.2404 36.598 56.998 37.2418C56.998 37.2418 56.9972 40.2924 56.9972 40.6094C56.9974 40.9469 56.5919 41.3174 55.6739 41.7957Z" fill="#A41E11"/>
<path d="M55.6743 38.3786C53.8708 39.3186 44.5281 43.1596 42.5391 44.1967C40.5501 45.2335 39.4451 45.2234 37.8739 44.4723C36.3024 43.7216 26.3603 39.7053 24.5694 38.8496C22.7784 37.9938 22.7409 37.4046 24.5002 36.7155C26.2594 36.0268 36.1471 32.1476 38.237 31.3981C40.3266 30.6487 41.0515 30.6214 42.8297 31.2728C44.6082 31.9242 53.8951 35.6202 55.6525 36.264C57.4102 36.908 57.4778 37.4386 55.6743 38.3786Z" fill="#D82C20"/>
<path d="M55.6739 36.02C53.8704 36.96 44.5277 40.8012 42.5387 41.8384C40.5496 42.8751 39.4447 42.865 37.8734 42.1139C36.302 41.3632 26.3599 37.347 24.5689 36.4912C23.6738 36.0633 23.2031 35.7026 23.2031 35.3617V31.9456C23.2031 31.9456 36.1467 29.1282 38.2364 28.3787C40.3259 27.629 41.0509 27.602 42.8291 28.2533C44.6075 28.9047 55.2404 30.8226 56.998 31.4664C56.998 31.4664 56.9972 34.5171 56.9972 34.8339C56.9974 35.1712 56.5919 35.5417 55.6739 36.02Z" fill="#A41E11"/>
<path d="M55.6743 32.603C53.8708 33.543 44.5281 37.3843 42.5391 38.4212C40.5501 39.4579 39.4451 39.4478 37.8739 38.6969C36.3026 37.946 26.3603 33.93 24.5694 33.0742C22.7784 32.2185 22.7409 31.6291 24.5002 30.9402C26.2594 30.2513 36.1471 26.3725 38.237 25.6228C40.3266 24.8731 41.0515 24.8461 42.8297 25.4977C44.6082 26.149 53.8951 29.845 55.6525 30.4888C57.4102 31.1325 57.4778 31.6632 55.6743 32.603Z" fill="#D82C20"/>
<path d="M44.5318 29.3132L41.6035 29.6172L40.9479 31.1944L39.889 29.4344L36.5078 29.1305L39.0308 28.2207L38.2739 26.8242L40.636 27.7479L42.863 27.0189L42.2611 28.463L44.5318 29.3132Z" fill="white"/>
<path d="M40.7699 36.9666L35.3047 34.7001L43.136 33.4983L40.7699 36.9666Z" fill="white"/>
<path d="M33.1934 33.4341C35.5051 33.4341 37.379 32.7078 37.379 31.8118C37.379 30.9158 35.5051 30.1895 33.1934 30.1895C30.8818 30.1895 29.0078 30.9158 29.0078 31.8118C29.0078 32.7078 30.8818 33.4341 33.1934 33.4341Z" fill="white"/>
<path d="M47.9922 29.7441L52.627 31.5756L47.9962 33.4052L47.9922 29.7441Z" fill="#7A0C00"/>
<path d="M42.8594 31.7723L47.9868 29.7441L47.9908 33.4052L47.4882 33.6018L42.8594 31.7723Z" fill="#AD2115"/>
</svg>
