<svg width="80" height="80" viewBox="0 0 80 80" fill="none" xmlns="http://www.w3.org/2000/svg">
<path d="M40 40.0017C40 35.9794 43.2607 32.7188 47.283 32.7188C51.3052 32.7188 54.5659 35.9794 54.5659 40.0017C54.5659 44.024 51.3052 47.2847 47.283 47.2847C43.2607 47.2847 40 44.024 40 40.0017Z" fill="#1ABCFE"/>
<path d="M25.4336 54.5681C25.4336 50.5458 28.6943 47.2852 32.7165 47.2852H39.9995V54.5681C39.9995 58.5904 36.7388 61.851 32.7165 61.851C28.6942 61.851 25.4336 58.5904 25.4336 54.5681Z" fill="#0ACF83"/>
<path d="M40 18.1523V32.7182H47.283C51.3052 32.7182 54.5659 29.4576 54.5659 25.4353C54.5659 21.413 51.3052 18.1523 47.283 18.1523H40Z" fill="#FF7262"/>
<path d="M25.4336 25.4353C25.4336 29.4576 28.6943 32.7182 32.7165 32.7182H39.9995V18.1523H32.7165C28.6943 18.1523 25.4336 21.413 25.4336 25.4353Z" fill="#F24E1E"/>
<path d="M25.4336 40.0017C25.4336 44.024 28.6943 47.2847 32.7165 47.2847H39.9995V32.7188H32.7165C28.6943 32.7188 25.4336 35.9794 25.4336 40.0017Z" fill="#A259FF"/>
</svg>
