<svg width="80" height="80" viewBox="0 0 80 80" fill="none" xmlns="http://www.w3.org/2000/svg">
<g clip-path="url(#clip0_1_793)">
<path d="M59.8405 41.9761C61.2053 31.292 53.6601 21.5242 42.9956 20.1595C32.331 18.7947 22.5242 26.3399 21.1595 37.0044C19.7947 47.669 27.3399 57.4563 38.0044 58.8405C48.6885 60.2053 58.4563 52.6601 59.8405 41.9761Z" fill="#FF6C37"/>
<path d="M47.5398 32.5199L39.3123 40.7474L36.9922 38.4273C45.0832 30.3362 45.8826 31.0381 47.5398 32.5199Z" fill="white"/>
<path d="M39.308 40.9441C39.2495 40.9441 39.2105 40.9246 39.1715 40.8856L36.8319 38.5655C36.7539 38.4875 36.7539 38.3705 36.8319 38.2925C45.0594 30.065 45.9173 30.8449 47.6525 32.4046C47.6915 32.4436 47.711 32.4826 47.711 32.5411C47.711 32.5996 47.6915 32.6386 47.6525 32.6776L39.425 40.8856C39.4055 40.9246 39.347 40.9441 39.308 40.9441ZM37.2608 38.429L39.308 40.4762L47.2431 32.5411C45.8003 31.2543 44.8255 30.8644 37.2608 38.429Z" fill="#FF6C37"/>
<path d="M41.6718 43.1083L39.4297 40.8662L47.6572 32.6387C49.8603 34.8613 46.5654 38.4681 41.6718 43.1083Z" fill="white"/>
<path d="M41.6676 43.3029C41.6091 43.3029 41.5701 43.2834 41.5311 43.2444L39.289 41.0023C39.25 40.9633 39.25 40.9243 39.25 40.8658C39.25 40.8074 39.2695 40.7684 39.3085 40.7294L47.536 32.5018C47.614 32.4239 47.731 32.4239 47.809 32.5018C48.3159 32.9698 48.5888 33.6326 48.5693 34.315C48.5303 36.4791 46.0738 39.2281 41.8235 43.2444C41.765 43.2834 41.7066 43.3029 41.6676 43.3029ZM39.6984 40.8658C40.9462 42.1331 41.4726 42.64 41.6676 42.835C44.943 39.7155 48.1209 36.5181 48.1404 34.315C48.1599 33.8081 47.9649 33.3012 47.6335 32.9113L39.6984 40.8658Z" fill="#FF6C37"/>
<path d="M37.0324 38.4861L38.6896 40.1433C38.7286 40.1823 38.7286 40.2213 38.6896 40.2603C38.6701 40.2798 38.6701 40.2798 38.6506 40.2798L35.2193 41.0206C35.0438 41.0401 34.8878 40.9232 34.8488 40.7477C34.8293 40.6502 34.8683 40.5527 34.9268 40.4942L36.9154 38.5056C36.9544 38.4666 37.0129 38.4471 37.0324 38.4861Z" fill="white"/>
<path d="M35.1553 41.2164C34.8629 41.2164 34.6484 40.9824 34.6484 40.69C34.6484 40.5535 34.7069 40.417 34.8044 40.3196L36.7931 38.3309C36.91 38.2334 37.066 38.2334 37.183 38.3309L38.8402 39.9881C38.9572 40.0856 38.9572 40.2611 38.8402 40.3781C38.8012 40.417 38.7622 40.4365 38.7037 40.456L35.2723 41.1969C35.2333 41.1969 35.1943 41.2164 35.1553 41.2164ZM36.9685 38.7014L35.0579 40.612C35.0189 40.651 34.9994 40.7095 35.0384 40.768C35.0579 40.8265 35.1164 40.846 35.1748 40.8265L38.3918 40.1246L36.9685 38.7014Z" fill="#FF6C37"/>
<path d="M51.8842 27.9586C50.6365 26.7498 48.6283 26.7888 47.4195 28.0561C46.2108 29.3234 46.2498 31.312 47.517 32.5208C48.5503 33.5151 50.1101 33.6906 51.3383 32.9497L49.1157 30.7271L51.8842 27.9586Z" fill="white"/>
<path d="M49.705 33.5935C47.8528 33.5935 46.3516 32.0923 46.3516 30.2401C46.3516 28.3879 47.8528 26.8867 49.705 26.8867C50.5628 26.8867 51.4012 27.2182 52.025 27.8225C52.064 27.8615 52.0835 27.9005 52.0835 27.959C52.0835 28.0175 52.064 28.0565 52.025 28.0955L49.393 30.7275L51.4596 32.7942C51.5376 32.8721 51.5376 32.9891 51.4596 33.0671C51.4401 33.0866 51.4401 33.0866 51.4206 33.1061C50.9137 33.418 50.3094 33.5935 49.705 33.5935ZM49.705 27.2961C48.0673 27.2961 46.7415 28.6219 46.761 30.2596C46.761 31.8973 48.0868 33.2231 49.7245 33.2036C50.1729 33.2036 50.6213 33.1061 51.0307 32.8916L48.9836 30.864C48.9446 30.825 48.9251 30.786 48.9251 30.7275C48.9251 30.669 48.9446 30.63 48.9836 30.5911L51.5961 27.9785C51.0697 27.5301 50.4068 27.2961 49.705 27.2961Z" fill="#FF6C37"/>
<path d="M51.9442 28.0175L51.9052 27.9785L49.1172 30.7275L51.3203 32.9306C51.5348 32.7941 51.7492 32.6382 51.9247 32.4627C53.1725 31.2344 53.1725 29.2458 51.9442 28.0175Z" fill="white"/>
<path d="M51.3394 33.1447C51.2809 33.1447 51.242 33.1252 51.203 33.0862L48.9804 30.8636C48.9414 30.8246 48.9219 30.7856 48.9219 30.7271C48.9219 30.6686 48.9414 30.6297 48.9804 30.5907L51.7489 27.8222C51.8269 27.7442 51.9438 27.7442 52.0218 27.8222L52.0803 27.8612C53.3866 29.1674 53.3866 31.273 52.0998 32.5988C51.9048 32.7938 51.6904 32.9692 51.4564 33.1057C51.3979 33.1252 51.3589 33.1447 51.3394 33.1447ZM49.3898 30.7271L51.3589 32.6963C51.5149 32.5988 51.6709 32.4623 51.7879 32.3453C52.8992 31.234 52.9576 29.4209 51.8853 28.2511L49.3898 30.7271Z" fill="#FF6C37"/>
<path d="M47.8667 32.8724C47.3988 32.4045 46.6384 32.4045 46.1705 32.8724L38.8203 40.2226L40.0486 41.4509L47.8277 34.6271C48.3346 34.1982 48.3736 33.4378 47.9447 32.9309C47.9057 32.9114 47.8862 32.8919 47.8667 32.8724Z" fill="white"/>
<path d="M40.0326 41.6455C39.9741 41.6455 39.9351 41.626 39.8961 41.587L38.6679 40.3587C38.5899 40.2807 38.5899 40.1638 38.6679 40.0858L46.018 32.7356C46.5639 32.1897 47.4413 32.1897 47.9872 32.7356C48.5331 33.2815 48.5331 34.1588 47.9872 34.7047C47.9677 34.7242 47.9482 34.7437 47.9287 34.7632L40.1496 41.587C40.1301 41.626 40.0911 41.6455 40.0326 41.6455ZM39.0968 40.2222L40.0521 41.1776L47.6947 34.4708C48.1237 34.1198 48.1627 33.4765 47.8117 33.0475C47.4608 32.6186 46.8174 32.5796 46.3885 32.9306C46.369 32.9501 46.3495 32.9696 46.3105 32.9891L39.0968 40.2222Z" fill="#FF6C37"/>
<path d="M33.1868 48.5869C33.1088 48.6258 33.0698 48.7038 33.0893 48.7818L33.4207 50.1856C33.4987 50.3805 33.3817 50.6145 33.1673 50.673C33.0113 50.7315 32.8358 50.673 32.7384 50.556L30.5938 48.4309L37.593 41.4316L40.0106 41.4706L41.6483 43.1083C41.2583 43.4398 38.8993 45.7209 33.1868 48.5869Z" fill="white"/>
<path d="M33.0305 50.8676C32.8746 50.8676 32.7186 50.8091 32.6211 50.6921L30.496 48.567C30.457 48.528 30.4375 48.489 30.4375 48.4305C30.4375 48.372 30.457 48.333 30.496 48.2941L37.4952 41.2948C37.5342 41.2558 37.5927 41.2363 37.6317 41.2363L40.0493 41.2753C40.1078 41.2753 40.1468 41.2948 40.1857 41.3338L41.8234 42.9715C41.8624 43.0105 41.8819 43.069 41.8819 43.1275C41.8819 43.186 41.8624 43.225 41.804 43.264L41.6675 43.3809C39.6008 45.1941 36.7934 47.0073 33.3035 48.7425L33.6349 50.1267C33.6934 50.3802 33.5764 50.6531 33.3425 50.7896C33.2255 50.8481 33.128 50.8676 33.0305 50.8676ZM30.8859 48.4305L32.8941 50.4192C32.9525 50.5167 33.0695 50.5556 33.167 50.4972C33.2645 50.4387 33.3035 50.3217 33.245 50.2242L32.9136 48.8205C32.8746 48.645 32.9525 48.489 33.1085 48.411C36.5594 46.6758 39.3474 44.8822 41.3945 43.108L39.9518 41.6653L37.7097 41.6263L30.8859 48.4305Z" fill="#FF6C37"/>
<path d="M28.9395 50.1064L30.6162 48.4297L33.1117 50.9252L29.1344 50.6523C28.959 50.6328 28.842 50.4768 28.8615 50.3014C28.8615 50.2234 28.881 50.1454 28.9395 50.1064Z" fill="white"/>
<path d="M33.1106 51.1003L29.1138 50.8274C28.8213 50.8079 28.6264 50.5544 28.6459 50.262C28.6654 50.145 28.7044 50.028 28.8018 49.95L30.4785 48.2733C30.5565 48.1953 30.6735 48.1953 30.7515 48.2733L33.247 50.7689C33.3055 50.8274 33.325 50.9054 33.286 50.9833C33.247 51.0613 33.1886 51.1003 33.1106 51.1003ZM30.615 48.7023L29.0748 50.2425C29.0163 50.2815 29.0163 50.379 29.0748 50.4179C29.0943 50.4374 29.1138 50.4569 29.1528 50.4569L32.6037 50.6909L30.615 48.7023Z" fill="#FF6C37"/>
<path d="M36.9137 42.328C36.7967 42.328 36.7188 42.2305 36.7188 42.133C36.7188 42.0745 36.7382 42.0355 36.7772 41.9965L38.6684 40.1054C38.7464 40.0274 38.8634 40.0274 38.9413 40.1054L40.1696 41.3336C40.2281 41.3921 40.2476 41.4506 40.2281 41.5286C40.2086 41.5871 40.1501 41.6456 40.0721 41.6651L36.9527 42.328C36.9332 42.328 36.9137 42.328 36.9137 42.328ZM38.8049 40.5148L37.5181 41.8016L39.6237 41.3531L38.8049 40.5148Z" fill="#FF6C37"/>
<path d="M40.0104 41.4705L37.8658 41.9384C37.7098 41.9774 37.5538 41.8799 37.5148 41.724C37.4953 41.6265 37.5148 41.529 37.5928 41.451L38.7821 40.2617L40.0104 41.4705Z" fill="white"/>
<path d="M37.8312 42.133C37.5582 42.133 37.3438 41.9185 37.3438 41.6456C37.3438 41.5091 37.4022 41.3921 37.4802 41.2946L38.6695 40.1054C38.7475 40.0274 38.8645 40.0274 38.9425 40.1054L40.1707 41.3336C40.2292 41.3921 40.2487 41.4506 40.2292 41.5286C40.2097 41.5871 40.1512 41.6456 40.0733 41.6651L37.9286 42.133C37.8897 42.133 37.8507 42.133 37.8312 42.133ZM38.806 40.5148L37.7532 41.5676C37.7142 41.6066 37.7142 41.6456 37.7337 41.6846C37.7532 41.7236 37.7922 41.7431 37.8507 41.7431L39.6443 41.3531L38.806 40.5148Z" fill="#FF6C37"/>
<path d="M51.9667 29.8887C51.9278 29.7718 51.7913 29.7133 51.6743 29.7523C51.5573 29.7913 51.4988 29.9277 51.5378 30.0447C51.5378 30.0642 51.5573 30.0837 51.5573 30.1032C51.6743 30.3372 51.6353 30.6296 51.4793 30.8441C51.4013 30.9416 51.4208 31.078 51.4988 31.156C51.5963 31.234 51.7328 31.2145 51.8108 31.117C52.1032 30.7466 52.1617 30.2787 51.9667 29.8887Z" fill="#FF6C37"/>
</g>
<defs>
<clipPath id="clip0_1_793">
<rect width="39" height="39" fill="white" transform="translate(21 20)"/>
</clipPath>
</defs>
</svg>
