<svg width="80" height="80" viewBox="0 0 80 80" fill="none" xmlns="http://www.w3.org/2000/svg">
<g clip-path="url(#clip0_1_482)">
<path d="M39.5 19C28.184 19 19 28.184 19 39.5C19 50.816 28.184 60 39.5 60C50.816 60 60 50.816 60 39.5C60 28.184 50.816 19 39.5 19Z" fill="#46483E"/>
<path d="M39.5381 52.6455C39.1683 52.6455 38.8397 52.5633 38.511 52.3579L35.3067 50.4682C34.8137 50.1806 35.0602 50.0985 35.2245 50.0574C35.8818 49.8109 36.0051 49.7698 36.6624 49.4001C36.7445 49.359 36.8267 49.359 36.9089 49.4412L39.3737 50.9201C39.4559 50.9612 39.5791 50.9612 39.6613 50.9201L49.2743 45.3741C49.3565 45.333 49.4387 45.2098 49.4387 45.1276V34.0357C49.4387 33.9124 49.3976 33.8303 49.2743 33.7892L39.7024 28.2021C39.6202 28.161 39.497 28.161 39.4148 28.2021L29.8018 33.707C29.7196 33.7481 29.6375 33.8713 29.6375 33.9535V45.0455C29.6375 45.1276 29.6785 45.2509 29.8018 45.2919L32.431 46.812C33.8688 47.5103 34.7315 46.6887 34.7315 45.826V34.9394C34.7315 34.7751 34.8548 34.6519 35.0191 34.6519H36.2516C36.4159 34.6519 36.5391 34.7751 36.5391 34.9394V45.8671C36.5391 47.7979 35.5121 48.866 33.7045 48.866C33.1294 48.866 32.7186 48.866 31.4861 48.2498L28.9802 46.812C28.3639 46.4422 27.9531 45.7849 27.9531 45.0455V33.9535C27.9531 33.2551 28.3229 32.5567 28.9802 32.187L38.5932 26.641C39.2094 26.3124 40.031 26.3124 40.6062 26.641L50.2192 32.187C50.8354 32.5567 51.2463 33.214 51.2463 33.9535V45.0455C51.2463 45.7438 50.8765 46.4422 50.2192 46.812L40.5651 52.399C40.2364 52.5633 39.9078 52.6455 39.5381 52.6455Z" fill="#81CF08"/>
<path d="M42.5394 45.0053C38.3491 45.0053 37.4453 43.0745 37.4453 41.4723C37.4453 41.308 37.5686 41.1847 37.7329 41.1847H38.9653C39.0886 41.1847 39.2118 41.2669 39.2529 41.4312C39.4172 42.7047 39.9924 43.321 42.5394 43.321C44.5524 43.321 45.4151 42.8691 45.4151 41.801C45.4151 41.1847 45.1686 40.7328 42.0053 40.4042C39.3761 40.1577 37.7329 39.5826 37.7329 37.4463C37.7329 35.5155 39.3761 34.3652 42.1286 34.3652C45.2097 34.3652 46.7297 35.4333 46.9351 37.7339C46.9351 37.8161 46.894 37.8982 46.8529 37.9393C46.8119 37.9804 46.7297 38.0215 46.6475 38.0215H45.4151C45.2919 38.0215 45.1686 37.9393 45.1275 37.8161C44.84 36.5015 44.1005 36.0496 42.1286 36.0496C39.9102 36.0496 39.6637 36.8301 39.6637 37.4053C39.6637 38.1036 39.9513 38.309 42.9502 38.7199C45.9081 39.0896 47.3048 39.6647 47.3048 41.7188C47.3048 43.8139 45.5794 45.0053 42.5394 45.0053Z" fill="#81CF08"/>
</g>
<defs>
<clipPath id="clip0_1_482">
<rect width="41" height="41" fill="white" transform="translate(19 19)"/>
</clipPath>
</defs>
</svg>
