<svg width="80" height="80" viewBox="0 0 80 80" fill="none" xmlns="http://www.w3.org/2000/svg">
<g clip-path="url(#clip0_1_680)">
<path d="M50.8615 18H29.1312C22.9836 18 18 22.9836 18 29.1312V50.8615C18 57.0088 22.9836 61.9924 29.1312 61.9924H50.8615C57.0088 61.9924 61.9924 57.0088 61.9924 50.8615V29.1312C61.9924 22.9836 57.0088 18 50.8615 18Z" fill="#00DDB3"/>
<path d="M51.4335 27.8535C43.861 27.8535 41.0549 33.2604 38.7984 37.604L37.3242 40.3831C34.9352 44.9895 33.1498 47.7897 28.5495 47.7897C28.2639 47.7896 27.981 47.8457 27.7171 47.955C27.4532 48.0643 27.2134 48.2246 27.0115 48.4266C26.8096 48.6286 26.6495 48.8683 26.5403 49.1321C26.4311 49.396 26.3749 49.6787 26.375 49.9643C26.3751 50.2498 26.4314 50.5325 26.5408 50.7963C26.6501 51.0601 26.8104 51.2997 27.0124 51.5015C27.4201 51.9092 27.9729 52.1387 28.5495 52.1395C36.1252 52.1395 38.9313 46.7323 41.1877 42.389L42.6589 39.61C45.051 35.0032 46.8363 32.2033 51.4335 32.2033C51.7194 32.2038 52.0026 32.1479 52.2669 32.0387C52.5311 31.9296 52.7713 31.7694 52.9735 31.5673C53.1758 31.3653 53.3362 31.1254 53.4457 30.8614C53.5552 30.5973 53.6115 30.3143 53.6115 30.0284C53.6104 29.4514 53.3804 28.8984 52.9721 28.4908C52.5638 28.0831 52.0105 27.854 51.4335 27.8538V27.8535Z" fill="white"/>
</g>
<defs>
<clipPath id="clip0_1_680">
<rect width="44" height="44" fill="white" transform="translate(18 18)"/>
</clipPath>
</defs>
</svg>
