<svg width="80" height="80" viewBox="0 0 80 80" fill="none" xmlns="http://www.w3.org/2000/svg">
<g clip-path="url(#clip0_1_591)">
<path d="M39.9749 56.9764L46.9676 35.4668H32.9922L39.9749 56.9764Z" fill="#E24329"/>
<path d="M23.2004 35.4668L21.0709 42.0017C20.8782 42.5951 21.0863 43.2501 21.595 43.6199L39.9776 56.9763L23.2004 35.4668Z" fill="#FCA326"/>
<path d="M23.2031 35.4669H32.9977L28.7824 22.5127C28.5666 21.8499 27.6264 21.8499 27.4029 22.5127L23.2031 35.4669Z" fill="#E24329"/>
<path d="M56.7639 35.4668L58.8857 42.0017C59.0784 42.5951 58.8703 43.2501 58.3617 43.6199L39.9766 56.9764L56.7639 35.4668Z" fill="#FCA326"/>
<path d="M56.7633 35.4669H46.9688L51.1763 22.5127C51.392 21.8499 52.3323 21.8499 52.5558 22.5127L56.7633 35.4669Z" fill="#E24329"/>
<path d="M39.9766 56.9764L46.9693 35.4668H56.7639L39.9766 56.9764Z" fill="#FC6D26"/>
<path d="M39.9804 56.9764L23.2031 35.4668H32.9977L39.9804 56.9764Z" fill="#FC6D26"/>
</g>
<defs>
<clipPath id="clip0_1_591">
<rect width="38" height="34.9645" fill="white" transform="translate(21 22.0176)"/>
</clipPath>
</defs>
</svg>
