<svg width="80" height="80" viewBox="0 0 80 80" fill="none" xmlns="http://www.w3.org/2000/svg">
<g clip-path="url(#clip0_1_732)">
<path d="M17.9445 29.3785C17.6149 29.5747 17.0655 30.1241 16.4141 30.9207L17.0145 32.0548C17.4343 31.4504 17.866 30.9089 18.2977 30.4458C18.3291 30.4105 18.3487 30.3909 18.3487 30.3909C18.333 30.4105 18.3134 30.4262 18.2977 30.4458C18.1564 30.5989 17.7326 31.0933 17.0929 32.0783C17.709 32.0469 18.6548 31.9213 19.4278 31.7879C19.6593 30.5008 19.2041 29.9122 19.2041 29.9122C19.2041 29.9122 18.6234 28.9743 17.9445 29.3785Z" fill="url(#paint0_linear_1_732)"/>
<path d="M15.923 38.8984C15.8445 38.9141 15.766 38.9259 15.6875 38.9377C15.7267 38.9338 15.7699 38.9259 15.8091 38.9181C15.8484 38.9141 15.8876 38.9063 15.923 38.8984Z" fill="#BE202E"/>
<path opacity="0.35" d="M15.923 38.8984C15.8445 38.9141 15.766 38.9259 15.6875 38.9377C15.7267 38.9338 15.7699 38.9259 15.8091 38.9181C15.8484 38.9141 15.8876 38.9063 15.923 38.8984Z" fill="#BE202E"/>
<path d="M16.1279 37.9064C16.124 37.9064 16.124 37.9064 16.1279 37.9064C16.1397 37.9064 16.1515 37.9025 16.1633 37.9025C16.2143 37.8946 16.2653 37.8868 16.3124 37.875C16.2535 37.8868 16.1907 37.8946 16.1279 37.9064Z" fill="#BE202E"/>
<path opacity="0.35" d="M16.1279 37.9064C16.124 37.9064 16.124 37.9064 16.1279 37.9064C16.1397 37.9064 16.1515 37.9025 16.1633 37.9025C16.2143 37.8946 16.2653 37.8868 16.3124 37.875C16.2535 37.8868 16.1907 37.8946 16.1279 37.9064Z" fill="#BE202E"/>
<path d="M15.2403 34.9814C15.4247 34.64 15.6091 34.3065 15.7936 33.9808C15.9859 33.6433 16.1821 33.3176 16.3822 32.9997C16.394 32.9801 16.4057 32.9605 16.4175 32.9448C16.6137 32.6348 16.8099 32.3365 17.0101 32.0501L16.4097 30.9199C16.3665 30.9749 16.3194 31.0298 16.2723 31.0887C16.0997 31.3045 15.9192 31.536 15.7347 31.7832C15.5267 32.0619 15.3148 32.3562 15.0951 32.6662C14.8949 32.9526 14.6909 33.2548 14.4868 33.5648C14.3142 33.8317 14.1415 34.1024 13.9688 34.381C13.961 34.3928 13.9571 34.4007 13.9492 34.4124L14.7301 35.9546C14.9028 35.6289 15.0715 35.3032 15.2403 34.9814Z" fill="url(#paint1_linear_1_732)"/>
<path d="M11.6826 43.6822C11.5805 43.9648 11.4746 44.2552 11.3725 44.5534C11.3725 44.5573 11.3686 44.5613 11.3686 44.5652C11.3529 44.6084 11.3372 44.6476 11.3255 44.6908C11.2548 44.8909 11.196 45.0714 11.0547 45.4795C11.2862 45.5855 11.4706 45.8602 11.6433 46.1741C11.6237 45.8484 11.4903 45.5423 11.2352 45.3069C12.3693 45.3579 13.3503 45.0714 13.8526 44.2395C13.8958 44.1649 13.939 44.0864 13.9782 44.004C13.7467 44.2944 13.4641 44.42 12.9265 44.3886C13.7153 44.0354 14.1116 43.694 14.4609 43.1329C14.5433 42.9994 14.6257 42.8543 14.7081 42.6934C14.0174 43.4036 13.2169 43.6038 12.3732 43.4507L11.7414 43.5214C11.7218 43.5763 11.7022 43.6273 11.6826 43.6822Z" fill="url(#paint2_linear_1_732)"/>
<path d="M11.9742 42.2643C12.1116 41.9112 12.2528 41.5541 12.3941 41.1931C12.5314 40.8477 12.6727 40.5024 12.8179 40.1531C12.9631 39.8039 13.1122 39.4546 13.2613 39.1054C13.4144 38.7483 13.5714 38.3951 13.7322 38.0419C13.8892 37.6927 14.054 37.3434 14.2149 36.9981C14.2738 36.8725 14.3326 36.7509 14.3954 36.6253C14.4975 36.4134 14.6034 36.2015 14.7094 35.9896C14.7133 35.9778 14.7211 35.9661 14.7251 35.9543L13.952 34.416C13.9402 34.4356 13.9284 34.4592 13.9128 34.4788C13.7322 34.777 13.5478 35.0792 13.3712 35.3892C13.1907 35.7031 13.0141 36.021 12.8415 36.3467C12.6963 36.6214 12.555 36.8961 12.4137 37.1747C12.3863 37.2296 12.3588 37.2885 12.3313 37.3434C12.1626 37.6927 12.0056 38.0341 11.8683 38.3598C11.7113 38.7287 11.5739 39.0818 11.4523 39.4154C11.3738 39.6352 11.2993 39.8471 11.2325 40.0511C11.1776 40.2238 11.1266 40.4004 11.0756 40.573C10.9579 40.9811 10.8598 41.3893 10.7773 41.7974L11.5622 43.3474C11.6642 43.0688 11.7741 42.7902 11.88 42.5037C11.9114 42.4252 11.9428 42.3468 11.9742 42.2643Z" fill="url(#paint3_linear_1_732)"/>
<path d="M10.7659 41.8538C10.6678 42.3482 10.5971 42.8427 10.5618 43.3371C10.5618 43.3528 10.5579 43.3724 10.5579 43.3881C10.3146 42.9957 9.65534 42.6111 9.65926 42.6151C10.1302 43.2979 10.4873 43.9728 10.5383 44.636C10.2871 44.687 9.9418 44.6125 9.54546 44.4673C9.96142 44.8479 10.2714 44.9539 10.3931 44.9813C10.0124 45.0049 9.61609 45.2678 9.21583 45.57C9.80053 45.3306 10.2754 45.2364 10.6128 45.3149C10.0752 46.8335 9.53761 48.5131 9 50.2946C9.16482 50.2476 9.26292 50.1338 9.31786 49.9846C9.41204 49.6629 10.0517 47.5438 11.0484 44.7616C11.0759 44.6831 11.1073 44.6046 11.1347 44.5222C11.1426 44.4987 11.1504 44.479 11.1583 44.4555C11.2642 44.1651 11.3741 43.8669 11.4879 43.5608C11.5154 43.4901 11.5389 43.4234 11.5664 43.3528V43.3489L10.7816 41.7988C10.7737 41.8184 10.7698 41.8341 10.7659 41.8538Z" fill="url(#paint4_linear_1_732)"/>
<path d="M14.8541 36.0887C14.8305 36.1358 14.8109 36.179 14.7874 36.2261C14.7206 36.3673 14.65 36.5086 14.5833 36.6538C14.5087 36.8108 14.4342 36.9717 14.3557 37.1365C14.3165 37.2189 14.2772 37.3013 14.238 37.3876C14.1203 37.6427 14.0025 37.9056 13.8809 38.1764C13.7318 38.5099 13.5826 38.8553 13.4296 39.2163C13.2844 39.5577 13.1353 39.9148 12.9862 40.2797C12.8449 40.629 12.6997 40.9861 12.5545 41.3589C12.425 41.6885 12.2955 42.0299 12.1621 42.3792C12.1542 42.3949 12.1503 42.4145 12.1425 42.4302C12.013 42.7755 11.8796 43.1326 11.7461 43.4975C11.7422 43.5054 11.7383 43.5132 11.7383 43.5211L12.3701 43.4505C12.3583 43.4465 12.3465 43.4465 12.3308 43.4426C13.0882 43.3484 14.0928 42.7833 14.7403 42.0848C15.0385 41.7631 15.3093 41.3863 15.5604 40.9429C15.7488 40.6133 15.9214 40.2483 16.0902 39.8402C16.2354 39.487 16.3766 39.1025 16.5101 38.6865C16.3374 38.7768 16.1373 38.8435 15.9175 38.8906C15.8783 38.8984 15.839 38.9063 15.7998 38.9141C15.7606 38.922 15.7213 38.9259 15.6781 38.9337C16.3845 38.663 16.8279 38.1411 17.1497 37.4975C16.9653 37.6231 16.6631 37.7879 16.3021 37.8703C16.255 37.8821 16.204 37.8899 16.153 37.8978C16.1412 37.8978 16.1294 37.9017 16.1137 37.9017C16.357 37.7997 16.565 37.6859 16.7455 37.5485C16.7848 37.521 16.8201 37.4896 16.8554 37.4582C16.9103 37.4112 16.9613 37.3601 17.0124 37.3091C17.0438 37.2738 17.0751 37.2424 17.1065 37.2071C17.1772 37.1247 17.2439 37.0344 17.3027 36.9363C17.3224 36.9049 17.342 36.8775 17.3577 36.8461C17.3812 36.799 17.4048 36.7558 17.4244 36.7127C17.5225 36.5164 17.601 36.3399 17.6638 36.1829C17.6952 36.1044 17.7226 36.0338 17.7462 35.9671C17.754 35.9396 17.7658 35.9161 17.7736 35.8886C17.7972 35.814 17.8207 35.7473 17.8364 35.6884C17.86 35.6021 17.8757 35.5315 17.8835 35.4805C17.86 35.5001 17.8325 35.5197 17.8011 35.5354C17.5892 35.661 17.2243 35.7787 16.93 35.8336C16.926 35.8336 16.9221 35.8336 16.9182 35.8376C16.8907 35.8415 16.8593 35.8454 16.8279 35.8533C16.8318 35.8493 16.8397 35.8493 16.8436 35.8454L14.858 36.0612C14.8619 36.0769 14.858 36.0848 14.8541 36.0887Z" fill="url(#paint5_linear_1_732)"/>
<path d="M17.0922 32.0794C16.9156 32.3502 16.7233 32.6602 16.5153 33.0055C16.5036 33.0252 16.4918 33.0409 16.4839 33.0605C16.3034 33.3626 16.1151 33.6923 15.9149 34.0572C15.7423 34.3711 15.5618 34.7047 15.3734 35.0696C15.2086 35.3836 15.0438 35.7171 14.8672 36.0703L16.8528 35.8545C17.4297 35.5876 17.6887 35.3483 17.9398 34.999C18.0065 34.9048 18.0732 34.8028 18.1399 34.6969C18.344 34.379 18.5441 34.0297 18.7207 33.6805C18.8934 33.343 19.0464 33.0095 19.1602 32.7112C19.2348 32.5189 19.2936 32.3424 19.3368 32.1854C19.3721 32.048 19.3996 31.9185 19.4231 31.793C18.654 31.9225 17.7083 32.048 17.0922 32.0794Z" fill="url(#paint6_linear_1_732)"/>
<path d="M15.8091 38.9219C15.7699 38.9297 15.7307 38.9336 15.6875 38.9415C15.7267 38.9336 15.766 38.9258 15.8091 38.9219Z" fill="#BE202E"/>
<path opacity="0.35" d="M15.8091 38.9219C15.7699 38.9297 15.7307 38.9336 15.6875 38.9415C15.7267 38.9336 15.766 38.9258 15.8091 38.9219Z" fill="#BE202E"/>
<path d="M15.8091 38.9219C15.7699 38.9297 15.7307 38.9336 15.6875 38.9415C15.7267 38.9336 15.766 38.9258 15.8091 38.9219Z" fill="url(#paint7_linear_1_732)"/>
<path d="M16.125 37.9063C16.1368 37.9063 16.1485 37.9023 16.1642 37.9023C16.1525 37.9023 16.1407 37.9063 16.125 37.9063Z" fill="#BE202E"/>
<path opacity="0.35" d="M16.125 37.9063C16.1368 37.9063 16.1485 37.9023 16.1642 37.9023C16.1525 37.9023 16.1407 37.9063 16.125 37.9063Z" fill="#BE202E"/>
<path d="M16.125 37.9063C16.1368 37.9063 16.1485 37.9023 16.1642 37.9023C16.1525 37.9023 16.1407 37.9063 16.125 37.9063Z" fill="url(#paint8_linear_1_732)"/>
<path d="M17.0377 35.8187V36.1056H16.9571V35.8187H16.8555V35.75H17.1363V35.8187H17.0377Z" fill="#B0AFB0"/>
<path d="M17.512 35.8815L17.4164 36.0757H17.3686L17.273 35.8815V36.1056H17.1953V35.75H17.3029L17.3955 35.9442L17.4881 35.75H17.5957V36.1056H17.518V35.8815H17.512Z" fill="#B0AFB0"/>
<path d="M20.2963 49.7353C19.9648 49.7353 19.674 49.7174 19.4241 49.6817C19.1742 49.6511 18.9625 49.6129 18.7891 49.567V47.593C18.9778 47.6338 19.1767 47.6695 19.3858 47.7001C19.5899 47.7307 19.8143 47.746 20.0591 47.746C20.2937 47.746 20.5105 47.7205 20.7094 47.6695C20.9135 47.6185 21.0894 47.5293 21.2374 47.4018C21.3904 47.2793 21.5077 47.1136 21.5893 46.9044C21.676 46.6953 21.7194 46.4326 21.7194 46.1164V35.2598H24.0911V46.0399C24.0911 46.6826 23.9968 47.236 23.8081 47.7001C23.6244 48.1643 23.3643 48.5468 23.0277 48.8478C22.6961 49.1538 22.2983 49.3782 21.8341 49.5211C21.37 49.6639 20.8574 49.7353 20.2963 49.7353Z" fill="url(#paint9_linear_1_732)" stroke="#D22128" stroke-width="0.0974915"/>
<path d="M29.862 46.4454L27.4061 37.6698H27.3372C27.3678 38.1391 27.3933 38.593 27.4137 39.0317C27.4239 39.2204 27.4316 39.4142 27.4367 39.6131C27.4469 39.8121 27.4545 40.0084 27.4596 40.2023C27.4698 40.3961 27.4749 40.5823 27.4749 40.7608C27.48 40.9393 27.4826 41.1 27.4826 41.2428V46.4454H25.3633V35.2598H28.592L31.0097 43.8135H31.0556L33.6263 35.2598H36.8549V46.4454H34.6438V41.151C34.6438 41.0184 34.6438 40.8679 34.6438 40.6996C34.6489 40.5312 34.654 40.3527 34.6591 40.164C34.6642 39.9753 34.6693 39.784 34.6744 39.5902C34.6846 39.3964 34.6923 39.2076 34.6974 39.024C34.7178 38.5956 34.7356 38.1493 34.7509 37.6851H34.6897L32.0425 46.4454H29.862Z" fill="#111111"/>
<path d="M41.5973 39.3907C41.1841 39.3907 40.8398 39.5361 40.5644 39.8268C40.2941 40.1176 40.1385 40.5741 40.0977 41.1963H43.0739C43.0688 40.9362 43.0356 40.6965 42.9744 40.4771C42.9132 40.2578 42.8214 40.0691 42.699 39.911C42.5766 39.7478 42.4236 39.6203 42.24 39.5284C42.0563 39.4366 41.8421 39.3907 41.5973 39.3907ZM41.8957 46.5979C41.2836 46.5979 40.72 46.5086 40.2048 46.3301C39.6896 46.1516 39.2459 45.8838 38.8736 45.5267C38.5012 45.1646 38.2105 44.7106 38.0014 44.1649C37.7973 43.614 37.6953 42.9688 37.6953 42.2292C37.6953 41.4794 37.7897 40.824 37.9784 40.2629C38.1671 39.7019 38.4298 39.2352 38.7664 38.8628C39.1082 38.4854 39.5162 38.2023 39.9906 38.0136C40.47 37.8248 41.0005 37.7305 41.582 37.7305C42.1481 37.7305 42.6582 37.8172 43.1122 37.9906C43.5712 38.1589 43.9589 38.4089 44.2751 38.7404C44.5964 39.0719 44.8413 39.48 45.0096 39.9645C45.183 40.444 45.2697 40.9949 45.2697 41.6171V42.7495H40.0518C40.062 43.0759 40.113 43.3717 40.2048 43.637C40.3017 43.8971 40.4343 44.119 40.6027 44.3026C40.7761 44.4811 40.9826 44.6188 41.2224 44.7157C41.4672 44.8127 41.7452 44.8611 42.0563 44.8611C42.3165 44.8611 42.5613 44.8484 42.7908 44.8229C43.0254 44.7923 43.2524 44.7489 43.4717 44.6928C43.6911 44.6367 43.9078 44.5678 44.1221 44.4862C44.3363 44.3995 44.5556 44.3001 44.7801 44.1878V45.9934C44.576 46.1006 44.3694 46.1924 44.1603 46.2689C43.9563 46.3403 43.7395 46.4015 43.51 46.4525C43.2805 46.5035 43.0331 46.5392 42.7679 46.5596C42.5026 46.5851 42.2119 46.5979 41.8957 46.5979Z" fill="#111111"/>
<path d="M49.9513 44.7388C50.1809 44.7388 50.3976 44.7133 50.6017 44.6623C50.8108 44.6113 51.0225 44.5475 51.2367 44.471V46.2078C51.0174 46.32 50.7445 46.4118 50.4181 46.4832C50.0967 46.5597 49.7448 46.598 49.3622 46.598C48.9899 46.598 48.643 46.5546 48.3217 46.4679C48.0004 46.3812 47.7224 46.2307 47.4878 46.0165C47.2531 45.7972 47.0669 45.5064 46.9292 45.1443C46.7966 44.777 46.7303 44.318 46.7303 43.7671V39.6433H45.6133V38.6563L46.8986 37.8759L47.5719 36.0703H49.0638V37.8912H51.1449V39.6433H49.0638V43.7671C49.0638 44.0987 49.1454 44.3435 49.3087 44.5016C49.4719 44.6597 49.6861 44.7388 49.9513 44.7388Z" fill="#111111"/>
<path d="M55.6442 39.3907C55.231 39.3907 54.8867 39.5361 54.6113 39.8268C54.3409 40.1176 54.1854 40.5741 54.1446 41.1963H57.1208C57.1157 40.9362 57.0825 40.6965 57.0213 40.4771C56.9601 40.2578 56.8683 40.0691 56.7459 39.911C56.6235 39.7478 56.4704 39.6203 56.2868 39.5284C56.1032 39.4366 55.889 39.3907 55.6442 39.3907ZM55.9425 46.5979C55.3305 46.5979 54.7668 46.5086 54.2517 46.3301C53.7365 46.1516 53.2928 45.8838 52.9204 45.5267C52.5481 45.1646 52.2573 44.7106 52.0482 44.1649C51.8442 43.614 51.7422 42.9688 51.7422 42.2292C51.7422 41.4794 51.8365 40.824 52.0253 40.2629C52.214 39.7019 52.4767 39.2352 52.8133 38.8628C53.1551 38.4854 53.5631 38.2023 54.0375 38.0136C54.5169 37.8248 55.0474 37.7305 55.6288 37.7305C56.195 37.7305 56.7051 37.8172 57.159 37.9906C57.6181 38.1589 58.0057 38.4089 58.322 38.7404C58.6433 39.0719 58.8881 39.48 59.0565 39.9645C59.2299 40.444 59.3166 40.9949 59.3166 41.6171V42.7495H54.0987C54.1089 43.0759 54.1599 43.3717 54.2517 43.637C54.3486 43.8971 54.4812 44.119 54.6495 44.3026C54.8229 44.4811 55.0295 44.6188 55.2693 44.7157C55.5141 44.8127 55.7921 44.8611 56.1032 44.8611C56.3633 44.8611 56.6082 44.8484 56.8377 44.8229C57.0723 44.7923 57.2993 44.7489 57.5186 44.6928C57.7379 44.6367 57.9547 44.5678 58.1689 44.4862C58.3832 44.3995 58.6025 44.3001 58.8269 44.1878V45.9934C58.6229 46.1006 58.4163 46.1924 58.2072 46.2689C58.0032 46.3403 57.7864 46.4015 57.5569 46.4525C57.3273 46.5035 57.08 46.5392 56.8147 46.5596C56.5495 46.5851 56.2588 46.5979 55.9425 46.5979Z" fill="#111111"/>
<path d="M64.398 37.7305C64.4592 37.7305 64.5255 37.733 64.5969 37.7381C64.6734 37.7381 64.7448 37.7432 64.8111 37.7534C64.8825 37.7585 64.9463 37.7662 65.0024 37.7764C65.0636 37.7815 65.1095 37.7891 65.1401 37.7993V39.9875C65.0993 39.9773 65.0432 39.9671 64.9718 39.9569C64.9004 39.9467 64.8239 39.939 64.7423 39.9339C64.6658 39.9237 64.5892 39.9186 64.5127 39.9186C64.4362 39.9135 64.3725 39.911 64.3215 39.911C64.0205 39.911 63.7425 39.9492 63.4875 40.0257C63.2376 40.1023 63.0208 40.2272 62.8372 40.4006C62.6587 40.569 62.5184 40.7934 62.4164 41.0739C62.3195 41.3494 62.271 41.6885 62.271 42.0915V46.4449H59.9375V37.8911H61.7049L62.0492 39.1765H62.1639C62.2863 38.9572 62.4189 38.7582 62.5618 38.5797C62.7046 38.4012 62.8627 38.2507 63.0361 38.1283C63.2146 38.0008 63.4136 37.9039 63.6329 37.8376C63.8573 37.7662 64.1123 37.7305 64.398 37.7305Z" fill="#111111"/>
<path d="M67.4864 37.7101H66.9677V35.689H66.3516V35.2559H68.1008V35.689H67.4864V37.7101Z" fill="#111111"/>
<path d="M69.4676 37.7101L68.9287 35.7847H68.9136C68.9203 35.8876 68.9259 35.9872 68.9304 36.0835C68.9326 36.1249 68.9343 36.1674 68.9354 36.211C68.9376 36.2547 68.9393 36.2978 68.9404 36.3403C68.9427 36.3828 68.9438 36.4237 68.9438 36.4629C68.9449 36.502 68.9455 36.5373 68.9455 36.5686V37.7101H68.4805V35.2559H69.1889L69.7194 37.1327H69.7294L70.2935 35.2559H71.0019V37.7101H70.5167V36.5485C70.5167 36.5194 70.5167 36.4864 70.5167 36.4494C70.5179 36.4125 70.519 36.3733 70.5201 36.3319C70.5212 36.2905 70.5223 36.2485 70.5235 36.206C70.5257 36.1635 70.5274 36.1221 70.5285 36.0818C70.533 35.9878 70.5369 35.8899 70.5402 35.788H70.5268L69.946 37.7101H69.4676Z" fill="#111111"/>
<path d="M21.6875 33.5382L23.3628 29.5352H23.6856L25.3609 33.5382H24.9396L24.4196 32.2877H22.6186L22.1055 33.5382H21.6875ZM23.5259 29.9973L22.7036 31.975H24.3279L23.5259 29.9973Z" fill="#D22128"/>
<path d="M25.7891 33.5382V29.5352H27.4474C28.1338 29.5352 28.6299 30.1706 28.6299 30.7925C28.6299 31.4449 28.1678 32.06 27.4814 32.06H26.1799V33.5382H25.7891ZM26.1799 31.71H27.461C27.9333 31.71 28.2392 31.275 28.2392 30.7925C28.2392 30.2896 27.8687 29.8852 27.427 29.8852H26.1799V31.71Z" fill="#D22128"/>
<path d="M28.4141 33.5382L30.0894 29.5352H30.4122L32.0875 33.5382H31.6593L31.1394 32.2877H29.3418L28.8286 33.5382H28.4141ZM30.2525 29.9973L29.4301 31.975H31.0544L30.2525 29.9973Z" fill="#D22128"/>
<path d="M33.9777 29.5117C34.6879 29.5117 35.2078 29.8719 35.4559 30.3851L35.1399 30.5753C34.885 30.0452 34.3889 29.8651 33.9573 29.8651C32.999 29.8651 32.4757 30.7215 32.4757 31.5268C32.4757 32.4104 33.1248 33.2123 33.9743 33.2123C34.4263 33.2123 34.9564 32.9881 35.2078 32.4681L35.5341 32.638C35.2758 33.2361 34.5656 33.5691 33.9505 33.5691C32.8529 33.5691 32.0781 32.5191 32.0781 31.5065C32.0781 30.5448 32.7714 29.5117 33.9777 29.5117Z" fill="#D22128"/>
<path d="M39.2394 29.5352V33.5382H38.8453V31.6658H36.4733V33.5382H36.0859V29.5352H36.4733V31.3158H38.8453V29.5352H39.2394Z" fill="#D22128"/>
<path d="M42.8286 33.1882V33.5382H40.1406V29.5352H42.7776V29.8852H40.528V31.3294H42.4888V31.6624H40.528V33.1882H42.8286Z" fill="#D22128"/>
</g>
<defs>
<linearGradient id="paint0_linear_1_732" x1="16.9263" y1="31.0576" x2="21.3265" y2="29.8342" gradientUnits="userSpaceOnUse">
<stop stop-color="#F69923"/>
<stop offset="0.3123" stop-color="#F79A23"/>
<stop offset="0.8383" stop-color="#E97826"/>
</linearGradient>
<linearGradient id="paint1_linear_1_732" x1="7.29445" y1="50.8055" x2="16.2443" y2="31.612" gradientUnits="userSpaceOnUse">
<stop offset="0.3233" stop-color="#9E2064"/>
<stop offset="0.6302" stop-color="#C92037"/>
<stop offset="0.7514" stop-color="#CD2335"/>
<stop offset="1" stop-color="#E97826"/>
</linearGradient>
<linearGradient id="paint2_linear_1_732" x1="10.3014" y1="49.3872" x2="15.6346" y2="37.9497" gradientUnits="userSpaceOnUse">
<stop stop-color="#282662"/>
<stop offset="0.0954839" stop-color="#662E8D"/>
<stop offset="0.7882" stop-color="#9F2064"/>
<stop offset="0.9487" stop-color="#CD2032"/>
</linearGradient>
<linearGradient id="paint3_linear_1_732" x1="7.61711" y1="49.6438" x2="16.5669" y2="30.4502" gradientUnits="userSpaceOnUse">
<stop offset="0.3233" stop-color="#9E2064"/>
<stop offset="0.6302" stop-color="#C92037"/>
<stop offset="0.7514" stop-color="#CD2335"/>
<stop offset="1" stop-color="#E97826"/>
</linearGradient>
<linearGradient id="paint4_linear_1_732" x1="8.52982" y1="48.3665" x2="13.2332" y2="38.2797" gradientUnits="userSpaceOnUse">
<stop stop-color="#282662"/>
<stop offset="0.0954839" stop-color="#662E8D"/>
<stop offset="0.7882" stop-color="#9F2064"/>
<stop offset="0.9487" stop-color="#CD2032"/>
</linearGradient>
<linearGradient id="paint5_linear_1_732" x1="9.60309" y1="50.5711" x2="18.5529" y2="31.3775" gradientUnits="userSpaceOnUse">
<stop offset="0.3233" stop-color="#9E2064"/>
<stop offset="0.6302" stop-color="#C92037"/>
<stop offset="0.7514" stop-color="#CD2335"/>
<stop offset="1" stop-color="#E97826"/>
</linearGradient>
<linearGradient id="paint6_linear_1_732" x1="8.95062" y1="51.7169" x2="17.9004" y2="32.5233" gradientUnits="userSpaceOnUse">
<stop offset="0.3233" stop-color="#9E2064"/>
<stop offset="0.6302" stop-color="#C92037"/>
<stop offset="0.7514" stop-color="#CD2335"/>
<stop offset="1" stop-color="#E97826"/>
</linearGradient>
<linearGradient id="paint7_linear_1_732" x1="10.1954" y1="50.8465" x2="19.1453" y2="31.6529" gradientUnits="userSpaceOnUse">
<stop offset="0.3233" stop-color="#9E2064"/>
<stop offset="0.6302" stop-color="#C92037"/>
<stop offset="0.7514" stop-color="#CD2335"/>
<stop offset="1" stop-color="#E97826"/>
</linearGradient>
<linearGradient id="paint8_linear_1_732" x1="10.1297" y1="50.8145" x2="19.0782" y2="31.6221" gradientUnits="userSpaceOnUse">
<stop offset="0.3233" stop-color="#9E2064"/>
<stop offset="0.6302" stop-color="#C92037"/>
<stop offset="0.7514" stop-color="#CD2335"/>
<stop offset="1" stop-color="#E97826"/>
</linearGradient>
<linearGradient id="paint9_linear_1_732" x1="441.413" y1="-625.844" x2="443.654" y2="-630.649" gradientUnits="userSpaceOnUse">
<stop stop-color="#F69923"/>
<stop offset="0.3123" stop-color="#F79A23"/>
<stop offset="0.8383" stop-color="#E97826"/>
</linearGradient>
<clipPath id="clip0_1_732">
<rect width="62" height="21.0169" fill="white" transform="translate(9 29.2793)"/>
</clipPath>
</defs>
</svg>
