<svg width="80" height="80" viewBox="0 0 80 80" fill="none" xmlns="http://www.w3.org/2000/svg">
<g clip-path="url(#clip0_1_528)">
<path fill-rule="evenodd" clip-rule="evenodd" d="M42.2455 43.8068L42.9818 43.8109C42.8063 43.9117 42.4835 43.8754 42.2455 43.8754V43.8089V43.8068ZM42.0438 43.7403C42.1083 43.6757 42.2576 43.825 42.1224 43.7766C42.1204 43.7766 41.953 43.8311 42.0438 43.7403ZM40.2242 43.2682C40.2302 43.2622 40.2443 43.2783 40.2443 43.2884C40.2443 43.2924 40.2524 43.2965 40.2524 43.2965C40.2504 43.2945 40.1334 43.359 40.2242 43.2682ZM40.0225 43.2017C40.0285 43.1956 40.0426 43.2118 40.0426 43.2218C40.0426 43.2259 40.0507 43.2299 40.0507 43.2299C40.0487 43.2279 39.9317 43.2924 40.0225 43.2017ZM39.8207 43.1351C39.8853 43.0705 40.0346 43.2198 39.8994 43.1714C39.8974 43.1714 39.7299 43.2259 39.8207 43.1351ZM41.9106 43.0685C41.9167 43.0625 41.9308 43.0786 41.9308 43.0887C41.9308 43.0927 41.9389 43.0968 41.9389 43.0968C41.9368 43.0947 41.8198 43.1593 41.9106 43.0685ZM41.5677 43.0524L41.372 43.0726C41.4083 43.0463 41.3458 42.9293 41.5677 43.0524ZM41.1017 42.9354C41.1662 42.8708 41.3135 43.0201 41.1804 42.9717C41.1783 42.9717 41.0109 43.0262 41.1017 42.9354ZM45.0112 42.8688C45.0757 42.8043 45.223 42.9535 45.0898 42.9051C45.0878 42.9051 44.9204 42.9596 45.0112 42.8688ZM40.7648 42.8688C40.8294 42.8043 40.9766 42.9535 40.8435 42.9051C40.8415 42.9051 40.672 42.9596 40.7648 42.8688ZM45.2795 42.8022C45.2855 42.7962 45.2996 42.8123 45.2996 42.8224C45.2996 42.8265 45.3077 42.8305 45.3077 42.8305C45.3057 42.8285 45.1887 42.893 45.2795 42.8022ZM45.5498 42.7357C45.5558 42.7296 45.5699 42.7458 45.5699 42.7558C45.5699 42.7599 45.578 42.7639 45.578 42.7639C45.576 42.7619 45.459 42.8265 45.5498 42.7357ZM40.2928 42.7357C40.3573 42.6711 40.5066 42.8204 40.3714 42.772C40.3694 42.772 40.202 42.8265 40.2928 42.7357ZM45.1443 42.7357C45.2653 42.659 45.1806 42.6066 45.4086 42.7175L45.1443 42.7357ZM45.4812 42.6005C45.4872 42.5945 45.5014 42.6106 45.5014 42.6207C45.5014 42.6247 45.5094 42.6288 45.5094 42.6288C45.5074 42.6267 45.3904 42.6913 45.4812 42.6005ZM39.9559 42.6005C39.9619 42.5945 39.9761 42.6106 39.9761 42.6207C39.9761 42.6247 39.9841 42.6288 39.9841 42.6288C39.9821 42.6267 39.8651 42.6913 39.9559 42.6005ZM44.8074 42.6005C44.9285 42.5239 44.8437 42.4714 45.0717 42.5824L44.8074 42.6005ZM45.1463 42.4674C45.1524 42.4613 45.1665 42.4775 45.1665 42.4876C45.1665 42.4916 45.1746 42.4956 45.1746 42.4956C45.1725 42.4936 45.0555 42.5582 45.1463 42.4674ZM41.7714 42.4855L41.5757 42.544C41.6706 42.4613 41.4487 42.4714 41.7714 42.4855ZM41.3054 42.4008C41.3115 42.3948 41.3256 42.4109 41.3256 42.421C41.3256 42.425 41.3337 42.429 41.3337 42.429C41.3317 42.427 41.2147 42.4916 41.3054 42.4008ZM41.1037 42.3322C41.1098 42.3262 41.1239 42.3423 41.1239 42.3524C41.1239 42.3564 41.1319 42.3605 41.1319 42.3605C41.1299 42.3584 41.0129 42.423 41.1037 42.3322ZM40.8334 42.2656C40.8394 42.2596 40.8536 42.2757 40.8536 42.2858C40.8536 42.2899 40.8616 42.2939 40.8616 42.2939C40.8596 42.2919 40.7426 42.3564 40.8334 42.2656ZM46.0218 41.9953C46.0279 41.9893 46.042 42.0054 46.042 42.0155C46.042 42.0195 46.0501 42.0236 46.0501 42.0236C46.048 42.0216 45.931 42.0861 46.0218 41.9953ZM46.157 41.9288C46.163 41.9227 46.1771 41.9389 46.1771 41.9489C46.1771 41.953 46.1852 41.957 46.1852 41.957C46.1832 41.955 46.0662 42.0195 46.157 41.9288ZM46.2921 41.8622C46.2982 41.8561 46.3123 41.8723 46.3123 41.8824C46.3123 41.8864 46.3204 41.8904 46.3204 41.8904C46.3184 41.8884 46.2014 41.953 46.2921 41.8622ZM46.6976 41.7291L46.7158 41.6665L46.7662 41.7048L46.6996 41.727L46.6976 41.7291ZM46.8993 41.5939L46.8812 41.6564L46.8307 41.6181L46.8973 41.5959L46.8993 41.5939ZM47.2362 41.3942C47.3411 41.2449 47.4722 41.1703 47.6397 41.1239C47.5045 41.3296 47.4722 41.3357 47.2362 41.3942ZM39.621 43.0806C38.8161 43.01 37.0006 41.6141 36.5891 40.9907C36.7847 41.0432 37.7086 41.9187 38.0173 42.1244C38.2836 42.302 38.5256 42.4512 38.8 42.6227C39.0582 42.7841 39.4132 42.8971 39.623 43.0806H39.621ZM47.6397 41.1259C47.7668 40.9302 47.7103 40.9766 47.91 40.9242C47.7829 41.1198 47.8394 41.0734 47.6397 41.1259ZM47.91 40.9242L48.1803 40.6539C48.1359 40.8697 48.1077 40.8717 47.91 40.9242ZM44.6077 40.7224L44.5916 40.785L44.5411 40.7466L44.6077 40.7245V40.7224ZM36.3853 40.789L36.3228 40.7709L36.3611 40.7204L36.3833 40.787L36.3853 40.789ZM48.1803 40.6559L48.1985 40.5933L48.2489 40.6317L48.1823 40.6539L48.1803 40.6559ZM49.4613 39.1732C49.4673 39.1671 49.4814 39.1833 49.4814 39.1933C49.4814 39.1974 49.4895 39.2014 49.4895 39.2014C49.4875 39.1994 49.3705 39.2639 49.4613 39.1732ZM49.663 38.9714L49.6469 39.034L49.5964 38.9957L49.663 38.9735V38.9714ZM34.9712 38.4994C34.9773 38.4934 34.9914 38.5095 34.9914 38.5196C34.9914 38.5236 34.9994 38.5276 34.9994 38.5276C34.9974 38.5256 34.8804 38.5902 34.9712 38.4994ZM50.2682 37.6219C50.2742 37.6158 50.2883 37.632 50.2883 37.6421C50.2883 37.6461 50.2964 37.6501 50.2964 37.6501C50.2944 37.6481 50.1774 37.7127 50.2682 37.6219ZM50.3347 37.4867C50.3347 37.3314 50.4175 37.4746 50.3771 37.4867C50.3771 37.4867 50.3347 37.6602 50.3347 37.4867ZM50.4013 37.2164C50.4074 37.2104 50.4215 37.2265 50.4215 37.2366C50.4215 37.2406 50.4296 37.2447 50.4296 37.2447C50.4275 37.2426 50.3105 37.3072 50.4013 37.2164ZM50.5365 36.8109C50.5365 36.6556 50.6192 36.7988 50.5788 36.8109C50.5788 36.8109 50.5365 36.9844 50.5365 36.8109ZM50.603 36.4741C50.6091 36.468 50.6232 36.4841 50.6232 36.4942C50.6232 36.4983 50.6313 36.5023 50.6313 36.5023C50.6293 36.5003 50.5123 36.5648 50.603 36.4741ZM50.6615 36.1392C50.7362 36.2239 50.7301 36.0444 50.7221 36.3349L50.6615 36.1392ZM50.7564 36.0646C50.7402 35.9193 50.8249 34.5193 50.8572 34.4568C50.9036 34.8824 50.95 35.7378 50.7564 36.0646ZM45.2129 40.5207L45.0112 40.5873C44.9688 40.793 44.8115 40.5893 44.8094 40.5873C44.4645 40.5873 44.3172 40.6841 43.9985 40.7204C43.7181 40.7527 43.3308 40.7648 43.0705 40.8051C42.6207 40.8737 41.6342 40.8858 41.3034 40.6559C40.6639 40.5994 39.6472 39.9297 39.2942 39.9256C39.3547 40.2867 39.6735 40.6135 39.8833 40.908C38.8161 41.025 37.8983 39.7925 37.1438 39.2458L37.2507 39.5625C36.934 39.5141 36.9562 39.274 36.7222 39.1066L36.6133 39.1772L36.3429 38.9008C36.4156 39.5988 37.8962 40.9161 38.4631 41.3438C39.2377 41.9288 40.904 42.6146 41.844 42.6146C42.0014 42.4089 42.0236 42.6106 42.2556 42.6752C42.2818 42.6832 42.3867 42.6933 42.4331 42.7014C43.3409 42.8648 44.1357 42.6146 44.8094 42.6146C44.4403 42.8708 43.823 42.8486 43.3328 42.9011C43.8432 43.1391 44.6097 42.7599 45.1463 42.7498C44.3192 43.3247 41.7734 43.0746 40.5207 42.657C40.2423 42.5642 39.4031 42.1809 39.2216 42.1608L39.4859 42.4129C38.3945 42.1486 36.9118 40.6781 36.2703 39.8308C35.887 39.3245 35.4513 38.6184 35.2012 38.0011C34.951 37.3818 34.5677 36.3611 34.5677 35.6853L34.366 35.6672C34.4548 36.0424 34.4709 36.4963 34.6222 37.0994C34.7271 37.517 34.8562 38.0435 35.0337 38.4167C34.7997 38.3582 34.6162 37.7712 34.5214 37.5372C34.4487 37.3556 34.4043 37.2063 34.3398 37.0429C34.249 36.8089 34.2147 36.6839 34.0231 36.6072C33.8214 36.9723 33.9928 37.4928 34.1038 37.8196C34.9873 40.4178 37.0187 42.7821 39.5948 43.6535C40.7184 44.0328 41.1763 44.0994 42.3847 44.0994C44.061 44.0994 46.159 43.6394 47.5469 42.7922C49.5359 41.5757 50.8431 39.0602 51.2203 36.7565C51.3797 35.7842 51.3797 34.7473 51.2203 33.7729C50.6676 30.4001 48.3457 27.9551 45.1403 26.9102C44.41 26.6721 43.1593 26.3958 42.4028 26.4402C42.2193 26.1961 42.076 25.8188 41.836 25.4981C41.3438 24.8425 40.0971 23.5998 39.3547 23.5312C39.4798 23.7068 39.97 23.9408 40.1798 24.1223C40.7023 24.5742 42.074 25.9116 42.1729 26.42C41.6907 26.4583 40.9484 26.3655 40.5732 26.5491C41.1118 26.6076 41.6181 26.4442 42.2354 26.5168C42.4452 26.7024 42.3544 26.7064 42.5057 26.8315L42.4472 26.5168C42.659 26.5451 42.8466 26.5511 43.0484 26.5814C43.2561 26.6136 43.4216 26.6903 43.6576 26.7145C43.6192 26.9425 43.5305 26.8537 44.2789 27.1341C43.9138 27.1906 43.0867 26.9848 42.659 26.9687C42.4573 26.9606 41.3196 26.9949 41.2611 27.36C41.6504 27.6404 43.6414 27.4528 44.406 27.8321C44.0973 27.8664 43.8452 27.7958 43.5345 27.7837C43.2218 27.7716 43.0322 27.705 42.657 27.7131C42.3524 27.7191 41.2772 27.8341 41.1158 28.0358C41.7331 28.1044 42.0236 27.9975 43.0705 28.1145C43.7241 28.1871 44.1014 28.1246 44.7489 28.4574C45.0495 28.6128 45.1362 28.5482 45.3581 28.6571C45.5256 28.7398 46.2941 29.1957 46.399 29.3006C47.5852 30.4908 48.1803 30.9145 48.8319 32.5969C48.9327 32.8591 49.08 32.9882 49.1304 33.1758L49.2131 34.6041C49.1405 35.0741 49.2051 35.6006 49.0921 36.1049C48.9448 36.7605 48.5636 37.8236 48.0956 38.3441C48.1077 38.5478 48.0895 38.2876 48.1742 38.5579C47.791 38.7112 47.2483 39.3729 46.857 39.6674C46.5564 39.8933 46.4979 40.0487 46.157 40.1798C45.9008 40.2766 45.4691 40.5046 45.221 40.5247L45.2129 40.5207Z" fill="#40586F"/>
<path fill-rule="evenodd" clip-rule="evenodd" d="M35.1734 35.4429C35.238 35.3783 35.3853 35.5276 35.2521 35.4792C35.2501 35.4792 35.0827 35.5337 35.1734 35.4429ZM34.768 35.3763L34.9657 35.3864C34.7438 35.5074 34.8467 35.4267 34.768 35.3763ZM34.768 35.3763L34.5703 35.3662C34.7922 35.2452 34.6893 35.3259 34.768 35.3763ZM34.4311 35.2412C34.4371 35.2351 34.4513 35.2512 34.4513 35.2613C34.4513 35.2654 34.4593 35.2694 34.4593 35.2694C34.4573 35.2674 34.3403 35.3319 34.4311 35.2412ZM32.8818 34.4322L32.9444 34.4484L32.906 34.4988L32.8838 34.4322H32.8818ZM32.8818 34.4322L32.8193 34.4141L32.8576 34.3636L32.8798 34.4302L32.8818 34.4322ZM32.6115 34.2305L32.6741 34.2466L32.6357 34.2971L32.6135 34.2305H32.6115ZM32.5449 34.1639L32.4824 34.1458L32.5207 34.0953L32.5429 34.1619L32.5449 34.1639ZM31.1974 32.5461L31.2599 32.5622L31.2216 32.6127L31.1994 32.5461H31.1974ZM31.1974 32.5461L31.1349 32.5279L31.1732 32.4775L31.1954 32.5441L31.1974 32.5461ZM31.0623 32.3444L31.1248 32.3605L31.0865 32.4109L31.0643 32.3444H31.0623ZM30.9271 32.074C30.9331 32.068 30.9473 32.0841 30.9473 32.0942C30.9473 32.0982 30.9553 32.1023 30.9553 32.1023C30.9533 32.1003 30.8363 32.1648 30.9271 32.074ZM30.8605 31.9389C30.8666 31.9328 30.8807 31.949 30.8807 31.9591C30.8807 31.9631 30.8888 31.9671 30.8888 31.9671C30.8867 31.9651 30.7697 32.0297 30.8605 31.9389ZM30.794 31.8037C30.794 31.6484 30.8767 31.7916 30.8363 31.8037C30.8363 31.8037 30.794 31.9792 30.794 31.8037ZM30.7274 31.602C30.7334 31.5959 30.7476 31.6121 30.7476 31.6222C30.7476 31.6262 30.7556 31.6302 30.7556 31.6302C30.7536 31.6282 30.6366 31.6928 30.7274 31.602ZM42.1835 31.4668L42.1653 31.5294L42.1149 31.491L42.1815 31.4689L42.1835 31.4668ZM30.6608 31.4003C30.6669 31.3942 30.681 31.4104 30.681 31.4204C30.681 31.4245 30.6891 31.4285 30.6891 31.4285C30.687 31.4265 30.57 31.491 30.6608 31.4003ZM31.8066 30.1193L31.7965 30.317C31.6755 30.0951 31.7562 30.198 31.8066 30.1193ZM30.104 28.911L30.1202 29.9781C30.0052 29.7643 30.0012 29.1187 30.104 28.911ZM31.6715 29.849C31.6775 29.8429 31.6916 29.8591 31.6916 29.8692C31.6916 29.8732 31.6997 29.8772 31.6997 29.8772C31.6977 29.8752 31.5807 29.9398 31.6715 29.849ZM29.5816 27.8943C29.5816 27.7389 29.6643 27.8821 29.6239 27.8943C29.6239 27.8943 29.5816 28.0677 29.5816 27.8943ZM29.6481 27.6239C29.6542 27.6179 29.6683 27.634 29.6683 27.6441C29.6683 27.6481 29.6764 27.6522 29.6764 27.6522C29.6744 27.6502 29.5574 27.7147 29.6481 27.6239ZM32.2766 27.3536L32.2585 27.4162L32.2081 27.3778L32.2746 27.3556L32.2766 27.3536ZM31.1308 25.8023L31.1127 25.8649L31.0623 25.8265L31.1288 25.8044L31.1308 25.8023ZM31.1308 25.8023L31.147 25.7398L31.1974 25.7781L31.1308 25.8003V25.8023ZM30.5922 25.7358C30.5983 25.7297 30.6124 25.7459 30.6124 25.7559C30.6124 25.76 30.6205 25.764 30.6205 25.764C30.6185 25.762 30.5014 25.8265 30.5922 25.7358ZM30.794 25.534L30.7758 25.5966L30.7254 25.5583L30.7919 25.5361L30.794 25.534ZM31.0602 25.1992C31.1147 25.0015 31.0683 25.058 31.262 24.9289C31.2075 25.1266 31.2539 25.0701 31.0602 25.1992ZM31.3971 24.7937L31.3911 24.9168L31.264 24.9289L31.3991 24.7937H31.3971ZM31.5323 24.6585L31.5262 24.7816L31.3991 24.7937L31.5343 24.6585H31.5323ZM31.5323 24.6585C31.6614 24.4629 31.849 24.247 32.0709 24.1865C31.9418 24.3822 31.7542 24.598 31.5323 24.6585ZM32.0709 24.1865C32.204 23.9868 32.3815 23.8436 32.6095 23.781C32.5026 23.9444 32.2484 24.1381 32.0709 24.1865ZM32.6095 23.781L32.6256 23.7185L32.6761 23.7568L32.6095 23.779V23.781ZM34.3625 35.6466L34.5642 35.6648C34.885 35.9512 36.8276 36.0239 37.2593 35.8181H37.3259C38.3285 35.9371 40.5697 34.5694 41.3423 33.5305C42.3146 32.2253 43.1215 30.7063 43.1215 28.9715C43.0388 29.1006 42.948 29.847 42.8915 30.0911C42.7826 30.5591 42.7584 30.7043 42.5385 31.1542L42.359 31.1602L42.1794 31.4689C42.2077 31.1421 42.3933 30.7769 42.4659 30.4078C42.5486 29.9902 42.6515 29.6452 42.4497 29.2438C42.0786 29.5081 42.0523 30.8798 41.7094 31.2671C41.7215 30.664 42.2077 29.7098 41.9353 29.1208C41.774 29.3386 41.7417 29.8288 41.6711 30.1496C41.5985 30.4804 41.4956 30.8173 41.3826 31.1421C40.9872 32.2717 39.908 33.2602 38.8368 33.7867C37.8564 34.2688 37.2069 34.1841 36.8639 34.4423C36.174 34.2547 35.9965 34.3415 35.8593 34.3273C35.7282 34.3132 35.7746 34.2749 35.5769 34.2547C35.2077 34.2648 35.4256 34.2547 35.3126 34.168C35.1674 34.168 35.2905 34.1861 35.24 34.1014C35.0524 34.174 34.6308 33.9965 34.4311 33.8916L34.2072 33.7645C33.8037 33.5265 33.4527 33.351 33.1622 33.008C33.0069 32.8245 33.0311 32.8467 32.8253 32.8769C32.7305 32.3423 31.7582 31.4104 31.8086 30.5328C31.8228 30.2867 31.9761 30.3513 31.8026 30.1233C31.8026 29.3063 31.8228 28.2533 32.1395 27.5614L32.3412 27.3597H32.2746L32.3412 27.2245L32.4078 27.0894L32.5429 26.8876C32.6196 26.6072 32.904 26.2401 33.1501 26.0787L33.1098 25.9314C32.664 25.9617 32.6236 26.1473 32.2867 26.2038C32.4058 25.4776 33.3882 24.8845 33.949 24.4387L33.6928 24.366L34.2314 24.0574L34.0962 24.0251L34.2314 23.9888L34.3645 23.8073C33.37 23.9162 32.1193 25.0418 31.4798 25.8871C30.3138 27.4303 30.2937 29.4697 30.2069 29.6473L30.1888 28.8444C29.9649 28.6749 30.4429 27.3859 30.5519 27.1176C30.7072 26.7323 31.2821 25.8649 31.3346 25.6753L31.2075 25.649C32.0124 24.8078 32.4219 24.2168 33.715 23.6055C34.2697 23.3453 34.8285 23.192 35.4196 23.0851C36.5734 22.8773 36.6622 23.0467 37.6002 22.962C37.1806 22.726 36.0873 22.7482 35.5668 22.8269C35.4115 22.8511 34.9637 22.9035 34.8426 22.8955C35.1795 22.7058 36.1982 22.6756 36.404 22.4375C36.0247 21.9998 34.3524 22.494 33.8743 22.6857C31.8792 23.4946 30.562 24.6142 29.7369 26.6375C28.9845 28.4873 29.2407 31.7977 30.4409 33.1089C31.0623 33.7867 31.3305 34.1236 32.1294 34.6561C32.7023 35.0374 33.7129 35.6063 34.3665 35.6507L34.3625 35.6466Z" fill="#219AB5"/>
<path fill-rule="evenodd" clip-rule="evenodd" d="M34.207 33.7577L34.4309 33.8848C34.441 33.447 34.792 32.4283 34.9595 31.9946C35.3286 31.0505 36.1476 29.7736 36.8718 29.0534C37.1018 28.8234 38.0136 27.9963 38.1367 27.8229C37.3479 27.8935 36.0851 29.5153 35.6292 30.2355C35.3185 30.7277 34.9877 31.3914 34.8344 31.9341C34.7436 32.2568 34.4027 33.6265 34.207 33.7556V33.7577ZM35.3125 34.1611C35.4255 34.2499 35.2076 34.2579 35.5768 34.2479C35.6817 33.7496 35.7644 33.2352 35.9217 32.751C36.0488 32.3557 36.3716 31.8009 36.4543 31.462C35.952 31.8211 35.5102 33.4289 35.5102 34.0239C35.4416 34.2559 35.5727 34.0925 35.3145 34.1591L35.3125 34.1611ZM35.9822 38.815C35.8208 38.1473 35.4799 37.8971 35.1794 36.3135C35.1531 36.1764 35.1854 36.2369 35.135 36.0896C35.0422 35.8133 35.1128 36.021 35.0381 35.9161C34.907 36.1421 35.2237 37.2536 35.3064 37.4694C35.4214 37.77 35.7281 38.6354 35.9822 38.817V38.815ZM40.0188 25.041C39.5145 24.3431 37.9309 23.6532 37.0716 23.7217L37.479 23.8307C39.0586 24.2059 39.7828 25.0088 40.0188 25.0431V25.041ZM34.6347 23.5059L36.307 23.3203C36.4159 23.3284 36.4644 23.4615 36.7912 23.2356C36.1476 23.2356 35.0987 23.1831 34.6347 23.5059Z" fill="#40586F"/>
<path fill-rule="evenodd" clip-rule="evenodd" d="M39.0819 23.3716C38.8459 23.0388 38.0773 22.8048 37.6719 22.8492C37.7163 22.8834 38.9407 23.3373 39.0819 23.3716Z" fill="#219AB5"/>
<path fill-rule="evenodd" clip-rule="evenodd" d="M39.9606 39.9606L38.958 39.1679C39.0326 39.6076 39.5228 39.8537 39.9606 39.9606ZM35.2422 34.0944C35.3088 33.9915 35.3814 33.465 35.4298 33.2714C35.4984 32.999 35.6214 32.7489 35.6456 32.4766C35.3753 32.7812 35.2422 33.6385 35.2422 34.0944Z" fill="#40586F"/>
<path fill-rule="evenodd" clip-rule="evenodd" d="M33.1509 26.0691L32.9492 26.4746L33.6916 25.8008C33.3386 25.831 33.4051 25.9037 33.153 26.0711L33.1509 26.0691Z" fill="#219AB5"/>
<path fill-rule="evenodd" clip-rule="evenodd" d="M37.7339 37.534C37.7541 37.768 37.8005 37.9112 37.9356 38.0847C38.0446 37.891 37.9215 37.6671 37.7339 37.534ZM37.3304 35.8153H37.2639C37.1771 36.0573 37.1449 36.1743 37.393 36.2348L37.3304 35.8153ZM37.3466 33.5478C37.4696 33.3824 37.5181 33.1424 37.5201 32.9588C37.3829 33.1222 37.3224 33.2836 37.3466 33.5478ZM34.704 25.1378C34.7463 25.2306 34.6091 25.3254 34.9238 25.2266C35.0065 25.2004 35.1215 25.1116 35.1679 25.0773L34.704 25.1398V25.1378ZM44.8105 40.5679H45.0122L45.2139 40.5014V40.4348C44.9497 40.4409 44.992 40.4066 44.8105 40.57V40.5679ZM41.3065 40.6345L41.6373 40.6285L41.1713 40.5014L41.3065 40.6345ZM38.5428 25.5292C38.3976 25.4001 38.3915 25.3577 38.212 25.4445L38.5428 25.5292ZM41.1713 40.5014L40.7679 40.3662C40.9494 40.5276 40.9091 40.4953 41.1713 40.5014ZM36.116 24.9906L36.5175 24.9704L36.116 24.92V24.9906ZM40.429 26.8102C40.1486 26.8102 40.2979 26.7859 40.1587 26.8767C40.4391 26.8747 40.2898 26.9009 40.429 26.8102ZM38.2059 23.7096C38.0667 23.6188 38.216 23.643 37.9356 23.643C38.0748 23.7338 37.9255 23.7096 38.2059 23.7096ZM35.646 32.4746L35.7812 32.2064L35.6581 32.283L35.646 32.4746ZM37.9356 23.641C37.867 23.5966 37.9619 23.5099 37.74 23.6249L37.9356 23.641ZM34.2299 23.641C34.2945 23.7056 34.4417 23.5563 34.3086 23.6047C34.3066 23.6047 34.1371 23.5502 34.2299 23.641ZM34.6354 23.5059L34.4377 23.5159C34.6596 23.637 34.5567 23.5563 34.6354 23.5059ZM32.3438 27.3508L32.4103 27.2156H32.3438V27.3508ZM32.4103 27.2156L32.4789 27.0805H32.4103V27.2156ZM32.5455 27.0139L32.612 26.8787H32.5455V27.0139ZM34.2299 23.9779V24.0465L34.3651 24.0142L34.2299 23.9779ZM42.8739 28.6257L42.9324 28.3635C42.9143 28.3776 42.8981 28.3796 42.8961 28.4038L42.8739 28.6257ZM36.116 39.0852L36.1342 39.1458L36.1846 39.1074L36.116 39.0852ZM32.8158 26.6084L32.7533 26.6266L32.7916 26.675L32.8158 26.6084ZM36.4549 31.464L36.5155 31.4458L36.4771 31.3974L36.4549 31.464ZM37.7339 37.534L37.7178 37.4714L37.6673 37.5098L37.7339 37.534ZM40.0255 26.9453L39.965 26.9635L40.0033 27.0119L40.0255 26.9453ZM35.8478 32.0026L35.9083 31.9865L35.8699 31.936L35.8478 32.0026ZM40.3624 40.1645L40.3806 40.225L40.429 40.1867L40.3624 40.1645ZM38.678 25.5978L38.6961 25.6583L38.7446 25.62L38.678 25.5978ZM32.6806 26.8102L32.7412 26.794L32.7028 26.7436L32.6806 26.8102ZM45.2139 40.4328L45.2765 40.4166L45.2382 40.3662L45.2139 40.4328ZM36.116 39.0852L36.0999 39.0227L36.0495 39.061L36.116 39.0852ZM39.6886 24.5185L39.7068 24.579L39.7552 24.5407L39.6886 24.5185Z" fill="#40586F"/>
<path fill-rule="evenodd" clip-rule="evenodd" d="M33.6902 25.8013L33.7528 25.7832L33.7124 25.7348L33.6902 25.8013ZM31.332 25.6662L31.3926 25.648L31.3542 25.5996L31.332 25.6662Z" fill="#219AB5"/>
<path fill-rule="evenodd" clip-rule="evenodd" d="M35.9138 31.8699C35.9199 31.8759 35.934 31.8416 35.934 31.8497C35.934 31.8537 35.9421 31.8416 35.9421 31.8416C35.9401 31.8436 35.8231 31.7791 35.9138 31.8699ZM37.5317 32.8805C37.5378 32.8866 37.5519 32.8523 37.5519 32.8603C37.5519 32.8644 37.5599 32.8523 37.5599 32.8523C37.5579 32.8543 37.4409 32.7897 37.5317 32.8805ZM30.1868 28.5636C30.1929 28.5696 30.207 28.5353 30.207 28.5434C30.207 28.5474 30.2151 28.5353 30.2151 28.5353C30.213 28.5373 30.096 28.4728 30.1868 28.5636Z" fill="#40586F"/>
<path fill-rule="evenodd" clip-rule="evenodd" d="M17.8844 47.1126C17.2227 46.4893 16.2322 46.1826 15.3628 46.1826C13.7974 46.1826 12.1936 46.9653 12.1936 48.7284C12.1936 50.3443 13.3314 50.8566 14.3844 51.1875C15.4737 51.5304 16.3795 51.7866 16.3795 52.6924C16.3795 53.6223 15.5363 53.9774 14.8141 53.9774C14.1302 53.9774 13.3455 53.6102 12.9178 53.0232L11.8164 54.052C12.5023 54.8589 13.6642 55.2866 14.7899 55.2866C16.4904 55.2866 17.9469 54.3808 17.9469 52.5209C17.9469 50.8203 16.5288 50.3301 15.4152 49.9892C14.4368 49.6826 13.7631 49.4506 13.7631 48.6558C13.7631 47.8126 14.5821 47.4696 15.2922 47.4696C15.9034 47.4696 16.553 47.7884 16.8838 48.216L17.8864 47.1146L17.8844 47.1126ZM62.9704 56.85C63.6441 57.56 64.6709 57.9998 65.724 57.9998C68.2556 57.9998 68.8306 56.2629 68.8306 55.0142V49.3376H67.9994V50.3281H67.9752C67.5214 49.5938 66.6418 49.1904 65.8087 49.1904C64.0234 49.1904 62.8473 50.5238 62.8473 52.1497C62.8473 53.8261 64.0214 55.0606 65.8087 55.0606C66.6398 55.0606 67.5335 54.6451 67.9752 53.935H67.9994V55.0122C67.9994 56.2468 67.4003 57.2635 65.7603 57.2635C64.8908 57.2635 64.0234 56.7995 63.5695 56.2105L62.9704 56.8459V56.85ZM63.7289 52.1275C63.7289 50.9293 64.5116 49.8884 65.8954 49.8884C67.1804 49.8884 68.0983 50.9273 68.0983 52.1275C68.0983 53.4488 67.1804 54.3546 65.8954 54.3546C64.5136 54.3546 63.7289 53.3278 63.7289 52.1275ZM59.0811 50.5984V55.0627H59.9122V52.1275C59.9122 50.5984 60.707 49.963 61.5886 49.963C61.8084 49.963 62.0787 49.9993 62.1756 50.0356L62.2865 49.2529C62.1151 49.2045 61.9436 49.1924 61.7358 49.1924C60.9289 49.1924 60.2188 49.6564 59.9001 50.318H59.8759C59.8759 50.0739 59.8517 49.6443 59.8275 49.3397H59.0327C59.069 49.731 59.0811 50.2938 59.0811 50.6005V50.5984ZM57.2958 52.2001C57.2958 50.4754 56.0229 49.1904 54.2376 49.1904C52.4644 49.1904 51.1915 50.4754 51.1915 52.2001C51.1915 53.9249 52.4644 55.2099 54.2376 55.2099C56.0229 55.2099 57.2958 53.9249 57.2958 52.2001ZM56.4142 52.2001C56.4142 53.4852 55.571 54.4998 54.2356 54.4998C52.9143 54.4998 52.0711 53.4852 52.0711 52.2001C52.0711 50.9151 52.9143 49.8884 54.2356 49.8884C55.569 49.8884 56.4142 50.9172 56.4142 52.2001ZM49.5757 54.4756C49.5757 54.1327 49.3074 53.816 48.916 53.816C48.5247 53.816 48.2564 54.1347 48.2564 54.4756C48.2564 54.8186 48.5247 55.1353 48.916 55.1353C49.3074 55.1353 49.5757 54.8166 49.5757 54.4756ZM43.9697 49.0189C43.0882 49.0189 42.4285 49.4224 42.0372 50.1324C41.7063 49.4728 41.1072 49.0189 40.2014 49.0189C39.2594 49.0189 38.636 49.5575 38.3778 50.1324H38.3536V49.1904H36.9577V55.0627H38.4262V51.833C38.4262 51.0503 38.8297 50.2434 39.7112 50.2434C40.4576 50.2434 40.8006 50.7941 40.8006 51.5163V55.0647H42.2691V51.8592C42.2691 51.1007 42.6484 50.2434 43.5662 50.2434C44.5083 50.2434 44.6677 51.1128 44.6677 51.8088V55.0627H46.1362V51.3932C46.1362 50.195 45.5008 49.0189 43.9717 49.0189H43.9697ZM35.1986 49.1904H33.73V52.42C33.73 53.2027 33.2903 54.0096 32.3603 54.0096C31.4182 54.0096 31.2589 53.1402 31.2589 52.4442V49.1904H29.7903V52.8598C29.7903 54.0581 30.4257 55.2341 31.9548 55.2341C32.8243 55.2341 33.5202 54.7076 33.7784 54.1206H33.8027V55.0627H35.1966V49.1904H35.1986ZM25.3866 55.0627H26.8552V51.9177C26.8552 51.4901 27.1114 50.3402 28.4327 50.3402C28.5678 50.3402 28.6889 50.3523 28.8845 50.4007V49.0552C28.7877 49.031 28.6405 49.0189 28.5295 49.0189C27.7589 49.0189 27.1356 49.497 26.8168 50.1688H26.7926V49.1904H25.3866V55.0627ZM24.4324 49.9368C23.9664 49.3618 23.0748 49.0189 22.2175 49.0189C20.4927 49.0189 19.0725 50.2172 19.0725 52.1275C19.0725 54.0843 20.5169 55.2361 22.2538 55.2361C23.1232 55.2361 23.9301 54.9416 24.4203 54.4171L23.5025 53.4872C23.2221 53.8301 22.7198 54.0137 22.2659 54.0137C21.1523 54.0137 20.6016 53.0474 20.6016 52.1295C20.6016 51.2117 21.1402 50.2454 22.2175 50.2454C22.6935 50.2454 23.1958 50.4895 23.4278 50.8203L24.4324 49.9388V49.9368Z" fill="#40586F"/>
</g>
<defs>
<clipPath id="clip0_1_528">
<rect width="57.3983" height="36.0002" fill="white" transform="translate(11.625 22)"/>
</clipPath>
</defs>
</svg>
