<svg width="80" height="80" viewBox="0 0 80 80" fill="none" xmlns="http://www.w3.org/2000/svg">
<path d="M55.2782 36.61C55.7334 36.61 56.1701 36.7905 56.4927 37.1121C56.8154 37.4336 56.9978 37.87 57 38.3259V56.2828C57 57.2283 56.2365 58 55.2867 58H24.7147C24.26 58 23.8238 57.8191 23.5022 57.497C23.1807 57.175 23 56.7382 23 56.2828V23.7172C23 22.7731 23.7635 22.0014 24.7162 22.0014H28.4322C29.3749 22.0014 30.1455 22.7646 30.1455 23.7172V34.9945C30.1707 35.3966 30.3345 35.7775 30.6089 36.0721C30.8832 36.3667 31.2512 36.5568 31.65 36.61H34.4302C35.2728 36.5323 35.9742 35.8454 36.0208 34.9945V23.7158C36.0208 22.7717 36.7829 22 37.7341 22H41.4501C42.3929 22 43.1649 22.7632 43.1649 23.7158V34.8758C43.1649 35.7578 43.8113 36.5069 44.6609 36.6086H55.2796L55.2782 36.61ZM50.3852 48.9247V45.4111C50.3852 44.467 49.6231 43.6938 48.6718 43.6938H44.9544C44.0117 43.6938 43.2397 44.4585 43.2397 45.4111V48.9233C43.2397 49.8675 44.0032 50.6392 44.9544 50.6392H48.6704C49.6132 50.6392 50.3838 49.8759 50.3838 48.9233L50.3852 48.9247Z" fill="#FF6600"/>
</svg>
