<svg width="80" height="80" viewBox="0 0 80 80" fill="none" xmlns="http://www.w3.org/2000/svg">
<path d="M23.3741 48.2819C22.9652 48.269 22.6329 48.5917 22.6201 48.992C22.6201 49.0049 22.6201 49.0307 22.6201 49.0436V52.7105C20.8694 51.2902 18.3008 51.5743 16.8951 53.3431C16.3201 54.0791 16.0006 54.9829 16.0006 55.9254C15.9623 58.1978 17.7513 60.07 20.0004 60.1087C22.2495 60.1474 24.1025 58.3398 24.1408 56.0674C24.1408 56.0158 24.1408 55.977 24.1408 55.9254V49.0436C24.1408 48.8371 24.0642 48.6434 23.9236 48.5014C23.7702 48.3593 23.5786 48.2819 23.3741 48.2819ZM22.4157 56.9196C22.1601 57.5393 21.6745 58.03 21.0611 58.3011C20.4221 58.5722 19.7065 58.5722 19.0676 58.3011C18.4542 58.0429 17.9814 57.5393 17.7258 56.9325C17.4574 56.2998 17.4574 55.5768 17.7258 54.9312C17.9814 54.3115 18.467 53.8208 19.0676 53.5626C19.7065 53.2915 20.4221 53.2915 21.0611 53.5626C21.6745 53.8338 22.1601 54.3244 22.4157 54.9441C22.684 55.5639 22.684 56.2869 22.4157 56.9196Z" fill="#0091E2"/>
<path d="M31.8693 53.0213C30.2847 51.4203 27.7033 51.4203 26.1187 53.0213C25.352 53.796 24.9303 54.8418 24.9303 55.9264C24.892 58.1988 26.681 60.0709 28.9301 60.1097C31.1792 60.1484 33.0322 58.3408 33.0705 56.0684C33.0705 56.0168 33.0705 55.978 33.0705 55.9264C33.0705 55.3841 32.9683 54.8547 32.7638 54.3512C32.5594 53.8476 32.2527 53.3957 31.8693 53.0213ZM31.3454 56.9076C31.2176 57.2175 31.0259 57.4887 30.7959 57.7211C30.5658 57.9535 30.2847 58.1471 29.9908 58.2762C29.3518 58.5474 28.6362 58.5474 27.9973 58.2762C27.3839 58.018 26.8983 57.5145 26.6427 56.9076C26.3743 56.275 26.3743 55.5519 26.6427 54.9064C26.8983 54.2866 27.3839 53.8089 27.9973 53.5378C28.6362 53.2666 29.3518 53.2666 29.9908 53.5378C30.2975 53.6669 30.5658 53.8606 30.7959 54.093C31.0259 54.3254 31.2176 54.6094 31.3454 54.9064C31.6137 55.5649 31.6137 56.2879 31.3454 56.9076Z" fill="#0091E2"/>
<path d="M48.7014 52.5681C48.7014 52.4648 48.6758 52.3615 48.6375 52.2711C48.5992 52.1807 48.5353 52.1033 48.4714 52.0258C48.4075 51.9612 48.318 51.8967 48.2286 51.858C48.1391 51.8192 48.0369 51.7934 47.9347 51.7934C47.7941 51.7934 47.6535 51.8321 47.5257 51.9096L43.1809 54.763V49.0562C43.1809 48.8496 43.1042 48.6559 42.9636 48.5139C42.823 48.3719 42.6314 48.2815 42.4269 48.2815C42.0052 48.2815 41.6729 48.6172 41.6602 49.0433C41.6602 49.0433 41.6602 49.0433 41.6602 49.0562V59.2562C41.6602 59.4628 41.7368 59.6564 41.8774 59.7985C42.018 59.9534 42.2097 60.0309 42.4141 60.0309C42.6186 60.0309 42.8103 59.9534 42.9508 59.7985C43.0914 59.6564 43.1809 59.4628 43.1681 59.2562V56.6093L44.0498 56.0283L47.4107 59.8372C47.5513 59.9663 47.7302 60.0438 47.9219 60.0309C48.0241 60.0309 48.1263 60.0179 48.2158 59.9663C48.3053 59.9276 48.3819 59.8759 48.4586 59.7985C48.5225 59.721 48.5864 59.6435 48.6247 59.5531C48.6631 59.4628 48.6886 59.3595 48.6886 59.2562C48.6886 59.0625 48.612 58.8688 48.4842 58.7268L45.3661 55.1762L48.4075 53.1749C48.612 53.0458 48.7142 52.8134 48.7014 52.5681Z" fill="#0091E2"/>
<path d="M36.09 54.092C36.32 53.8596 36.6012 53.6659 36.9079 53.5368C37.2273 53.4077 37.5596 53.3302 37.9046 53.3302C38.2113 53.3302 38.5052 53.3818 38.7864 53.4851C39.0675 53.6013 39.3359 53.7563 39.5659 53.9629C39.7065 54.0791 39.8854 54.1307 40.0643 54.1307C40.2687 54.1436 40.4732 54.0661 40.6138 53.9112C40.7543 53.7692 40.831 53.5626 40.831 53.356C40.831 53.1365 40.7416 52.917 40.5627 52.775C39.8343 52.1165 38.8886 51.755 37.9046 51.7808C35.6555 51.7808 33.8281 53.6272 33.8281 55.8996C33.8281 58.172 35.6427 60.0054 37.8791 60.0183C38.8631 60.0183 39.8087 59.6697 40.5499 59.0241C40.7032 58.8821 40.7927 58.6755 40.7927 58.456C40.8055 58.0428 40.486 57.7072 40.0898 57.6942C40.0771 57.6942 40.0515 57.6942 40.0387 57.6942C39.8598 57.6942 39.6937 57.7459 39.5531 57.8492C39.3231 58.0558 39.0675 58.2107 38.7864 58.3269C38.5052 58.4302 38.1985 58.4818 37.9046 58.4818C37.5596 58.4818 37.2273 58.4173 36.9079 58.2753C36.6012 58.1461 36.3328 57.9525 36.09 57.7201C35.0932 56.713 35.0932 55.0861 36.0772 54.0791C36.09 54.1049 36.09 54.1049 36.09 54.092Z" fill="#0091E2"/>
<path d="M63.7949 52.3241C63.6415 52.1821 63.4754 52.0788 63.2837 52.0142C63.0665 51.9368 62.8364 51.8851 62.6064 51.8593C62.3764 51.8335 62.1464 51.8206 61.9163 51.8206C61.4563 51.8206 60.9835 51.898 60.549 52.0659C60.1145 52.2208 59.7184 52.4532 59.3605 52.7373V52.5823C59.3478 52.1563 58.99 51.8335 58.5682 51.8464C58.1721 51.8593 57.8526 52.1821 57.8398 52.5823V59.2833C57.8526 59.7094 58.2104 60.0322 58.6321 60.0193C59.0283 60.0064 59.3478 59.6836 59.3605 59.2833V55.9393C59.3605 55.5907 59.4244 55.255 59.565 54.9322C59.6928 54.6223 59.8717 54.3512 60.1145 54.1188C60.3445 53.8864 60.6257 53.6927 60.9196 53.5636C61.2391 53.4345 61.5713 53.357 61.9163 53.357C62.2614 53.357 62.5936 53.4216 62.9131 53.5378C63.0153 53.5894 63.1176 53.6152 63.2326 53.6152C63.3348 53.6152 63.4371 53.6023 63.5265 53.5507C63.616 53.5119 63.6926 53.4603 63.7693 53.3828C63.8332 53.3183 63.8971 53.2279 63.9354 53.1375C63.9738 53.0471 63.9993 52.9438 63.9993 52.8406C64.0121 52.6469 63.9354 52.4661 63.7949 52.3241Z" fill="#0091E2"/>
<path d="M56.7408 54.3512C56.0891 52.8276 54.6067 51.8335 52.971 51.8206C50.7219 51.8206 48.9073 53.654 48.8945 55.9264C48.8945 58.1988 50.7219 60.0451 52.971 60.0451C53.9422 60.0451 54.8879 59.6965 55.6291 59.0509C55.6418 59.038 55.6546 59.0251 55.6546 59.0251C55.7185 58.9735 55.7824 58.9089 55.8208 58.8314C56.0636 58.4699 55.9741 57.9922 55.6291 57.7469C55.3352 57.5532 54.9518 57.5919 54.6962 57.8373C54.6706 57.8631 54.594 57.9276 54.594 57.9405L54.5812 57.9535C54.3639 58.1342 54.1211 58.2892 53.8528 58.3795C53.5716 58.4828 53.2777 58.5345 52.971 58.5216C52.6899 58.5216 52.4215 58.4828 52.1532 58.3924C51.8976 58.3021 51.6548 58.1859 51.4375 58.018C51.2203 57.8631 51.0286 57.6694 50.8753 57.4499C50.7092 57.2304 50.5941 56.9722 50.5175 56.714H56.268C56.4725 56.714 56.6642 56.6365 56.8047 56.4945C56.9581 56.3524 57.0348 56.1588 57.022 55.9522C57.0348 55.397 56.9325 54.8547 56.7408 54.3512ZM50.5175 55.1775C50.5941 54.9064 50.7092 54.6611 50.8753 54.4416C51.0286 54.2221 51.2203 54.0284 51.4375 53.8735C51.6548 53.7185 51.8976 53.5894 52.1532 53.499C52.4088 53.4087 52.6899 53.3699 52.9583 53.3699C53.2266 53.3699 53.5077 53.4087 53.7633 53.499C54.2745 53.6669 54.7218 54.0026 55.0412 54.4416C55.2074 54.6611 55.3224 54.9193 55.4118 55.1775H50.5175Z" fill="#0091E2"/>
<path d="M61.1997 58.9202C60.9058 58.9202 60.6758 59.1655 60.6758 59.4624C60.6758 59.7594 60.9186 59.9918 61.2125 59.9918C61.5064 59.9918 61.7365 59.7465 61.7365 59.4624C61.7365 59.1526 61.4936 58.9202 61.1997 58.9202ZM61.1997 59.8756C60.9697 59.8885 60.778 59.7077 60.7652 59.4753C60.7525 59.2429 60.9314 59.0493 61.1614 59.0364C61.3914 59.0235 61.5831 59.2042 61.5959 59.4366C61.5959 59.4495 61.5959 59.4495 61.5959 59.4624C61.6087 59.6819 61.4298 59.8756 61.2125 59.8756C61.2125 59.8756 61.2125 59.8756 61.1997 59.8756Z" fill="#0091E2"/>
<path d="M61.3244 59.464C61.3883 59.4511 61.4267 59.3994 61.4267 59.3349C61.4267 59.2832 61.4139 59.2445 61.3756 59.2187C61.3244 59.1928 61.2605 59.1799 61.1966 59.1799C61.1328 59.1799 61.0561 59.1799 60.9922 59.1928V59.7222H61.1072V59.5156H61.1583C61.2222 59.5156 61.2605 59.5415 61.2733 59.5931C61.2861 59.6318 61.2989 59.6835 61.3117 59.7222H61.4394C61.4139 59.6835 61.4011 59.6318 61.4011 59.5931C61.4139 59.5415 61.3756 59.4898 61.3244 59.464ZM61.1711 59.4253H61.1072V59.2703C61.1328 59.2703 61.1583 59.2703 61.1711 59.2703C61.2478 59.2703 61.2861 59.309 61.2861 59.3478C61.2989 59.3994 61.235 59.4382 61.1711 59.4253Z" fill="#0091E2"/>
<path d="M58.724 30.3179C58.6182 30.2288 57.6657 29.4981 55.6196 29.4981C55.0904 29.4981 54.5436 29.5516 54.0144 29.6407C53.6264 26.914 51.3862 25.5952 51.298 25.5239L50.7512 25.2031L50.3984 25.72C49.9575 26.415 49.6223 27.1991 49.4283 28.0011C49.0579 29.5516 49.2872 31.013 50.0633 32.2605C49.1284 32.7952 47.6115 32.9199 47.294 32.9377H22.2466C21.594 32.9377 21.0648 33.4724 21.0648 34.1318C21.0295 36.3417 21.3999 38.5516 22.1584 40.6367C23.0227 42.9179 24.3104 44.6109 25.9684 45.6446C27.8382 46.803 30.8897 47.4624 34.3293 47.4624C35.8815 47.4624 37.4338 47.3198 38.9684 47.0347C41.1027 46.6426 43.1488 45.8941 45.0362 44.807C46.5884 43.8981 47.9819 42.7397 49.1637 41.3852C51.1569 39.1219 52.3387 36.5912 53.203 34.3456C53.3265 34.3456 53.4323 34.3456 53.5558 34.3456C55.7254 34.3456 57.066 33.4724 57.8068 32.7239C58.3007 32.2605 58.6711 31.6902 58.9357 31.0486L59.0944 30.5853L58.724 30.3179Z" fill="#0091E2"/>
<path d="M24.5733 32.2076H27.9247C28.0835 32.2076 28.2246 32.0829 28.2246 31.9047V28.875C28.2246 28.7146 28.1011 28.572 27.9247 28.572H24.5733C24.4145 28.572 24.2734 28.6968 24.2734 28.875V31.9047C24.2911 32.0829 24.4145 32.2076 24.5733 32.2076Z" fill="#0091E2"/>
<path d="M29.1983 32.2079H32.5497C32.7085 32.2079 32.8496 32.0831 32.8496 31.9049V28.8752C32.8496 28.7148 32.7261 28.5723 32.5497 28.5723H29.1983C29.0395 28.5723 28.8984 28.697 28.8984 28.8752V31.9049C28.9161 32.0831 29.0395 32.2079 29.1983 32.2079Z" fill="#0091E2"/>
<path d="M33.9053 32.2079H37.2567C37.4155 32.2079 37.5566 32.0831 37.5566 31.9049V28.8752C37.5566 28.7148 37.4331 28.5723 37.2567 28.5723H33.9053C33.7466 28.5723 33.6055 28.697 33.6055 28.8752V31.9049C33.6055 32.0831 33.7289 32.2079 33.9053 32.2079Z" fill="#0091E2"/>
<path d="M38.546 32.2079H41.8974C42.0561 32.2079 42.1972 32.0831 42.1972 31.9049V28.8752C42.1972 28.7148 42.0737 28.5723 41.8974 28.5723H38.546C38.3872 28.5723 38.2461 28.697 38.2461 28.8752V31.9049C38.2461 32.0831 38.3872 32.2079 38.546 32.2079Z" fill="#0091E2"/>
<path d="M29.1983 27.8759H32.5497C32.7085 27.8759 32.8496 27.7333 32.8496 27.5729V24.5432C32.8496 24.3828 32.7261 24.2402 32.5497 24.2402H29.1983C29.0395 24.2402 28.8984 24.365 28.8984 24.5432V27.5729C28.9161 27.7333 29.0395 27.8759 29.1983 27.8759Z" fill="#0091E2"/>
<path d="M33.9053 27.8759H37.2567C37.4155 27.8759 37.5566 27.7333 37.5566 27.5729V24.5432C37.5566 24.3828 37.4331 24.2402 37.2567 24.2402H33.9053C33.7466 24.2402 33.6055 24.365 33.6055 24.5432V27.5729C33.6055 27.7333 33.7289 27.8759 33.9053 27.8759Z" fill="#0091E2"/>
<path d="M38.546 27.8759H41.8974C42.0561 27.8759 42.1972 27.7333 42.1972 27.5729V24.5432C42.1972 24.3828 42.0561 24.2402 41.8974 24.2402H38.546C38.3872 24.2402 38.2461 24.365 38.2461 24.5432V27.5729C38.2461 27.7333 38.3872 27.8759 38.546 27.8759Z" fill="#0091E2"/>
<path d="M38.546 23.5282H41.8974C42.0561 23.5282 42.1972 23.4034 42.1972 23.2252V20.1955C42.1972 20.0352 42.0561 19.8926 41.8974 19.8926H38.546C38.3872 19.8926 38.2461 20.0173 38.2461 20.1955V23.2252C38.2461 23.3856 38.3872 23.5282 38.546 23.5282Z" fill="#0091E2"/>
<path d="M43.2217 32.2079H46.5731C46.7319 32.2079 46.873 32.0831 46.873 31.9049V28.8752C46.873 28.7148 46.7495 28.5723 46.5731 28.5723H43.2217C43.063 28.5723 42.9219 28.697 42.9219 28.8752V31.9049C42.9395 32.0831 43.063 32.2079 43.2217 32.2079Z" fill="#0091E2"/>
</svg>
