<svg width="80" height="80" viewBox="0 0 80 80" fill="none" xmlns="http://www.w3.org/2000/svg">
<path d="M53.9263 34.2239C53.7213 34.0122 51.1725 30.705 50.7498 30.1493C50.2887 29.607 50.0838 29.6996 49.7892 29.7392C49.4946 29.7789 46.2798 30.361 45.9083 30.3875C45.5497 30.4536 45.3063 30.5991 45.5497 30.9299C45.7546 31.2341 47.868 34.3165 48.3291 35.0309L39.8757 37.1211L33.177 25.5192C32.908 25.1091 32.844 24.9768 32.2548 25.0032C31.6656 25.0297 26.9906 25.453 26.6576 25.453C26.3246 25.4927 25.966 25.625 26.299 26.4452C26.632 27.2654 31.9346 39.0393 32.0627 39.3832C32.1907 39.7272 32.5878 40.2696 33.4844 40.0711C34.4066 39.833 37.5958 38.9731 39.3505 38.4969C40.2727 40.2034 42.1299 43.6959 42.5014 44.2118C42.9624 44.8998 43.2955 44.7542 43.9871 44.5558C44.5507 44.3838 52.6711 41.3676 53.0297 41.1956C53.3883 41.0236 53.6317 40.9178 53.3627 40.5474C53.1578 40.2696 51.0444 37.293 49.9173 35.7585C50.6858 35.5468 53.4267 34.806 53.7341 34.7001C54.0543 34.6075 54.1184 34.4356 53.9263 34.2239ZM38.582 37.4782C38.4796 37.5179 33.7405 38.6821 33.51 38.7482C33.241 38.8144 33.241 38.7879 33.241 38.6821C33.177 38.5763 27.6054 26.6701 27.5029 26.5378C27.4389 26.4055 27.4389 26.26 27.5029 26.26C27.567 26.26 31.973 25.8499 32.1139 25.8499C32.2804 25.8499 32.242 25.8896 32.3188 25.9822C32.3188 25.9822 38.518 37.0417 38.6205 37.2137C38.7485 37.3724 38.6717 37.4386 38.582 37.4782ZM51.9026 40.0447C51.9666 40.177 52.0691 40.2564 51.8001 40.3225C51.5696 40.4283 43.8078 43.1271 43.6541 43.1932C43.4876 43.2593 43.3851 43.299 43.193 42.9815C42.9881 42.6773 40.4777 38.1926 40.4777 38.1926L48.7261 35.9701C48.9311 35.904 48.9951 35.8643 49.1232 36.076C49.2513 36.3141 51.8385 39.9389 51.9026 40.0447ZM52.4277 34.0255C52.2228 34.0652 49.2128 34.8457 49.2128 34.8457L46.7281 31.3532C46.664 31.2474 46.6 31.1415 46.7665 31.1151C46.933 31.0886 49.7508 30.5727 49.8789 30.533C50.007 30.4933 50.1094 30.4668 50.2759 30.705C50.4424 30.9166 52.5686 33.7212 52.6583 33.8138C52.7607 33.9196 52.6326 33.9858 52.4277 34.0255Z" fill="#FB503B"/>
<path d="M20.1281 54.4581C20.0384 54.3655 20 54.2729 20 54.1406V46.1899C20 46.137 20.0128 46.0973 20.0512 46.0709C20.0768 46.0444 20.1281 46.018 20.1665 46.018H20.8069C20.8581 46.018 20.8966 46.0312 20.9222 46.0709C20.9478 46.0973 20.9734 46.1502 20.9734 46.1899V53.6379H24.009C24.0602 53.6379 24.0986 53.6511 24.1242 53.6908C24.1499 53.7305 24.1755 53.7702 24.1755 53.8099V54.4184C24.1755 54.4713 24.1627 54.511 24.1242 54.5375C24.0858 54.5772 24.0474 54.5904 24.009 54.5904H20.4483C20.3202 54.5904 20.2177 54.5375 20.1281 54.4581Z" fill="#FB503B"/>
<path d="M25.8277 54.2067C25.4435 53.8496 25.2386 53.3733 25.2386 52.7912C25.2386 52.2488 25.4179 51.7991 25.7637 51.4419C26.1223 51.0847 26.609 50.873 27.2494 50.7804L28.7992 50.5555C29.0298 50.5291 29.1963 50.4365 29.2987 50.3174C29.4012 50.1851 29.4524 50.0131 29.4524 49.775V49.6824C29.4524 49.2855 29.2988 48.968 29.0042 48.7299C28.7096 48.4918 28.3381 48.3727 27.8898 48.3727C27.544 48.3727 27.2366 48.4389 26.9805 48.5844C26.7243 48.7299 26.5194 48.9283 26.3657 49.1797C26.3016 49.2855 26.2248 49.3384 26.1223 49.3384C26.0711 49.3384 26.0199 49.312 25.9686 49.2723L25.6484 49.0474C25.5716 48.9813 25.5459 48.9151 25.5459 48.8357C25.5459 48.8093 25.5588 48.7564 25.5844 48.7167C25.8149 48.3198 26.1351 48.0155 26.5322 47.7906C26.9292 47.5658 27.4031 47.4467 27.9283 47.4467C28.4022 47.4467 28.8248 47.5393 29.2091 47.7245C29.5805 47.9097 29.8751 48.1743 30.08 48.505C30.285 48.8357 30.3874 49.2326 30.3874 49.6692V54.4052C30.3874 54.4581 30.3746 54.4978 30.3362 54.5242C30.3106 54.5639 30.2594 54.5771 30.2209 54.5771H29.7214C29.6702 54.5771 29.6318 54.5639 29.6061 54.5242C29.5677 54.4978 29.5549 54.4449 29.5549 54.4052V53.5585C29.3116 53.9289 28.9914 54.22 28.6071 54.4316C28.2229 54.6433 27.8002 54.7491 27.3519 54.7491C26.7243 54.7491 26.212 54.5639 25.8277 54.2067ZM28.4918 53.5585C28.812 53.3469 29.0554 53.0823 29.2347 52.7515C29.414 52.4208 29.5037 52.1033 29.5037 51.799V51.2963C29.3116 51.3228 28.6968 51.4022 27.6721 51.5609L27.3391 51.6138C26.545 51.7329 26.1479 52.1298 26.1479 52.778C26.1479 53.1087 26.2632 53.3865 26.5066 53.585C26.7499 53.7966 27.0573 53.8892 27.4416 53.8892C27.813 53.8892 28.1716 53.7834 28.4918 53.5585Z" fill="#FB503B"/>
<path d="M31.9116 54.5375C31.8732 54.511 31.8604 54.4581 31.8604 54.4184V53.8496C31.8604 53.7966 31.8732 53.757 31.9116 53.7305C31.9372 53.704 31.9885 53.6776 32.0269 53.6776H33.0131V48.4918H32.0269C31.9757 48.4918 31.9372 48.4786 31.9116 48.4389C31.8732 48.4124 31.8604 48.3595 31.8604 48.3198V47.7906C31.8604 47.7377 31.8732 47.698 31.9116 47.6716C31.9372 47.6451 31.9885 47.6187 32.0269 47.6187H33.5126C33.6279 47.6187 33.7304 47.6584 33.82 47.751C33.9097 47.8436 33.9481 47.9362 33.9481 48.0685V48.6902L34.6398 48.1346C34.9215 47.9097 35.1649 47.751 35.3314 47.6716C35.5107 47.5922 35.7028 47.5525 35.895 47.5525H36.2536C36.3048 47.5525 36.3561 47.5658 36.3817 47.6054C36.4073 47.6319 36.4201 47.6848 36.4201 47.7245V48.333C36.4201 48.386 36.4073 48.4256 36.3689 48.4521C36.3305 48.4786 36.292 48.505 36.2536 48.505H35.9974C35.7925 48.505 35.6132 48.5447 35.4339 48.6373C35.2546 48.7299 34.9984 48.9151 34.6526 49.1929L33.9481 49.775V53.6908H35.3314C35.3826 53.6908 35.4211 53.704 35.4467 53.7437C35.4723 53.7702 35.4979 53.8231 35.4979 53.8628V54.4316C35.4979 54.4845 35.4851 54.5242 35.4467 54.5507C35.4211 54.5904 35.3698 54.6036 35.3314 54.6036H32.0269C31.9885 54.5904 31.9501 54.5639 31.9116 54.5375Z" fill="#FB503B"/>
<path d="M37.9187 54.2067C37.5344 53.8496 37.3295 53.3733 37.3295 52.7912C37.3295 52.2488 37.5088 51.7991 37.8546 51.4419C38.2133 51.0847 38.7 50.873 39.3404 50.7804L40.8902 50.5555C41.1207 50.5291 41.2872 50.4365 41.3897 50.3174C41.4922 50.1851 41.5434 50.0131 41.5434 49.775V49.6824C41.5434 49.2855 41.3897 48.968 41.0951 48.7299C40.8005 48.4918 40.4291 48.3727 39.9808 48.3727C39.635 48.3727 39.3276 48.4389 39.0714 48.5844C38.8152 48.7299 38.6103 48.9283 38.4566 49.1797C38.3926 49.2855 38.3157 49.3384 38.2133 49.3384C38.162 49.3384 38.1108 49.312 38.0596 49.2723L37.7394 49.0474C37.6625 48.9813 37.6369 48.9151 37.6369 48.8357C37.6369 48.8093 37.6497 48.7564 37.6753 48.7167C37.9059 48.3198 38.2261 48.0155 38.6231 47.7906C39.0202 47.5658 39.4941 47.4467 40.0192 47.4467C40.4931 47.4467 40.9158 47.5393 41.3 47.7245C41.6715 47.9097 41.9661 48.1743 42.171 48.505C42.3759 48.8357 42.4784 49.2326 42.4784 49.6692V54.4052C42.4784 54.4581 42.4656 54.4978 42.4272 54.5242C42.4015 54.5639 42.3503 54.5771 42.3119 54.5771H41.8124C41.7611 54.5771 41.7227 54.5639 41.6971 54.5242C41.6587 54.4978 41.6459 54.4449 41.6459 54.4052V53.5585C41.4025 53.9289 41.0823 54.22 40.698 54.4316C40.3138 54.6433 39.8911 54.7491 39.4428 54.7491C38.8024 54.7491 38.3029 54.5639 37.9187 54.2067ZM40.57 53.5585C40.8902 53.3469 41.1335 53.0823 41.3128 52.7515C41.4922 52.4208 41.5818 52.1033 41.5818 51.799V51.2963C41.3897 51.3228 40.7749 51.4022 39.7502 51.5609L39.4172 51.6138C38.6231 51.7329 38.2261 52.1298 38.2261 52.778C38.2261 53.1087 38.3413 53.3865 38.5847 53.585C38.8281 53.7966 39.1354 53.8892 39.5197 53.8892C39.9039 53.8892 40.2498 53.7834 40.57 53.5585Z" fill="#FB503B"/>
<path d="M46.0519 54.5375C46.0134 54.511 45.975 54.4713 45.9622 54.4184L43.7208 47.87C43.708 47.8568 43.708 47.8303 43.708 47.7774C43.708 47.7245 43.7208 47.6848 43.7592 47.6451C43.7976 47.6054 43.8361 47.5922 43.9001 47.5922H44.4508C44.5021 47.5922 44.5405 47.6054 44.5917 47.6319C44.6302 47.6584 44.6686 47.698 44.6814 47.751L46.5642 53.3733L48.4086 47.751C48.4214 47.698 48.4598 47.6584 48.4982 47.6319C48.5367 47.6054 48.5879 47.5922 48.6391 47.5922H49.1643C49.2411 47.5922 49.2924 47.6187 49.3308 47.6716C49.3692 47.7245 49.3692 47.7906 49.3436 47.8568L47.1021 54.4052C47.0893 54.4581 47.0509 54.4978 47.0125 54.5242C46.9741 54.5507 46.9228 54.5639 46.8716 54.5639H46.1928C46.1415 54.5904 46.1031 54.5772 46.0519 54.5375Z" fill="#FB503B"/>
<path d="M51.6619 54.2332C51.2648 53.9951 50.9446 53.6643 50.7141 53.2542C50.4835 52.8441 50.3682 52.3944 50.3682 51.9049V50.1454C50.3682 49.6559 50.4835 49.2062 50.7141 48.7961C50.9446 48.386 51.2648 48.0552 51.6619 47.8171C52.0589 47.579 52.4944 47.4599 52.9683 47.4599C53.4422 47.4599 53.8649 47.579 54.2747 47.8171C54.6718 48.0552 54.992 48.386 55.2225 48.7961C55.4531 49.2062 55.5684 49.6559 55.5684 50.1454V50.9788C55.5684 51.0979 55.5299 51.2037 55.4403 51.2963C55.3506 51.3889 55.261 51.4286 55.1329 51.4286H51.316V51.971C51.316 52.2885 51.3929 52.5663 51.5338 52.8309C51.6747 53.0955 51.8796 53.3072 52.1358 53.4527C52.3919 53.5982 52.6737 53.6776 52.9683 53.6776H54.6974C54.7486 53.6776 54.7871 53.6908 54.8127 53.7305C54.8383 53.757 54.8639 53.8099 54.8639 53.8496V54.4184C54.8639 54.4713 54.8511 54.511 54.8127 54.5375C54.7743 54.5772 54.7358 54.5904 54.6974 54.5904H52.9555C52.4816 54.5904 52.0589 54.4713 51.6619 54.2332ZM54.6206 50.5291V50.0793C54.6206 49.7618 54.5437 49.484 54.4028 49.2194C54.2619 48.9548 54.057 48.7431 53.8008 48.5976C53.5447 48.4521 53.2629 48.3727 52.9683 48.3727C52.6609 48.3727 52.3919 48.4521 52.1358 48.5976C51.8796 48.7431 51.6747 48.9548 51.5338 49.2194C51.3801 49.484 51.316 49.775 51.316 50.0793V50.5291H54.6206Z" fill="#FB503B"/>
<path d="M57.7586 54.4581C57.6689 54.3655 57.6305 54.2729 57.6305 54.1406V46.1502H56.5162C56.4649 46.1502 56.4265 46.137 56.4009 46.0973C56.3753 46.0709 56.3497 46.018 56.3497 45.9783V45.4094C56.3497 45.3565 56.3625 45.3168 56.4009 45.2904C56.4265 45.2639 56.4777 45.2374 56.5162 45.2374H58.13C58.2453 45.2374 58.3477 45.2771 58.4374 45.3697C58.5271 45.4623 58.5655 45.5549 58.5655 45.6872V53.6776H59.8335C59.8847 53.6776 59.9231 53.6908 59.9488 53.7305C59.9744 53.7702 60 53.8099 60 53.8496V54.4184C60 54.4713 59.9872 54.511 59.9488 54.5375C59.9231 54.5772 59.8719 54.5904 59.8335 54.5904H58.066C57.9379 54.5904 57.8354 54.5375 57.7586 54.4581Z" fill="#FB503B"/>
</svg>
