<svg width="80" height="80" viewBox="0 0 80 80" fill="none" xmlns="http://www.w3.org/2000/svg">
<g clip-path="url(#clip0_3822_6584)">
<path fill-rule="evenodd" clip-rule="evenodd" d="M43.7222 19C43.4364 19.002 43.1528 19.051 42.8826 19.145C43.3804 19.4759 43.7381 19.9809 43.8862 20.5619C43.8862 20.6344 43.919 20.6937 43.9321 20.7662C43.9453 20.8387 43.9321 20.898 43.9321 20.9639C43.9715 21.9261 43.6829 22.0447 43.473 22.6115C43.3239 22.9541 43.2598 23.328 43.2861 23.7011C43.3123 24.0741 43.4282 24.4352 43.6238 24.7533C43.6572 24.8365 43.699 24.916 43.7485 24.9906C43.368 22.249 45.6573 21.8338 46.0771 20.9771C46.0491 20.64 45.9355 20.3157 45.7472 20.0353C45.5588 19.755 45.302 19.5278 45.0013 19.3756C44.6092 19.126 44.1536 18.9955 43.6894 19H43.7222ZM47.1659 19.659C47.1558 19.7642 47.1558 19.8702 47.1659 19.9754V20.2587L47.0938 20.5223C47.0938 20.608 47.0347 20.6937 47.0019 20.7794L46.838 20.9771L46.7527 21.1089L46.6871 21.2077L46.5493 21.4516C46.4888 21.5223 46.423 21.5884 46.3526 21.6493C46.2739 21.7086 46.2214 21.7811 46.1492 21.8338C45.9196 22.0118 45.6573 22.137 45.4211 22.3017C45.3447 22.3508 45.2723 22.4059 45.2047 22.4665C45.131 22.5186 45.0628 22.5783 45.0013 22.6444C44.9271 22.7058 44.859 22.7742 44.798 22.8487C44.7372 22.9163 44.6823 22.9891 44.634 23.0662L44.4897 23.2969L44.3716 23.5407L44.2798 23.7911L44.2076 24.0679C44.2145 24.1138 44.2145 24.1605 44.2076 24.2063C44.2113 24.2502 44.2113 24.2943 44.2076 24.3381V24.6149C44.2076 24.6742 44.2076 24.7401 44.2076 24.8126C44.1988 24.9025 44.1988 24.993 44.2076 25.0828C44.2076 25.1817 44.2076 25.2608 44.2667 25.3465L44.3519 25.6101L44.4241 25.7551L41.9315 24.7863L40.6459 24.4634L39.9899 24.2986C39.3393 24.1668 38.6825 24.0678 38.0221 24.002H37.9696L36.0018 23.9032L34.5784 23.9559C33.9225 24.002 33.2665 24.0877 32.6106 24.1931L32.1186 24.2722L31.1413 24.4831L30.6493 24.6149L30.1508 24.8258L29.7966 24.9906C29.7966 24.9906 29.7507 24.9906 29.7375 24.9906L29.4358 25.1422C29.4107 25.1506 29.3865 25.1616 29.3637 25.1751L29.0291 25.3465C28.9504 25.3794 28.8783 25.4255 28.8127 25.4585C28.7812 25.4785 28.7483 25.4961 28.7143 25.5112L28.4257 25.676L28.1698 25.8407L27.9534 25.9923L27.7172 26.1636L27.5336 26.3152C27.5336 26.3152 27.4877 26.3152 27.468 26.3614L27.304 26.4998C27.304 26.4998 27.2712 26.5327 27.2581 26.5459L27.0613 26.7304L26.8448 26.9347L26.6612 27.139L26.589 27.1983C26.53 27.2708 26.4644 27.3367 26.4053 27.396C26.3463 27.4553 26.4053 27.429 26.3594 27.4553L26.1102 27.7124L25.5264 28.2791C25.3338 28.4528 25.13 28.6135 24.9164 28.7602L24.2604 29.1688C24.0457 29.3084 23.8222 29.4339 23.5914 29.5445C23.3618 29.6367 23.1256 29.729 22.8895 29.8015C22.4583 29.931 22.0203 30.0366 21.5776 30.1178C21.4923 30.1178 21.3939 30.1178 21.3021 30.1508L21.0332 30.2167L20.7708 30.3155C20.6805 30.3483 20.5927 30.388 20.5084 30.4342C20.4363 30.4935 20.3444 30.533 20.2723 30.5857C20.1941 30.6397 20.1216 30.7015 20.0558 30.7703C19.9902 30.8362 19.905 30.8955 19.8394 30.968L19.6557 31.1657C19.6032 31.2514 19.5376 31.3304 19.4917 31.4161C19.4458 31.5018 19.3868 31.5809 19.3408 31.6666L19.2228 31.9499L19.1244 32.2333L19.0719 32.4969C19.0415 32.6097 19.0174 32.7241 18.9998 32.8396C18.9932 32.9142 18.9932 32.9892 18.9998 33.0637C18.9965 33.1098 18.9965 33.156 18.9998 33.2021C19.0105 33.2711 19.0259 33.3394 19.0457 33.4064L19.1178 33.6107C19.1531 33.6825 19.1948 33.7508 19.2425 33.815L19.3802 34.0127L19.577 34.1577C19.6426 34.2199 19.7128 34.2772 19.7869 34.329C19.9779 34.5243 20.1995 34.6869 20.4428 34.8101L20.6199 34.8958C20.6402 34.9138 20.656 34.9364 20.6659 34.9617C20.6776 35.0506 20.6952 35.1387 20.7183 35.2253C20.7409 35.3128 20.7694 35.3987 20.8036 35.4823L20.8889 35.68L20.9217 35.7394L21.0529 35.9766L21.2168 36.2073L21.4005 36.4116L21.6039 36.5961L21.8203 36.7938L22.0565 36.9388C22.1385 36.985 22.2241 37.0246 22.3123 37.0574C22.3812 37.0904 22.4539 37.1148 22.5287 37.1299C22.6009 37.1299 22.6665 37.176 22.7124 37.1826C22.6601 37.6215 22.6733 38.0658 22.7517 38.5007C22.8501 38.7182 23.329 38.0526 23.8078 37.2881C23.7157 37.9174 23.7157 38.5568 23.8078 39.1861C23.9128 39.4431 24.5753 38.6061 25.1197 37.6703C26.8716 37.2399 28.6954 37.1946 30.4664 37.5374C32.2373 37.8803 33.9138 38.6033 35.381 39.657C36.8483 40.7107 38.0718 42.0703 38.968 43.6428C39.8642 45.2153 40.4119 46.9637 40.5737 48.7684C40.4643 48.2641 40.1768 47.8167 39.7644 47.5089C39.3519 47.2012 38.8425 47.0539 38.3304 47.0945C37.9837 48.0714 37.3726 48.9318 36.5659 49.579C36.6402 48.8526 36.6026 48.1191 36.4544 47.4042C36.2116 48.4061 35.7526 49.342 35.1097 50.1458C34.61 50.1829 34.1089 50.0952 33.6511 49.8905C33.1933 49.6858 32.793 49.3705 32.4859 48.9727C32.44 48.9727 32.4269 48.8672 32.3941 48.8277L32.3088 48.597C32.2771 48.5256 32.2551 48.4503 32.2432 48.373C32.2432 48.2873 32.2432 48.2214 32.2432 48.1291V47.9973C32.2552 47.9214 32.2728 47.8465 32.2957 47.7733L32.3679 47.5426C32.4138 47.4635 32.4466 47.391 32.4991 47.3119C32.6827 46.8111 32.6827 46.3629 32.3482 46.1191C32.2858 46.0727 32.2174 46.035 32.1448 46.0071L32.0071 45.9609H31.9153L31.6922 45.9082C31.616 45.8986 31.5389 45.8986 31.4627 45.9082C31.3819 45.9014 31.3007 45.9014 31.22 45.9082H31.0625C30.9806 45.909 30.8991 45.9201 30.8198 45.9412L30.5903 45.9807L30.3672 46.0598L30.1508 46.0202L29.9409 46.1323C27.4155 47.7864 28.9242 51.6615 30.6493 52.7819C30.1337 52.8446 29.63 52.9823 29.1537 53.1905C29.6063 53.4926 30.0902 53.7445 30.5968 53.9418L32.3482 54.4361C33.2457 54.6343 34.1664 54.7053 35.0835 54.6469C37.4303 54.486 39.6517 53.5238 41.3793 51.9199C43.107 50.316 44.2368 48.1669 44.5815 45.8291L44.6471 46.1125L44.7455 46.7188L44.7914 47.0154V47.3383V47.6942V47.8721C44.7914 47.9248 44.7914 47.9907 44.7914 48.0435C44.7914 48.0962 44.7914 48.1753 44.7914 48.2478V48.3927C44.7914 48.4718 44.7914 48.5377 44.7914 48.6102C44.7973 48.6584 44.7973 48.7071 44.7914 48.7552V48.9925C44.7851 49.0251 44.7851 49.0587 44.7914 49.0913V49.3417C44.7947 49.3746 44.7947 49.4077 44.7914 49.4406L44.7521 49.7569L44.6865 50.0601L44.6209 50.383L44.5356 50.7191L44.4438 51.0618L44.3388 51.4111L44.0961 52.0701L43.9715 52.3865L43.8206 52.6896C43.8229 52.7137 43.8229 52.738 43.8206 52.7621C43.0711 54.2295 41.9824 55.495 40.6459 56.4527L40.39 56.6372C40.39 56.6372 40.331 56.6372 40.3113 56.6965L40.0752 56.8613L40.108 56.9206L40.5672 56.8613L41.4133 56.7097L41.6495 56.657H41.8003L42.0299 56.6109L42.2267 56.5581C43.2995 56.2915 44.35 55.9411 45.3687 55.5103C43.6358 57.8786 41.334 59.7673 38.678 61C39.9288 60.9129 41.1668 60.692 42.371 60.341C46.7175 59.0535 50.3902 56.1087 52.6037 52.136C52.1566 54.6568 51.1598 57.0469 49.6848 59.1349C50.7389 58.4437 51.7115 57.6345 52.584 56.7229C55.0208 54.1807 56.6234 50.949 57.1756 47.4635C57.5444 49.1949 57.6505 50.9724 57.4905 52.7358C65.3159 41.7629 58.1464 30.388 55.1356 27.396C55.1356 27.396 55.1356 27.3631 55.1356 27.3433C55.1135 27.472 55.0982 27.6018 55.0897 27.7321C55.0897 27.9826 55.0307 28.2264 54.9848 28.4637C54.9389 28.7009 54.8667 28.9382 54.8011 29.182C54.7314 29.4212 54.6437 29.6547 54.5387 29.8806C54.4403 30.1112 54.3354 30.3287 54.2173 30.5396C54.0999 30.7532 53.9707 30.96 53.8303 31.1591C53.686 31.37 53.5351 31.5677 53.3843 31.7522C53.2334 31.9368 53.0497 32.1213 52.8726 32.2926L52.5578 32.5694L52.3085 32.7869C52.1158 32.9424 51.9119 33.0834 51.6985 33.2087C51.4876 33.3472 51.2686 33.4726 51.0426 33.5843L50.3866 33.8875C50.1505 33.9732 49.9209 34.0522 49.6782 34.1181C49.4355 34.184 49.1928 34.2368 48.9567 34.2829C48.7205 34.329 48.4581 34.3422 48.2154 34.3686C47.9727 34.3949 47.8678 34.3686 47.7235 34.3686C47.4742 34.3686 47.225 34.3686 46.9823 34.3224C46.7353 34.3008 46.4899 34.2633 46.2476 34.2104C46.0009 34.166 45.7576 34.1044 45.5195 34.0259C45.7557 34.0259 45.9918 33.9797 46.2345 33.9402C46.4772 33.9007 46.7265 33.8414 46.9626 33.7754C47.1987 33.7095 47.4349 33.6305 47.6644 33.5448C47.894 33.4591 48.1302 33.3471 48.3204 33.2416C48.5106 33.1362 48.7533 33.011 48.9763 32.8858C49.1994 32.7605 49.383 32.6024 49.5798 32.4442C49.7754 32.2958 49.9596 32.1328 50.1308 31.9565C50.3112 31.7884 50.482 31.6102 50.6424 31.4227C50.8064 31.2382 50.9573 31.0339 51.1016 30.8362C51.1271 30.8011 51.149 30.7636 51.1672 30.7241L51.482 30.2299C51.6001 30.0124 51.7051 29.7949 51.8034 29.5708C51.9018 29.3468 51.9871 29.1095 52.0658 28.8723C52.1445 28.635 52.1905 28.4044 52.2429 28.1671C52.2988 27.9265 52.3361 27.6819 52.3544 27.4356C52.3828 27.1905 52.3981 26.9441 52.4004 26.6975C52.4004 26.5195 52.4004 26.3482 52.4004 26.1966C52.4004 26.045 52.3413 25.7089 52.3151 25.4651C52.2888 25.2212 52.2167 24.9774 52.1511 24.7401C52.0855 24.5029 52.0002 24.2722 51.9084 24.0416C51.8193 23.8168 51.7186 23.5968 51.6067 23.3825C51.4963 23.155 51.3714 22.9348 51.2328 22.7235C51.1016 22.5192 50.9507 22.3215 50.7999 22.1238L50.3079 21.5702L49.9602 21.3066C49.4755 20.9255 48.972 20.5692 48.4516 20.239C48.3794 20.1928 48.3073 20.1665 48.2351 20.1269C47.9157 19.9226 47.569 19.765 47.2053 19.659H47.1659Z" fill="#EA2845"/>
</g>
<defs>
<clipPath id="clip0_3822_6584">
<rect width="42" height="42" fill="white" transform="translate(19 19)"/>
</clipPath>
</defs>
</svg>
