<svg width="80" height="80" viewBox="0 0 80 80" fill="none" xmlns="http://www.w3.org/2000/svg">
<g clip-path="url(#clip0_1_779)">
<path d="M40.0476 60.0015C51.0678 60.0015 60.0015 51.0678 60.0015 40.0476C60.0015 29.0274 51.0678 20.0938 40.0476 20.0938C29.0274 20.0938 20.0938 29.0274 20.0938 40.0476C20.0938 51.0678 29.0274 60.0015 40.0476 60.0015Z" fill="#F4B960"/>
<path d="M38.0233 56.0467C47.9773 56.0467 56.0467 47.9773 56.0467 38.0233C56.0467 28.0693 47.9773 20 38.0233 20C28.0693 20 20 28.0693 20 38.0233C20 47.9773 28.0693 56.0467 38.0233 56.0467Z" fill="#E66F32"/>
<path d="M40.507 51.3577C49.1403 51.3577 56.139 44.359 56.139 35.7257C56.139 27.0924 49.1403 20.0938 40.507 20.0938C31.8737 20.0938 24.875 27.0924 24.875 35.7257C24.875 44.359 31.8737 51.3577 40.507 51.3577Z" fill="#E43C41"/>
<path d="M41.6998 51.2629C49.622 51.2629 56.0441 44.8407 56.0441 36.9186C56.0441 28.9964 49.622 22.5742 41.6998 22.5742C33.7776 22.5742 27.3555 28.9964 27.3555 36.9186C27.3555 44.8407 33.7776 51.2629 41.6998 51.2629Z" fill="#BDD041"/>
<path d="M40.689 51.3565C48.0529 51.3565 54.0226 45.3869 54.0226 38.023C54.0226 30.6591 48.0529 24.6895 40.689 24.6895C33.3251 24.6895 27.3555 30.6591 27.3555 38.023C27.3555 45.3869 33.3251 51.3565 40.689 51.3565Z" fill="#6DB54C"/>
<path d="M38.5754 46.9418C44.7202 46.9418 49.7015 41.9604 49.7015 35.8156C49.7015 29.6708 44.7202 24.6895 38.5754 24.6895C32.4306 24.6895 27.4492 29.6708 27.4492 35.8156C27.4492 41.9604 32.4306 46.9418 38.5754 46.9418Z" fill="#AEDAE6"/>
<path d="M40.321 43.3568C45.5012 43.3568 49.7005 39.1574 49.7005 33.9772C49.7005 28.797 45.5012 24.5977 40.321 24.5977C35.1408 24.5977 30.9414 28.797 30.9414 33.9772C30.9414 39.1574 35.1408 43.3568 40.321 43.3568Z" fill="#56B8DE"/>
<path d="M41.5169 43.4497C46.0372 43.4497 49.7017 39.7853 49.7017 35.2649C49.7017 30.7445 46.0372 27.0801 41.5169 27.0801C36.9965 27.0801 33.332 30.7445 33.332 35.2649C33.332 39.7853 36.9965 43.4497 41.5169 43.4497Z" fill="#00B1D5"/>
<path d="M40.3242 43.3553C44.1836 43.3553 47.3124 40.2266 47.3124 36.3671C47.3124 32.5076 44.1836 29.3789 40.3242 29.3789C36.4647 29.3789 33.3359 32.5076 33.3359 36.3671C33.3359 40.2266 36.4647 43.3553 40.3242 43.3553Z" fill="url(#paint0_radial_1_779)"/>
<path d="M40.3242 43.3553C44.1836 43.3553 47.3124 40.2266 47.3124 36.3671C47.3124 32.5076 44.1836 29.3789 40.3242 29.3789C36.4647 29.3789 33.3359 32.5076 33.3359 36.3671C33.3359 40.2266 36.4647 43.3553 40.3242 43.3553Z" fill="#221F1F"/>
<path d="M44.3803 34.4059C44.8794 33.2936 44.7208 32.1393 44.0261 31.8275C43.3314 31.5158 42.3637 32.1648 41.8646 33.2771C41.3655 34.3893 41.5241 35.5437 42.2188 35.8554C42.9135 36.1671 43.8813 35.5182 44.3803 34.4059Z" fill="white"/>
</g>
<defs>
<radialGradient id="paint0_radial_1_779" cx="0" cy="0" r="1" gradientUnits="userSpaceOnUse" gradientTransform="translate(40.3353 36.4594) scale(7.0446)">
<stop stop-color="#797979"/>
<stop offset="1" stop-color="#4C4C4C"/>
</radialGradient>
<clipPath id="clip0_1_779">
<rect width="40" height="40" fill="white" transform="translate(20 20)"/>
</clipPath>
</defs>
</svg>
