<svg width="80" height="80" viewBox="0 0 80 80" fill="none" xmlns="http://www.w3.org/2000/svg">
<path d="M62 40.0046C62 37.0291 58.2668 34.2092 52.5432 32.4605C53.864 26.6377 53.277 22.005 50.6904 20.5219C50.0942 20.174 49.3971 20.0092 48.6358 20.0092V22.0508C49.0577 22.0508 49.3971 22.1332 49.6814 22.2889C50.9289 23.003 51.47 25.7221 51.0481 29.2195C50.9472 30.0801 50.7821 30.9865 50.5803 31.9112C48.7825 31.4717 46.8196 31.133 44.7558 30.9133C43.5175 29.2195 42.2334 27.6814 40.9401 26.3355C43.9303 23.5615 46.7371 22.0417 48.6449 22.0417V20C46.1225 20 42.8204 21.7945 39.4817 24.9073C36.1429 21.8128 32.8408 20.0366 30.3184 20.0366V22.0783C32.2171 22.0783 35.033 23.5889 38.0232 26.3447C36.7391 27.6905 35.455 29.2195 34.235 30.9133C32.162 31.133 30.1991 31.4717 28.4013 31.9203C28.1904 31.0048 28.0344 30.1167 27.9244 29.2653C27.4933 25.7679 28.0253 23.0488 29.2636 22.3255C29.5387 22.1607 29.8965 22.0874 30.3184 22.0874V20.0458C29.5479 20.0458 28.8508 20.2106 28.2454 20.5585C25.668 22.0417 25.0901 26.6651 26.4201 32.4697C20.7148 34.2275 17 37.0382 17 40.0046C17 42.9801 20.7332 45.8 26.4568 47.5486C25.136 53.3715 25.723 58.0041 28.3096 59.4873C28.9058 59.8352 29.6029 60 30.3734 60C32.8958 60 36.1979 58.2055 39.5367 55.0927C42.8755 58.1872 46.1775 59.9634 48.7 59.9634C49.4704 59.9634 50.1676 59.7986 50.7729 59.4507C53.3504 57.9675 53.9283 53.344 52.5982 47.5395C58.2852 45.7908 62 42.9709 62 40.0046ZM50.0575 33.8979C49.7181 35.079 49.2962 36.2966 48.8192 37.5143C48.4431 36.7819 48.0487 36.0494 47.6176 35.317C47.1957 34.5846 46.7462 33.8705 46.2968 33.1746C47.5993 33.3669 48.8559 33.6049 50.0575 33.8979ZM45.8565 43.6484C45.1411 44.8844 44.4073 46.0563 43.6459 47.1458C42.2793 47.2648 40.8942 47.3289 39.5 47.3289C38.115 47.3289 36.7299 47.2648 35.3724 47.155C34.6111 46.0655 33.8681 44.9027 33.1527 43.6759C32.4556 42.4765 31.8227 41.2589 31.2448 40.032C31.8135 38.8052 32.4556 37.5784 33.1435 36.379C33.8589 35.1431 34.5927 33.9712 35.3541 32.8817C36.7208 32.7626 38.1058 32.6986 39.5 32.6986C40.885 32.6986 42.2701 32.7626 43.6276 32.8725C44.3889 33.962 45.1319 35.1247 45.8473 36.3516C46.5444 37.5509 47.1773 38.7686 47.7552 39.9954C47.1773 41.2222 46.5444 42.4491 45.8565 43.6484ZM48.8192 42.4582C49.3145 43.6851 49.7365 44.9119 50.085 46.1021C48.8834 46.3951 47.6176 46.6423 46.306 46.8345C46.7554 46.1295 47.2049 45.4063 47.6268 44.6647C48.0487 43.9322 48.4431 43.1907 48.8192 42.4582ZM39.5183 52.2271C38.6653 51.3481 37.8123 50.3685 36.9684 49.2973C37.7939 49.3339 38.6378 49.3614 39.4908 49.3614C40.353 49.3614 41.2061 49.3431 42.0408 49.2973C41.2152 50.3685 40.3622 51.3481 39.5183 52.2271ZM32.694 46.8345C31.3916 46.6423 30.1349 46.4042 28.9333 46.1112C29.2727 44.9302 29.6947 43.7125 30.1716 42.4949C30.5477 43.2273 30.9421 43.9597 31.3732 44.6922C31.8043 45.4246 32.2446 46.1387 32.694 46.8345ZM39.4725 27.7821C40.3255 28.661 41.1786 29.6406 42.0224 30.7118C41.1969 30.6752 40.353 30.6477 39.5 30.6477C38.6378 30.6477 37.7848 30.6661 36.9501 30.7118C37.7756 29.6406 38.6286 28.661 39.4725 27.7821ZM32.6849 33.1746C32.2354 33.8796 31.786 34.6029 31.364 35.3445C30.9421 36.0769 30.5477 36.8093 30.1716 37.5418C29.6763 36.3149 29.2544 35.0881 28.9058 33.8979C30.1074 33.6141 31.3732 33.3669 32.6849 33.1746ZM24.3838 44.6372C21.1368 43.2547 19.0363 41.442 19.0363 40.0046C19.0363 38.5672 21.1368 36.7452 24.3838 35.3719C25.1726 35.0332 26.0349 34.7311 26.9246 34.4472C27.4474 36.2417 28.1353 38.1094 28.9884 40.0229C28.1445 41.9272 27.4658 43.7858 26.9521 45.5711C26.044 45.2872 25.1818 44.976 24.3838 44.6372ZM29.3186 57.7203C28.0711 57.0062 27.53 54.287 27.9519 50.7897C28.0528 49.929 28.2179 49.0227 28.4197 48.098C30.2175 48.5374 32.1804 48.8762 34.2442 49.0959C35.4825 50.7897 36.7666 52.3278 38.0599 53.6736C35.0697 56.4477 32.2629 57.9675 30.3551 57.9675C29.9423 57.9583 29.5938 57.8759 29.3186 57.7203ZM51.0756 50.7439C51.5067 54.2412 50.9747 56.9604 49.7364 57.6837C49.4613 57.8485 49.1035 57.9217 48.6816 57.9217C46.7829 57.9217 43.967 56.4111 40.9768 53.6553C42.2609 52.3095 43.545 50.7805 44.765 49.0867C46.838 48.867 48.8009 48.5283 50.5987 48.0797C50.8096 49.0043 50.9747 49.8924 51.0756 50.7439ZM54.607 44.6372C53.8182 44.976 52.956 45.2781 52.0662 45.5619C51.5434 43.7675 50.8555 41.8997 50.0024 39.9863C50.8463 38.0819 51.5251 36.2234 52.0387 34.4381C52.9468 34.7219 53.809 35.0332 54.6162 35.3719C57.8632 36.7544 59.9637 38.5672 59.9637 40.0046C59.9545 41.442 57.8541 43.2639 54.607 44.6372Z" fill="#61DAFB"/>
<path d="M39.5 44.2697C41.7368 44.2697 43.55 42.3582 43.55 40.0001C43.55 37.642 41.7368 35.7304 39.5 35.7304C37.2632 35.7304 35.45 37.642 35.45 40.0001C35.45 42.3582 37.2632 44.2697 39.5 44.2697Z" fill="#61DAFB"/>
</svg>
