<svg width="80" height="80" viewBox="0 0 80 80" fill="none" xmlns="http://www.w3.org/2000/svg">
<g clip-path="url(#clip0_1_689)">
<path d="M33.0423 42.8477H23.0156L23.0213 42.9945L23.0383 43.2771L23.0458 43.3979L23.0729 43.7243L23.0797 43.7972L23.1187 44.1585C23.1194 44.1702 23.1207 44.1819 23.1224 44.1934L23.1733 44.5815C23.2893 45.3856 23.4617 46.1774 23.6924 46.9556L23.6958 46.9658L23.8155 47.3525L23.8223 47.3739L23.9325 47.7023L23.9617 47.785L24.0649 48.069L24.1134 48.1972L24.205 48.4347L24.2772 48.6111L24.3539 48.7943L24.4557 49.0175L24.515 49.1532L24.6399 49.4202L24.6813 49.5057L24.8315 49.8093L24.8553 49.8558L25.0385 50.2035L25.0775 50.2714L33.6689 45.0867C33.331 44.3743 33.1207 43.6171 33.0426 42.8477H33.0423ZM23.4892 47.4485L23.4919 47.4577L23.8155 47.3559L23.4892 47.4485Z" fill="#93D500"/>
<path d="M35.5043 47.4541L28.4141 54.541L28.5236 54.6421L28.8266 54.9108L29.0674 55.115L29.1326 55.1693L29.4081 55.3911L29.4437 55.4193L29.747 55.652C29.7511 55.6545 29.7549 55.6573 29.7585 55.6605L31.0799 56.5537L31.1273 56.5826L31.3876 56.7362L31.547 56.8272L31.6983 56.912L31.9744 57.0612L32.0128 57.0816L32.7941 57.4609L36.6096 48.1927C36.2221 47.9857 35.8503 47.7401 35.5002 47.4531L35.5043 47.4541Z" fill="#4D5A31"/>
<path d="M34.7718 46.7509L34.5513 46.4913L34.3681 46.2549L34.172 45.9774L33.9888 45.6914L25.4141 50.8564L25.8558 51.5502L25.8914 51.6024L25.8934 51.6058L26.3541 52.2551L26.3643 52.2687L26.3745 52.2823L26.5828 52.5537L26.8328 52.8641L26.8864 52.9285L27.0913 53.1704L27.1815 53.2729L27.3593 53.4764L27.4601 53.5857L27.5059 53.6352L27.6415 53.7777L27.6958 53.8333L27.9333 54.0762L35.0066 47.0029L34.7749 46.7553L34.7718 46.7509Z" fill="#6BA43A"/>
<path d="M44.1466 47.4492L43.9102 47.6324L43.9278 47.6619L49.085 56.2228L49.7906 55.737C50.2893 55.3689 50.7728 54.9703 51.2382 54.5405L44.1744 47.4774L44.1466 47.4492Z" fill="#4D5A31"/>
<path d="M48.4348 56.6321L48.4463 56.6253L48.446 56.625L48.4348 56.6321Z" fill="#93D500"/>
<path d="M48.4482 56.6222L48.516 56.5883L48.5147 56.5859L48.4482 56.6256V56.6222Z" fill="#93D500"/>
<path d="M48.4307 56.6341L48.4287 56.6351L48.4337 56.6317L48.4307 56.6341Z" fill="#93D500"/>
<path d="M48.3386 56.2946L43.3497 48.017L43.0532 48.1822L42.7492 48.3349C41.8343 48.77 40.834 48.9963 39.8209 48.9974C39.1612 48.9974 38.5051 48.9016 37.8729 48.7131L37.5523 48.6005L37.2321 48.4869L33.4237 57.7364L33.4515 57.7466L33.4807 57.7578H33.481L33.4885 57.7612L34.2196 58.041C35.3322 58.4337 36.4829 58.7091 37.6527 58.8627C37.6985 58.8683 37.7442 58.8744 37.7898 58.881L38.2044 58.9261L38.2715 58.9319L38.604 58.9597L38.717 58.9665L39.008 58.9835L39.1865 58.9902L39.4178 58.9984L39.831 59.0035C40.7669 59.0035 41.7011 58.9256 42.6241 58.7708L42.6709 58.764L42.964 58.7107L43.1336 58.6785L43.3049 58.6425L43.5906 58.5798L43.6421 58.5679C45.0461 58.2403 46.4024 57.7346 47.6781 57.063L47.6785 57.0626L47.9261 56.927L48.4292 56.6433L48.4211 56.6196L48.4336 56.641L48.4499 56.6315L48.5161 56.5918L48.3386 56.2946ZM35.5131 36.8952L35.7496 36.712L35.7319 36.6825L30.5751 28.125L29.8677 28.6122C29.369 28.9792 28.8863 29.3778 28.4219 29.807L35.4856 36.8674L35.5131 36.8952Z" fill="#93D500"/>
<path d="M27.9296 30.2732L27.4601 30.7634C26.9383 31.3282 26.4613 31.9168 26.0312 32.5342L25.9694 32.6224L25.8259 32.8345L25.68 33.057L25.6271 33.1384C24.0328 35.6433 23.1314 38.5262 23.0149 41.493L23.0058 41.8323L23 42.1715H33.0037L33.02 41.8323L33.0386 41.493C33.1699 40.156 33.6949 38.888 34.5472 37.8495C34.6151 37.7627 34.6989 37.6813 34.7752 37.5975C34.8515 37.5137 34.9218 37.4265 35.0025 37.3458L27.9296 30.2732ZM48.5703 27.7899L48.5289 27.7651L48.2633 27.6074L48.1082 27.5192L47.9522 27.4323L47.6808 27.2858L47.6381 27.2634C47.0512 26.9567 46.449 26.6867 45.8339 26.4492L45.7864 26.4309L45.3794 26.284C44.287 25.9023 43.1566 25.6347 42.0086 25.484L41.8678 25.465L41.727 25.4494L41.4556 25.4199L41.3796 25.4131L41.0563 25.386L40.6493 25.3612L40.502 25.3555V35.3836C41.0167 35.4368 41.5265 35.5464 42.0212 35.7143L49.4038 28.3381C49.1307 28.1473 48.852 27.9647 48.5679 27.7906L48.5703 27.7899Z" fill="#4D5A31"/>
<path d="M39.4881 25.3506L39.1489 25.3574C38.4412 25.3859 37.7349 25.4582 37.0343 25.5756L36.9882 25.5834L36.6948 25.6366L36.5251 25.6685L36.3528 25.7045L36.0678 25.7669L36.0159 25.7784C34.6118 26.1063 33.2554 26.6123 31.9796 27.284L31.1416 27.7569L31.1427 27.7586L36.306 36.3313L36.6025 36.1661C36.7024 36.1126 36.8036 36.0616 36.9061 36.0131C37.611 35.6769 38.3685 35.4646 39.1455 35.3855L39.4847 35.3584L39.824 35.3469L39.8243 25.3435C39.711 25.3432 39.598 25.3479 39.485 25.3503L39.4881 25.3506Z" fill="#6BA43A"/>
<path d="M56.6343 41.3448L56.6181 41.0751L56.6092 40.9404L56.5831 40.6235L56.5763 40.5414L56.539 40.1876L56.5356 40.1591L56.5339 40.1455L56.483 39.7642C56.4827 39.7608 56.4824 39.7557 56.4813 39.7523C56.3661 38.9525 56.1933 38.1621 55.9643 37.3871L55.9596 37.3722L55.8483 37.0116L55.833 36.9641L55.7245 36.6404L55.694 36.5529L55.5922 36.2737L55.5413 36.1414L55.4514 35.9114L55.3774 35.7302L55.3028 35.5518L55.2031 35.3245L55.1454 35.1963L55.0189 34.9259L54.9795 34.8438L54.8275 34.5364L54.8055 34.494L54.6291 34.1548C54.6267 34.1514 54.625 34.1466 54.6223 34.1429C54.3305 33.6069 54.011 33.0885 53.6649 32.5898L46.2812 39.9742C46.4478 40.4665 46.5586 40.976 46.6117 41.493H56.6398L56.6343 41.3448Z" fill="#4D5A31"/>
<path d="M46.6547 42.1722L46.6385 42.5115L46.6198 42.8507C46.4909 44.1534 45.9878 45.429 45.1115 46.4942C45.0437 46.5811 44.9599 46.6625 44.8835 46.7463C44.8072 46.8301 44.737 46.9172 44.6562 46.998L51.7295 54.0713C51.8099 53.9909 51.8856 53.9077 51.9636 53.826L52.1977 53.5807C52.7211 53.0142 53.1995 52.4205 53.6307 51.8044L53.6809 51.7318L53.8362 51.5035L53.9702 51.2983L54.0381 51.1982C55.6604 48.6504 56.5281 45.7635 56.6452 42.8504L56.6543 42.5111L56.6601 42.1719L46.6547 42.1722Z" fill="#6BA43A"/>
<path d="M59.6254 22.3727C57.7951 20.5424 54.8277 20.5424 52.9979 22.3727C51.5377 23.8324 51.246 26.0148 52.1158 27.7674L41.9076 37.9759C40.155 37.1068 37.9723 37.3982 36.5126 38.858C35.6341 39.7371 35.1406 40.9291 35.1406 42.1719C35.1406 43.4147 35.6341 44.6067 36.5126 45.4858C37.3918 46.3643 38.5838 46.8578 39.8267 46.8577C41.0696 46.8577 42.2616 46.3641 43.1407 45.4855C44.6005 44.0257 44.8919 41.8433 44.0228 40.0905L54.2307 29.8826C55.9836 30.7517 58.1659 30.4603 59.6254 29.0005C61.4559 27.171 61.4559 24.2036 59.6257 22.3734L59.6254 22.3727Z" fill="#424143"/>
</g>
<defs>
<clipPath id="clip0_1_689">
<rect width="38" height="38" fill="white" transform="translate(23 21)"/>
</clipPath>
</defs>
</svg>
