<svg width="80" height="80" viewBox="0 0 80 80" fill="none" xmlns="http://www.w3.org/2000/svg">
<g clip-path="url(#clip0_3822_6541)">
<path d="M23.6675 43.3857C25.1815 43.3857 26.312 43.1119 27.0268 42.5712C27.7417 42.0304 28.2236 41.1115 28.4796 39.8212C28.7186 38.6146 28.6272 37.7715 28.2095 37.3164C27.7919 36.8614 26.8572 36.6161 25.4616 36.6161H23.042L21.7006 43.3857H23.6675ZM15.753 51.7274C15.6975 51.7272 15.6427 51.715 15.5925 51.6917C15.5424 51.6683 15.4981 51.6345 15.4628 51.5924C15.4275 51.5504 15.4021 51.5012 15.3884 51.4484C15.3747 51.3957 15.373 51.3406 15.3835 51.2871L18.9387 33.3421C18.956 33.2586 19.0023 33.1836 19.0696 33.1297C19.137 33.0759 19.2212 33.0465 19.3081 33.0466H26.9706C29.3802 33.0466 31.1713 33.6878 32.2978 34.9535C33.4243 36.2192 33.7797 38.0069 33.337 40.2378C33.0054 42.0112 32.0855 43.6273 30.7205 44.8346C29.9248 45.5767 28.9717 46.1371 27.9294 46.4756C26.9254 46.7967 25.6353 46.9592 24.0962 46.9592H20.9928L20.1073 51.4309C20.0898 51.5143 20.0434 51.5893 19.9761 51.6431C19.9088 51.6969 19.8247 51.7263 19.7378 51.7264L15.753 51.7274Z" fill="black"/>
<path d="M23.3522 36.9835H25.4606C27.1453 36.9835 27.7297 37.346 27.9284 37.5617C28.2588 37.9202 28.321 38.6767 28.1092 39.7493C27.8702 40.9499 27.4295 41.8009 26.7959 42.2787C26.1624 42.7564 25.0952 43.0164 23.6665 43.0164H22.1605L23.3522 36.9835ZM26.9666 32.6743H19.3081C19.1333 32.6742 18.9639 32.7338 18.8291 32.8429C18.6942 32.952 18.6023 33.1038 18.5692 33.2722L15.014 51.2172C14.9927 51.3241 14.9957 51.4343 15.023 51.5399C15.0503 51.6455 15.1011 51.7439 15.1717 51.8279C15.2424 51.9119 15.3312 51.9795 15.4317 52.0258C15.5322 52.0722 15.6419 52.096 15.753 52.0957H19.7378C19.9125 52.0957 20.0816 52.0362 20.2164 51.9273C20.3512 51.8184 20.4433 51.667 20.4768 51.4989L21.3031 47.3256H24.0962C25.6745 47.3256 27.0078 47.1562 28.0459 46.8233C29.1405 46.4683 30.1416 45.8804 30.9776 45.1015C32.4015 43.8416 33.3609 42.1552 33.7064 40.3048C34.1733 37.9527 33.7938 36.0695 32.581 34.7073C31.3681 33.3451 29.4917 32.6743 26.9706 32.6743M21.2479 43.7551H23.6675C25.2739 43.7551 26.4703 43.458 27.2568 42.8637C28.0432 42.2695 28.574 41.2783 28.8491 39.8901C29.1128 38.5565 28.9927 37.6155 28.4887 37.0672C27.9847 36.5189 26.9757 36.2448 25.4616 36.2448H22.7308L21.2438 43.7551M26.9666 33.413C29.2718 33.413 30.9528 34.0063 32.0097 35.1929C33.0666 36.3794 33.3845 38.0364 32.9635 40.1639C32.6478 41.8603 31.768 43.4062 30.4615 44.5598C29.7078 45.2676 28.8031 45.8022 27.813 46.1249C26.8405 46.4362 25.6022 46.5915 24.0982 46.5908H20.6846L19.7399 51.361H15.753L19.3081 33.413H26.9706" fill="white"/>
<path d="M42.4733 46.9562C42.4185 46.9554 42.3644 46.9429 42.315 46.9195C42.2656 46.8961 42.222 46.8624 42.1872 46.8207C42.1524 46.7791 42.1273 46.7305 42.1136 46.6784C42.0999 46.6263 42.0979 46.5719 42.1079 46.5189L43.6801 38.5792C43.8297 37.8247 43.7926 37.282 43.5797 37.0535C43.4472 36.9136 43.0486 36.6782 41.8729 36.6782H39.0156L37.0387 46.6568C37.0212 46.7402 36.9748 46.8152 36.9075 46.869C36.8402 46.9228 36.7561 46.9523 36.6692 46.9523H32.7155C32.66 46.9521 32.6052 46.9399 32.555 46.9166C32.5049 46.8933 32.4606 46.8594 32.4253 46.8174C32.39 46.7753 32.3646 46.7261 32.3509 46.6734C32.3372 46.6206 32.3355 46.5655 32.346 46.512L35.9012 28.571C35.9185 28.4875 35.9648 28.4124 36.0322 28.3586C36.0995 28.3047 36.1838 28.2754 36.2706 28.2755H40.2244C40.2798 28.2755 40.3346 28.2875 40.3847 28.3107C40.4349 28.3338 40.4792 28.3676 40.5145 28.4095C40.5497 28.4518 40.5751 28.5011 40.5888 28.554C40.6025 28.6069 40.6042 28.6621 40.5939 28.7158L39.7354 33.0496H42.8006C45.1359 33.0496 46.7162 33.4534 47.6409 34.2838C48.5806 35.1318 48.8738 36.4871 48.5124 38.3122L46.8588 46.6568C46.8414 46.7403 46.7951 46.8154 46.7278 46.8692C46.6604 46.9231 46.5762 46.9524 46.4893 46.9523L42.4733 46.9562Z" fill="black"/>
<path d="M40.2244 27.9032H36.2706C36.0959 27.9033 35.9266 27.9629 35.7918 28.072C35.657 28.1811 35.565 28.3328 35.5317 28.5011L31.9766 46.446C31.9552 46.553 31.9583 46.6633 31.9855 46.7689C32.0128 46.8746 32.0636 46.973 32.1342 47.0571C32.2049 47.1412 32.2936 47.2089 32.3942 47.2553C32.4947 47.3017 32.6044 47.3257 32.7155 47.3256H36.6692C36.8439 47.3254 37.0131 47.2656 37.1479 47.1566C37.2827 47.0475 37.3747 46.8959 37.4082 46.7277L39.3258 37.0446H41.8649C43.0396 37.0446 43.2866 37.2908 43.2966 37.3017C43.3679 37.3765 43.4613 37.7252 43.3066 38.5063L41.7344 46.446C41.713 46.553 41.7161 46.6633 41.7434 46.7689C41.7706 46.8746 41.8214 46.973 41.8921 47.0571C41.9627 47.1412 42.0515 47.2089 42.152 47.2553C42.2525 47.3017 42.3622 47.3257 42.4733 47.3256H46.4893C46.6641 47.3256 46.8334 47.2659 46.9682 47.1568C47.103 47.0477 47.1949 46.896 47.2283 46.7277L48.8818 38.3773C49.2704 36.4172 48.9381 34.9466 47.8959 34.006C46.901 33.1097 45.2343 32.6743 42.8006 32.6743H40.1902L40.9633 28.7828C40.9843 28.6759 40.981 28.5657 40.9536 28.4602C40.9262 28.3547 40.8754 28.2565 40.8048 28.1724C40.7342 28.0884 40.6456 28.0207 40.5452 27.9742C40.4449 27.9276 40.3354 27.9034 40.2244 27.9032ZM40.2244 28.6419L39.2786 33.4131H42.8006C45.0168 33.4131 46.5452 33.7919 47.3859 34.5497C48.2266 35.3075 48.4789 36.5364 48.1429 38.2364L46.4893 46.5869H42.4733L44.0456 38.6471C44.2243 37.7436 44.1574 37.1277 43.8448 36.7993C43.5322 36.471 42.8712 36.3069 41.8619 36.3069H38.7053L36.6692 46.5869H32.7155L36.2706 28.6419H40.2244Z" fill="white"/>
<path d="M54.7683 43.3857C56.2823 43.3857 57.4128 43.1119 58.1277 42.5712C58.8425 42.0304 59.3244 41.1115 59.5774 39.8212C59.8164 38.6146 59.725 37.7715 59.3064 37.3164C58.8877 36.8614 57.958 36.6142 56.5655 36.6142H54.1458L52.8045 43.3857H54.7683ZM46.8538 51.7274C46.7983 51.7272 46.7435 51.715 46.6933 51.6917C46.6432 51.6683 46.5989 51.6345 46.5636 51.5924C46.5283 51.5504 46.5029 51.5012 46.4892 51.4484C46.4755 51.3957 46.4738 51.3406 46.4843 51.2871L50.0395 33.3421C50.0567 33.2585 50.1029 33.1834 50.1703 33.1295C50.2377 33.0756 50.322 33.0463 50.409 33.0466H58.0714C60.481 33.0466 62.2712 33.6878 63.3986 34.9535C64.5261 36.2192 64.8805 38.0069 64.4378 40.2378C64.1065 42.0115 63.1862 43.6278 61.8204 44.8346C61.0249 45.5765 60.0721 46.1368 59.0303 46.4756C58.0263 46.7967 56.7361 46.9592 55.196 46.9592H52.0937L51.2081 51.4309C51.1906 51.5143 51.1443 51.5893 51.077 51.6431C51.0096 51.6969 50.9255 51.7263 50.8387 51.7264L46.8538 51.7274Z" fill="black"/>
<path d="M54.457 36.9835H56.5654C58.2491 36.9835 58.8344 37.346 59.0332 37.5617C59.3635 37.9202 59.4258 38.6776 59.214 39.7493C58.975 40.9499 58.5302 41.8009 57.8977 42.2836C57.2652 42.7662 56.1969 43.0213 54.7683 43.0213H53.2623L54.457 36.9835ZM58.0714 32.6743H50.4089C50.2341 32.6742 50.0647 32.7338 49.9299 32.8429C49.795 32.952 49.7031 33.1038 49.67 33.2722L46.1148 51.2172C46.0934 51.3241 46.0965 51.4343 46.1238 51.5399C46.151 51.6455 46.2018 51.7439 46.2725 51.8279C46.3432 51.9119 46.432 51.9795 46.5325 52.0258C46.633 52.0722 46.7427 52.096 46.8538 52.0957H50.8426C51.0172 52.0957 51.1864 52.0362 51.3212 51.9273C51.456 51.8184 51.548 51.667 51.5816 51.4989L52.4079 47.3256H55.2C56.7793 47.3256 58.1116 47.1562 59.1507 46.8233C60.2453 46.4683 61.2464 45.8804 62.0824 45.1015C63.5063 43.8416 64.4657 42.1552 64.8112 40.3048C65.2771 37.9527 64.8986 36.0695 63.6858 34.7073C62.4729 33.3451 60.5924 32.6743 58.0714 32.6743ZM52.3486 43.7551H54.7683C56.3747 43.7551 57.5711 43.458 58.3575 42.8637C59.144 42.2695 59.6748 41.2783 59.9499 39.8901C60.2136 38.5565 60.0935 37.6155 59.5894 37.0672C59.0854 36.5189 58.0774 36.2448 56.5654 36.2448H53.8325L52.3486 43.7551ZM58.0714 33.413C60.3766 33.413 62.0576 34.0063 63.1145 35.1929C64.1714 36.3794 64.4893 38.0364 64.0683 40.1639C63.7526 41.8603 62.8727 43.4062 61.5663 44.5598C60.8114 45.2681 59.9053 45.8027 58.9138 46.1249C57.9412 46.4362 56.703 46.5915 55.199 46.5908H51.7854L50.8426 51.357H46.8538L50.4089 33.413H58.0714Z" fill="white"/>
</g>
<defs>
<clipPath id="clip0_3822_6541">
<rect width="50" height="24.1935" fill="white" transform="translate(15 27.9032)"/>
</clipPath>
</defs>
</svg>
