<svg width="80" height="80" viewBox="0 0 80 80" fill="none" xmlns="http://www.w3.org/2000/svg">
<path d="M46.0693 45.1427C45.339 45.1205 44.627 45.3738 44.0749 45.8524C43.5227 46.3309 43.1707 46.9997 43.0889 47.7257C43.0853 47.7398 43.085 47.7545 43.088 47.7687C43.091 47.7829 43.0974 47.7962 43.1064 47.8076C43.1155 47.8189 43.1271 47.828 43.1403 47.8341C43.1535 47.8401 43.1679 47.8431 43.1824 47.8426H48.9679C48.9812 47.8427 48.9944 47.84 49.0066 47.8346C49.0188 47.8291 49.0297 47.8212 49.0385 47.8112C49.0474 47.8013 49.054 47.7895 49.0579 47.7768C49.0619 47.7641 49.0631 47.7506 49.0614 47.7374C49.0045 46.9982 48.6585 46.3112 48.0984 45.8254C47.5382 45.3397 46.8092 45.0944 46.0693 45.1427Z" fill="#01A71C"/>
<path d="M58.4712 25.7387L46.199 39.5187C46.164 39.5566 46.1215 39.5868 46.0742 39.6075C46.0269 39.6282 45.9759 39.6388 45.9243 39.6388C45.8727 39.6388 45.8217 39.6282 45.7744 39.6075C45.7271 39.5868 45.6847 39.5566 45.6496 39.5187L39.385 33.0553C39.3319 32.989 39.3029 32.9065 39.3029 32.8216C39.3029 32.7366 39.3319 32.6541 39.385 32.5878L41.4537 29.9347C41.4883 29.8864 41.534 29.8471 41.5868 29.82C41.6397 29.7928 41.6982 29.7787 41.7576 29.7787C41.817 29.7787 41.8755 29.7928 41.9284 29.82C41.9812 29.8471 42.0269 29.8864 42.0615 29.9347L45.5678 33.815C45.6029 33.8568 45.6468 33.8904 45.6962 33.9134C45.7457 33.9365 45.7996 33.9484 45.8542 33.9484C45.9088 33.9484 45.9627 33.9365 46.0121 33.9134C46.0616 33.8904 46.1054 33.8568 46.1405 33.815L55.9116 20.4208C55.9388 20.3812 55.9548 20.335 55.9581 20.2871C55.9615 20.2392 55.9519 20.1913 55.9304 20.1484C55.9089 20.1054 55.8763 20.069 55.836 20.0429C55.7957 20.0168 55.7492 20.002 55.7012 20H21.2922C21.2147 20 21.1404 20.0308 21.0856 20.0856C21.0308 20.1404 21 20.2147 21 20.2922V59.4465C21 59.5239 21.0308 59.5983 21.0856 59.6531C21.1404 59.7079 21.2147 59.7386 21.2922 59.7386H58.6933C58.7708 59.7386 58.8451 59.7079 58.8999 59.6531C58.9547 59.5983 58.9855 59.5239 58.9855 59.4465V25.914C59.0087 25.8458 59.0039 25.7712 58.9721 25.7066C58.9404 25.6419 58.8842 25.5925 58.816 25.5693C58.7478 25.546 58.6732 25.5508 58.6085 25.5826C58.5438 25.6144 58.4945 25.6705 58.4712 25.7387ZM31.5892 55.3791C29.1339 55.5028 26.7271 54.6642 24.8804 53.0415C24.822 52.9753 24.7898 52.8901 24.7898 52.8019C24.7898 52.7137 24.822 52.6285 24.8804 52.5623L26.3413 50.5169C26.3655 50.4751 26.3977 50.4384 26.4362 50.4092C26.4747 50.3799 26.5187 50.3587 26.5655 50.3467C26.6124 50.3347 26.6611 50.3323 26.7089 50.3394C26.7567 50.3466 26.8026 50.3632 26.8439 50.3884C28.1785 51.6257 29.9329 52.3107 31.7528 52.3052C33.6696 52.3052 34.6046 51.4169 34.6046 50.4819C34.6046 47.5833 25.1609 49.5702 25.1609 43.3991C25.1609 40.6758 27.4984 38.4083 31.3788 38.4083C33.6057 38.3292 35.7857 39.06 37.5149 40.4654C37.5799 40.5329 37.6162 40.623 37.6162 40.7167C37.6162 40.8104 37.5799 40.9005 37.5149 40.968L36.0773 42.9666C36.0476 43.0064 36.0101 43.0396 35.967 43.0642C35.924 43.0889 35.8763 43.1044 35.827 43.1099C35.7777 43.1154 35.7278 43.1107 35.6804 43.0961C35.633 43.0815 35.589 43.0573 35.5514 43.025C34.2763 42.0116 32.6919 41.467 31.0632 41.4822C29.5672 41.4822 28.7257 42.1485 28.7257 43.1302C28.7257 45.7366 38.1461 43.9951 38.1461 50.1429C38.1461 53.1116 36.0072 55.3791 31.5775 55.3791H31.5892ZM52.1831 49.6871C52.1848 49.7305 52.1774 49.7738 52.1616 49.8143C52.1457 49.8547 52.1217 49.8914 52.0909 49.9222C52.0602 49.9529 52.0235 49.9769 51.983 49.9928C51.9426 50.0087 51.8993 50.016 51.8559 50.0144H43.2069C43.193 50.0158 43.1796 50.02 43.1674 50.0267C43.1552 50.0334 43.1444 50.0424 43.1357 50.0533C43.127 50.0641 43.1206 50.0766 43.1167 50.09C43.1129 50.1034 43.1118 50.1174 43.1134 50.1312C43.2536 50.9395 43.6913 51.6659 44.3402 52.1677C44.989 52.6695 45.8022 52.9104 46.6197 52.8428C47.6925 52.8201 48.7342 52.4783 49.6118 51.861C49.6461 51.8323 49.686 51.8112 49.7291 51.7991C49.7721 51.787 49.8172 51.7842 49.8614 51.7908C49.9056 51.7974 49.9479 51.8134 49.9854 51.8376C50.023 51.8618 50.055 51.8937 50.0793 51.9312L51.1312 53.4623C51.1751 53.5303 51.1922 53.6121 51.1792 53.692C51.1663 53.7718 51.1242 53.8441 51.0611 53.8947C49.6724 54.9081 47.9877 55.4341 46.2691 55.3908C45.4106 55.4387 44.5515 55.3066 43.747 55.0031C42.9425 54.6996 42.2103 54.2313 41.5974 53.6283C40.9844 53.0252 40.5043 52.3007 40.1877 51.5013C39.8711 50.7018 39.7251 49.845 39.759 48.9858C39.7352 48.1473 39.8816 47.3126 40.1894 46.5322C40.4973 45.7518 40.9601 45.0419 41.5501 44.4454C42.14 43.8489 42.8447 43.3783 43.6216 43.0618C44.3986 42.7454 45.2316 42.5897 46.0704 42.6043C49.7053 42.6043 52.1715 45.3275 52.1715 49.3131L52.1831 49.6871Z" fill="#01A71C"/>
</svg>
