<svg width="80" height="80" viewBox="0 0 80 80" fill="none" xmlns="http://www.w3.org/2000/svg">
<path d="M27.0209 53.8136H25.0916C25.0234 50.5699 24.8355 47.5205 24.5283 44.663H24.5111L21.5738 53.8136H20.1049L17.185 44.663H17.1683C16.9517 47.4065 16.8152 50.4567 16.7585 53.8136H15C15.1133 49.7314 15.3982 45.9044 15.8534 42.332H18.2446L21.0276 50.7686H21.0447L23.8449 42.332H26.1329C26.6339 46.5163 26.9299 50.3438 27.0209 53.8136ZM35.3879 45.3425C34.6024 49.5885 33.5659 52.6736 32.2797 54.5994C31.2776 56.0818 30.1797 56.8237 28.9841 56.8237C28.6654 56.8237 28.272 56.7279 27.806 56.5378V55.514C28.0338 55.5467 28.3011 55.5653 28.6083 55.5653C29.1668 55.5653 29.6156 55.4123 29.9579 55.1055C30.3672 54.732 30.5719 54.312 30.5719 53.8474C30.5719 53.5288 30.4123 52.8775 30.094 51.8912L27.9768 45.3421H29.8721L31.3917 50.2402C31.7332 51.3524 31.8756 52.1288 31.8186 52.5711C32.6496 50.3605 33.23 47.9501 33.5607 45.3418H35.3879V45.3425Z" fill="#5D87A1"/>
<path d="M61.0698 53.8126H55.5895V42.331H57.433V52.3993H61.0698V53.8126ZM54.1549 54.09L52.0359 53.0484C52.2238 52.8946 52.4035 52.7283 52.5653 52.5355C53.466 51.4817 53.9152 49.9231 53.9152 47.8588C53.9152 44.0603 52.4188 42.1602 49.4247 42.1602C47.9566 42.1602 46.8113 42.6422 45.9923 43.6065C45.0923 44.6612 44.6431 46.2141 44.6431 48.2673C44.6431 50.2856 45.0412 51.7661 45.8379 52.7052C46.5668 53.556 47.6654 53.9819 49.1347 53.9819C49.6827 53.9819 50.1856 53.9151 50.6438 53.7803L53.4026 55.38L54.1549 54.09ZM47.2904 51.5151C46.8236 50.7672 46.5903 49.5663 46.5903 47.9104C46.5903 45.0195 47.4719 43.5724 49.2372 43.5724C50.1599 43.5724 50.8362 43.9185 51.2686 44.6092C51.7347 45.3582 51.9692 46.5483 51.9692 48.1811C51.9692 51.0958 51.0867 52.5534 49.3226 52.5534C48.3995 52.5537 47.7232 52.2088 47.2904 51.5151ZM43.8397 50.6302C43.8397 51.6038 43.481 52.4026 42.7645 53.0283C42.0472 53.6514 41.0853 53.9637 39.8801 53.9637C38.7527 53.9637 37.6596 53.605 36.6016 52.8913L37.097 51.9054C38.0074 52.3595 38.8317 52.5853 39.5717 52.5853C40.2663 52.5853 40.8091 52.4319 41.2028 52.1278C41.5961 51.8226 41.8306 51.3944 41.8306 50.853C41.8306 50.1708 41.353 49.5878 40.4769 49.0995C39.669 48.6576 38.0533 47.7337 38.0533 47.7337C37.1776 47.0979 36.7391 46.4154 36.7391 45.291C36.7391 44.3604 37.0661 43.6091 37.7204 43.0376C38.3754 42.4639 39.2206 42.178 40.2566 42.178C41.3266 42.178 42.2992 42.4635 43.1753 43.0287L42.7309 44.015C41.9816 43.6979 41.2419 43.5393 40.5123 43.5393C39.9214 43.5393 39.4651 43.6808 39.1479 43.9649C38.828 44.2479 38.6308 44.6099 38.6308 45.054C38.6308 45.7329 39.1184 46.3233 40.0184 46.8213C40.8371 47.2639 42.4931 48.2038 42.4931 48.2038C43.3912 48.8384 43.8397 49.5146 43.8397 50.6302Z" fill="#F8981D"/>
<path d="M63.3843 38.4858C62.2696 38.4576 61.4066 38.5694 60.6822 38.8746C60.473 38.9578 60.1405 38.9578 60.1114 39.2211C60.2244 39.3325 60.2374 39.5122 60.3355 39.666C60.5025 39.9434 60.7937 40.3166 61.0595 40.5112C61.3514 40.734 61.6444 40.9545 61.9516 41.1488C62.4933 41.4826 63.1073 41.6768 63.6352 42.0095C63.9428 42.203 64.2485 42.4533 64.5564 42.6616C64.7078 42.7726 64.8047 42.9527 65.0012 43.0222V42.9799C64.9028 42.8551 64.8748 42.6746 64.7783 42.5357L64.36 42.1339C63.9558 41.5933 63.4537 41.1213 62.912 40.7336C62.4661 40.4276 61.4908 40.0117 61.31 39.5L61.2817 39.4718C61.5881 39.4432 61.9516 39.3325 62.2428 39.2475C62.7166 39.1231 63.1487 39.1513 63.6348 39.0269C63.8585 38.9712 64.0804 38.9014 64.3048 38.8327V38.7075C64.0528 38.4576 63.8731 38.1256 63.608 37.8895C62.8989 37.2793 62.1175 36.6826 61.31 36.1831C60.8776 35.905 60.3213 35.726 59.8609 35.4895C59.695 35.4059 59.4154 35.3647 59.3177 35.2258C59.0679 34.9206 58.9274 34.5188 58.7462 34.1574C58.3436 33.3951 57.9525 32.5491 57.605 31.743C57.3537 31.2023 57.2009 30.6623 56.8944 30.1621C55.4591 27.8041 53.9004 26.3759 51.5047 24.9741C50.9899 24.6822 50.3774 24.5578 49.7231 24.4048L48.6781 24.3498C48.4551 24.2526 48.2318 23.9885 48.0372 23.8638C47.2424 23.3647 45.196 22.2829 44.6115 23.7111C44.2349 24.6139 45.1684 25.5014 45.4891 25.9593C45.7258 26.2771 46.0326 26.6388 46.1982 26.9998C46.2962 27.2356 46.3238 27.4859 46.4218 27.735C46.6448 28.3455 46.8532 29.0247 47.1462 29.5944C47.2991 29.8847 47.4657 30.19 47.6611 30.4529C47.7729 30.6066 47.9675 30.6746 48.01 30.9253C47.8158 31.2015 47.8005 31.6186 47.689 31.9654C47.188 33.5328 47.3837 35.4746 48.0939 36.6265C48.3161 36.9734 48.8462 37.7368 49.5553 37.4442C50.1831 37.1947 50.0441 36.4041 50.2245 35.7108C50.2659 35.5433 50.2387 35.4334 50.3222 35.3235V35.3506C50.5164 35.7386 50.7125 36.1126 50.8926 36.5017C51.3247 37.1809 52.077 37.8887 52.7037 38.3592C53.0374 38.6102 53.3017 39.0395 53.7196 39.1929V39.1513H53.692C53.6074 39.0269 53.4836 38.9712 53.3725 38.8746C53.1212 38.6247 52.8431 38.3195 52.6481 38.0425C52.0643 37.2652 51.5476 36.4048 51.089 35.5169C50.8646 35.0862 50.6711 34.6153 50.4903 34.1853C50.4061 34.0193 50.4061 33.769 50.2663 33.6855C50.0567 33.9903 49.7514 34.2544 49.5986 34.6279C49.3335 35.2254 49.3059 35.9603 49.2075 36.7245L49.1527 36.7513C48.709 36.6403 48.5547 36.1831 48.3862 35.7951C47.969 34.8095 47.8989 33.2276 48.2609 32.0905C48.3578 31.7998 48.7773 30.884 48.6099 30.607C48.526 30.3415 48.2471 30.1904 48.0943 29.9813C47.9146 29.7184 47.7177 29.3857 47.5925 29.0938C47.2584 28.3173 47.0903 27.4569 46.7305 26.6808C46.5624 26.3191 46.2705 25.9448 46.0341 25.6117C45.7687 25.2374 45.4768 24.9737 45.2669 24.53C45.1975 24.3773 45.1002 24.1278 45.2117 23.9618C45.2389 23.8504 45.2956 23.8088 45.4067 23.7809C45.5871 23.6291 46.1027 23.8222 46.2835 23.9057C46.7999 24.1137 47.2316 24.3079 47.6625 24.599C47.8575 24.7383 48.0667 25.0019 48.3168 25.0714H48.6099C49.0546 25.1679 49.5561 25.0981 49.9747 25.2236C50.7125 25.4598 51.381 25.8063 51.9804 26.1802C53.8046 27.3325 55.3089 28.9698 56.3244 30.9253C56.4911 31.2439 56.5619 31.5357 56.714 31.8681C57.0074 32.5484 57.3702 33.2421 57.6613 33.9079C57.954 34.5596 58.2328 35.2251 58.6508 35.7665C58.8592 36.0576 59.6965 36.2102 60.0719 36.3629C60.3497 36.4873 60.7821 36.5979 61.0326 36.7505C61.5065 37.0413 61.9785 37.3751 62.424 37.6949C62.6458 37.8612 63.3429 38.2081 63.3843 38.4858ZM49.178 26.4305C48.9857 26.4285 48.7941 26.452 48.608 26.5003V26.5282H48.6348C48.7471 26.7499 48.942 26.9036 49.0811 27.0971C49.1933 27.3195 49.2906 27.5401 49.4006 27.7621L49.4274 27.7347C49.6239 27.5961 49.7216 27.3741 49.7216 27.041C49.637 26.943 49.6239 26.8471 49.5534 26.7499C49.4714 26.611 49.2906 26.5419 49.178 26.4305Z" fill="#5D87A1"/>
<path d="M64.7097 53.8113H64.9982V52.4047H64.5654L64.2123 53.3646L63.8287 52.4047H63.4119V53.8113H63.6844V52.7411H63.6997L64.1016 53.8113H64.3093L64.7097 52.7411V53.8113ZM62.3852 53.8113H62.6905V52.6431H63.0902V52.4043H61.9688V52.6431H62.3844L62.3852 53.8113Z" fill="#F8981D"/>
</svg>
