<svg width="150" height="20" viewBox="0 0 150 20" fill="none" xmlns="http://www.w3.org/2000/svg">
<path d="M135.184 19.6704V0.342782H142.506C143.794 0.342782 144.779 0.404307 145.458 0.527357C146.412 0.685564 147.211 0.988794 147.855 1.43705C148.499 1.87651 149.016 2.49615 149.404 3.29598C149.801 4.0958 150 4.97473 150 5.93276C150 7.57636 149.475 8.96946 148.424 10.1121C147.374 11.2459 145.476 11.8128 142.731 11.8128H137.752V19.6704H135.184ZM137.752 9.53197H142.77C144.43 9.53197 145.608 9.22435 146.306 8.6091C147.003 7.99385 147.352 7.1281 147.352 6.01187C147.352 5.20325 147.144 4.51329 146.73 3.94199C146.323 3.3619 145.785 2.97956 145.114 2.79499C144.682 2.68073 143.883 2.6236 142.718 2.6236H137.752V9.53197Z" fill="white"/>
<path d="M122.65 19.6704V0.342782H125.219V19.6704H122.65Z" fill="white"/>
<path d="M105.151 19.6704V2.6236H98.7557V0.342782H114.142V2.6236H107.72V19.6704H105.151Z" fill="white"/>
<path d="M72.9019 10.2571C72.9019 7.049 73.7669 4.53966 75.4971 2.72907C77.2272 0.90969 79.4605 0 82.197 0C83.9889 0 85.6043 0.42628 87.0431 1.27884C88.4819 2.1314 89.5765 3.32235 90.3268 4.85168C91.086 6.37223 91.4655 8.09932 91.4655 10.033C91.4655 11.993 91.0683 13.7464 90.2739 15.2933C89.4794 16.8403 88.3539 18.0136 86.8974 18.8134C85.441 19.6045 83.8697 20 82.1837 20C80.3565 20 78.7234 19.5605 77.2846 18.6816C75.8458 17.8027 74.7556 16.6029 74.0141 15.0824C73.2726 13.5619 72.9019 11.9534 72.9019 10.2571ZM75.55 10.2966C75.55 12.6258 76.1768 14.4628 77.4302 15.8075C78.6925 17.1435 80.2726 17.8115 82.1705 17.8115C84.1036 17.8115 85.6925 17.1347 86.9372 15.7811C88.1906 14.4276 88.8174 12.5071 88.8174 10.0198C88.8174 8.44649 88.5481 7.07537 88.0097 5.90639C87.48 4.72863 86.6988 3.81894 85.6661 3.17732C84.6421 2.52692 83.4901 2.20171 82.2102 2.20171C80.3918 2.20171 78.8249 2.82575 77.5097 4.07383C76.2033 5.31312 75.55 7.38739 75.55 10.2966Z" fill="white"/>
<path d="M56.2361 12.0897V9.82202L64.4586 9.80883V16.9809C63.1963 17.9829 61.8943 18.7387 60.5526 19.2485C59.2108 19.7495 57.8338 20 56.4214 20C54.5148 20 52.7802 19.5957 51.2178 18.7871C49.6642 17.9697 48.4902 16.7919 47.6957 15.2538C46.9013 13.7157 46.5041 11.9974 46.5041 10.0989C46.5041 8.21797 46.8969 6.46451 47.6825 4.8385C48.4769 3.20369 49.6156 1.99077 51.0986 1.19974C52.5816 0.408701 54.2897 0.0131839 56.2228 0.0131839C57.6264 0.0131839 58.8931 0.241705 60.0229 0.698748C61.1617 1.147 62.0532 1.77543 62.6976 2.58405C63.342 3.39266 63.8319 4.44737 64.1673 5.74819L61.8502 6.38101C61.5589 5.39662 61.197 4.62316 60.7644 4.06065C60.3319 3.49813 59.714 3.04988 58.9107 2.71589C58.1074 2.3731 57.2159 2.20171 56.2361 2.20171C55.062 2.20171 54.0469 2.38189 53.1907 2.74225C52.3344 3.09383 51.6415 3.55966 51.1119 4.13975C50.5911 4.71984 50.185 5.35706 49.8937 6.05142C49.3994 7.24676 49.1522 8.54318 49.1522 9.94067C49.1522 11.6634 49.4479 13.1048 50.0394 14.265C50.6396 15.4252 51.5091 16.2865 52.6478 16.849C53.7865 17.4116 54.9958 17.6928 56.2758 17.6928C57.388 17.6928 58.4738 17.4819 59.533 17.06C60.5923 16.6293 61.3956 16.1723 61.9429 15.6889V12.0897H56.2361Z" fill="white"/>
<path d="M19.8425 10.2571C19.8425 7.049 20.7076 4.53966 22.4377 2.72907C24.1679 0.90969 26.4011 0 29.1376 0C30.9295 0 32.5449 0.42628 33.9837 1.27884C35.4226 2.1314 36.5171 3.32235 37.2675 4.85168C38.0266 6.37223 38.4062 8.09932 38.4062 10.033C38.4062 11.993 38.0089 13.7464 37.2145 15.2933C36.42 16.8403 35.2946 18.0136 33.8381 18.8134C32.3816 19.6045 30.8103 20 29.1243 20C27.2971 20 25.6641 19.5605 24.2252 18.6816C22.7864 17.8027 21.6962 16.6029 20.9547 15.0824C20.2133 13.5619 19.8425 11.9534 19.8425 10.2571ZM22.4907 10.2966C22.4907 12.6258 23.1174 14.4628 24.3709 15.8075C25.6332 17.1435 27.2132 17.8115 29.1111 17.8115C31.0443 17.8115 32.6332 17.1347 33.8778 15.7811C35.1313 14.4276 35.758 12.5071 35.758 10.0198C35.758 8.44649 35.4888 7.07537 34.9503 5.90639C34.4207 4.72863 33.6395 3.81894 32.6067 3.17732C31.5827 2.52692 30.4308 2.20171 29.1508 2.20171C27.3324 2.20171 25.7656 2.82575 24.4503 4.07383C23.1439 5.31312 22.4907 7.38739 22.4907 10.2966Z" fill="white"/>
<path d="M0 19.6704V0.342782H2.56872V17.3896H12.1286V19.6704H0Z" fill="white"/>
</svg>
