<svg width="27" height="26" viewBox="0 0 27 26" fill="none" xmlns="http://www.w3.org/2000/svg">
<path d="M7.38 23.32L7.8945 22.4625C7.65716 22.3201 7.37141 22.2824 7.10528 22.3585L7.38 23.32ZM3.06 19L4.02782 19.2516C4.09099 19.0087 4.06048 18.7509 3.94235 18.5294L3.06 19ZM1.72651 24.1288L0.758691 23.8772L1.72651 24.1288ZM2.36554 24.7527L2.09081 23.7912L2.36554 24.7527ZM18.3971 17.5576L19.1371 18.2301L19.1376 18.2297L18.3971 17.5576ZM17.5101 18.1948L17.1314 17.2693L17.126 17.2715L17.5101 18.1948ZM12.8321 16.9366L12.2429 17.7445L12.2441 17.7455L12.8321 16.9366ZM11.0583 15.4246L10.3482 16.1288L10.3551 16.1356L11.0583 15.4246ZM9.54939 13.6588L8.73799 14.2433L8.74139 14.248L9.54939 13.6588ZM8.4894 11.8174L7.56797 12.206L7.56921 12.2089L8.4894 11.8174ZM8.29471 9.0094L9.22301 9.38128L9.22509 9.376L8.29471 9.0094ZM8.91665 8.1076L9.60232 8.83551L9.61005 8.82823L9.61763 8.82078L8.91665 8.1076ZM10.4796 7.6972L10.0474 8.59898L10.0542 8.60224L10.0611 8.6054L10.4796 7.6972ZM10.8419 7.9996L10.0201 8.56943L10.0268 8.57882L10.8419 7.9996ZM12.0966 9.7654L11.2814 10.3446L11.2855 10.3503L12.0966 9.7654ZM12.3129 10.1434L11.3876 10.5225L11.3907 10.5302L11.394 10.5378L12.3129 10.1434ZM12.2751 10.8562L11.4212 10.3357L11.4128 10.3495L11.4048 10.3636L12.2751 10.8562ZM11.9722 11.2396L11.2657 10.532L11.2588 10.5388L11.2521 10.5458L11.9722 11.2396ZM11.5612 11.6662L12.2678 12.3738L12.2746 12.367L12.2813 12.36L11.5612 11.6662ZM11.4909 12.0064L10.5209 12.2493L10.5347 12.3046L10.5548 12.358L11.4909 12.0064ZM11.5342 12.1144L10.5856 12.4311L10.6139 12.5156L10.6566 12.5938L11.5342 12.1144ZM12.0371 12.8056L11.2742 13.4521L11.2814 13.4605L12.0371 12.8056ZM12.8213 13.6588L12.108 14.3597L12.1146 14.3664L12.1214 14.373L12.8213 13.6588ZM13.6812 14.4526L13.0345 15.2154L13.0358 15.2165L13.6812 14.4526ZM14.3788 14.9494L13.9115 15.8335L13.9585 15.8583L14.0079 15.8781L14.3788 14.9494ZM14.4762 14.9926L14.0828 15.912L14.1039 15.921L14.1255 15.9291L14.4762 14.9926ZM14.8331 14.9224L14.1312 14.2101L14.1265 14.2148L14.8331 14.9224ZM15.2441 14.5174L15.946 15.2297L15.9507 15.225L15.2441 14.5174ZM15.6335 14.215L16.0955 15.1019L16.1248 15.0867L16.1529 15.0695L15.6335 14.215ZM16.726 14.3824L17.3043 13.5666L17.296 13.5608L17.2877 13.5551L16.726 14.3824ZM18.516 15.6514L17.9377 16.4673L17.9474 16.474L18.516 15.6514ZM18.8135 15.997L19.7418 15.6251L19.7354 15.6093L19.7286 15.5938L18.8135 15.997ZM6.8655 24.1775C8.8227 25.3518 11.1608 26 13.5 26V24C11.5192 24 9.5373 23.4482 7.8945 22.4625L6.8655 24.1775ZM13.5 26C20.6523 26 26.5 20.1523 26.5 13H24.5C24.5 19.0477 19.5477 24 13.5 24V26ZM26.5 13C26.5 5.84772 20.6523 0 13.5 0V2C19.5477 2 24.5 6.95229 24.5 13H26.5ZM13.5 0C6.34772 0 0.5 5.84772 0.5 13H2.5C2.5 6.95229 7.45229 2 13.5 2V0ZM0.5 13C0.5 15.3473 1.1521 17.5477 2.17765 19.4706L3.94235 18.5294C3.0479 16.8523 2.5 14.9727 2.5 13H0.5ZM2.09218 18.7484L0.758691 23.8772L2.69434 24.3804L4.02782 19.2516L2.09218 18.7484ZM2.64026 25.7142L7.65472 24.2815L7.10528 22.3585L2.09081 23.7912L2.64026 25.7142ZM0.758691 23.8772C0.463824 25.0113 1.51354 26.0361 2.64026 25.7142L2.09081 23.7912C2.45222 23.6879 2.78892 24.0167 2.69434 24.3804L0.758691 23.8772ZM17.9 16.4182C17.9 16.4624 17.8906 16.5164 17.8608 16.5793L19.6688 17.4343C19.823 17.1084 19.9 16.7628 19.9 16.4182H17.9ZM17.8608 16.5793C17.8086 16.6896 17.7435 16.7898 17.6566 16.8855L19.1376 18.2297C19.3643 17.9798 19.5371 17.7128 19.6688 17.4343L17.8608 16.5793ZM17.657 16.8851C17.4802 17.0796 17.308 17.197 17.1314 17.2693L17.8889 19.1203C18.3721 18.9226 18.784 18.6188 19.1371 18.2301L17.657 16.8851ZM17.126 17.2715C16.9279 17.354 16.7074 17.4 16.4556 17.4V19.4C16.9609 19.4 17.4434 19.3057 17.8943 19.1181L17.126 17.2715ZM16.4556 17.4C16.0618 17.4 15.6056 17.3075 15.084 17.0856L14.301 18.926C15.0233 19.2333 15.746 19.4 16.4556 19.4V17.4ZM15.084 17.0856C14.5386 16.8536 13.9821 16.5363 13.4201 16.1278L12.2441 17.7455C12.9152 18.2333 13.6025 18.6288 14.301 18.926L15.084 17.0856ZM13.4214 16.1287C12.8407 15.7051 12.2892 15.2354 11.7614 14.7136L10.3551 16.1356C10.9523 16.7262 11.5797 17.2609 12.2429 17.7445L13.4214 16.1287ZM11.7682 14.7204C11.2454 14.1932 10.7754 13.6429 10.3574 13.0696L8.74139 14.248C9.22109 14.9059 9.75706 15.5328 10.3483 16.1288L11.7682 14.7204ZM10.3608 13.0743C9.95256 12.5076 9.63523 11.9563 9.4096 11.4259L7.56921 12.2089C7.86275 12.8989 8.2593 13.5788 8.73801 14.2433L10.3608 13.0743ZM9.41083 11.4288C9.19344 10.9133 9.10002 10.457 9.10002 10.0516H7.10002C7.10002 10.7695 7.26619 11.4903 7.56798 12.206L9.41083 11.4288ZM9.10002 10.0516C9.10002 9.8031 9.1437 9.57921 9.223 9.38127L7.36643 8.63753C7.18613 9.0876 7.10002 9.5657 7.10002 10.0516H9.10002ZM9.22509 9.376C9.29759 9.19201 9.41607 9.01095 9.60232 8.83551L8.23097 7.37969C7.84396 7.74425 7.55142 8.168 7.36433 8.6428L9.22509 9.376ZM9.61763 8.82078C9.81267 8.62907 9.94998 8.6 10.0415 8.6V6.6C9.33269 6.6 8.71286 6.90573 8.21566 7.39442L9.61763 8.82078ZM10.0415 8.6C10.0463 8.6 10.05 8.60054 10.0519 8.60098C10.0539 8.6014 10.0522 8.6013 10.0474 8.59898L10.9118 6.79542C10.6331 6.66186 10.3328 6.6 10.0415 6.6V8.6ZM10.0611 8.6054C10.06 8.60492 10.0526 8.60125 10.0424 8.59294C10.032 8.58433 10.0243 8.57542 10.0201 8.56939L11.6637 7.42981C11.4563 7.13061 11.1872 6.9222 10.8981 6.789L10.0611 8.6054ZM10.0268 8.57882L11.2814 10.3446L12.9118 9.18618L11.6571 7.42038L10.0268 8.57882ZM11.2855 10.3503C11.3466 10.435 11.3745 10.4905 11.3876 10.5225L13.2383 9.76428C13.154 9.55866 13.0414 9.36583 12.9077 9.18052L11.2855 10.3503ZM11.394 10.5378C11.3975 10.5459 11.3968 10.5463 11.3949 10.5382C11.3932 10.5305 11.3887 10.5082 11.3887 10.4728H13.3887C13.3887 10.2023 13.3196 9.9534 13.2319 9.74898L11.394 10.5378ZM11.3887 10.4728C11.3887 10.4008 11.4112 10.3522 11.4212 10.3357L13.1289 11.3767C13.2904 11.1118 13.3887 10.804 13.3887 10.4728H11.3887ZM11.4048 10.3636C11.3905 10.3889 11.3501 10.4476 11.2657 10.532L12.6788 11.9472C12.8539 11.7724 13.0191 11.5719 13.1453 11.3488L11.4048 10.3636ZM11.2521 10.5458L10.8411 10.9724L12.2813 12.36L12.6924 11.9334L11.2521 10.5458ZM10.8546 10.9586C10.5919 11.2209 10.4747 11.5528 10.4747 11.8822H12.4747C12.4747 11.9449 12.4645 12.0338 12.4251 12.1329C12.385 12.234 12.3269 12.3148 12.2678 12.3738L10.8546 10.9586ZM10.4747 11.8822C10.4747 12.0203 10.4936 12.1403 10.5209 12.2493L12.461 11.7635C12.4628 11.7709 12.4668 11.7881 12.4699 11.8119C12.4732 11.8366 12.4747 11.8606 12.4747 11.8822H10.4747ZM10.5548 12.358C10.5716 12.4029 10.5887 12.4424 10.5938 12.4546C10.5974 12.463 10.5972 12.4628 10.5962 12.4602C10.5949 12.4568 10.5907 12.4463 10.5856 12.4311L12.4827 11.7977C12.4632 11.7393 12.4416 11.6892 12.4353 11.6743C12.4256 11.6514 12.4264 11.6531 12.4271 11.6548L10.5548 12.358ZM10.6566 12.5938C10.8013 12.8587 11.0186 13.1504 11.2742 13.4521L12.8 12.1591C12.5798 11.8992 12.4618 11.7265 12.4118 11.635L10.6566 12.5938ZM11.2814 13.4605C11.535 13.7531 11.8089 14.0553 12.108 14.3597L13.5346 12.9579C13.2713 12.6899 13.026 12.4197 12.7928 12.1507L11.2814 13.4605ZM12.1214 14.373C12.4215 14.6671 12.7219 14.9503 13.0345 15.2154L14.3279 13.6898C14.0672 13.4689 13.8052 13.2229 13.5212 12.9446L12.1214 14.373ZM13.0358 15.2165C13.3467 15.4791 13.6404 15.6902 13.9115 15.8335L14.8462 14.0653C14.7495 14.0142 14.5782 13.9013 14.3266 13.6887L13.0358 15.2165ZM14.0079 15.8781C13.9994 15.8747 13.9945 15.8725 13.9955 15.8729C13.9966 15.8734 13.9993 15.8746 14.0073 15.8783C14.02 15.8841 14.05 15.8979 14.0828 15.912L14.8696 14.0732C14.8645 14.0711 14.8594 14.0687 14.8396 14.0597C14.8314 14.0559 14.8185 14.05 14.8048 14.044C14.7909 14.0378 14.7718 14.0295 14.7497 14.0207L14.0079 15.8781ZM14.1255 15.9291C14.3148 16 14.4854 16.0142 14.6114 16.0142V14.0142C14.64 14.0142 14.7241 14.0176 14.8268 14.0561L14.1255 15.9291ZM14.6114 16.0142C14.9822 16.0142 15.3028 15.8666 15.5397 15.63L14.1265 14.2148C14.1735 14.1679 14.2452 14.112 14.3431 14.0703C14.4419 14.0283 14.5361 14.0142 14.6114 14.0142V16.0142ZM15.535 15.6347L15.946 15.2297L14.5423 13.8051L14.1312 14.2101L15.535 15.6347ZM15.9507 15.225C15.9954 15.1804 16.0312 15.1493 16.058 15.1283C16.0851 15.1072 16.0976 15.1008 16.0955 15.1019L15.1715 13.3281C14.9246 13.4568 14.7132 13.6343 14.5376 13.8098L15.9507 15.225ZM16.1529 15.0695C16.1513 15.0705 16.1353 15.0799 16.1065 15.0885C16.0767 15.0973 16.0455 15.1016 16.0175 15.1016V13.1016C15.6776 13.1016 15.3756 13.2016 15.1141 13.3605L16.1529 15.0695ZM16.0175 15.1016C15.9978 15.1016 15.9818 15.0994 15.9713 15.0972C15.9612 15.0951 15.9601 15.0938 15.9692 15.0975L16.7255 13.2461C16.503 13.1551 16.2666 13.1016 16.0175 13.1016V15.1016ZM15.9692 15.0975C16.0043 15.1119 16.0662 15.1431 16.1642 15.2097L17.2877 13.5551C17.1153 13.4381 16.9284 13.3289 16.7255 13.2461L15.9692 15.0975ZM16.1476 15.1982L17.9377 16.4672L19.0944 14.8356L17.3043 13.5666L16.1476 15.1982ZM17.9474 16.474C17.9566 16.4804 17.9501 16.4773 17.937 16.4621C17.9231 16.446 17.9091 16.4244 17.8984 16.4002L19.7286 15.5938C19.5839 15.2654 19.3539 15.0149 19.0847 14.8288L17.9474 16.474ZM17.8852 16.3689C17.8951 16.3935 17.8982 16.4062 17.8992 16.4107C17.8999 16.4143 17.9 16.4157 17.9 16.4182H19.9C19.9 16.1136 19.8325 15.8516 19.7418 15.6251L17.8852 16.3689Z" fill="white"/>
</svg>
